<?xml version="1.0" encoding="utf-8"?>
<!-- Generator: Adobe Illustrator 23.0.5, SVG Export Plug-In . SVG Version: 6.00 Build 0)  -->
<svg version="1.1" id="Capa_1" xmlns="http://www.w3.org/2000/svg" xmlns:xlink="http://www.w3.org/1999/xlink" x="0px" y="0px"
	 viewBox="0 0 554.24 417.76" style="enable-background:new 0 0 554.24 417.76;" xml:space="preserve">
<style type="text/css">
	.st0{fill:#6595BF;}
	.st1{fill:#D9A171;}
	.st2{fill:#5E6178;}
	.st3{opacity:0.69;fill:#FFD947;enable-background:new    ;}
	.st4{fill:#FFD947;}
	.st5{fill:#5574D8;}
	.st6{fill:#AED3F2;}
	.st7{fill:#F2E9E4;}
	.st8{opacity:0.69;fill:#363950;enable-background:new    ;}
	.st9{fill:#344154;}
	.st10{fill:#363950;}
	.st11{fill:#FFBE9D;}
	.st12{fill:#F0B292;}
	.st13{fill:#D39C80;}
	.st14{fill:#121936;}
	.st15{fill:none;stroke:#FF6969;stroke-width:5;stroke-linecap:round;stroke-linejoin:round;stroke-opacity:0;}
	.st16{fill:#B6AFAB;}
	.st17{fill:#A5958B;}
	.st18{fill:#BBC7F9;}
	.st19{opacity:0.47;fill:#6595BF;enable-background:new    ;}
	.st20{opacity:0.4;fill:#AED3F2;}
	.st21{opacity:0.36;fill:#D89E81;enable-background:new    ;}
	.st22{fill:#D89E81;}
	.st23{fill:#FFFFFF;}
	.st24{opacity:0.36;fill:#AFAFAF;enable-background:new    ;}
	.st25{fill:#F6F6F6;}
	.st26{opacity:0.36;fill:#FF6969;enable-background:new    ;}
	.st27{fill:#FFD084;}
	.st28{fill:none;}
	.st29{fill:#E8E8E8;}
	.st30{fill:#AFAFAF;}
</style>
<g id="Grupo_70096" transform="translate(-824.011 -125)">
	<g id="Grupo_70069">
		<path id="Trazado_132887" class="st0" d="M1023.07,204.23c-69.36,31.97-158.3,185.95-125.37,257.41
			c32.93,71.46,175.27,33.33,244.62,1.36c69.35-31.97,98.88-115.8,65.95-187.26S1092.43,172.27,1023.07,204.23z"/>
		<path id="Trazado_132888" class="st1" d="M840.84,304.61c0,100.12,180.22,209.48,279.63,209.48s206.23-109.36,206.23-209.48
			s-41.94-167.93-188.76-92.01C1049.51,258.34,840.84,204.49,840.84,304.61z"/>
	</g>
	<g id="Grupo_60610" transform="translate(840.813 125)">
		<g id="Grupo_60596" transform="translate(0 77.957)">
			<path id="Trazado_121111" class="st2" d="M39.85,65.63l1.33-31.41c0.16-3.63,3.23-6.45,6.87-6.29c0.53,0.02,1.06,0.11,1.57,0.26
				l29.88,8.79c3.39,0.97,5.36,4.5,4.39,7.9c-0.92,3.24-4.21,5.21-7.51,4.49l-13.75-3.44l54.85,76.5l28.4-44.89
				c2.68-4.23,8.28-5.49,12.51-2.81c1.21,0.77,2.22,1.81,2.95,3.04l52.06,88.01l47.64-110.83c1.98-4.6,7.31-6.73,11.91-4.75
				c1.48,0.64,2.77,1.66,3.72,2.96l85.44,116.24l46.72-83.95c2.44-4.38,7.96-5.95,12.34-3.51c1.14,0.63,2.12,1.5,2.89,2.55
				l48.43,65.93c2.17,2.78,1.67,6.8-1.11,8.97c-2.78,2.17-6.8,1.67-8.97-1.11c-0.07-0.1-0.15-0.19-0.22-0.29l-45.01-61.25
				l-46.72,83.96c-2.44,4.37-7.96,5.94-12.34,3.5c-1.13-0.63-2.12-1.5-2.89-2.55l-85.02-115.7l-47.99,111.59
				c-1.97,4.61-7.29,6.75-11.9,4.78c-1.79-0.76-3.28-2.08-4.26-3.75l-52.68-89.07l-28.07,44.42c-2.68,4.23-8.28,5.49-12.51,2.81
				c-0.99-0.62-1.84-1.43-2.52-2.38l-57.2-79.78l-0.48,11.6c-0.13,2.9-2.2,5.35-5.04,5.96c-0.53,0.11-1.07,0.16-1.61,0.14
				C42.45,72.09,39.73,69.14,39.85,65.63L39.85,65.63z"/>
			<g id="Grupo_60595" transform="translate(0 48.119)">
				<path id="Trazado_121112" class="st3" d="M87.32,68.95l30.92-31.91c0.51-0.49,0.52-1.3,0.03-1.8c-0.49-0.51-1.3-0.52-1.8-0.03
					c-0.02,0.02-0.04,0.04-0.06,0.06L87.24,65.36L54.3,34.47L14.69,65.19c-0.56,0.43-0.66,1.23-0.23,1.79
					c0.43,0.56,1.23,0.66,1.79,0.23l0,0l37.9-29.38L87.32,68.95z"/>
				<circle id="Elipse_4319" class="st4" cx="117.35" cy="36.15" r="8.23"/>
				<circle id="Elipse_4320" class="st4" cx="54.23" cy="36.15" r="8.23"/>
				<circle id="Elipse_4321" class="st4" cx="87.24" cy="66.21" r="8.23"/>
				<circle id="Elipse_4322" class="st4" cx="15.43" cy="66.21" r="8.23"/>
			</g>
		</g>
		<g id="Grupo_60604" transform="translate(93.232 4.801)">
			<g id="Grupo_60597" transform="translate(327.79 206.916)">
				<circle id="Elipse_4323" class="st5" cx="53.49" cy="74.21" r="32.73"/>
				<ellipse id="Elipse_4324" class="st6" cx="54.62" cy="69.87" rx="32.73" ry="32.73"/>
				<path id="Trazado_121113" class="st0" d="M54.63,98.86c-15.65,0.01-28.34-12.67-28.35-28.32S38.95,42.19,54.6,42.19
					s28.34,12.67,28.35,28.32c0,4.22-0.94,8.38-2.75,12.19l0,0c-3.23,6.79-9.05,12-16.16,14.46C61.02,98.25,57.84,98.83,54.63,98.86
					L54.63,98.86z M54.63,43.03C39.45,43.03,27.14,55.32,27.14,70.5C27.13,85.67,39.42,97.98,54.6,97.99
					c10.59,0.01,20.23-6.07,24.8-15.62l0,0c6.53-13.71,0.71-30.12-13-36.65C62.72,43.96,58.7,43.04,54.63,43.03z"/>
				<path id="Trazado_121114" class="st0" d="M56.33,83.05c-1.62,0.28-3.26,0.33-4.89,0.16c-1.38-0.13-2.74-0.44-4.04-0.92
					c-0.61-0.21-1.07-0.71-1.23-1.33c-0.13-0.48-0.06-1,0.2-1.43c0.26-0.44,0.69-0.75,1.18-0.85c0.44-0.1,0.91-0.09,1.34,0.04
					c1.22,0.36,2.46,0.61,3.72,0.74c1.35,0.12,2.7,0.01,4.01-0.34c0.51-0.12,1-0.27,1.49-0.46c0.46-0.18,0.9-0.39,1.32-0.65
					c0.39-0.24,0.75-0.52,1.07-0.85c0.3-0.28,0.55-0.61,0.76-0.96c0.2-0.35,0.33-0.74,0.38-1.14c0.05-0.44,0.02-0.9-0.1-1.33
					c-0.18-0.81-0.71-1.5-1.45-1.89c-1.02-0.46-2.14-0.67-3.26-0.62h-4.51c-0.74,0.02-1.48-0.01-2.22-0.07
					c-0.59-0.07-1.23-0.08-1.91-0.16c-0.58-0.06-1.14-0.18-1.7-0.34c-0.48-0.16-0.95-0.36-1.39-0.6c-0.45-0.24-0.85-0.55-1.18-0.94
					c-0.34-0.41-0.63-0.85-0.85-1.33c-0.29-0.58-0.51-1.19-0.65-1.81c-0.15-0.61-0.23-1.23-0.22-1.85c0.01-0.58,0.11-1.15,0.28-1.7
					c0.17-0.53,0.41-1.04,0.71-1.51c0.31-0.49,0.68-0.95,1.11-1.35c0.45-0.43,0.95-0.82,1.47-1.16c0.56-0.36,1.15-0.69,1.76-0.97
					c0.66-0.3,1.34-0.56,2.03-0.79l-1.31-5.27c-0.14-0.45-0.08-0.94,0.17-1.35c0.24-0.37,0.61-0.62,1.04-0.72
					c0.44-0.11,0.9-0.05,1.29,0.16c0.42,0.22,0.71,0.62,0.81,1.09l1.32,5.32c0.91-0.14,1.82-0.2,2.74-0.19
					c0.76,0,1.52,0.05,2.28,0.15c0.59,0.08,1.19,0.2,1.76,0.32c0.82,0.09,1.51,0.68,1.7,1.49c0.04,0.18,0.06,0.36,0.05,0.54
					c-0.01,0.18-0.05,0.35-0.12,0.52c-0.07,0.16-0.15,0.32-0.25,0.46c-0.11,0.15-0.25,0.28-0.41,0.37c-0.18,0.1-0.37,0.18-0.57,0.23
					l-0.3,0.05H59.1c-0.24-0.01-0.48-0.04-0.72-0.08l-1.01-0.12c-0.36,0-0.72-0.02-1.08-0.06c-0.44-0.03-0.88-0.03-1.32,0
					c-0.44,0.01-0.88,0.06-1.32,0.13c-0.5,0.06-1,0.15-1.49,0.27c-0.89,0.21-1.74,0.53-2.55,0.95c-0.68,0.34-1.27,0.85-1.7,1.49
					c-0.39,0.59-0.51,1.33-0.32,2.02c0.11,0.77,0.59,1.43,1.28,1.79c1.13,0.34,2.32,0.47,3.5,0.4h4.42c2.25-0.13,4.5,0.33,6.52,1.33
					c1.54,0.95,2.61,2.49,2.97,4.25c0.63,2.07,0.28,4.31-0.95,6.09c-1.42,1.86-3.38,3.23-5.61,3.93L61,87.39
					c0.14,0.46,0.06,0.96-0.21,1.35c-0.26,0.38-0.65,0.65-1.1,0.75c-0.28,0.07-0.57,0.07-0.85,0c-0.28-0.07-0.54-0.21-0.75-0.42
					c-0.24-0.23-0.4-0.53-0.47-0.85L56.33,83.05z"/>
			</g>
			<g id="Grupo_60598" transform="translate(284.202 185.965)">
				<ellipse id="Elipse_4325" class="st5" cx="32.95" cy="51.33" rx="22.99" ry="22.99"/>
				<ellipse id="Elipse_4326" class="st6" cx="33.87" cy="54.81" rx="22.99" ry="22.99"/>
				<path id="Trazado_121115" class="st0" d="M32.99,34.22c11.05-0.02,20.03,8.92,20.05,19.98c0.02,11.05-8.92,20.03-19.98,20.05
					c-11.05,0.02-20.03-8.92-20.05-19.98c0-1.64,0.2-3.27,0.59-4.86l0,0C15.83,40.5,23.81,34.24,32.99,34.22z M32.99,73.4
					c10.59,0,19.16-8.59,19.16-19.17c0-10.59-8.59-19.16-19.17-19.16c-8.79,0-16.45,5.99-18.59,14.51l0,0
					c-2.57,10.27,3.68,20.68,13.96,23.25C29.87,73.21,31.43,73.4,32.99,73.4z"/>
				<path id="Trazado_121116" class="st0" d="M30.1,45.83c1.07-0.42,2.2-0.69,3.34-0.8c0.97-0.11,1.95-0.09,2.91,0.06
					c0.45,0.06,0.83,0.34,1.03,0.74c0.16,0.31,0.18,0.68,0.06,1.01c-0.11,0.35-0.36,0.63-0.69,0.77c-0.29,0.13-0.62,0.19-0.94,0.16
					c-0.88-0.09-1.78-0.09-2.66,0c-0.94,0.1-1.86,0.37-2.71,0.79c-0.33,0.16-0.65,0.34-0.96,0.54c-0.3,0.18-0.59,0.39-0.85,0.62
					c-0.23,0.22-0.44,0.46-0.62,0.72c-0.16,0.24-0.29,0.49-0.38,0.77c-0.09,0.27-0.12,0.56-0.09,0.85c0.03,0.31,0.11,0.61,0.24,0.89
					c0.24,0.54,0.7,0.94,1.27,1.1c0.77,0.18,1.56,0.18,2.33,0l3.11-0.61c0.61-0.12,1.12-0.21,1.53-0.27s0.85-0.12,1.34-0.15
					c0.41-0.04,0.82-0.04,1.22,0c0.35,0.04,0.7,0.11,1.04,0.21c0.34,0.1,0.66,0.26,0.94,0.48c0.3,0.23,0.56,0.5,0.79,0.8
					c0.28,0.35,0.52,0.74,0.71,1.15c0.2,0.39,0.33,0.82,0.41,1.25c0.07,0.4,0.09,0.8,0.05,1.2c-0.04,0.39-0.14,0.77-0.28,1.14
					c-0.14,0.38-0.33,0.75-0.57,1.09c-0.25,0.36-0.54,0.7-0.85,1c-0.34,0.33-0.69,0.63-1.07,0.91c-0.41,0.31-0.84,0.6-1.29,0.85
					l1.64,3.4c0.16,0.29,0.19,0.64,0.08,0.95c-0.12,0.28-0.33,0.52-0.61,0.65c-0.28,0.13-0.61,0.16-0.91,0.08
					c-0.32-0.1-0.58-0.33-0.71-0.64l-1.66-3.47c-1.11,0.39-2.26,0.64-3.44,0.73h-1.26c-0.58,0.05-1.12-0.26-1.37-0.78
					c-0.05-0.12-0.09-0.24-0.11-0.37c-0.02-0.12-0.02-0.25,0-0.37c0.03-0.12,0.06-0.24,0.11-0.35c0.06-0.12,0.13-0.22,0.23-0.31
					c0.11-0.1,0.23-0.18,0.36-0.25l0.21-0.07l0.22-0.06h0.24l0.51-0.04l0.71-0.07c0.25-0.02,0.51-0.06,0.76-0.11
					c0.3-0.05,0.6-0.11,0.9-0.19c0.25-0.07,0.55-0.15,0.85-0.26c0.34-0.11,0.67-0.25,0.99-0.4c0.59-0.27,1.14-0.61,1.63-1.02
					c0.42-0.33,0.74-0.76,0.94-1.26c0.35-1.02-0.19-2.13-1.2-2.48c-0.83-0.07-1.66,0.01-2.47,0.22l-3.04,0.63
					c-1.53,0.4-3.14,0.4-4.67,0c-1.2-0.45-2.16-1.37-2.65-2.55c-0.72-1.34-0.79-2.93-0.2-4.33c0.71-1.48,1.87-2.7,3.31-3.49
					l-1.62-3.4c-0.16-0.3-0.18-0.65-0.05-0.96c0.13-0.3,0.36-0.53,0.65-0.66c0.17-0.09,0.36-0.13,0.55-0.13
					c0.2,0.01,0.4,0.07,0.57,0.18c0.2,0.13,0.35,0.31,0.45,0.53L30.1,45.83z"/>
			</g>
			<g id="Grupo_60599" transform="translate(295.866 265.425)">
				<ellipse id="Elipse_4327" class="st5" cx="32.22" cy="52.94" rx="18.21" ry="18.21"/>
				<circle id="Elipse_4328" class="st6" cx="33.58" cy="51.93" r="18.21"/>
				<path id="Trazado_121117" class="st0" d="M33.66,67.97c-8.84,0.01-16.02-7.15-16.03-15.99c-0.01-8.84,7.15-16.02,15.99-16.03
					c8.84-0.01,16.02,7.15,16.03,15.99c0.01,7-4.52,13.19-11.2,15.29C36.9,67.72,35.29,67.97,33.66,67.97z M33.66,36.9
					c-8.32-0.02-15.08,6.72-15.1,15.04c-0.02,8.32,6.72,15.08,15.04,15.1C41.92,67.05,48.68,60.32,48.7,52
					c0-1.37-0.18-2.74-0.55-4.07C46.32,41.44,40.41,36.94,33.66,36.9L33.66,36.9z"/>
				<path id="Trazado_121118" class="st0" d="M34.34,59.03c-0.9,0.12-1.82,0.12-2.72,0c-0.77-0.1-1.52-0.3-2.24-0.6
					c-0.33-0.13-0.58-0.41-0.66-0.76c-0.06-0.27-0.01-0.56,0.14-0.79c0.15-0.25,0.39-0.42,0.67-0.47c0.25-0.05,0.51-0.03,0.75,0.05
					c0.67,0.23,1.36,0.39,2.06,0.48c0.75,0.1,1.5,0.06,2.24-0.1c0.3-0.07,0.58-0.15,0.85-0.23c0.26-0.09,0.51-0.2,0.75-0.33
					c0.22-0.12,0.43-0.27,0.61-0.43c0.17-0.16,0.32-0.33,0.44-0.53c0.11-0.19,0.19-0.4,0.23-0.62c0.05-0.24,0.05-0.5,0-0.74
					c-0.08-0.46-0.36-0.85-0.77-1.08c-0.56-0.27-1.18-0.42-1.8-0.42l-2.5-0.1l-1.23-0.08c-0.36-0.03-0.71-0.07-1.06-0.14
					c-0.32-0.04-0.63-0.12-0.94-0.22c-0.27-0.09-0.52-0.21-0.77-0.36c-0.24-0.14-0.46-0.33-0.64-0.54
					c-0.19-0.23-0.34-0.49-0.46-0.76c-0.14-0.33-0.25-0.67-0.33-1.02c-0.07-0.34-0.1-0.69-0.08-1.04c0.01-0.32,0.08-0.64,0.19-0.94
					c0.1-0.3,0.25-0.59,0.43-0.85c0.19-0.27,0.4-0.51,0.65-0.73c0.26-0.23,0.55-0.44,0.85-0.61c0.32-0.19,0.66-0.35,1-0.5
					c0.37-0.15,0.75-0.29,1.14-0.4l-0.62-2.95c-0.07-0.26-0.02-0.53,0.13-0.75c0.14-0.2,0.35-0.33,0.59-0.38
					c0.24-0.06,0.5-0.02,0.71,0.11c0.23,0.13,0.4,0.36,0.43,0.62l0.63,2.99c0.51-0.06,1.01-0.08,1.52-0.05
					c0.42,0.02,0.84,0.06,1.26,0.13c0.33,0.06,0.66,0.13,0.98,0.21c0.45,0.07,0.8,0.41,0.9,0.85c0.01,0.1,0.01,0.2,0,0.3
					c-0.01,0.1-0.03,0.2-0.08,0.29c-0.04,0.09-0.09,0.17-0.15,0.25c-0.06,0.08-0.14,0.15-0.23,0.2c-0.1,0.06-0.21,0.1-0.32,0.12
					h-0.54l-0.41-0.06l-0.56-0.08l-0.6-0.05c-0.24-0.02-0.49-0.02-0.73,0c-0.25,0-0.5,0.01-0.74,0.04
					c-0.29,0.02-0.57,0.06-0.85,0.12c-0.5,0.1-0.99,0.26-1.45,0.48c-0.38,0.18-0.71,0.46-0.96,0.8c-0.23,0.32-0.31,0.73-0.21,1.12
					c0.04,0.43,0.3,0.82,0.68,1.02c0.62,0.21,1.28,0.31,1.94,0.29l2.46,0.08c1.25-0.03,2.49,0.26,3.59,0.85
					c0.84,0.56,1.41,1.44,1.57,2.44c0.32,1.17,0.08,2.43-0.65,3.4c-0.82,1.01-1.94,1.73-3.2,2.07l0.61,2.92
					c0.07,0.26,0.02,0.53-0.14,0.74c-0.15,0.21-0.38,0.35-0.63,0.39c-0.15,0.04-0.3,0.04-0.45,0c-0.34-0.1-0.59-0.39-0.65-0.73
					L34.34,59.03z"/>
			</g>
			<g id="Grupo_60603" transform="translate(0 0)">
				<g id="Grupo_60600" transform="translate(-26.239 -4.802)">
					<ellipse id="Elipse_4329" class="st5" cx="46.3" cy="63.27" rx="32.74" ry="32.74"/>
					<ellipse id="Elipse_4330" class="st6" cx="48.44" cy="75.13" rx="32.7" ry="32.7"/>
					<path id="Trazado_121119" class="st0" d="M49.32,90.21c-2.99,0-5.96-0.48-8.8-1.4c-14.78-4.84-22.83-20.75-17.99-35.53
						c4.84-14.78,20.75-22.83,35.53-17.99s22.83,20.75,17.99,35.53C72.25,82.38,61.48,90.2,49.32,90.21z M49.24,34.4
						c-15.17,0.02-27.45,12.34-27.43,27.51c0.02,15.17,12.34,27.45,27.51,27.43c4.32-0.01,8.57-1.03,12.41-2.99l0,0
						c13.52-6.88,18.91-23.41,12.03-36.94C69.08,40.19,59.59,34.39,49.24,34.4z"/>
					<path id="Trazado_121120" class="st0" d="M43.02,72.86c-1.45-0.77-2.79-1.73-3.98-2.85c-1.01-0.95-1.9-2.02-2.65-3.19
						c-0.35-0.53-0.42-1.21-0.17-1.8c0.2-0.46,0.57-0.83,1.04-1.01c0.47-0.2,1-0.2,1.47,0c0.42,0.19,0.77,0.48,1.04,0.85
						c0.75,1.03,1.59,1.99,2.51,2.86c1,0.91,2.15,1.64,3.4,2.16c0.48,0.21,0.96,0.39,1.46,0.54c0.47,0.14,0.95,0.23,1.44,0.29
						c0.45,0.05,0.9,0.05,1.35,0c0.41-0.05,0.8-0.15,1.18-0.31c0.38-0.15,0.72-0.38,1-0.68c0.31-0.32,0.55-0.7,0.72-1.11
						c0.36-0.75,0.36-1.63,0-2.38c-0.53-0.99-1.28-1.84-2.2-2.48l-3.56-2.77c-0.71-0.56-1.28-1.02-1.7-1.4s-0.92-0.81-1.41-1.29
						c-0.42-0.4-0.81-0.84-1.15-1.31c-0.29-0.42-0.53-0.86-0.74-1.32c-0.21-0.46-0.34-0.96-0.38-1.46
						c-0.02-0.53,0.02-1.07,0.12-1.59c0.13-0.63,0.33-1.25,0.59-1.84c0.25-0.57,0.57-1.11,0.96-1.6c0.36-0.45,0.78-0.84,1.24-1.17
						c0.46-0.32,0.96-0.57,1.49-0.77c0.55-0.2,1.12-0.33,1.7-0.4c0.62-0.06,1.25-0.06,1.87,0c0.67,0.05,1.34,0.16,1.99,0.31
						c0.71,0.15,1.4,0.36,2.08,0.6l2.17-4.97c0.16-0.45,0.52-0.8,0.96-0.97c0.41-0.14,0.86-0.12,1.26,0.06
						c0.41,0.18,0.74,0.5,0.93,0.91c0.2,0.43,0.2,0.93,0,1.36l-2.18,5.02c1.46,0.82,2.8,1.83,3.99,3.01
						c0.43,0.42,0.84,0.86,1.21,1.34c0.59,0.57,0.76,1.45,0.42,2.2c-0.07,0.17-0.16,0.32-0.28,0.46c-0.12,0.13-0.25,0.25-0.41,0.34
						c-0.15,0.08-0.32,0.15-0.49,0.21c-0.18,0.05-0.37,0.07-0.55,0.05c-0.21-0.02-0.41-0.08-0.59-0.16l-0.27-0.15l-0.26-0.19
						c-0.09-0.07-0.18-0.14-0.26-0.22c-0.19-0.16-0.36-0.32-0.53-0.5c-0.34-0.33-0.58-0.57-0.73-0.71s-0.42-0.38-0.85-0.71
						s-0.75-0.6-1.05-0.8s-0.67-0.45-1.11-0.71c-0.44-0.26-0.89-0.49-1.35-0.69c-0.83-0.38-1.71-0.65-2.61-0.81
						c-0.75-0.14-1.52-0.08-2.24,0.16c-0.67,0.23-1.21,0.74-1.48,1.4c-0.38,0.68-0.4,1.5-0.07,2.2c0.7,0.96,1.56,1.79,2.55,2.45
						l3.5,2.69c1.87,1.26,3.38,2.99,4.36,5.02c0.64,1.69,0.55,3.58-0.25,5.2c-0.76,2.02-2.41,3.59-4.47,4.25
						c-2.24,0.61-4.62,0.51-6.81-0.3l-2.13,4.9c-0.17,0.45-0.53,0.79-0.99,0.94c-0.44,0.14-0.91,0.11-1.33-0.08
						c-0.25-0.11-0.48-0.27-0.65-0.48c-0.18-0.22-0.3-0.5-0.33-0.78c-0.05-0.33,0-0.67,0.14-0.98L43.02,72.86z"/>
				</g>
				<g id="Grupo_60601" transform="translate(69.215 63.381)">
					<ellipse id="Elipse_4331" class="st5" cx="29.51" cy="52.07" rx="20.17" ry="20.17"/>
					<ellipse id="Elipse_4332" class="st6" cx="31.2" cy="50.21" rx="20.17" ry="20.17"/>
					<path id="Trazado_121121" class="st0" d="M32.25,68.63c-0.67,0-1.35-0.04-2.02-0.12c-9.66-1.09-16.61-9.81-15.52-19.48
						c1.09-9.66,9.82-16.61,19.48-15.52c9.66,1.09,16.61,9.81,15.52,19.48c-0.53,4.64-2.87,8.88-6.52,11.79l0,0
						C40.08,67.27,36.22,68.63,32.25,68.63z M32.18,34.24c-9.26,0.01-16.76,7.53-16.74,16.79s7.53,16.76,16.79,16.74
						c3.79-0.01,7.47-1.3,10.43-3.66l0,0c7.24-5.77,8.44-16.32,2.67-23.56c-2.77-3.48-6.81-5.71-11.23-6.21
						c-0.62-0.06-1.24-0.1-1.86-0.1L32.18,34.24z"/>
					<path id="Trazado_121122" class="st0" d="M29.78,58.42c-0.97-0.28-1.89-0.69-2.75-1.23c-0.73-0.44-1.41-0.98-2-1.6
						c-0.46-0.46-0.46-1.2,0-1.66c0.28-0.28,0.69-0.4,1.07-0.32c0.27,0.07,0.52,0.2,0.73,0.39c0.58,0.53,1.2,1,1.87,1.41
						c0.71,0.43,1.5,0.73,2.31,0.89c0.33,0.07,0.65,0.11,0.95,0.15c0.3,0.03,0.6,0.03,0.9,0c0.29-0.02,0.58-0.07,0.85-0.16
						c0.24-0.08,0.47-0.19,0.68-0.33c0.2-0.14,0.38-0.33,0.51-0.54c0.15-0.23,0.25-0.49,0.31-0.76c0.12-0.5,0.01-1.03-0.3-1.44
						c-0.45-0.53-1.01-0.95-1.64-1.23l-2.48-1.23c-0.49-0.25-0.9-0.46-1.22-0.64s-0.65-0.37-1.01-0.6c-0.3-0.19-0.59-0.4-0.85-0.65
						c-0.22-0.22-0.42-0.45-0.6-0.71c-0.19-0.25-0.33-0.54-0.41-0.85c-0.08-0.32-0.12-0.65-0.13-0.98c0-0.4,0.05-0.79,0.13-1.18
						c0.08-0.38,0.21-0.74,0.38-1.08c0.16-0.31,0.36-0.6,0.6-0.85c0.26-0.25,0.54-0.47,0.85-0.65c0.31-0.19,0.64-0.34,0.98-0.44
						c0.37-0.12,0.74-0.2,1.12-0.25c0.41-0.05,0.83-0.07,1.24-0.06c0.45,0.01,0.89,0.04,1.34,0.1l0.69-3.27
						c0.04-0.29,0.21-0.55,0.46-0.71c0.23-0.14,0.51-0.18,0.77-0.12c0.27,0.05,0.51,0.21,0.67,0.43c0.19,0.24,0.25,0.56,0.16,0.85
						l-0.7,3.3c0.98,0.32,1.92,0.77,2.78,1.33c0.31,0.21,0.61,0.42,0.89,0.65c0.42,0.27,0.63,0.78,0.53,1.28
						c-0.02,0.11-0.06,0.21-0.11,0.31c-0.06,0.09-0.13,0.18-0.21,0.25c-0.08,0.07-0.17,0.13-0.26,0.19
						c-0.1,0.05-0.21,0.09-0.32,0.09c-0.13,0.02-0.26,0.02-0.38,0c-0.06-0.01-0.12-0.03-0.18-0.05l-0.18-0.08l-0.19-0.1
						c-0.13-0.07-0.26-0.15-0.38-0.24l-0.53-0.34l-0.59-0.32c-0.28-0.15-0.52-0.26-0.73-0.36s-0.46-0.18-0.77-0.28
						c-0.28-0.1-0.56-0.18-0.85-0.25c-0.56-0.12-1.13-0.18-1.7-0.16c-0.47,0.01-0.92,0.14-1.33,0.37c-0.38,0.22-0.64,0.6-0.71,1.03
						c-0.15,0.46-0.07,0.96,0.23,1.34c0.54,0.5,1.16,0.89,1.84,1.17l2.44,1.18c1.28,0.53,2.41,1.39,3.26,2.49
						c0.59,0.95,0.77,2.09,0.49,3.17c-0.21,1.31-1.01,2.46-2.17,3.12c-1.29,0.65-2.74,0.88-4.17,0.66l-0.68,3.21
						c-0.04,0.29-0.22,0.55-0.48,0.69c-0.25,0.16-0.56,0.2-0.85,0.12c-0.17-0.03-0.32-0.1-0.45-0.21c-0.14-0.11-0.25-0.25-0.3-0.42
						c-0.06-0.2-0.06-0.4,0-0.6L29.78,58.42z"/>
				</g>
				<g id="Grupo_60602" transform="translate(14.996 78.56)">
					<ellipse id="Elipse_4333" class="st5" cx="27.57" cy="48.29" rx="16.63" ry="16.63"/>
					<ellipse id="Elipse_4334" class="st6" cx="28.04" cy="47.5" rx="16.63" ry="16.63"/>
					<path id="Trazado_121123" class="st0" d="M28.45,61.19c-8.07,0.01-14.62-6.53-14.63-14.6s6.53-14.62,14.6-14.63
						s14.62,6.53,14.63,14.6c0.01,5.69-3.29,10.87-8.46,13.27l0,0C32.66,60.73,30.57,61.19,28.45,61.19z M28.45,32.84
						c-7.59,0.02-13.73,6.18-13.72,13.78c0.02,7.59,6.18,13.73,13.78,13.72c1.99,0,3.95-0.44,5.75-1.27l0,0
						c6.89-3.19,9.88-11.37,6.69-18.26C38.69,35.94,33.81,32.83,28.45,32.84L28.45,32.84z"/>
					<path id="Trazado_121124" class="st0" d="M25.04,52.05c-0.72-0.42-1.38-0.93-1.96-1.52c-0.5-0.51-0.94-1.08-1.29-1.7
						c-0.17-0.28-0.19-0.62-0.05-0.92c0.11-0.23,0.31-0.41,0.54-0.49c0.24-0.11,0.51-0.11,0.75,0c0.21,0.1,0.38,0.26,0.51,0.45
						c0.36,0.54,0.77,1.04,1.22,1.5c0.5,0.48,1.07,0.88,1.7,1.17c0.24,0.11,0.49,0.21,0.74,0.3c0.23,0.08,0.47,0.13,0.71,0.17
						c0.23,0.03,0.46,0.03,0.69,0c0.21-0.01,0.41-0.06,0.61-0.13c0.19-0.07,0.36-0.19,0.51-0.33c0.17-0.16,0.3-0.34,0.39-0.55
						c0.18-0.38,0.18-0.83,0-1.21c-0.25-0.51-0.62-0.95-1.07-1.29l-1.76-1.47l-0.85-0.74c-0.22-0.2-0.45-0.43-0.69-0.69
						c-0.21-0.21-0.39-0.44-0.56-0.68c-0.13-0.22-0.25-0.44-0.35-0.68c-0.1-0.24-0.15-0.49-0.16-0.75c0-0.27,0.03-0.54,0.09-0.81
						c0.08-0.32,0.19-0.63,0.33-0.93c0.13-0.29,0.31-0.55,0.52-0.79c0.19-0.23,0.41-0.42,0.65-0.58c0.24-0.15,0.5-0.27,0.77-0.36
						c0.27-0.09,0.56-0.15,0.85-0.17c0.31-0.03,0.63-0.03,0.95,0c0.34,0.04,0.68,0.1,1.01,0.19c0.36,0.09,0.71,0.21,1.05,0.35
						l1.19-2.48c0.19-0.43,0.69-0.62,1.12-0.43c0.01,0,0.01,0.01,0.02,0.01c0.21,0.1,0.37,0.27,0.46,0.48c0.1,0.22,0.1,0.48,0,0.7
						l-1.21,2.51c0.4,0.24,0.78,0.51,1.13,0.81c0.3,0.24,0.59,0.51,0.85,0.79c0.21,0.22,0.4,0.46,0.59,0.7
						c0.29,0.3,0.37,0.75,0.18,1.13c-0.04,0.08-0.09,0.15-0.15,0.22c-0.06,0.07-0.13,0.12-0.21,0.17c-0.08,0.04-0.16,0.07-0.25,0.09
						c-0.09,0.02-0.19,0.02-0.28,0c-0.1-0.01-0.21-0.05-0.3-0.09l-0.14-0.08l-0.14-0.1l-0.13-0.11l-0.26-0.27L33,43.05
						c-0.07-0.07-0.21-0.2-0.4-0.37s-0.37-0.31-0.52-0.43c-0.18-0.13-0.36-0.26-0.55-0.38c-0.22-0.14-0.44-0.26-0.67-0.38
						c-0.42-0.2-0.86-0.36-1.32-0.46c-0.37-0.1-0.77-0.1-1.14,0c-0.72,0.27-1.1,1.07-0.85,1.8c0.34,0.5,0.76,0.94,1.25,1.29
						l1.7,1.43c0.93,0.67,1.66,1.58,2.13,2.63c0.29,0.87,0.21,1.83-0.22,2.64c-0.43,1.01-1.29,1.77-2.35,2.08
						c-1.16,0.27-2.37,0.18-3.47-0.27l-1.17,2.44c-0.09,0.23-0.28,0.4-0.52,0.46c-0.22,0.07-0.46,0.04-0.67-0.06
						c-0.12-0.06-0.23-0.15-0.31-0.26c-0.09-0.12-0.15-0.26-0.16-0.41c-0.01-0.17,0.02-0.34,0.09-0.49L25.04,52.05z"/>
				</g>
			</g>
		</g>
		<g id="Grupo_60605" transform="translate(29.197 241.365)">
			<rect id="Rectángulo_10968" x="79.86" y="46.45" class="st7" width="9.4" height="66.84"/>
			<path id="Trazado_121125" class="st7" d="M61.44,113.3h0.85V28.78h8.59v84.52h0.85V27.93H61.44V113.3z"/>
			<path id="Trazado_121126" class="st7" d="M24.18,113.3h0.85V28.78h8.59v84.52h0.85V27.93H24.18V113.3z"/>
			<rect id="Rectángulo_10969" x="7.21" y="49.41" class="st7" width="9.4" height="63.88"/>
			<rect id="Rectángulo_10970" x="42.77" y="53.42" class="st7" width="9.4" height="59.88"/>
		</g>
		<g id="Grupo_60606" transform="translate(284.758 1.595)">
			<path id="Trazado_121127" class="st6" d="M56.16,133.24c3.79,0,6.95-2.92,7.26-6.7l0.58-7.11c5.33-0.56,10.48-2.22,15.13-4.88
				l4.62,5.44c2.61,3.07,7.21,3.44,10.28,0.83c3.07-2.61,3.44-7.21,0.83-10.28l0,0l-4.62-5.43c3.37-4.17,5.84-8.99,7.25-14.16
				l7.11,0.57c4,0.43,7.6-2.47,8.02-6.48s-2.47-7.6-6.47-8.02c-0.12-0.01-0.25-0.02-0.38-0.03l-7.11-0.58
				c-0.56-5.33-2.22-10.48-4.88-15.13l5.44-4.62c3.05-2.62,3.4-7.23,0.78-10.28c-2.6-3.03-7.16-3.4-10.22-0.83l-5.44,4.62
				c-4.16-3.37-8.98-5.84-14.16-7.25l0.58-7.11c0.32-4.01-2.67-7.53-6.68-7.86s-7.53,2.67-7.86,6.68l0,0l-0.57,7.11
				c-5.33,0.56-10.49,2.22-15.14,4.88l-4.62-5.44c-2.38-3.25-6.95-3.94-10.19-1.56s-3.94,6.95-1.56,10.19
				c0.21,0.29,0.44,0.56,0.69,0.81l4.62,5.44c-3.38,4.16-5.85,8.98-7.26,14.16l-7.1-0.58c-4.01-0.32-7.53,2.67-7.86,6.68
				s2.67,7.53,6.68,7.86l0,0l7.1,0.57c0.56,5.33,2.22,10.49,4.88,15.14l-5.44,4.62c-3.12,2.55-3.57,7.14-1.02,10.26
				s7.14,3.57,10.26,1.02c0.07-0.06,0.14-0.12,0.21-0.18l5.43-4.62c4.16,3.38,8.98,5.85,14.16,7.26l-0.57,7.1
				c-0.32,4.01,2.67,7.53,6.68,7.86C55.82,133.24,55.99,133.24,56.16,133.24z M79.32,113.46l-0.31,0.18
				c-4.73,2.76-10,4.46-15.46,4.98h-0.35l-0.64,7.81c-0.27,3.55-3.37,6.2-6.91,5.93c-3.55-0.27-6.2-3.37-5.93-6.91
				c0-0.02,0-0.04,0-0.06l0.64-7.81l-0.35-0.09c-5.3-1.39-10.23-3.91-14.46-7.4l-0.27-0.23l-5.96,5.1
				c-2.69,2.32-6.76,2.02-9.08-0.68c-2.32-2.69-2.02-6.76,0.68-9.08c0.02-0.02,0.04-0.03,0.06-0.05l5.96-5.1l-0.18-0.31
				C24,95.02,22.3,89.74,21.78,84.29v-0.36l-7.81-0.63C10.42,83,7.8,79.88,8.1,76.34c0.3-3.52,3.38-6.14,6.91-5.87l7.81,0.63
				l0.09-0.34c1.39-5.3,3.91-10.24,7.4-14.46l0.23-0.27l-5.1-5.96c-2.32-2.69-2.02-6.76,0.67-9.08c2.69-2.32,6.76-2.02,9.08,0.67
				c0.02,0.02,0.04,0.04,0.06,0.07l5.1,5.96l0.31-0.18c4.73-2.76,10-4.46,15.46-4.98h0.36l0.63-7.82c0.29-3.54,3.39-6.19,6.94-5.9
				s6.19,3.39,5.9,6.94l0,0l-0.63,7.82l0.34,0.09c5.3,1.39,10.24,3.91,14.46,7.4l0.27,0.23l5.96-5.1c2.71-2.3,6.77-1.98,9.08,0.73
				c2.3,2.71,1.98,6.77-0.73,9.08l-5.96,5.1l0.18,0.31c2.76,4.73,4.46,10.01,4.99,15.46v0.35l7.82,0.64c3.55,0.24,6.23,3.31,6,6.85
				c-0.24,3.55-3.31,6.23-6.85,6c-0.06,0-0.12-0.01-0.18-0.01l-7.82-0.64l-0.09,0.35c-1.39,5.3-3.91,10.24-7.4,14.46l-0.23,0.27
				l5.1,5.96c2.3,2.71,1.98,6.78-0.74,9.08c-2.71,2.3-6.78,1.98-9.08-0.74L79.32,113.46z M59.85,108.99
				c15.7-0.01,28.42-12.75,28.41-28.45S75.51,52.12,59.81,52.13S31.39,64.88,31.4,80.58c0.01,14.8,11.38,27.12,26.13,28.31l0,0
				c0.76,0.07,1.61,0.1,2.37,0.1L59.85,108.99z M59.85,53.04c0.75-0.02,1.49,0.02,2.24,0.09c15.16,1.23,26.46,14.51,25.23,29.68
				c-1.23,15.16-14.51,26.46-29.67,25.23l0,0l0,0c-15.16-1.26-26.44-14.56-25.18-29.73C33.64,64.06,45.54,53.08,59.85,53.04
				L59.85,53.04z"/>
			<path id="Trazado_121128" class="st2" d="M107.21,98.36l4.44,2.5c2.4-2.91,5.4-5.27,8.8-6.91l-1.37-4.91
				c-0.67-2.5,0.81-5.07,3.3-5.74c2.45-0.66,4.98,0.75,5.71,3.19l1.37,4.91c3.74-0.36,7.51,0.1,11.06,1.34l2.5-4.44
				c1.27-2.25,4.12-3.05,6.37-1.79c0,0,0,0,0,0l0,0c2.25,1.27,3.05,4.12,1.79,6.37l-2.5,4.44c2.91,2.4,5.26,5.41,6.9,8.81l4.92-1.38
				c2.48-0.74,5.08,0.67,5.82,3.15c0.74,2.48-0.67,5.09-3.15,5.82c-0.04,0.01-0.08,0.02-0.12,0.03l-4.91,1.37
				c0.36,3.76-0.1,7.55-1.34,11.11l4.45,2.5c2.25,1.27,3.04,4.12,1.78,6.37l0,0c-1.27,2.25-4.12,3.05-6.37,1.78l-4.44-2.5
				c-2.4,2.91-5.4,5.27-8.8,6.91l1.37,4.91c0.74,2.48-0.67,5.09-3.15,5.82s-5.08-0.68-5.82-3.15c-0.01-0.04-0.02-0.08-0.03-0.12
				l-1.37-4.91c-3.74,0.35-7.51-0.1-11.06-1.34l-2.5,4.44c-1.27,2.25-4.12,3.05-6.37,1.79l0,0c-2.25-1.27-3.05-4.12-1.79-6.37
				l2.5-4.45c-2.91-2.4-5.26-5.4-6.9-8.8l-4.92,1.38c-2.48,0.74-5.08-0.67-5.82-3.15c-0.74-2.48,0.67-5.09,3.15-5.82
				c0.04-0.01,0.08-0.02,0.12-0.03l4.91-1.38c-0.36-3.75,0.1-7.54,1.34-11.1l-4.45-2.5c-2.25-1.27-3.05-4.12-1.78-6.37v0l0,0
				C102.1,97.89,104.95,97.09,107.21,98.36L107.21,98.36z M122.59,134.24C97.06,95.97,45.34,85.64,7.07,111.16
				s-48.61,77.25-23.08,115.52c25.53,38.27,77.25,48.61,115.52,23.08c38.26-25.52,48.6-77.22,23.1-115.5L122.59,134.24z"/>
		</g>
		<g id="Grupo_60609" transform="translate(4.823 0)">
			<path id="Trazado_121129" class="st4" d="M499.52,321.32c0.01,1.02,0.84,1.84,1.86,1.83c1.02-0.01,1.84-0.84,1.83-1.85
				c-0.01-1.02-0.84-1.84-1.85-1.83c-0.49,0-0.95,0.2-1.3,0.54C499.71,320.36,499.52,320.83,499.52,321.32z"/>
			<path id="Trazado_121130" class="st4" d="M413.34,202.89c0.01,1.02,0.84,1.84,1.86,1.84c1.02-0.01,1.84-0.84,1.84-1.86
				c-0.01-1.02-0.84-1.84-1.86-1.84c-0.49,0-0.96,0.2-1.3,0.54C413.53,201.93,413.34,202.4,413.34,202.89z"/>
			<path id="Trazado_121131" class="st4" d="M460.98,125.88c0,1.02,0.83,1.85,1.85,1.84c1.02,0,1.84-0.83,1.84-1.85
				c0-1.02-0.83-1.84-1.85-1.84c-0.49,0-0.96,0.2-1.3,0.54C461.18,124.91,460.98,125.39,460.98,125.88z"/>
			<path id="Trazado_121132" class="st4" d="M446.09,327.19c0,0.51,0.41,0.93,0.93,0.93s0.93-0.41,0.93-0.93
				c0-0.51-0.41-0.93-0.93-0.93c0,0,0,0,0,0C446.51,326.26,446.09,326.68,446.09,327.19C446.09,327.19,446.09,327.19,446.09,327.19z
				"/>
			<path id="Trazado_121133" class="st4" d="M447.88,73.05c0,0.51,0.42,0.93,0.93,0.93s0.93-0.41,0.93-0.93
				c0-0.51-0.41-0.93-0.93-0.93l0,0c-0.51-0.01-0.92,0.4-0.93,0.91C447.88,73.04,447.88,73.05,447.88,73.05L447.88,73.05z"/>
			<path id="Trazado_121134" class="st4" d="M469.41,341.6c0,0.51,0.41,0.93,0.92,0.94s0.93-0.41,0.94-0.92
				c0.01-0.51-0.41-0.93-0.92-0.94c0,0-0.01,0-0.01,0C469.82,340.68,469.41,341.09,469.41,341.6z"/>
			<path id="Trazado_121135" class="st4" d="M508.2,301.58c-0.05,0.51,0.33,0.96,0.84,1.01c0.51,0.05,0.96-0.33,1.01-0.84
				s-0.33-0.96-0.84-1.01c-0.03,0-0.06,0-0.09,0C508.64,300.74,508.24,301.1,508.2,301.58z"/>
			<path id="Trazado_121136" class="st4" d="M396.75,347.37c0,0.51,0.42,0.91,0.93,0.91c0.51-0.01,0.91-0.42,0.91-0.93
				c0-0.51-0.42-0.91-0.93-0.91c-0.24,0-0.47,0.1-0.64,0.27C396.85,346.89,396.75,347.12,396.75,347.37z"/>
			<path id="Trazado_121137" class="st4" d="M425.68,217.42c0,0.51,0.41,0.93,0.92,0.94s0.93-0.41,0.93-0.92
				c0-0.51-0.41-0.93-0.92-0.94c0,0-0.01,0-0.02,0C426.09,216.5,425.68,216.92,425.68,217.42L425.68,217.42z"/>
			<path id="Trazado_121138" class="st4" d="M459.96,112.88c0.01,0.51,0.42,0.91,0.93,0.91s0.91-0.42,0.91-0.93
				s-0.42-0.91-0.93-0.91c-0.24,0-0.47,0.1-0.64,0.27C460.05,112.4,459.96,112.63,459.96,112.88z"/>
			<path id="Trazado_121139" class="st4" d="M385.27,66.7c0,1.11,0.91,2.01,2.02,2.01c1.11,0,2.01-0.91,2.01-2.02
				c0-1.11-0.91-2.01-2.03-2.01c-0.53,0-1.04,0.22-1.42,0.59C385.48,65.65,385.27,66.16,385.27,66.7z"/>
			<path id="Trazado_121140" class="st4" d="M416.57,288.84l-0.25,5.9l3.91-4.57l5.53-0.1l-3.91-4.22l0.25-6.09l-4.08,4.64l-5.7,0.6
				L416.57,288.84z"/>
			<path id="Trazado_121141" class="st4" d="M449.07,162.54l-0.25,5.9l3.91-4.56l5.53-0.1l-3.91-4.22l0.25-6.09l-4.08,4.64
				l-5.7,0.59L449.07,162.54z"/>
			<path id="Trazado_121142" class="st4" d="M515.77,270.4l-0.09,4.71l3.06-3.74l4.34-0.23l-3.15-3.26v-4.87l-3.15,3.8l-4.51,0.62
				L515.77,270.4z"/>
			<path id="Trazado_121143" class="st4" d="M406.96,59.21l-0.08,4.7l3.06-3.73l4.42-0.23l-3.23-3.27v-4.86l-3.15,3.8l-4.51,0.61
				L406.96,59.21z"/>
			<path id="Trazado_121144" class="st4" d="M495.18,241.57c0,0.51,0.42,0.93,0.93,0.93s0.93-0.41,0.93-0.93
				c0-0.51-0.41-0.93-0.93-0.93C495.6,240.65,495.18,241.06,495.18,241.57z"/>
			<path id="Trazado_121145" class="st4" d="M383.23,30.4c0,0.51,0.41,0.93,0.92,0.94s0.93-0.41,0.93-0.92
				c0-0.51-0.41-0.93-0.92-0.94c0,0-0.01,0-0.02,0C383.64,29.48,383.23,29.89,383.23,30.4z"/>
			<path id="Trazado_121146" class="st4" d="M388.25,167.79c0,0.51,0.41,0.93,0.92,0.94s0.93-0.41,0.93-0.92
				c0-0.51-0.41-0.93-0.92-0.94c0,0-0.01,0-0.02,0C388.66,166.87,388.25,167.28,388.25,167.79z"/>
			<path id="Trazado_121147" class="st4" d="M442.61,240.21c0,1.02,0.83,1.85,1.85,1.85c1.02,0,1.85-0.83,1.85-1.85
				s-0.83-1.85-1.85-1.85l0,0C443.44,238.36,442.61,239.19,442.61,240.21z"/>
			<g id="Grupo_60607" transform="translate(74.695)">
				<path id="Trazado_121148" class="st4" d="M126.56,109.52c0,1.02,0.82,1.86,1.84,1.86c1.02,0,1.86-0.82,1.86-1.85
					s-0.82-1.86-1.85-1.86c0,0-0.01,0-0.01,0C127.4,107.67,126.57,108.5,126.56,109.52z"/>
				<path id="Trazado_121149" class="st4" d="M7.21,95.98c0,1.02,0.82,1.86,1.85,1.86c1.02,0,1.86-0.82,1.86-1.85
					s-0.82-1.86-1.85-1.86c0,0-0.01,0-0.01,0C8.04,94.14,7.21,94.96,7.21,95.98z"/>
				<path id="Trazado_121150" class="st4" d="M77.65,110.64c0,0.51,0.42,0.91,0.93,0.91c0.51-0.01,0.91-0.42,0.91-0.93
					c0-0.51-0.42-0.91-0.93-0.91c-0.24,0-0.47,0.1-0.64,0.27C77.74,110.16,77.64,110.4,77.65,110.64L77.65,110.64z"/>
				<path id="Trazado_121151" class="st4" d="M70.5,136.48c0,0.51,0.41,0.93,0.92,0.94s0.93-0.41,0.94-0.92
					c0.01-0.51-0.41-0.93-0.92-0.94c0,0-0.01,0-0.01,0C70.92,135.57,70.51,135.98,70.5,136.48z"/>
				<path id="Trazado_121152" class="st4" d="M135.16,89.75c0,0.51,0.42,0.93,0.93,0.93s0.93-0.41,0.93-0.93
					c0-0.51-0.41-0.93-0.93-0.93c-0.51-0.01-0.92,0.4-0.93,0.91C135.15,89.73,135.15,89.74,135.16,89.75L135.16,89.75z"/>
				<path id="Trazado_121153" class="st4" d="M10.78,135.86c0,0.51,0.42,0.91,0.93,0.91c0.51-0.01,0.91-0.42,0.91-0.93
					s-0.42-0.91-0.93-0.91c-0.24,0-0.47,0.1-0.64,0.27C10.87,135.38,10.78,135.61,10.78,135.86z"/>
				<path id="Trazado_121154" class="st4" d="M44.3,80.66l4.34,5.77l0.17-7.34L54,74.71l-6.98-0.97l-4.51-5.94l-0.26,7.54
					l-4.93,4.98L44.3,80.66z"/>
				<path id="Trazado_121155" class="st4" d="M145.53,58.13l2.81,3.77l0.08-4.8l3.32-2.87l-4.51-0.63l-2.89-3.88l-0.17,4.93
					l-3.23,3.26L145.53,58.13z"/>
				<path id="Trazado_121156" class="st4" d="M100.96,165.56l2.21,2.94l0.08-3.73l2.64-2.23l-3.57-0.49l-2.21-3.02l-0.17,3.84
					l-2.55,2.53L100.96,165.56z"/>
				<path id="Trazado_121157" class="st4" d="M15.46,155.88l2.21,2.94l0.08-3.73l2.55-2.22l-3.49-0.49l-2.3-3.02l-0.17,3.84
					l-2.47,2.53L15.46,155.88z"/>
				<path id="Trazado_121158" class="st4" d="M122.23,28.84c0,0.51,0.41,0.93,0.92,0.94s0.93-0.41,0.94-0.92
					c0.01-0.51-0.41-0.93-0.92-0.94c0,0-0.01,0-0.01,0C122.64,27.93,122.23,28.34,122.23,28.84z"/>
				<path id="Trazado_121159" class="st4" d="M56.89,38.34c0,1.02,0.82,1.86,1.85,1.86c1.02,0,1.86-0.82,1.86-1.85
					s-0.82-1.86-1.85-1.86c0,0,0,0-0.01,0C57.72,36.49,56.89,37.32,56.89,38.34z"/>
			</g>
			<g id="Grupo_60608" transform="translate(0 106.713)">
				<path id="Trazado_121160" class="st4" d="M13.85,132.89c0,1.02,0.82,1.86,1.84,1.86c1.02,0,1.86-0.82,1.86-1.85
					s-0.82-1.86-1.85-1.86c0,0,0,0-0.01,0C14.68,131.04,13.85,131.87,13.85,132.89z"/>
				<path id="Trazado_121161" class="st4" d="M22.86,164.73c0,0.51,0.42,0.93,0.93,0.93s0.93-0.42,0.93-0.93
					c0-0.51-0.41-0.93-0.93-0.93h0C23.28,163.8,22.86,164.22,22.86,164.73z"/>
				<path id="Trazado_121162" class="st4" d="M73.23,174.03c0,0.51,0.42,0.92,0.93,0.91c0.51,0,0.92-0.42,0.91-0.93
					c0-0.51-0.42-0.92-0.93-0.91c-0.24,0-0.47,0.1-0.65,0.27C73.32,173.55,73.23,173.78,73.23,174.03z"/>
				<path id="Trazado_121163" class="st4" d="M19.03,118.3c0,0.51,0.42,0.93,0.93,0.93s0.93-0.41,0.93-0.93
					c0-0.51-0.41-0.93-0.93-0.93l0,0c-0.51,0-0.92,0.4-0.93,0.91C19.03,118.29,19.03,118.29,19.03,118.3L19.03,118.3z"/>
				<path id="Trazado_121164" class="st4" d="M16.74,28.86c0.01,0.51,0.42,0.91,0.93,0.9c0.5-0.01,0.91-0.42,0.9-0.93
					s-0.42-0.91-0.93-0.9c-0.24,0-0.47,0.1-0.64,0.27C16.83,28.37,16.74,28.61,16.74,28.86z"/>
				<path id="Trazado_121165" class="st4" d="M41.5,86.62l1.45,1.91l0.09-2.44l1.7-1.45l-2.3-0.31l-1.53-1.98l-0.09,2.5L39.2,86.5
					L41.5,86.62z"/>
				<path id="Trazado_121166" class="st4" d="M10.78,211.97L13,214.9l0.08-3.73l2.64-2.23l-3.57-0.49l-2.3-3.01l-0.09,3.83
					l-2.55,2.53L10.78,211.97z"/>
				<path id="Trazado_121167" class="st4" d="M16.82,55.48c0,0.51,0.42,0.93,0.93,0.93s0.93-0.42,0.93-0.93
					c0-0.51-0.41-0.93-0.93-0.93c0,0-0.01,0-0.01,0C17.23,54.56,16.82,54.97,16.82,55.48C16.82,55.48,16.82,55.48,16.82,55.48
					L16.82,55.48z"/>
			</g>
		</g>
	</g>
	<g id="Grupo_60636" transform="translate(865.834 152.491)">
		<g id="Grupo_60630" transform="translate(149.497)">
			<g id="Grupo_60619">
				<path id="Trazado_121168" class="st8" d="M195.67,82.2l0.13,0.09L195.67,82.2z"/>
				<g id="Grupo_60611" transform="translate(31.842)">
					<path id="Trazado_121169" class="st9" d="M7.2,121.97c0-9.87,3.5-19.41,9.86-26.95c1.41-2.01,2.76-3.83,4.01-5.46
						c2.98-3.84,6.81-7.81,8.74-12.06c-3.76-1.59-7.31-3.61-10.6-6.02c3.5-35.68,23.2-46.98,57.57-38.88
						c6.14-3.15,25.52-11.55,49.95,6.81c4.68,3.53,6.17,7.83,8.6,12.26c6.16,11.23,14.62,18.77,26.5,26.27l0.13,0.08l1.62,1.02
						c22.08,13.89,24.83,42.43,11.77,57.05l-3.76,4.25c-0.58,0.66-1.18,1.29-1.81,1.91c-2.24,2.02-3.16,5.13-2.38,8.05
						c1.55,5.48,1.89,11.23,0.99,16.85c-0.66,4.08-1.94,8.04-3.79,11.74c-0.61,1.23-1.29,2.44-2.02,3.62
						c-1.11,1.78-2.34,3.48-3.67,5.1c-1.36,1.64-2.83,3.2-4.38,4.65c-1.59,1.48-3.27,2.87-5.03,4.16c-1.8,1.31-3.67,2.51-5.6,3.6
						c-0.65,0.37-1.31,0.72-1.98,1.06c-2.72,1.4-5.54,2.58-8.44,3.55c-2.23,0.75-4.5,1.36-6.81,1.85c-2.35,0.5-4.72,0.86-7.11,1.09
						c-0.81,0.08-1.62,0.14-2.43,0.19c-5.47,0.31-10.95-0.06-16.33-1.11c-2.08-0.41-4.12-0.92-6.1-1.51
						c-1.96-0.59-3.89-1.29-5.78-2.08c-6.35-2.62-12.15-6.4-17.11-11.15c-0.85-0.78-1.63-1.56-2.46-2.34
						c-2.5-2.31-5.05-4.58-7.66-6.81c-5.23-4.42-10.7-8.63-16.32-12.76c-1.87-1.36-3.76-2.71-5.67-4.04c-2.84-2-5.71-3.98-8.64-5.96
						l-2.9-1.95c-0.58-0.38-1.16-0.78-1.7-1.19l-0.32-0.24c-0.57-0.4-1.1-0.81-1.61-1.23l-0.26-0.22c-0.52-0.42-1.03-0.85-1.53-1.27
						l-0.08-0.08c-0.52-0.46-1.03-0.92-1.52-1.4l-0.26-0.24c-0.48-0.48-0.97-0.95-1.45-1.45l-0.12-0.13c-0.47-0.49-0.93-1-1.37-1.51
						l-0.08-0.09c-0.45-0.52-0.85-1.06-1.32-1.59l-0.17-0.21c-0.38-0.48-0.75-0.98-1.11-1.47l-0.14-0.19l0,0
						C10.11,138.71,7.34,130.46,7.2,121.97L7.2,121.97z"/>
					<path id="Trazado_121170" class="st10" d="M28.14,55.77c0.42,0.01,0.78-0.29,0.85-0.7c3.26-17.25,26.11-18.72,26.37-18.72
						c0.47,0,0.85-0.38,0.85-0.85c0-0.02,0-0.03,0-0.05c-0.02-0.47-0.42-0.83-0.89-0.81c0,0-0.01,0-0.01,0
						c-0.24,0-24.41,1.56-27.92,20.13c-0.09,0.46,0.21,0.91,0.67,1c0,0,0.01,0,0.01,0L28.14,55.77z"/>
					<path id="Trazado_121171" class="st8" d="M19.46,150.9l-0.12-0.13c-0.47-0.49-0.93-1-1.37-1.5l-0.08-0.09
						c-0.45-0.52-0.85-1.06-1.32-1.59l-0.17-0.21c-0.43-0.54-0.85-1.1-1.25-1.66c15.02,10.06,29.63,20.62,42.24,32.82
						c10.86,10.52,27.22,16.85,45.31,15.83c26.06-1.47,47.76-18.72,51.25-40.61c0.91-5.62,0.56-11.37-1-16.84
						c-0.77-2.92,0.15-6.02,2.39-8.05c0.62-0.61,1.22-1.24,1.81-1.91l3.76-4.25c9.88-11.06,10.69-30.1,0.94-44.72l0.13,0.08
						l1.62,1.02c22.08,13.89,24.83,42.43,11.77,57.05l-3.76,4.25c-0.58,0.66-1.18,1.29-1.81,1.91c-2.24,2.03-3.16,5.13-2.38,8.05
						c1.55,5.48,1.9,11.23,1,16.85c-0.67,4.08-1.95,8.04-3.79,11.74c-0.61,1.23-1.29,2.44-2.03,3.62c-1.11,1.78-2.34,3.48-3.68,5.1
						c-1.36,1.64-2.82,3.19-4.38,4.65c-1.59,1.48-3.27,2.87-5.03,4.16c-1.79,1.31-3.67,2.51-5.6,3.6c-0.65,0.37-1.31,0.72-1.98,1.06
						c-2.72,1.4-5.54,2.58-8.44,3.55c-2.23,0.75-4.5,1.36-6.81,1.85c-2.35,0.5-4.72,0.86-7.11,1.09c-0.81,0.08-1.62,0.14-2.43,0.19
						c-5.47,0.31-10.95-0.06-16.32-1.1c-2.09-0.41-4.12-0.92-6.1-1.51c-1.96-0.59-3.89-1.29-5.78-2.08
						c-6.35-2.62-12.15-6.4-17.11-11.14c-0.85-0.78-1.63-1.57-2.46-2.34c-2.5-2.31-5.05-4.58-7.66-6.81
						c-5.23-4.42-10.7-8.63-16.32-12.76c-1.87-1.36-3.76-2.71-5.67-4.04c-2.83-2-5.71-3.98-8.63-5.96l-2.9-1.95
						c-0.58-0.38-1.16-0.78-1.7-1.19l-0.32-0.24c-0.57-0.4-1.1-0.81-1.61-1.23l-0.26-0.22c-0.52-0.42-1.03-0.85-1.53-1.27
						l-0.08-0.08c-0.52-0.46-1.03-0.92-1.52-1.4l-0.25-0.24C20.4,151.83,19.92,151.37,19.46,150.9z"/>
				</g>
				<g id="Grupo_60618" transform="translate(0 16.703)">
					<path id="Trazado_121172" class="st11" d="M113.91,48.55c2.34,14.79,10.78,27.45,17.94,27.79l5.9-2.03v0.46l5.79-0.54
						c7.83-0.7,14.76,5.05,15.51,12.88v0.32c0.7,7.83-5.06,14.76-12.89,15.51l-5.69,0.53l7.1,44.7
						c1.54,12.8-10.21,21.62-23.17,23.18l-0.54,0.07c-12.93,1.61-24.74-7.5-26.46-20.42l-1.4-11.55
						c-15.66-2.05-27.49-15.2-27.88-30.99L67.04,62.9v-0.09C79.55,66.69,97.5,67.15,113.91,48.55z"/>
					<path id="Trazado_121173" class="st12" d="M96.13,139.8c0,0,27.91-2.05,31.37-12.49l0,0c0,0,3.08,14.92-29.43,26.82
						L96.13,139.8z"/>
					<g id="Grupo_60617">
						<path id="Trazado_121174" class="st13" d="M146.84,93.98c0.94,0,1.7-0.76,1.7-1.7c0-0.65-0.37-1.25-0.96-1.53l-3.22-1.56
							l3.11-4.48c0.53-0.77,0.34-1.83-0.43-2.37c-0.77-0.53-1.83-0.34-2.37,0.43l0,0l-4.25,6.12c-0.53,0.77-0.34,1.83,0.43,2.36
							c0.07,0.05,0.14,0.09,0.22,0.13l4.99,2.42C146.3,93.93,146.57,93.99,146.84,93.98z"/>
						<path id="Trazado_121175" class="st0" d="M153.9,101.24c0.55,2.9-1.35,5.71-4.25,6.26c-2.9,0.55-5.71-1.35-6.26-4.25
							s1.35-5.71,4.25-6.26c0,0,0,0,0.01,0C150.55,96.44,153.35,98.34,153.9,101.24z"/>
						<g id="Grupo_60616">
							<ellipse id="Elipse_4335" class="st14" cx="75.13" cy="92.87" rx="2.76" ry="2.76"/>
							<path id="Trazado_121176" class="st0" d="M105.83,99.3c0.47,0,0.95-0.03,1.42-0.08c7.11-0.77,12.26-7.16,11.49-14.28
								c-0.77-7.11-7.16-12.26-14.28-11.49c-7.11,0.77-12.26,7.16-11.49,14.28c0,0,0,0.01,0,0.01l0,0
								C93.69,94.31,99.23,99.29,105.83,99.3L105.83,99.3z M105.83,75.95c5.74,0.01,10.39,4.67,10.38,10.41
								c-0.01,5.74-4.67,10.39-10.41,10.38c-5.74-0.01-10.39-4.67-10.38-10.41c0.01-5.3,4.01-9.75,9.28-10.32
								c0.4-0.04,0.81-0.06,1.22-0.06H105.83z"/>
							<path id="Trazado_121177" class="st14" d="M100.56,88.3c0.25,0,0.49-0.11,0.65-0.31c0.13-0.16,3.3-3.83,7.21-0.78
								c0.37,0.29,0.9,0.24,1.2-0.13c0.29-0.37,0.24-0.9-0.13-1.2c-0.01-0.01-0.01-0.01-0.02-0.02c-2.84-2.36-7.05-1.98-9.41,0.86
								c-0.05,0.06-0.1,0.12-0.14,0.18c-0.3,0.36-0.26,0.9,0.1,1.2C100.16,88.24,100.36,88.31,100.56,88.3L100.56,88.3z"/>
							<path id="Trazado_121178" class="st0" d="M73.85,102.42c0.47,0,0.94-0.03,1.41-0.08c7.11-0.78,12.24-7.17,11.47-14.28
								S79.56,75.82,72.45,76.6c-7.11,0.77-12.24,7.16-11.47,14.27l0,0C61.7,97.43,67.24,102.41,73.85,102.42L73.85,102.42z
								 M73.85,79.07c5.74,0.01,10.38,4.68,10.36,10.41c-0.01,5.74-4.68,10.38-10.41,10.36s-10.38-4.68-10.36-10.41
								c0.01-5.29,4.01-9.73,9.27-10.3c0.46-0.03,0.8-0.06,1.22-0.06L73.85,79.07z"/>
							<g id="Grupo_60614" transform="translate(75.575 50.943)">
								<path id="Trazado_121179" class="st11" d="M14.01,29.21l0.85,9.11c0.11,1.12-0.71,2.12-1.84,2.23c0,0-0.01,0-0.01,0
									l-2.02,0.2c-1.54,0.13-2.68,1.47-2.55,3.01c0,0.01,0,0.02,0,0.03l0,0c0.37,3.79,3.73,6.57,7.53,6.22l3.17-0.31"/>
								<path id="Trazado_121180" class="st13" d="M15.37,51.31h0.78l3.16-0.3c0.7-0.09,1.2-0.73,1.12-1.43
									c-0.08-0.67-0.68-1.17-1.35-1.12l-3.17,0.31c-3.1,0.29-5.84-2-6.12-5.09c0,0,0,0,0-0.01c-0.04-0.4,0.08-0.8,0.34-1.1
									c0.25-0.31,0.62-0.51,1.02-0.54l2.02-0.19c1.83-0.17,3.17-1.79,3-3.62l-0.85-9.11c-0.07-0.7-0.69-1.22-1.39-1.16
									c-0.71,0.07-1.22,0.69-1.16,1.39l0.85,9.12c0.03,0.2-0.03,0.41-0.17,0.56c-0.13,0.16-0.32,0.25-0.52,0.27l-2.03,0.2
									c-2.23,0.21-3.87,2.19-3.66,4.42c0,0,0,0,0,0C7.63,48.1,11.16,51.31,15.37,51.31L15.37,51.31z"/>
							</g>
							<path id="Trazado_121181" class="st0" d="M86.18,87.87c3.08-3.1,7.32-0.85,7.49-0.77l1.23-2.24
								c-2.08-1.15-6.98-2.38-10.54,1.2L86.18,87.87z"/>
							<path id="Trazado_121182" class="st0" d="M117.32,83.68c0.17,0,0.34-0.04,0.5-0.11l20.54-8.92c0.65-0.28,0.94-1.03,0.66-1.68
								s-1.03-0.94-1.68-0.66l-20.53,8.92c-0.65,0.27-0.95,1.02-0.68,1.67C116.32,83.38,116.79,83.68,117.32,83.68L117.32,83.68z"/>
							<path id="Trazado_121183" class="st13" d="M92.39,125.88c0.13,0.02,0.26,0,0.37-0.07c1.75-1,3.94-0.81,5.5,0.48
								c0.24,0.22,0.61,0.2,0.83-0.03c0.01-0.01,0.02-0.02,0.02-0.03c0.2-0.24,0.17-0.6-0.06-0.81c-3.1-2.71-6.8-0.62-6.8-0.6
								c-0.28,0.16-0.37,0.51-0.21,0.79C92.12,125.75,92.24,125.85,92.39,125.88z"/>
							<g id="Grupo_60615" transform="translate(58.984 37.109)">
								<path id="Trazado_121184" class="st14" d="M52.12,34.64c-1.21,0.23-2.45,0.2-3.65-0.08c-1.28-0.2-2.55-0.36-3.71-0.47
									s-2.44-0.18-3.74-0.22c-1.23,0.05-2.45-0.15-3.59-0.6c-0.94-0.5-1.22-1.7,0.06-3.06s4.19-2.55,7.93-2.24
									s6.38,2.14,7.29,3.65C53.62,33.13,53.14,34.31,52.12,34.64z"/>
								<path id="Trazado_121185" class="st14" d="M18.94,41.48c-0.97-0.03-1.93,0.14-2.82,0.5c-0.98,0.31-1.96,0.6-2.83,0.81
									s-1.87,0.43-2.88,0.63c-0.96,0.1-1.89,0.41-2.72,0.9c-0.66,0.5-0.74,1.48,0.42,2.37c1.94,1.17,4.28,1.45,6.44,0.78
									c2.88-0.71,4.71-2.44,5.22-3.72S19.79,41.62,18.94,41.48z"/>
							</g>
							<path id="Trazado_121186" class="st13" d="M96.22,112.33c0.08,0.01,0.15,0.01,0.23,0l7.83-1.39c3.14-0.56,5.3-3.48,4.92-6.65
								l-0.13-1.07c-0.08-0.71-0.72-1.21-1.43-1.12c-0.71,0.08-1.21,0.72-1.12,1.43l0,0l0.13,1.07c0.22,1.82-1.02,3.5-2.83,3.83
								l-7.84,1.4c-0.7,0.08-1.21,0.71-1.14,1.41c0.07,0.68,0.67,1.19,1.36,1.14L96.22,112.33z"/>
						</g>
					</g>
				</g>
			</g>
			<path id="Trazado_121187" class="st15" d="M146.75,104.31"/>
			<g id="Grupo_60629" transform="translate(6.24 85.483)">
				<g id="Grupo_60622" transform="translate(40.341 36.972)">
					<g id="Grupo_60621" transform="translate(0 14.31)">
						<path id="Trazado_121188" class="st7" d="M8.98,64.37c2.61-12.71,16.44-23.46,28.67-27.79l12.19-4.18l53.29-4.48l25.35,4.38
							c17.58,2.93,33.32,12.64,43.83,27.04c8.34,11.59,14.73,28.07,14.07,51.18c-0.02,1.26-0.93,2.33-2.18,2.55l-44.5,7.72
							l-1.57,69.83c0,0-78.92,31.56-111.21,0S0.21,107.08,8.98,64.37z"/>
						<path id="Trazado_121189" class="st16" d="M8.97,64.37c2.61-12.71,16.45-23.46,28.67-27.79l12.19-4.18l53.29-4.48l5.83,1.01
							L67.68,32.4l-12.19,4.18c-12.22,4.33-26.06,15.08-28.67,27.79c-8.8,42.71,17.95,126.22,17.95,126.22H26.9
							C26.9,190.59,0.21,107.08,8.97,64.37z"/>
						<g id="Grupo_60620" transform="translate(111.65 60.843)">
							<path id="Trazado_121190" class="st17" d="M9.45,50.05c0.07,0.01,0.15,0.01,0.22,0l61.77-10.67
								c0.71-0.12,1.18-0.79,1.06-1.49c-0.12-0.7-0.79-1.18-1.49-1.06l0,0L9.24,47.51c-0.71,0.06-1.23,0.68-1.17,1.38
								S8.74,50.12,9.45,50.05L9.45,50.05z"/>
							<path id="Trazado_121191" class="st17" d="M12.51,63.35c0.18,0.01,0.35,0.01,0.53,0l3.06-0.37c0.71-0.09,1.21-0.73,1.12-1.43
								c-0.09-0.7-0.73-1.21-1.43-1.12l-3.06,0.38c-0.97,0.11-1.86-0.58-1.97-1.56c-0.01-0.05-0.01-0.09-0.01-0.14L9.76,29.16
								c-0.02-0.71-0.61-1.26-1.32-1.23c-0.7,0.02-1.26,0.61-1.23,1.32l0,0l0.98,29.94c0.08,2.33,1.99,4.18,4.32,4.18L12.51,63.35z"
								/>
							<path id="Trazado_121192" class="st17" d="M66.28,51.75h0.14c0.7-0.08,1.2-0.7,1.13-1.4c0,0,0-0.01,0-0.01L66.3,39.63
								c-0.07-0.7-0.7-1.21-1.4-1.14c-0.7,0.07-1.21,0.7-1.14,1.4c0,0.01,0,0.02,0,0.03l1.24,10.71
								C65.09,51.28,65.63,51.75,66.28,51.75z"/>
							<path id="Trazado_121193" class="st17" d="M55.39,53.17h0.15c0.7-0.08,1.19-0.71,1.12-1.4c0,0,0-0.01,0-0.01l-1.23-10.71
								c-0.08-0.71-0.72-1.21-1.42-1.13s-1.21,0.72-1.13,1.42l1.24,10.71C54.19,52.7,54.74,53.18,55.39,53.17L55.39,53.17z"/>
							<path id="Trazado_121194" class="st17" d="M44.5,55.58h0.15c0.7-0.08,1.2-0.71,1.12-1.41c0,0,0,0,0-0.01l-1.23-10.71
								c-0.1-0.7-0.75-1.19-1.45-1.09c-0.68,0.1-1.16,0.7-1.1,1.38l1.24,10.71C43.3,55.1,43.85,55.59,44.5,55.58L44.5,55.58z"/>
							<path id="Trazado_121195" class="st17" d="M33.52,57.67h0.14c0.7-0.08,1.2-0.71,1.12-1.41l-1.24-10.72
								c-0.08-0.7-0.72-1.2-1.42-1.12c-0.7,0.08-1.2,0.72-1.12,1.42l1.24,10.71C32.33,57.19,32.88,57.67,33.52,57.67L33.52,57.67z"
								/>
							<path id="Trazado_121196" class="st17" d="M21.44,59.85h0.14c0.7-0.08,1.2-0.71,1.12-1.41c0,0,0,0,0,0l-1.24-10.71
								c-0.06-0.71-0.68-1.23-1.39-1.17c-0.71,0.06-1.23,0.68-1.17,1.39c0,0.02,0,0.04,0.01,0.07l1.24,10.71
								C20.24,59.37,20.79,59.86,21.44,59.85L21.44,59.85z"/>
						</g>
					</g>
					<path id="Trazado_121197" class="st17" d="M46.41,41.26c0,0,13.3,0.97,13.95,0.7L94.54,28.3c2.49-1.04,5.35,0.14,6.38,2.63
						c0.07,0.17,0.13,0.34,0.18,0.52l3.53,12.23c0.61,2.1-0.25,4.34-2.1,5.5L74.35,66.74c-2.29,1.42-5.3,0.72-6.73-1.57
						c-0.13-0.21-0.25-0.43-0.34-0.65l-7.07-16.55c-0.12-0.3-0.22-0.61-0.29-0.93c-0.08-0.4-0.1-0.81-0.08-1.22L50.62,60.7
						c-2.04,3.3-6.37,4.32-9.67,2.27c-1.91-1.18-3.14-3.21-3.31-5.46l-0.53-7.18c-0.34-4.69,3.19-8.76,7.87-9.09
						C45.46,41.21,45.94,41.22,46.41,41.26L46.41,41.26z"/>
				</g>
				<g id="Grupo_60628" transform="translate(0)">
					<g>
						<path class="st14" d="M110.03,104.06L80.92,82.71c-0.04,0.07-0.07,0.14-0.12,0.2l-7.51,10.25c-0.18,0.24-0.39,0.43-0.61,0.6
							l29.21,21.42c3.07,2.25,7.39,1.59,9.64-1.48S113.11,106.32,110.03,104.06z"/>
						<path class="st18" d="M73.28,93.17l7.51-10.25c0.05-0.06,0.08-0.14,0.12-0.2c0.79-1.28,0.49-2.96-0.75-3.86l-4.44-3.25
							c-0.15-0.11-0.32-0.21-0.48-0.28c-1.11,2.97-2.63,5.83-4.59,8.51c-1.81,2.47-3.88,4.63-6.15,6.48
							c0.09,0.08,0.17,0.17,0.26,0.24l4.44,3.25c1.06,0.77,2.46,0.72,3.45-0.03C72.9,93.6,73.11,93.41,73.28,93.17z"/>
						<path class="st6" d="M70.66,83.83c1.96-2.68,3.48-5.55,4.59-8.51c5.35-14.35,0.82-31.08-12.14-40.59
							c-15.64-11.47-37.63-8.09-49.1,7.55c-11.47,15.64-8.09,37.63,7.55,49.1c13.18,9.66,30.85,8.79,42.95-1.08
							C66.78,88.45,68.85,86.29,70.66,83.83z M33.51,87.68c-13.19-4.91-19.9-19.58-14.99-32.76c4.91-13.19,19.58-19.9,32.76-14.99
							c13.19,4.91,19.9,19.58,14.99,32.76C61.37,85.87,46.7,92.58,33.51,87.68z"/>
						<path class="st19" d="M51.94,42.09c-2.98-2.18-7.16-1.54-9.34,1.44c-1.05,1.43-1.48,3.22-1.21,4.97
							c0.27,1.75,1.23,3.33,2.66,4.38c2.98,2.18,7.16,1.54,9.34-1.44C55.57,48.45,54.92,44.27,51.94,42.09z"/>
						<path class="st20" d="M51.29,39.92c-13.19-4.91-27.86,1.81-32.76,14.99c-4.91,13.19,1.81,27.86,14.99,32.76
							c13.19,4.91,27.86-1.81,32.76-14.99C71.19,59.49,64.47,44.82,51.29,39.92z M53.53,50.91c-2.08,2.84-6.06,3.45-8.9,1.37
							c-1.36-1-2.27-2.5-2.53-4.17c-0.26-1.67,0.16-3.37,1.16-4.73c2.08-2.84,6.06-3.45,8.9-1.37
							C54.99,44.09,55.61,48.07,53.53,50.91z"/>
						<path class="st19" d="M50.9,40.49c-12.75-4.74-26.93,1.75-31.67,14.49c-4.74,12.75,1.75,26.93,14.49,31.67
							c12.75,4.74,26.93-1.75,31.67-14.49C70.14,59.41,63.65,45.23,50.9,40.49z M53.07,51.11c-2.01,2.74-5.86,3.34-8.6,1.33
							c-1.32-0.97-2.2-2.41-2.44-4.03c-0.25-1.61,0.15-3.26,1.12-4.57c2.01-2.74,5.86-3.34,8.6-1.33
							C54.49,44.52,55.08,48.37,53.07,51.11z"/>
						<path class="st6" d="M52.16,42.01c-2.84-2.08-6.82-1.46-8.9,1.37c-1,1.36-1.41,3.06-1.16,4.73c0.26,1.67,1.17,3.17,2.53,4.17
							c2.84,2.08,6.82,1.46,8.9-1.37C55.61,48.07,54.99,44.09,52.16,42.01z"/>
						<path class="st19" d="M51.86,42.42c-2.61-1.91-6.27-1.35-8.18,1.26c-0.92,1.25-1.3,2.82-1.06,4.35
							c0.24,1.54,1.07,2.91,2.33,3.83c2.61,1.91,6.27,1.35,8.18-1.26C55.03,48,54.47,44.34,51.86,42.42z"/>
					</g>
					<g id="Grupo_60627" transform="translate(60.304 52.244)">
						<g id="Grupo_60626">
							<g id="Grupo_60625">
								<path id="Trazado_121200" class="st11" d="M22.78,40.28c3.13-0.47,5.96-0.94,8.66-1.39c-2.41-1.98-4.84-4-6.39-6.69
									c-0.6-0.82-0.79-1.87-0.51-2.84c0.34-0.7,1-1.2,1.77-1.33c0.76-0.14,1.54-0.14,2.3,0c7.11,0.85,27.12,7.14,27.12,7.14
									c12.61,5.32,23.82,17.02,22.97,26.37c-0.02,0.15-0.05,0.29-0.08,0.43l34.03,58.83l50.35-8.72l-2.48,39.64
									c-1.24,23.92-16.4,45.4-40.14,42.23c-18.72-1.64-29.99-5.66-38.36-22.31l-38.4-94.59l-11.27,0.9
									c-5.1,0.67-9.91-3.9-6.85-6.38c-3.71,1.51-8.32,1.85-9.71-2.87c-1.07-2.55,0.33-4.11,2.33-5.24
									c-3.4,1.3-7.02,1.91-8.51-1.92c-2.17-3.93,0.65-6.32,3.91-7.86c-2.45,0.62-4.91,0.44-6-2.42
									C5.18,42.83,16.23,41.74,22.78,40.28z M23.64,61.18c-0.45,0.15-0.96,0.35-1.51,0.59C22.7,61.56,23.21,61.37,23.64,61.18
									L23.64,61.18z"/>
								<path id="Trazado_121201" class="st21" d="M77.65,63.68c0.47-0.47,0.8-1.05,0.95-1.7l7.04,12.15l-10.48-7.94
									C76.21,65.14,77.06,64.27,77.65,63.68z"/>
								<path id="Trazado_121202" class="st21" d="M45.24,76.96l1.79,8.45l-3.4-8.36l1.02-0.08L45.24,76.96z"/>
								<path id="Trazado_121203" class="st21" d="M31.46,38.89l15.17-1.25c0,0-16.66-3.02-19.37-2.55L31.46,38.89z"/>
							</g>
							<path id="Trazado_121204" class="st12" d="M12.24,54.88c0.12,0,0.25-0.03,0.36-0.08c3.27-0.84,6.59-1.49,9.94-1.96
								c0.47-0.09,0.77-0.55,0.68-1.01c-0.09-0.44-0.5-0.74-0.94-0.69c-1.5,0.25-9.02,1.47-10.39,2.11
								c-0.42,0.21-0.6,0.71-0.39,1.14c0.14,0.29,0.43,0.47,0.75,0.48V54.88z"/>
							<path id="Trazado_121205" class="st12" d="M17.42,64.56h0.15l8.12-1.45c0.46-0.08,0.77-0.52,0.69-0.99
								c-0.08-0.46-0.52-0.77-0.99-0.69l-8.12,1.45c-0.47,0.06-0.8,0.49-0.74,0.96c0.06,0.44,0.44,0.76,0.88,0.74L17.42,64.56z"/>
							<path id="Trazado_121206" class="st12" d="M25.51,72.42h0.16l4.36-0.85c0.46-0.1,0.75-0.56,0.64-1.01
								c-0.1-0.44-0.53-0.73-0.98-0.65l-4.36,0.85c-0.47,0.03-0.83,0.44-0.8,0.91c0.03,0.47,0.43,0.83,0.91,0.8
								c0.02,0,0.04,0,0.06-0.01L25.51,72.42z"/>
						</g>
						<path id="Trazado_121207" class="st22" d="M112.71,120.79l16.59,29.14l-6.46-30.92l-9.27,1.78"/>
					</g>
				</g>
			</g>
		</g>
		<g id="Grupo_60635" transform="translate(0 129.177)">
			<g id="Grupo_60632" transform="translate(47.453)">
				<path id="Trazado_121208" class="st23" d="M140.67,27.93h-2.87c-2.87,0.01-5.71,0.52-8.4,1.52h-67V198.1l102.63-0.17V52.32
					C165.04,38.86,154.13,27.94,140.67,27.93z"/>
				<path id="Trazado_121209" class="st24" d="M138.63,27.93L138.63,27.93c-13.12,0-26.69,6.45-29.49,24.71l-0.1,14.46
					c0.01,0.31,0.05,0.62,0.1,0.92l-0.11,0.26l-0.15,23.36c-0.94,6.98-6.56,12.69-14.04,14.68c0.8,0.38,1.67,0.59,2.55,0.63
					c11.25,1.15,20.99-7.22,20.99-17.65v-34.2c0-13.55,10.79-24.76,24.88-26.81C141.72,28.07,140.18,27.94,138.63,27.93z"/>
				<path id="Trazado_121210" class="st25" d="M57.55,27.93c-11.64,0-21.08,9.44-21.08,21.08l0,0v27.65H7.21v30.3h88.54
					c0.39,0.01,0.78-0.01,1.17-0.06h0.06c0.45-0.02,0.89-0.06,1.33-0.15l0.38-0.06c0.38-0.06,0.76-0.14,1.12-0.22l0.54-0.15
					c0.32-0.08,0.64-0.17,0.95-0.28s0.47-0.16,0.7-0.25s0.51-0.19,0.77-0.3s0.65-0.31,0.96-0.47c0.15-0.06,0.3-0.14,0.45-0.22
					c0.96-0.52,1.87-1.13,2.71-1.83l0.16-0.15c0.36-0.3,0.71-0.61,1.05-0.94l0.22-0.23c0.3-0.31,0.59-0.63,0.85-0.97l0.24-0.29
					c0.26-0.32,0.51-0.66,0.75-1.01l0.23-0.32c0.23-0.35,0.44-0.71,0.65-1.06c0.07-0.12,0.14-0.24,0.2-0.36
					c0.2-0.37,0.37-0.75,0.54-1.13c0.06-0.12,0.12-0.24,0.17-0.37c0.17-0.41,0.32-0.85,0.45-1.24c0-0.11,0.08-0.21,0.12-0.32
					c0.16-0.51,0.29-1.03,0.39-1.55c0.07-0.31,0.11-0.63,0.16-0.94s0.07-0.37,0.09-0.57h0.22V52.32c0-13.47,10.92-24.39,24.39-24.4
					L57.55,27.93z"/>
				<g id="Grupo_60631" transform="translate(34.58 74.844)">
					<path id="Trazado_121211" class="st11" d="M65.85,56.45c0.11-2-1.4-3.72-3.4-3.86h-0.41l-0.38-0.19
						c1.53-0.52,2.56-1.96,2.55-3.58c0.1-2-1.41-3.72-3.4-3.87l-32.97-3.4l3.9-5.75c1.38-2.28,0.95-5.21-1.01-7
						c-0.98-1.02-2.55-1.16-3.7-0.34c-6.94,5.34-14.3,10.99-17.87,19.29c-3.73,8.71-2.38,21.06,6.33,26.37
						c5.78,3.51,13.11,4.14,19.71,3.61c2.87-0.23,18.31-3.89,19.07-3.99c2.65-0.38,5.7-1.25,5.23-4.37
						c-0.13-0.93-0.65-1.77-1.42-2.31c-0.05-0.03-0.1-0.08-0.13-0.13c-0.09-0.2,0.22-0.34,0.44-0.35c2.35-0.08,4.71-0.95,4.84-3.64
						c0-0.92-0.26-1.82-0.75-2.6c0.79-0.39,1.61-0.42,2.3-1.13C65.49,58.47,65.87,57.48,65.85,56.45L65.85,56.45z"/>
					<path id="Trazado_121212" class="st26" d="M27.82,41.56l-5.36-0.6l8.34-3.79L27.82,41.56z"/>
					<path id="Trazado_121213" class="st12" d="M61.94,53.12c0.47-0.02,0.83-0.42,0.81-0.89c-0.02-0.44-0.37-0.79-0.81-0.81
						l-15.11-0.27c-0.47,0.02-0.83,0.42-0.81,0.89c0.02,0.44,0.37,0.79,0.81,0.81L61.94,53.12z"/>
					<path id="Trazado_121214" class="st12" d="M60.92,60.71c0.47,0.02,0.87-0.34,0.89-0.81c0.02-0.47-0.34-0.87-0.81-0.89
						c-0.03,0-0.05,0-0.08,0l-15.11-0.27c-0.47,0.02-0.83,0.42-0.81,0.89c0.02,0.44,0.37,0.79,0.81,0.81L60.92,60.71z"/>
					<path id="Trazado_121215" class="st12" d="M45.77,67.78L45.77,67.78l11.91-0.23c0.47,0.02,0.87-0.34,0.89-0.81
						c0.02-0.47-0.34-0.87-0.81-0.89c-0.03,0-0.05,0-0.08,0l0,0l-11.91,0.23c-0.47-0.02-0.87,0.34-0.89,0.81
						c-0.02,0.47,0.34,0.87,0.81,0.89C45.72,67.79,45.75,67.79,45.77,67.78L45.77,67.78z"/>
				</g>
			</g>
			<g id="Grupo_60634" transform="translate(0 23.114)">
				<path id="Trazado_121216" class="st27" d="M116.92,27.93h-2.02c0.68,0.05,1.35,0.14,2.02,0.29V27.93z"/>
				<g id="Grupo_60633">
					<path id="Trazado_121217" class="st28" d="M110.03,29.17c-0.2,0.08-0.38,0.19-0.57,0.28
						C109.63,29.33,109.82,29.24,110.03,29.17z"/>
					<path id="Trazado_121218" class="st28" d="M108.92,29.73c-0.2,0.11-0.39,0.22-0.58,0.35
						C108.52,29.94,108.71,29.82,108.92,29.73z"/>
					<path id="Trazado_121219" class="st28" d="M111.13,28.7l-0.55,0.22L111.13,28.7z"/>
					<path id="Trazado_121220" class="st28" d="M107.9,30.37c-0.2,0.14-0.4,0.28-0.6,0.42C107.48,30.65,107.73,30.5,107.9,30.37z"/>
					<path id="Trazado_121221" class="st28" d="M112.32,28.33l-0.52,0.15L112.32,28.33z"/>
					<path id="Trazado_121222" class="st28" d="M113.6,28.08l-0.43,0.08L113.6,28.08z"/>
					<path id="Trazado_121223" class="st28" d="M106.96,31.07c-0.21,0.17-0.41,0.34-0.6,0.53C106.54,31.4,106.74,31.23,106.96,31.07
						z"/>
					<path id="Trazado_121224" class="st28" d="M105.43,32.47c0.2-0.22,0.42-0.43,0.64-0.65C105.87,32.05,105.66,32.27,105.43,32.47
						z"/>
					<path id="Trazado_121225" class="st28" d="M101.94,39.97c0.37-2.74,1.55-5.31,3.4-7.38C103.5,34.66,102.31,37.23,101.94,39.97
						L101.94,39.97z"/>
					<path id="Trazado_121226" class="st29" d="M127.98,66.34V39.97h-0.23c-0.79-5.82-5.14-10.52-10.88-11.75
						c-0.66-0.14-1.34-0.24-2.02-0.29c-0.43,0.03-0.86,0.07-1.29,0.15l-0.43,0.08c-0.28,0.05-0.55,0.1-0.85,0.17l-0.52,0.15
						l-0.68,0.21l-0.55,0.22l-0.6,0.25c-0.2,0.08-0.38,0.19-0.57,0.28s-0.35,0.18-0.52,0.28s-0.39,0.22-0.58,0.35l-0.43,0.29
						c-0.21,0.14-0.4,0.28-0.6,0.42l-0.35,0.28c-0.2,0.17-0.41,0.34-0.6,0.53s-0.16,0.15-0.25,0.23c-0.21,0.21-0.43,0.42-0.64,0.65
						l-0.09,0.12c-1.85,2.06-3.03,4.63-3.4,7.38l0,0c-0.08,0.61-0.13,1.23-0.14,1.85v7.5H29.14v16.96c0,9.7,7.86,17.56,17.56,17.56
						c0,0,0,0,0.01,0h96.45v-0.19C134.47,82.5,127.99,75.09,127.98,66.34z"/>
					<path id="Trazado_121227" class="st30" d="M101.86,41.83c0.01-0.62,0.05-1.24,0.13-1.85c0.37-2.74,1.55-5.31,3.4-7.38
						l0.09-0.12c0.2-0.22,0.43-0.44,0.64-0.65c0.09-0.08,0.16-0.16,0.25-0.23s0.4-0.36,0.6-0.53l0.35-0.28
						c0.2-0.15,0.39-0.29,0.6-0.43l0.43-0.29c0.19-0.13,0.38-0.24,0.58-0.35s0.35-0.2,0.52-0.28s0.37-0.2,0.57-0.28l0.6-0.25
						l0.55-0.22l0.68-0.21l0.52-0.15c0.26-0.07,0.54-0.12,0.85-0.17l0.43-0.09c0.43-0.07,0.85-0.12,1.29-0.15H24.77
						c-9.7,0-17.56,7.86-17.56,17.56c0,0,0,0,0,0.01v3.83h94.71L101.86,41.83z"/>
				</g>
			</g>
		</g>
	</g>
</g>
</svg>
