<svg xmlns="http://www.w3.org/2000/svg" width="84.584" height="84.584" viewBox="0 0 84.584 84.584">
  <g id="Grupo_64097" data-name="Grupo 64097" transform="translate(-620.416 -8448)">
    <rect id="Rectángulo_31330" data-name="Rectángulo 31330" width="84.584" height="84.584" rx="42" transform="translate(620.416 8448)" fill="#d9a171"/>
    <g id="Grupo_64090" data-name="Grupo 64090" transform="translate(123.395 8306.725)">
      <path id="Trazado_133085" data-name="Trazado 133085" d="M529.395,167.652a5.051,5.051,0,0,1,2.63-1.709,1.737,1.737,0,0,1,.54-.02q6.451-.031,12.9-.033a4.38,4.38,0,0,1,2.3,8.248c1.211,1.127,2.407,2.254,3.528,3.459a43.206,43.206,0,0,1,8.723,12.99,18.986,18.986,0,0,1,1.4,10.136,9.49,9.49,0,0,1-7.513,8.356,24.454,24.454,0,0,1-5.342.777c-5.573.245-11.149.121-16.723.079a22.917,22.917,0,0,1-8.595-1.481,9.391,9.391,0,0,1-6.012-7.684,19.372,19.372,0,0,1,1.949-11.385,45.667,45.667,0,0,1,9.6-13.253c.672-.67,1.376-1.306,2.09-1.981-.272-.2-.542-.376-.785-.583a4.061,4.061,0,0,1-1.533-3.367,1.81,1.81,0,0,0-.38-1.2,12.259,12.259,0,0,1-2.469-7.844,4.717,4.717,0,0,1,3.6-4.721,5.223,5.223,0,0,1,3.574.441,8.88,8.88,0,0,1,1.952,1.311c.3.268.419.307.636-.1a4.457,4.457,0,0,1,7.87-.3c.279.412.424.462.821.139a7.159,7.159,0,0,1,3.1-1.56,4.349,4.349,0,0,1,5.468,3.489,10.506,10.506,0,0,1-.733,6.377,7.5,7.5,0,0,1-.3.7.874.874,0,0,1-1.6-.713,12.265,12.265,0,0,0,1.035-3.562,5.422,5.422,0,0,0-.261-2.7,2.826,2.826,0,0,0-3.736-1.74,7.606,7.606,0,0,0-2.723,1.7c-.818.746-1.284.675-1.838-.3a5.424,5.424,0,0,0-1.462-1.758,2.538,2.538,0,0,0-3.369.09,5.987,5.987,0,0,0-1.482,2.018c-.422.839-1.009.94-1.68.283a8.112,8.112,0,0,0-3.032-2.016,2.88,2.88,0,0,0-3.98,2.324,8.985,8.985,0,0,0,.74,4.973A11.219,11.219,0,0,0,529.395,167.652ZM539.532,208.2c.933,0,1.867,0,2.8,0a49.505,49.505,0,0,0,9.674-.657,11.106,11.106,0,0,0,4.8-2.029c2.207-1.742,2.91-4.17,3.027-6.834a17.636,17.636,0,0,0-1.436-7.48c-2.708-6.63-7.2-11.9-12.66-16.417a.787.787,0,0,0-.556-.16q-5.875,0-11.749,0a1.012,1.012,0,0,0-.7.246A43.9,43.9,0,0,0,520.8,190.053a17,17,0,0,0-1.917,9.433,8.449,8.449,0,0,0,4.707,7,17.665,17.665,0,0,0,6.613,1.6C533.31,208.339,536.423,208.179,539.532,208.2Zm-.193-40.543v-.006c-2.085,0-4.17.007-6.254,0a2.743,2.743,0,0,0-1.883.611,2.618,2.618,0,0,0-.781,2.832,2.526,2.526,0,0,0,2.5,1.769q6.391.016,12.783,0a2.788,2.788,0,0,0,.7-.083,2.58,2.58,0,0,0,1.907-2.879,2.532,2.532,0,0,0-2.507-2.235C543.656,167.643,541.5,167.659,539.34,167.659Z" fill="#12263f"/>
      <path id="Trazado_133089" data-name="Trazado 133089" d="M612.836,402.6c.6-.18.947.086,1.245.6a10.038,10.038,0,0,0,9.344,5.353,10.191,10.191,0,1,0-10.489-11.366,7.887,7.887,0,0,0-.073.984.956.956,0,0,1-.843,1.092c-.709-.139-.927-.4-.924-1.116a11.969,11.969,0,1,1,1.443,5.913C612.174,403.369,612.231,403.088,612.836,402.6Z" transform="translate(-83.742 -205.52)" fill="#12263f"/>
      <path id="Trazado_133090" data-name="Trazado 133090" d="M693.576,440.756a1.256,1.256,0,0,0,1.269,1.355,3,3,0,0,1,2.966,2.513,3.07,3.07,0,0,1-1.69,3.469.605.605,0,0,0-.363.529.786.786,0,0,1-.849.7.768.768,0,0,1-.852-.69c-.034-.323-.195-.407-.442-.515a3.02,3.02,0,0,1-1.691-1.774c-.249-.672-.1-1.113.443-1.323s.937.028,1.2.69a1.4,1.4,0,0,0,1.805.885,1.476,1.476,0,0,0,.743-1.894,1.21,1.21,0,0,0-1.244-.815,3.138,3.138,0,0,1-2.94-3.974,2.809,2.809,0,0,1,1.715-2,.519.519,0,0,0,.394-.546.913.913,0,0,1,.947-.929c.47.016.763.335.783.942.009.293.127.394.377.5a3,3,0,0,1,1.757,1.849c.22.641.063,1.081-.453,1.275-.548.207-.958-.025-1.206-.682a1.379,1.379,0,0,0-1.674-.965A1.357,1.357,0,0,0,693.576,440.756Z" transform="translate(-155.591 -250.038)" fill="#12263f"/>
    </g>
  </g>
</svg>
