<svg xmlns="http://www.w3.org/2000/svg" width="85.718" height="85.718" viewBox="0 0 85.718 85.718">
  <g id="Grupo_70097" data-name="Grupo 70097" transform="translate(-337 -2328.329)">
    <circle id="Elipse_76" data-name="Elipse 76" cx="42.859" cy="42.859" r="42.859" transform="translate(337 2328.329)" fill="#5e6178" opacity="0.1"/>
    <g id="Grupo_64108" data-name="Grupo 64108" transform="translate(-197.695 2080.305)">
      <path id="Trazado_133144" data-name="Trazado 133144" d="M602.876,312.2a.655.655,0,0,0,.134.026c1.325-.1,1.513.33,1.467,1.5-.032.814,0,1.631-.008,2.446a.838.838,0,0,1-.934.95c-.1,0-.2,0-.306,0H555.166c-1.048,0-1.257-.207-1.257-1.24q0-1.274,0-2.548c0-.84.257-1.1,1.087-1.1.165,0,.33,0,.519,0V284.5c-.2,0-.391,0-.587,0-.732-.008-1.018-.287-1.019-1.019q0-4.613,0-9.225,0-1.657,0-3.313c0-.869.249-1.116,1.12-1.122h.511c0-.759,0-1.484,0-2.208,0-.771.276-1.053,1.035-1.053q22.6,0,45.209,0c.788,0,1.053.276,1.056,1.085,0,.709,0,1.419,0,2.177.246,0,.445,0,.644,0,.7.011.984.3.985,1q.006,2.93,0,5.861,0,3.262,0,6.524c0,1.091-.185,1.281-1.257,1.292-.1,0-.2,0-.338,0Zm-.073-29.35V271.5H555.567v11.355Zm-16.273,29.368v-.584q0-7.287,0-14.574c0-.9.245-1.14,1.152-1.14h10.7c.968,0,1.195.227,1.195,1.2q0,7.236,0,14.472v.6h1.592V294.332H557.2V312.2h1.6v-.641q0-7.236,0-14.472c0-.93.237-1.162,1.181-1.162H582.1c.933,0,1.169.237,1.169,1.176q0,7.261,0,14.523v.6Zm11.382-.011V297.592h-9.725v14.616Zm-35.848.012v-.6q0-5.632,0-11.263c0-.94.234-1.175,1.168-1.175h15.6c.94,0,1.177.235,1.177,1.167q0,5.657,0,11.314v.525h1.6v-14.6H560.474V312.22Zm40.753,1.679H555.564v1.568h47.253ZM563.73,300.838v11.354h6.463V300.838Zm14.608,11.372V300.856h-6.46v11.354Zm22.848-43.981H557.212V269.8h43.973Zm0,16.309H557.21v1.573h43.973Zm-43.971,3.239v4.849h9.7v-4.849Zm21.149.033h-9.74v4.812h9.74Zm11.392,4.828v-4.831h-9.722v4.831Zm11.426-4.843h-9.725v4.828h9.752c0-1.563,0-3.09,0-4.616A1.864,1.864,0,0,0,601.18,287.794Z" fill="#5e6178"/>
      <path id="Trazado_133145" data-name="Trazado 133145" d="M909.184,586.545c.748,0,1.495,0,2.242,0,.675.005.98.294.983.951q.011,2.319,0,4.638a.829.829,0,0,1-.95.932q-2.319.01-4.638,0a.828.828,0,0,1-.931-.95q-.01-2.319,0-4.638c0-.63.309-.925.949-.932C907.621,586.539,908.4,586.545,909.184,586.545Zm-1.629,1.653v3.2h3.2v-3.2Z" transform="translate(-316.097 -287.361)" fill="#5e6178"/>
      <g id="Grupo_64107" data-name="Grupo 64107" transform="translate(565.325 273.058)">
        <path id="Trazado_133146" data-name="Trazado 133146" d="M665.905,330.286h3.021a5.9,5.9,0,0,1,1.558.156,2.738,2.738,0,0,1,1.234.754,3.577,3.577,0,0,1,.782,1.326,6.041,6.041,0,0,1,.268,1.935,5.379,5.379,0,0,1-.251,1.743,3.611,3.611,0,0,1-.877,1.447,2.907,2.907,0,0,1-1.162.653,5,5,0,0,1-1.463.173h-3.111Zm1.653,1.385v5.423h1.234a4.5,4.5,0,0,0,1-.078,1.526,1.526,0,0,0,.667-.341,1.734,1.734,0,0,0,.433-.79,5.341,5.341,0,0,0,.168-1.5,4.892,4.892,0,0,0-.168-1.458,1.876,1.876,0,0,0-.469-.793,1.575,1.575,0,0,0-.765-.385,7.5,7.5,0,0,0-1.357-.078Z" transform="translate(-665.905 -330.286)" fill="#5e6178"/>
        <path id="Trazado_133147" data-name="Trazado 133147" d="M746.5,338.474v-8.188h1.653v8.188Z" transform="translate(-738.281 -330.286)" fill="#5e6178"/>
        <path id="Trazado_133148" data-name="Trazado 133148" d="M778.217,338.474h-1.8l-.715-1.86h-3.273l-.676,1.86H770l3.189-8.188h1.748Zm-3.044-3.239-1.128-3.038-1.106,3.038Z" transform="translate(-759.389 -330.286)" fill="#5e6178"/>
        <path id="Trazado_133149" data-name="Trazado 133149" d="M859.357,338.474v-8.188h1.609l3.351,5.468v-5.468h1.536v8.188h-1.659l-3.3-5.339v5.339Z" transform="translate(-839.636 -330.286)" fill="#5e6178"/>
      </g>
    </g>
  </g>
</svg>
