<svg xmlns="http://www.w3.org/2000/svg" width="85.718" height="85.718" viewBox="0 0 85.718 85.718">
  <g id="Grupo_70098" data-name="Grupo 70098" transform="translate(-757 -2328)">
    <circle id="Elipse_76" data-name="Elipse 76" cx="42.859" cy="42.859" r="42.859" transform="translate(757 2328)" fill="#5e6178" opacity="0.1"/>
    <g id="Grupo_64106" data-name="Grupo 64106" transform="translate(274.984 2072.716)">
      <path id="Trazado_133139" data-name="Trazado 133139" d="M542.832,325.917H511.188a21.39,21.39,0,0,1,4.075-7.973c.809-.973,1.753-1.833,2.617-2.76a.888.888,0,0,0,.28-.594c-.227-1.529-.5-3.053-.776-4.72a7.146,7.146,0,0,1-7.569,2.183c.15,1.225.3,2.4.438,3.574.067.56.169,1.119.18,1.681a2.723,2.723,0,0,1-2.656,2.81c-2.7.035-5.4.04-8.1,0a2.772,2.772,0,0,1-2.634-3.238q.294-2.4.6-4.8.58-4.586,1.164-9.172c.183-1.44.6-1.882,2.057-2.2V299.8c-.343,0-.679.009-1.014,0a2.9,2.9,0,0,1,.028-5.8c.32-.009.641,0,.949,0,.358-1.479.942-1.936,2.43-1.937h1.21a2.017,2.017,0,0,1,2.256,1.916c3.338.064,4.655,2.317,5.456,5.194,1.154-2.68,2.7-4.919,5.681-5.791l-.532-.648a12.226,12.226,0,0,1-2.885-7.835c-.028-2.8-.023-5.6,0-8.406A10.63,10.63,0,0,1,525,265.942a47.234,47.234,0,0,1,5.373.123,10.528,10.528,0,0,1,9.205,10.091c.061,3.043.064,6.089-.006,9.131a11.872,11.872,0,0,1-2.762,7.328c-.189.234-.385.461-.638.762,2.969.883,4.534,3.1,5.643,5.929.265-.712.477-1.249.666-1.794a4.946,4.946,0,0,1,4.8-3.542c.037-.137.077-.3.126-.468a1.92,1.92,0,0,1,1.874-1.433c.544-.013,1.089,0,1.633,0A2.032,2.032,0,0,1,553.185,294c.3,0,.616-.006.932,0a2.9,2.9,0,1,1-.02,5.8c-.3.006-.6,0-.921,0v.933c1.439.116,1.945,1.029,2.1,2.373.464,4.042,1,8.076,1.5,12.113.065.52.128,1.04.2,1.558a2.807,2.807,0,0,1-2.888,3.345q-3.78.013-7.56,0a2.818,2.818,0,0,1-2.9-3.39c.193-1.417.368-2.836.547-4.255a3.949,3.949,0,0,0,0-.425,7.014,7.014,0,0,1-4.047.055,7.644,7.644,0,0,1-3.48-2.272c-.284,1.71-.558,3.27-.784,4.836-.025.171.188.421.351.566a22.122,22.122,0,0,1,6.572,10.449C542.8,325.749,542.811,325.808,542.832,325.917ZM520.073,314.3h13.883c.639-4.511,1.75-8.935,1.787-13.486h1.912v1.954l3.146-1.353c-.713-1.356-1.31-2.685-2.089-3.9a5.771,5.771,0,0,0-1.776-1.682c-1.526-.954-3.342-1.041-5.081-1.566,0,.578,0,1.06,0,1.541a2.909,2.909,0,0,1-3.057,3.029c-1.028.006-2.06.052-3.083-.016a1.441,1.441,0,0,0-1.45.792,4.105,4.105,0,0,1,1.249,5.445,4.019,4.019,0,0,1,2.464,3.631c.052,1.494-.856,2.631-1.439,3.888-1.487-.432-2.922-.806-3.759-2.2a4.14,4.14,0,0,1-.067-4.18c-2.5-1.54-2.9-2.882-1.839-6.077a6.064,6.064,0,0,1-2.6-4.936,18.567,18.567,0,0,0-1.779,1.054c-1.73,1.307-2.19,3.4-3.261,5.183l3.182,1.357v-1.97h1.876C518.322,305.393,519.445,309.8,520.073,314.3Zm6.984-44.443h1.894c0,.471-.007.894,0,1.316a2.367,2.367,0,0,0,1.483,2.291,2.316,2.316,0,0,0,2.72-.535,8.1,8.1,0,0,0,.695-.855l1.521,1.377-.736.78a5.86,5.86,0,0,1,1.085,3.312c.008,1.673.021,3.346,0,5.019a7.83,7.83,0,0,1-1.73,4.988,34.534,34.534,0,0,1-2.688,2.645c-.116-.011-.094.084-.073.18.421,1.89.419,1.9,2.329,2.309a.875.875,0,0,0,.676-.165,9.982,9.982,0,0,0,3.406-7.294c.081-3,.066-6.007.008-9.01a8.573,8.573,0,0,0-7.355-8.2,43.6,43.6,0,0,0-5.251-.131,8.692,8.692,0,0,0-8.665,8.659q-.025,4.142,0,8.285a10.331,10.331,0,0,0,2.347,6.585c.474.589,1.214,1.053,1.459,1.712a8.277,8.277,0,0,1,.075,2.337,3.706,3.706,0,0,0,1.622,2.963.609.609,0,0,0,.518.063,3.029,3.029,0,0,0,1.538-3.732,7.383,7.383,0,0,0-1.327-1.83.791.791,0,0,1-.223-.85c.2-.65.332-1.32.495-1.994-.154-.1-.285-.194-.418-.279a8.217,8.217,0,0,1-4.037-6.278c-.189-1.918-.1-3.864-.111-5.8-.013-3.2.873-4.48,3.859-5.64.016-.006.026-.028.051-.058v-2.188h1.831a17.659,17.659,0,0,0,.2,2.11,2.131,2.131,0,0,0,1.354,1.522,2.051,2.051,0,0,0,1.989-.082A5.673,5.673,0,0,1,527.057,269.853Zm13.025,54.133a1.8,1.8,0,0,0-.056-.246,19.341,19.341,0,0,0-5.379-7.26,1.182,1.182,0,0,0-.711-.212q-6.92-.018-13.84,0a1.34,1.34,0,0,0-.8.288,19.37,19.37,0,0,0-5.119,6.793c-.088.194-.163.393-.261.632Zm-6.191-43.811-.1-.008a25.012,25.012,0,0,0-.022-2.6,9.744,9.744,0,0,0-.523-1.895c-.095-.3-.308-.35-.624-.252a4.3,4.3,0,0,1-3.333-.351.751.751,0,0,0-.584-.006,4.379,4.379,0,0,1-5.365-.886.808.808,0,0,0-.612-.2,2.879,2.879,0,0,0-2.482,2.957c-.008,1.168-.015,2.337,0,3.505a23.74,23.74,0,0,0,.114,3.012,6.728,6.728,0,0,0,13.176.606A28.551,28.551,0,0,0,533.891,280.175Zm13.4,20.57v-4.788a2.851,2.851,0,0,0-2.838,1.82c-.319.782-.585,1.585-.875,2.379l-2.108,5.781-1.8-.653.487-1.486c-.9.388-1.684.706-2.445,1.068a.765.765,0,0,0-.343.484c-.434,2.09-.428,2.091,1.095,3.573.1.1.2.2.309.289a4.836,4.836,0,0,0,5.3.783.893.893,0,0,0,.454-.593c.3-2.194.571-4.393.848-6.591A2.021,2.021,0,0,1,547.294,300.745Zm-40.583,0a2.143,2.143,0,0,1,1.966,2.2c.223,2.143.536,4.276.787,6.416a.7.7,0,0,0,.491.661,4.872,4.872,0,0,0,5.259-.792,17.566,17.566,0,0,0,1.547-1.529.741.741,0,0,0,.174-.523c-.066-.62-.172-1.236-.281-1.85-.026-.146-.087-.357-.192-.405-.826-.378-1.667-.724-2.608-1.124l.506,1.487-1.8.648c-.278-.754-.529-1.43-.777-2.109-.716-1.966-1.416-3.938-2.151-5.9a2.715,2.715,0,0,0-2.921-1.918Zm-7.734,16.329c1.246-1.038,2.333-1.963,3.444-2.857a.981.981,0,0,0,.407-.863c-.015-3.362-.008-6.724-.01-10.086,0-.174-.022-.347-.033-.515h-2.02Zm52.273-14.339a1.723,1.723,0,0,0-.037.227q0,5.284,0,10.569a.63.63,0,0,0,.128.433c1.187,1.012,2.389,2.007,3.709,3.108l-1.792-14.337Zm-3.915,0-1.78,14.251c.231-.17.378-.264.509-.376.938-.795,1.862-1.606,2.815-2.383a.992.992,0,0,0,.4-.868c-.015-3.346-.008-6.692-.01-10.039,0-.193-.017-.387-.027-.586Zm-42.581,0v.713c0,2.762.1,5.529-.039,8.283a3.518,3.518,0,0,0,1.676,3.569,20.683,20.683,0,0,1,2.087,1.733l-1.787-14.3Zm21.161-5.84c1.075,0,2.12.04,3.159-.016a.9.9,0,0,0,.84-1.005,19.263,19.263,0,0,0-.015-2.353c-.1-.905-.345-1.8-.538-2.748a9.059,9.059,0,0,1-4.794-.016c0,.527-.177,1.094.029,1.335A5.4,5.4,0,0,1,525.917,296.891Zm-21.193,3.855v-6.708h-1.861v6.708Zm46.445,0v-6.7h-1.863v6.7ZM503.783,315.59l-3.068,2.559h6.078Zm46.467,0-3.06,2.606h6.183ZM522.7,301.021c-.924,1.459-.546,2.842.883,3.356A2.069,2.069,0,0,0,522.7,301.021Zm1.937,5.807c-.928,1.454-.553,2.832.879,3.357A2.069,2.069,0,0,0,524.639,306.827Zm-23.775-10.885c-.679.031-1.41-.228-1.764.513a1.194,1.194,0,0,0,.062.993c.406.634,1.081.4,1.7.391Zm52.3,1.917c.673-.022,1.4.23,1.759-.5a1.194,1.194,0,0,0-.055-.994c-.4-.64-1.081-.4-1.7-.4Z" fill="#5e6178"/>
      <path id="Trazado_133141" data-name="Trazado 133141" d="M705,394.2h9.619a4.932,4.932,0,0,1-2.02,4.877,4.552,4.552,0,0,1-5.18.248A4.919,4.919,0,0,1,705,394.2Zm2.181,1.944a2.7,2.7,0,0,0,2.566,1.9,2.732,2.732,0,0,0,2.707-1.9Z" transform="translate(-182.797 -112.756)" fill="#5e6178"/>
      <path id="Trazado_133142" data-name="Trazado 133142" d="M706.016,362.037a.963.963,0,1,1-.975.95A.972.972,0,0,1,706.016,362.037Z" transform="translate(-182.859 -84.485)" fill="#5e6178"/>
      <path id="Trazado_133143" data-name="Trazado 133143" d="M770,362.038a.963.963,0,1,1-.956.969A.972.972,0,0,1,770,362.038Z" transform="translate(-239.117 -84.486)" fill="#5e6178"/>
    </g>
  </g>
</svg>
