<svg xmlns="http://www.w3.org/2000/svg" width="152.828" height="163.82" viewBox="0 0 152.828 163.82">
  <g id="Grupo_70102" data-name="Grupo 70102" transform="translate(-978.172 -7279.18)">
    <circle id="Elipse_157" data-name="Elipse 157" cx="69.5" cy="69.5" r="69.5" transform="translate(992 7304)" fill="#5e6178"/>
    <g id="Grupo_66845" data-name="Grupo 66845" transform="translate(-220.376 6764.916)">
      <path id="Trazado_133737" data-name="Trazado 133737" d="M1412.2,817.044a52.6,52.6,0,0,1,4.914-8.183,3.056,3.056,0,0,1,1.85-.384c4.317,0,8.633-.03,12.949.008a12.762,12.762,0,0,1,13.027,13c.041,3.5-.039,7.008.008,10.513,0,.961.034,1.921-.01,2.882q.062,8.767.037,17.533a14.35,14.35,0,0,1-.034,1.534c.043,2.656.035,5.312.007,7.966.026,3.538-.272,7.083.213,10.614a11.779,11.779,0,0,0,9.675,9.646c3.38.5,6.733.116,10.089-.086a76.72,76.72,0,0,0,12.027-1.738,50.956,50.956,0,0,0,16.992-6.925c8.586-5.6,13.443-13.615,15.2-23.624.147-.837.013-1.781.689-2.514.5.393.1.947.358,1.337.26,9.164-1.633,17.74-7.213,25.2a37.041,37.041,0,0,1-15.43,11.726,66.6,66.6,0,0,1-20.656,4.95,9.311,9.311,0,0,0-3.35.459h-2.052c-.422-.269-.891-.071-1.334-.132-.58.063-1.18-.135-1.744.132h-3.592a3.34,3.34,0,0,0-2.052,0h-2.822c-2.525-.369-5.088-.225-7.617-.632-2.194-.353-4.376-.742-6.539-1.245a3.13,3.13,0,0,1-1.526-.614.928.928,0,0,1,.151-1.063,10.064,10.064,0,0,0,1.573-6.537c-.039-.8-.017-1.608-.011-2.413-.055-2.676-.052-5.351-.007-8.026q-.073-4.1,0-8.192-.072-4.111,0-8.222c-.051-4.09-.058-8.18,0-12.27-.04-2.7-.056-5.41.005-8.114-.023-2.6.007-5.2-.012-7.806-.039-5-3.37-8.335-8.385-8.361-4.522-.023-9.045,0-13.568-.013C1413.39,817.444,1412.716,817.577,1412.2,817.044Z" transform="translate(-158.842 -218.726)" fill="#4877a0"/>
      <path id="Trazado_133738" data-name="Trazado 133738" d="M1570.34,1129.139a1.921,1.921,0,0,1,2.052,0Z" transform="translate(-276.411 -456.911)" fill="#c59c73"/>
      <path id="Trazado_133739" data-name="Trazado 133739" d="M1592.34,1129.2c.543-.491,1.2-.161,1.8-.253.082.058.109.114.08.17s-.056.083-.084.083Z" transform="translate(-292.767 -456.968)" fill="#bf9366"/>
      <path id="Trazado_133740" data-name="Trazado 133740" d="M1599.34,1129.228c0-.084,0-.169,0-.253.43.065.923-.184,1.279.253Z" transform="translate(-297.971 -457)" fill="#c8a17a"/>
      <path id="Trazado_133741" data-name="Trazado 133741" d="M1458.83,773.925c-.01-3.586.013-7.171-.036-10.756a12.241,12.241,0,0,0-9.559-12.007,14.4,14.4,0,0,0-3.152-.389c-4.909.031-9.818.014-14.728.015a44.712,44.712,0,0,1,17.866-15.276c.429-.209,1.043-.23,1.138-.887a44.449,44.449,0,0,1,14.385-3.923,51.043,51.043,0,0,1,26.078,3.589c.274.118.565.193.844.3a6.471,6.471,0,0,1,1.965,1.31,51.6,51.6,0,0,1,12.871,9.579c5.191,5.458,8.764,11.927,11.807,18.733a70.75,70.75,0,0,1,5.258,17.448,42.3,42.3,0,0,1,.866,8.884c-.372-.241-.045-.748-.38-1.028A37.077,37.077,0,0,1,1517.536,807a34.665,34.665,0,0,1-11.639,10.148,57.993,57.993,0,0,1-20.681,6.524,100.775,100.775,0,0,1-13.712.992c-5.9-.03-10.54-3.291-12.2-8.964a12.208,12.208,0,0,1-.479-3.131c-.061-2.818-.013-5.638-.008-8.457a1.908,1.908,0,0,1,1.335-.335c1.794-.012,3.589-.025,5.383,0,1.57.024,1.816.286,1.842,1.917s.039,3.248,0,4.87c-.028,1.046.38,1.462,1.432,1.426,1.536-.052,3.077-.051,4.613,0,1.041.035,1.466-.357,1.443-1.414-.043-1.879.024-3.761-.024-5.639a2.407,2.407,0,0,1,1.553-2.489,12,12,0,0,0,6.564-11.9c-.679-5.757-5.519-9.993-10.1-10.452-.678-.068-1.354-.173-2.034-.242a4.468,4.468,0,0,1-4.153-4.544,4.42,4.42,0,0,1,4.352-4.344c3.416-.1,6.835-.021,10.253-.034,1.731-.007,1.777-.052,1.783-1.813.005-1.453-.019-2.906.007-4.357.016-.918-.354-1.318-1.29-1.3-1.623.03-3.247.02-4.87,0-1.82-.018-2.032-.236-2.051-2.1-.016-1.581-.027-3.162,0-4.742.019-.973-.354-1.4-1.355-1.375-1.58.04-3.163.053-4.741,0-1.095-.039-1.407.462-1.387,1.466.038,1.879-.019,3.76.021,5.639a2.35,2.35,0,0,1-1.486,2.4,11.671,11.671,0,0,0-6.361,7.928C1459.432,773.15,1459.476,773.749,1458.83,773.925Z" transform="translate(-173.082 -160.652)" fill="#6595bf"/>
      <path id="Trazado_133742" data-name="Trazado 133742" d="M1479.927,644.217c-1.58-3.857-3.683-7.522-4.663-11.6-1.73-7.195,3.847-14.635,11.254-14.747q16.976-.257,33.96,0c8.474.136,13.865,9.046,10.6,17.144-1.07,2.65-2.239,5.259-3.363,7.888a.687.687,0,0,1-.368.94,2.222,2.222,0,0,1-1.466-.331,58.663,58.663,0,0,0-21.865-4.335,59.374,59.374,0,0,0-20.631,3.387A14.084,14.084,0,0,0,1479.927,644.217Z" transform="translate(-205.49 -76.93)" fill="#6595bf"/>
      <path id="Trazado_133743" data-name="Trazado 133743" d="M1494.331,705.286c-.068-.517.218-.769.66-.949a59.521,59.521,0,0,1,14.59-3.952,66.881,66.881,0,0,1,11.338-.445,54.987,54.987,0,0,1,19.891,4.487c.311.133.632.242.949.362.021.037.066.08.058.11a22.689,22.689,0,0,1-3.164,7.328c-1.217.059-2.178-.7-3.241-1.088a50.628,50.628,0,0,0-12.52-2.8,51.837,51.837,0,0,0-24.532,3.421c-.378.15-.73.5-1.189.206Z" transform="translate(-219.894 -137.998)" fill="#4877a0"/>
      <path id="Trazado_133744" data-name="Trazado 133744" d="M1667.128,722.548l3.105-7.439q.177-.409.354-.818a55.2,55.2,0,0,1,6.616-.528c5.9.026,11.334,1.8,16.588,4.257a4.033,4.033,0,0,1,1.9,5.433,3.963,3.963,0,0,1-5.29,1.953,38.139,38.139,0,0,0-10.345-3.2,20.189,20.189,0,0,0-11.141,1.364A3.2,3.2,0,0,1,1667.128,722.548Z" transform="translate(-348.368 -148.319)" fill="#1e3f5d"/>
      <path id="Trazado_133745" data-name="Trazado 133745" d="M1538.41,844.97a13.034,13.034,0,0,1,4.1-7.624,10.712,10.712,0,0,1,3.221-2.057,1.188,1.188,0,0,0,.875-1.33c-.042-2.306.01-4.614-.03-6.921-.014-.777.121-1.152,1.029-1.123,2.092.066,4.187.05,6.28.006.749-.016.941.255.928.962-.038,2.093.023,4.188-.031,6.28-.021.81.254,1.016,1.025,1,2.093-.047,4.187.012,6.28-.031.737-.015.95.236.936.953-.04,2.093-.048,4.188,0,6.28.02.8-.233,1.015-1.015,1.007q-5.639-.054-11.28,0a4.074,4.074,0,0,0-4.134,4.02,4.123,4.123,0,0,0,3.991,4.174c.595.045,1.187.124,1.779.2a12.2,12.2,0,0,1,10.388,9.762c.922,5.832-1.756,11.115-6.881,13.407a1.551,1.551,0,0,0-1.1,1.712c.062,2.22-.009,4.444.036,6.664.016.794-.151,1.139-1.042,1.111q-3.073-.1-6.151,0c-.883.027-1.067-.306-1.047-1.107.048-1.964-.049-3.933.042-5.895.05-1.06-.333-1.273-1.3-1.25-2.305.056-4.613,0-6.92-.009q0-4.074,0-8.147c.48-.5,1.108-.377,1.692-.379,3.373-.014,6.747-.006,10.12-.006a4.416,4.416,0,0,0,2.455-.588,3.72,3.72,0,0,0-1.448-6.842c-.843-.125-1.7-.168-2.54-.311a12.559,12.559,0,0,1-9.6-7.461c-.578-1.192-.444-2.5-.671-3.743Q1538.409,846.327,1538.41,844.97Z" transform="translate(-252.662 -231.697)" fill="#fefefe"/>
      <path id="Trazado_133746" data-name="Trazado 133746" d="M1538.408,910.776a14.012,14.012,0,0,0,2.289,5.889,12.464,12.464,0,0,0,9.823,5.195c2.625.149,4.361,1.9,4.27,4.28-.089,2.3-1.916,3.919-4.482,3.932-3.971.02-7.941.024-11.912.034Q1538.4,920.441,1538.408,910.776Z" transform="translate(-252.662 -294.789)" fill="#6595bf"/>
      <path id="Trazado_133747" data-name="Trazado 133747" d="M1542.386,665.95c1.069,0,2.138.026,3.206-.01.629-.021.925.132.913.844q-.058,3.269,0,6.54c.012.711-.282.853-.912.845-2.137-.027-4.275-.041-6.412.006-.77.017-.923-.291-.912-.978.035-2.094.052-4.19-.007-6.283-.023-.838.3-1.014,1.046-.977C1540.332,665.988,1541.36,665.95,1542.386,665.95Z" transform="translate(-252.562 -112.758)" fill="#fefefe"/>
      <path id="Trazado_133748" data-name="Trazado 133748" d="M1610.517,670.078c0,1.069-.029,2.138.011,3.206.024.647-.162.911-.858.9q-3.269-.056-6.54,0c-.726.013-.837-.313-.83-.925.024-2.137.028-4.275,0-6.412-.009-.646.163-.91.859-.9q3.27.056,6.54,0c.726-.013.849.312.83.925C1610.494,667.94,1610.517,669.01,1610.517,670.078Z" transform="translate(-300.169 -112.769)" fill="#fefefe"/>
      <path id="Trazado_133749" data-name="Trazado 133749" d="M1315.655,841.9q7.753.012,15.507.026a8.284,8.284,0,0,1,8.641,8.6c.007,2.606-.014,5.212-.022,7.818a2.244,2.244,0,0,1-1.694.415q-27.024.014-54.048,0a2.339,2.339,0,0,1-1.7-.415V848.342a24.737,24.737,0,0,1,1.529-2.9,8.123,8.123,0,0,1,7.035-3.512q11.542-.011,23.085,0C1314.544,841.927,1315.1,841.912,1315.655,841.9Z" transform="translate(-62.296 -243.586)" fill="#feca5a"/>
      <g id="Grupo_66843" data-name="Grupo 66843" transform="translate(1201.813 514.264)">
        <path id="Trazado_133750" data-name="Trazado 133750" d="M1256.467,625.137v-22.22h-45.193V584.388l47.9-70.124h17.776v70.049h13.708v18.6h-13.708v22.22Zm0-40.824V546.577l-25.383,37.736Z" transform="translate(-1211.274 -514.264)" fill="#4877a0"/>
      </g>
      <g id="Grupo_66844" data-name="Grupo 66844" transform="translate(1198.548 517.104)">
        <path id="Trazado_133751" data-name="Trazado 133751" d="M1243.74,636.208v-22.22h-45.193V595.459l47.9-70.124h17.776v70.049h13.708v18.6h-13.708v22.22Zm0-40.824V557.648l-25.383,37.736Z" transform="translate(-1198.548 -525.335)" fill="#aed3f2"/>
      </g>
      <path id="Trazado_133752" data-name="Trazado 133752" d="M1339.781,936.781v12.313a2.243,2.243,0,0,1-1.694.414q-27.024.014-54.048,0a2.339,2.339,0,0,1-1.7-.415V936.78a2.34,2.34,0,0,1,1.7-.415q27.024-.012,54.048,0A2.243,2.243,0,0,1,1339.781,936.781Z" transform="translate(-62.296 -313.809)" fill="#feca5a"/>
      <path id="Trazado_133753" data-name="Trazado 133753" d="M1339.781,914.208H1282.34V906h57.441Z" transform="translate(-62.296 -291.236)" fill="#faa51f"/>
      <path id="Trazado_133754" data-name="Trazado 133754" d="M1339.781,1080.781c.007,1.443.039,2.886.014,4.328a9.945,9.945,0,0,1-2.053,5.36c-.72,1.38-2.047,1.888-3.4,2.355-.391.135-.833.053-1.208.271h-44.382a8.017,8.017,0,0,1-5.816-4.486c-.306-.624-.265-1.328-.6-1.927v-5.9a2.34,2.34,0,0,1,1.7-.415q27.024-.012,54.048,0A2.244,2.244,0,0,1,1339.781,1080.781Z" transform="translate(-62.296 -420.866)" fill="#feca5a"/>
      <path id="Trazado_133755" data-name="Trazado 133755" d="M1282.34,986h57.441q0,4.105,0,8.211a2.247,2.247,0,0,1-1.7.413q-27.023.014-54.047,0a2.339,2.339,0,0,1-1.7-.415Z" transform="translate(-62.296 -350.712)" fill="#faa51f"/>
      <path id="Trazado_133756" data-name="Trazado 133756" d="M1282.34,1018h57.441v8.208a2.243,2.243,0,0,1-1.694.415q-27.024.014-54.048,0a2.339,2.339,0,0,1-1.7-.415Z" transform="translate(-62.296 -374.505)" fill="#feca5a"/>
      <path id="Trazado_133757" data-name="Trazado 133757" d="M1282.34,1050h57.441q0,4.105,0,8.211H1282.34Z" transform="translate(-62.296 -398.293)" fill="#faa51f"/>
    </g>
  </g>
</svg>
