<svg xmlns="http://www.w3.org/2000/svg" width="190" height="149" viewBox="0 0 190 149">
  <g id="Grupo_68420" data-name="Grupo 68420" transform="translate(-390 -3916)">
    <rect id="Rect치ngulo_31397" data-name="Rect치ngulo 31397" width="190" height="149" transform="translate(390 3916)" fill="none"/>
    <g id="Grupo_63628" data-name="Grupo 63628" transform="translate(411 3916)">
      <rect id="Rect치ngulo_15063" data-name="Rect치ngulo 15063" width="148.999" height="148.999" transform="translate(0 0)" fill="none"/>
      <g id="Grupo_63623" data-name="Grupo 63623" transform="translate(3.554 3.349)">
        <ellipse id="Elipse_4761" data-name="Elipse 4761" cx="64.876" cy="64.876" rx="64.876" ry="64.876" transform="translate(0 129.121) rotate(-84.35)" fill="#f2e9e4"/>
        <path id="Trazado_140536" data-name="Trazado 140536" d="M338.394,3442.35h-3.386A61.482,61.482,0,1,1,317,3398.869a61.481,61.481,0,0,1,18.009,43.481h6.773a68.262,68.262,0,1,0-19.993,48.269,68.261,68.261,0,0,0,19.993-48.269Z" transform="translate(-202.573 -3371.198)" fill="#f2e9e4"/>
      </g>
      <g id="Grupo_63627" data-name="Grupo 63627" transform="translate(33.064 16.506)">
        <path id="Trazado_140537" data-name="Trazado 140537" d="M301.4,3457.719a10.918,10.918,0,1,0-5.459-20.387v-5.093h27.45a10.94,10.94,0,0,0,8.947,8.947V3452.4a10.937,10.937,0,0,0-8.947,8.947H295.93v-5.093a10.839,10.839,0,0,0,5.459,1.449Z" transform="translate(-261.349 -3403.124)" fill="#fff"/>
        <g id="Grupo_63626" data-name="Grupo 63626" transform="translate(0)">
          <g id="Grupo_63624" data-name="Grupo 63624" transform="translate(1.822 1.822)">
            <path id="Trazado_140538" data-name="Trazado 140538" d="M309.435,3396.491a4.545,4.545,0,0,0-4.544-4.552H289.415L287.6,3397.4H269.4l-1.822-5.459H252.111a4.545,4.545,0,0,0-4.551,4.544h0v100.087a4.552,4.552,0,0,0,4.544,4.552h52.78a4.545,4.545,0,0,0,4.551-4.544h0v-40.935h7.1l.3-.149,7.159-3.488V3411.96H309.435Zm9.1,30.03v14.562a9.1,9.1,0,0,0-9.1,9.1H278.5v-10.924a9.1,9.1,0,1,0,0-10.918v-10.918h30.938a9.1,9.1,0,0,0,9.1,9.1Z" transform="translate(-247.56 -3391.94)" fill="#aed3f2"/>
            <path id="Trazado_140539" data-name="Trazado 140539" d="M398,3459.111h7.281v25.479H398Z" transform="translate(-296.111 -3413.618)" fill="#aed3f2"/>
          </g>
          <g id="Grupo_63625" data-name="Grupo 63625">
            <path id="Trazado_140540" data-name="Trazado 140540" d="M281.622,3542.41a1.822,1.822,0,1,0,0,3.643H296.19a1.822,1.822,0,0,0,0-3.644Z" transform="translate(-256.143 -3438.68)" fill="#344154"/>
            <path id="Trazado_140541" data-name="Trazado 140541" d="M355.881,3434.749h-7.3a1.815,1.815,0,0,0-1.815,1.815v1.822h-3.793a10.938,10.938,0,0,0-10.769-9.1h-7.26v-18.2a1.815,1.815,0,0,0-1.815-1.822H310.389v-13.647a6.387,6.387,0,0,0-6.373-6.373H251.243a6.387,6.387,0,0,0-6.373,6.373V3495.71a6.386,6.386,0,0,0,6.373,6.373h52.773a6.387,6.387,0,0,0,6.373-6.373v-39.126h3.7a6.366,6.366,0,0,0,6.305,5.458h26.413a1.815,1.815,0,0,0,1.815,1.822h7.281a1.814,1.814,0,0,0,1.822-1.822v-25.479a1.815,1.815,0,0,0-1.849-1.815Zm-69.86-41.855-.6,1.815H269.841l-.6-1.815Zm20.724,102.816a2.709,2.709,0,0,1-2.709,2.709H251.243a2.709,2.709,0,0,1-2.709-2.709V3395.623a2.709,2.709,0,0,1,2.709-2.708H265.4l1.409,4.212a1.815,1.815,0,0,0,1.727,1.246h18.2a1.828,1.828,0,0,0,1.727-1.246l1.4-4.212h14.155a2.709,2.709,0,0,1,2.709,2.708v13.647H279.431v-1.821a1.822,1.822,0,1,0-3.644,0v50.958a1.822,1.822,0,0,0,3.644,0v-1.822h27.294Zm-21.828-51.865a10.918,10.918,0,1,0-5.459-20.385v-5.094h27.45a10.938,10.938,0,0,0,8.947,8.947v11.209a10.938,10.938,0,0,0-8.947,8.947H279.451v-5.093a10.839,10.839,0,0,0,5.459,1.449Zm-5.459-6.1v-9.618a7.206,7.206,0,0,1,5.459-2.479,7.281,7.281,0,0,1,0,14.562,7.208,7.208,0,0,1-5.459-2.472Zm35.218,15.211H279.458v-1.822h29.123a1.822,1.822,0,0,0,1.822-1.822,7.274,7.274,0,0,1,7.281-7.274,1.822,1.822,0,0,0,1.815-1.822v-14.569a1.815,1.815,0,0,0-1.815-1.815,7.288,7.288,0,0,1-7.281-7.281,1.822,1.822,0,0,0-1.822-1.821H279.458v-1.822h41.855v36.4h-.908a6.386,6.386,0,0,0-5.757,3.644Zm32.143,5.458H320.406a2.729,2.729,0,1,1,0-5.458h8.188a1.822,1.822,0,0,0,0-3.644h-3.65v-16.376h7.281a7.294,7.294,0,0,1,7.281,7.281,1.822,1.822,0,0,0,1.822,1.822h5.459Zm7.281,1.822h-3.644v-21.855H354.1Z" transform="translate(-244.87 -3389.25)" fill="#344154"/>
          </g>
        </g>
      </g>
    </g>
  </g>
</svg>
