<svg xmlns="http://www.w3.org/2000/svg" width="190" height="149" viewBox="0 0 190 149">
  <g id="Grupo_68419" data-name="Grupo 68419" transform="translate(-390 -3737)">
    <rect id="Rect치ngulo_31396" data-name="Rect치ngulo 31396" width="190" height="149" transform="translate(390 3737)" fill="none"/>
    <g id="Grupo_63634" data-name="Grupo 63634" transform="translate(411 3737)">
      <rect id="Rect치ngulo_15064" data-name="Rect치ngulo 15064" width="149" height="149" transform="translate(0 0)" fill="none"/>
      <g id="Grupo_63629" data-name="Grupo 63629" transform="translate(3.553 3.332)">
        <ellipse id="Elipse_4762" data-name="Elipse 4762" cx="64.876" cy="64.876" rx="64.876" ry="64.876" transform="translate(0 129.121) rotate(-84.35)" fill="#f2e9e4"/>
        <path id="Trazado_140542" data-name="Trazado 140542" d="M338.395,3664.949h-3.386A61.483,61.483,0,1,1,317,3621.469a61.481,61.481,0,0,1,18.009,43.481h6.773a68.262,68.262,0,1,0-19.993,48.269,68.262,68.262,0,0,0,19.993-48.269Z" transform="translate(-202.572 -3593.781)" fill="#f2e9e4"/>
      </g>
      <g id="Grupo_63633" data-name="Grupo 63633" transform="translate(28.128 18.083)">
        <path id="Trazado_140543" data-name="Trazado 140543" d="M336.249,3725.106H267.1v-3.725a18.205,18.205,0,0,0,0-36.221v-65.6h69.149Z" transform="translate(-247.107 -3615.916)" fill="#fff"/>
        <g id="Grupo_63632" data-name="Grupo 63632">
          <g id="Grupo_63630" data-name="Grupo 63630" transform="translate(25.451 34.581)">
            <path id="Trazado_140544" data-name="Trazado 140544" d="M275.16,3665.24h58.245v27.294H275.16Z" transform="translate(-275.16 -3665.24)" fill="#aed3f2"/>
            <path id="Trazado_140545" data-name="Trazado 140545" d="M331.58,3735.1H351.6v9.1H331.58Z" transform="translate(-293.368 -3687.786)" fill="#aed3f2"/>
          </g>
          <g id="Grupo_63631" data-name="Grupo 63631">
            <path id="Trazado_140546" data-name="Trazado 140546" d="M328.544,3614.18H255.751a1.822,1.822,0,0,0-1.822,1.822v67.422a18.205,18.205,0,0,0,0,36.22v5.546a1.822,1.822,0,0,0,1.822,1.822h72.793a1.829,1.829,0,0,0,1.822-1.823V3616a1.829,1.829,0,0,0-1.822-1.823Zm-87.368,87.368a10.3,10.3,0,1,0,.013-.014Zm85.546,21.822H257.573v-3.725a18.205,18.205,0,0,0,0-36.22v-65.6h69.149Z" transform="translate(-237.581 -3614.18)" fill="#344154"/>
            <path id="Trazado_140547" data-name="Trazado 140547" d="M274.292,3693.488h58.245a1.817,1.817,0,0,0,1.822-1.822v-27.294a1.815,1.815,0,0,0-1.822-1.822H274.292a1.815,1.815,0,0,0-1.822,1.822v27.294a1.816,1.816,0,0,0,1.822,1.821Zm1.815-20.02h41.862v16.376H276.107Zm45.486,16.376v-16.376h9.1v16.376Zm9.1-20.013h-9.1v-3.644h9.1Zm-12.733-3.644v3.644H276.107v-3.644Z" transform="translate(-248.84 -3629.79)" fill="#344154"/>
            <path id="Trazado_140548" data-name="Trazado 140548" d="M350.735,3732.41h-20.02a1.815,1.815,0,0,0-1.815,1.822v9.1a1.815,1.815,0,0,0,1.815,1.823h20.02a1.814,1.814,0,0,0,1.822-1.822v-9.1a1.815,1.815,0,0,0-1.822-1.822Zm-1.822,9.1H332.537v-5.459h16.376Z" transform="translate(-267.052 -3652.336)" fill="#344154"/>
            <path id="Trazado_140549" data-name="Trazado 140549" d="M268.169,3741.591a5.466,5.466,0,0,1-5.459,5.459,1.822,1.822,0,0,1-3.644,0h-3.637a1.822,1.822,0,1,1,0-3.637h7.281a1.816,1.816,0,0,0,1.815-1.823,2.032,2.032,0,0,0-2.032-1.814h-3.386a5.466,5.466,0,0,1,0-10.925,1.822,1.822,0,0,1,3.644,0h3.637a1.822,1.822,0,1,1,0,3.644h-7.321a1.822,1.822,0,1,0,0,3.637h3.386A5.655,5.655,0,0,1,268.169,3741.591Z" transform="translate(-242.717 -3650.6)" fill="#344154"/>
            <path id="Trazado_140550" data-name="Trazado 140550" d="M317,3638.733a7.951,7.951,0,0,1,.359-2.466,6.3,6.3,0,0,1,1.355-2.031l1.72-1.768a3.977,3.977,0,0,0,1.1-2.676,3.036,3.036,0,0,0-.725-2.16,2.708,2.708,0,0,0-2.1-.779,3.153,3.153,0,0,0-2.154.677,2.376,2.376,0,0,0-.819,1.9H313.31a4.424,4.424,0,0,1,1.517-3.435,5.672,5.672,0,0,1,3.888-1.313,5.354,5.354,0,0,1,3.867,1.354,4.816,4.816,0,0,1,1.355,3.657,6.6,6.6,0,0,1-2.127,4.524l-1.436,1.422a4.418,4.418,0,0,0-.955,3.055Zm-.1,4.178a1.47,1.47,0,0,1,.359-1,1.356,1.356,0,0,1,1.077-.406,1.4,1.4,0,0,1,1.077.406,1.444,1.444,0,0,1,.366,1,1.4,1.4,0,0,1-.366.989,1.434,1.434,0,0,1-1.077.393,1.3,1.3,0,0,1-1.436-1.354Z" transform="translate(-262.02 -3617.568)" fill="#344154"/>
          </g>
        </g>
      </g>
    </g>
  </g>
</svg>
