<svg xmlns="http://www.w3.org/2000/svg" xmlns:xlink="http://www.w3.org/1999/xlink" width="134" height="158" viewBox="0 0 134 158">
  <defs>
    <clipPath id="clip-path">
      <ellipse id="Elipse_4350" data-name="Elipse 4350" cx="67" cy="79" rx="67" ry="79" transform="translate(995 638)" fill="#fff" stroke="#707070" stroke-width="1"/>
    </clipPath>
  </defs>
  <g id="Grupo_70103" data-name="Grupo 70103" transform="translate(-471 -638)">
    <path id="Trazado_134272" data-name="Trazado 134272" d="M62.5,0A62.5,62.5,0,1,1,0,62.5,62.5,62.5,0,0,1,62.5,0Z" transform="translate(476 670)" fill="#5e6178"/>
    <g id="Enmascarar_grupo_4" data-name="Enmascarar grupo 4" transform="translate(-524)" clip-path="url(#clip-path)">
      <g id="Grupo_68410" data-name="Grupo 68410" transform="translate(993.06 638.396)">
        <g id="Grupo_68409" data-name="Grupo 68409" transform="translate(-419.604 -790.483)">
          <path id="Trazado_134246" data-name="Trazado 134246" d="M451.12,1181.891c-6.542.015-13.085.011-19.626.063-1.12.009-.9-.689-.9-1.315,0-7.781-.036-15.562.012-23.343.022-3.485-.283-6.984.3-10.454a19.318,19.318,0,0,1,18.219-15.853c6.32-.126,12.643-.032,18.966-.037a2.663,2.663,0,0,1,.866,1.6q3.185,11.236,6.414,22.46c2.346,8.31,4.755,16.6,7.111,24.911a7.789,7.789,0,0,1,.358,1.542.612.612,0,0,1-.106.407c-4.319.022-8.638.059-12.957.062-4.54,0-9.08-.027-13.621-.043a2.714,2.714,0,0,1-.4-2.023c-.013-5.964-.005-11.928-.008-17.892a6.072,6.072,0,0,0-.345-2.475,1.813,1.813,0,0,0-1.84-1.247,1.849,1.849,0,0,0-1.763,1.365,7.406,7.406,0,0,0-.27,2.491c0,5.92,0,11.84-.008,17.76A2.716,2.716,0,0,1,451.12,1181.891Z" transform="translate(0 -233.867)" fill="#d9a171"/>
          <path id="Trazado_134247" data-name="Trazado 134247" d="M709.613,1181.91l-27.882-.026a.577.577,0,0,1-.106-.405c2.179-8.16,4.618-16.248,6.9-24.379q3.487-12.26,7-24.512a2.563,2.563,0,0,1,.826-1.616c5.26,0,10.521-.055,15.781,0a19.168,19.168,0,0,1,19.268,18.914c.174,10.341.042,20.687.072,31.031,0,.805-.233,1.059-1.048,1.052-5.348-.045-10.7-.043-16.044-.057a2.725,2.725,0,0,1-.4-2.022q-.018-9.142-.008-18.283a11.655,11.655,0,0,0-.065-1.719,1.712,1.712,0,0,0-1.51-1.6,1.8,1.8,0,0,0-2.041,1.111,5.171,5.171,0,0,0-.332,2.34c0,6.05,0,12.1-.009,18.151A2.714,2.714,0,0,1,709.613,1181.91Z" transform="translate(-184.393 -233.884)" fill="#d9a171"/>
          <path id="Trazado_134248" data-name="Trazado 134248" d="M534.218,838.738c-4.412-.343-7.434-3.2-7.531-7.526-.14-6.231-.036-12.467-.036-18.7.488-.139.632.28.852.5,1.858,1.832,3.718,3.663,5.529,5.541a2.527,2.527,0,0,0,1.965.84q19.239.172,38.477.4c5.044.055,8.728,2.853,9.9,7.557a15.534,15.534,0,0,1,.24,2.1c.08,3.173.153,6.346-.037,9.518a1.556,1.556,0,0,1-1.11.357c-2.826.007-5.653.118-8.477-.059a15.751,15.751,0,0,0-2.508-.184q-12.132.007-24.264,0a14.639,14.639,0,0,0-2.376.171,81.687,81.687,0,0,1-9.314-.041A2.4,2.4,0,0,0,534.218,838.738Z" transform="translate(-70.555 0)" fill="#a35e14"/>
          <path id="Trazado_134249" data-name="Trazado 134249" d="M575.878,1012.543a36.91,36.91,0,0,1-7.17-3.31,23.87,23.87,0,0,1-10.662-16.487c-.079-.477-.172-.951-.259-1.427a1.824,1.824,0,0,1-.393-1.232,40.736,40.736,0,0,1,.127-5.66c.991-.938,1.761-.837,2.316.382a9.95,9.95,0,0,0,4.2,4.949,9.258,9.258,0,0,0,12.917-4.108c.135-.278.248-.567.394-.838.577-1.074,1.143-1.223,2.374-.637a16.341,16.341,0,0,1,.206,5.134c-.151,4.368,1.462,4.1,4.7,3.931A1.716,1.716,0,0,0,586.2,992a1.634,1.634,0,0,0-.532-2.038c-2.53-1.436-1.633-3.667-1.485-5.742,1.3-.715,1.913-.539,2.535.9a9.247,9.247,0,0,0,5.852,5.369c4.648,1.509,9.15-.656,11.391-5.4.589-1.247,1.117-1.526,2.1-1.1a.721.721,0,0,1,.331.4,36.657,36.657,0,0,1,.124,5.953,1.564,1.564,0,0,1-.374.973,24.317,24.317,0,0,1-15.126,20.118,6.419,6.419,0,0,0-.566.307c-1.845,1.313-4.025,1.5-6.157,1.662a26.131,26.131,0,0,1-6.712-.232A2.981,2.981,0,0,1,575.878,1012.543Z" transform="translate(-93.133 -125.818)" fill="#fcc8a5"/>
          <path id="Trazado_134250" data-name="Trazado 134250" d="M596.062,905.192c-1.007-.2-1.522.113-1.917,1.184a9.585,9.585,0,0,1-17.715.132c-.453-1.116-.977-1.578-2.123-1.313a6.281,6.281,0,0,1-4.831,0,1.577,1.577,0,0,0-2.069,1.189,9.572,9.572,0,0,1-17.85-.258c-.38-1.043-1.02-1.029-1.836-.933-1.248.717-2.305.138-3.236-.605a2.382,2.382,0,0,1-.675-2.755c.4-1.239,1.421-1.55,2.576-1.62.8.084,1.16-.16,1.149-1.079-.049-4.142-.036-8.285-.006-12.427,0-.64-.183-.985-.806-1.08a.885.885,0,0,1,1.017.194,2.5,2.5,0,0,1,.349,1.776c.01,3.445,0,6.89.006,10.336a4.895,4.895,0,0,0,.056,1.188c.147.588.463.573.838.186a1.4,1.4,0,0,0,.284-.445,10.891,10.891,0,0,1,6.534-6.011,13.56,13.56,0,0,1,5.006.028,9.939,9.939,0,0,1,6.841,5.789,1.573,1.573,0,0,0,1.783,1.147c1.631-.1,3.273-.035,4.91-.027a1.545,1.545,0,0,0,1.632-.863c2.411-5.13,6.527-6.919,11.975-6.08a10.913,10.913,0,0,1,6.494,5.883c.16.38.347.967.886.793.5-.162.342-.757.344-1.177.015-3.58,0-7.161.013-10.742a2.564,2.564,0,0,1,.337-1.781q.048-4.748.1-9.494c.266,3.308.08,6.62.128,9.929.061,4.246.038,8.493-.005,12.739-.009.889.193,1.349,1.149,1.217,1.155.07,2.179.383,2.575,1.621a2.382,2.382,0,0,1-.675,2.755C598.367,905.33,597.31,905.909,596.062,905.192Z" transform="translate(-83.063 -46.887)" fill="#787d81"/>
          <path id="Trazado_134251" data-name="Trazado 134251" d="M600.042,1106.292c1.992,0,3.985-.055,5.975.006.949.029,1.207-.3,1.189-1.215-.048-2.344,0-4.691.006-7.037a2.032,2.032,0,0,1,1.29.059,24.847,24.847,0,0,0,11.479-.453c.566-.161,1.146-.527,1.769-.146.012,2.5.065,5.008.015,7.51-.019.956.215,1.324,1.237,1.285,1.974-.075,3.953-.016,5.93-.013.2.621-.253,1-.575,1.387q-5.2,6.192-10.395,12.386a2.041,2.041,0,0,1-1.273.883c-1.462.068-2.923.065-4.383.009a1.994,1.994,0,0,1-1.282-.861c-3.458-4.084-6.846-8.227-10.287-12.325C600.394,1107.358,599.873,1106.969,600.042,1106.292Z" transform="translate(-124.457 -209.201)" fill="#fcc8a5"/>
          <path id="Trazado_134252" data-name="Trazado 134252" d="M641.443,1254.7a.5.5,0,0,0-.015.195c-4.868.121-9.735.112-14.6.005a.749.749,0,0,0-.024-.238c-.266-3.667.472-7.268.755-10.9.271-3.469.689-6.928,1.021-10.394a6.039,6.039,0,0,1,.541-2.436,1.509,1.509,0,0,1,1.177-.515c2.687-.062,5.374-.1,8.06.021a1.365,1.365,0,0,1,.62.211,4.353,4.353,0,0,1,.692,2.629q.876,9.007,1.808,18.008A10.519,10.519,0,0,1,641.443,1254.7Z" transform="translate(-144.091 -306.891)" fill="#b5534f"/>
          <path id="Trazado_134253" data-name="Trazado 134253" d="M663.61,1145.373c4.015-4.743,8.118-9.414,11.916-14.338l7.489,0L675.49,1157.3c-.728.388-1.034-.265-1.4-.623-2.233-2.188-4.428-4.415-6.648-6.616-1.039-1.081-2.12-2.121-3.169-3.193a2.268,2.268,0,0,1-.819-1.17A.487.487,0,0,1,663.61,1145.373Z" transform="translate(-171.052 -233.948)" fill="#f8f8f8"/>
          <path id="Trazado_134254" data-name="Trazado 134254" d="M579.408,1131.039c3.861,4.869,7.867,9.617,11.918,14.328a.453.453,0,0,1,.127.338,21,21,0,0,1-3.9,3.389q-3.469,2.935-7.044,5.741c-.427.336-.894,1.134-1.626.36q-3.328-11.576-6.657-23.153c-.1-.337-.207-.671-.31-1.006Z" transform="translate(-103.823 -233.948)" fill="#f8f8f8"/>
          <path id="Trazado_134255" data-name="Trazado 134255" d="M508.006,1256.1q0-10.423,0-20.847c0-2.051.817-3.179,2.3-3.275,1.7-.111,2.72,1.019,2.733,3.141.024,4.028.007,8.055.007,12.083q0,4.448,0,8.9Z" transform="translate(-56.886 -308.079)" fill="#a66d58"/>
          <path id="Trazado_134256" data-name="Trazado 134256" d="M787.006,1256.121q0-10.531,0-21.063c0-2,.885-3.08,2.456-3.062a2.1,2.1,0,0,1,2.319,2.4c.012,4.725.005,9.449,0,14.174q0,3.776,0,7.551Z" transform="translate(-261.786 -308.095)" fill="#a66d58"/>
          <path id="Trazado_134257" data-name="Trazado 134257" d="M534.085,966.113a2.922,2.922,0,0,0-2.193,1.5,2.347,2.347,0,0,0,1.825,3.293,12.725,12.725,0,0,0,1.7.188q0,3.6-.005,7.2c-.883-.007-1.766-.006-2.648-.024a5.952,5.952,0,0,1-5.863-5.516c-.16-3.536,1.869-6.053,5.221-6.463A5.351,5.351,0,0,1,534.085,966.113Z" transform="translate(-70.76 -112.79)" fill="#f5ba91"/>
          <path id="Trazado_134258" data-name="Trazado 134258" d="M741.006,971.23a13.293,13.293,0,0,0,1.7-.188,2.2,2.2,0,0,0,2-2.394,2.172,2.172,0,0,0-2.019-2.234,1.331,1.331,0,0,1-.352-.166c3.628-.091,6.055,1.4,6.958,4.286a6.042,6.042,0,0,1-5.64,7.868c-.882.019-1.765.017-2.648.024Q741.009,974.828,741.006,971.23Z" transform="translate(-228.006 -112.925)" fill="#f5ba91"/>
          <path id="Trazado_134259" data-name="Trazado 134259" d="M641.635,1091.4a24.317,24.317,0,0,1-8.624,1.5,13.394,13.394,0,0,1-5.914-.959q-.005-1.06-.011-2.12c1.833.159,3.637.509,5.493.564a28.964,28.964,0,0,0,9.075-1.362Q641.646,1090.206,641.635,1091.4Z" transform="translate(-144.343 -203.09)" fill="#f5ba91"/>
          <path id="Trazado_134260" data-name="Trazado 134260" d="M598.148,1204.427c1.248.173,1.8-.935,2.579-1.517,2.039-1.521,3.95-3.213,5.913-4.837a5.335,5.335,0,0,1,.692,2.386c.372,1.727.7,3.464,1.052,5.2a2.321,2.321,0,0,1-.123,1.675q-1.115,11.227-2.234,22.454c-.039.392-.149.777-.226,1.165-1.2-4.075-2.412-8.144-3.588-12.225C600.839,1213.963,599.5,1209.193,598.148,1204.427Z" transform="translate(-123.09 -283.181)" fill="#e3e3e1"/>
          <path id="Trazado_134261" data-name="Trazado 134261" d="M673.871,1201.978q3.367,3.313,6.737,6.622c.334.326.587.789,1.146.805q-3.317,11.687-6.639,23.372a9.718,9.718,0,0,1-.447,1.077q-1.083-10.638-2.167-21.277c-.09-.876-.2-1.749-.3-2.623a.875.875,0,0,1-.207-.61c.333-2.3.793-4.575,1.351-6.83A.734.734,0,0,1,673.871,1201.978Z" transform="translate(-177.315 -286.05)" fill="#e3e3e1"/>
          <path id="Trazado_134262" data-name="Trazado 134262" d="M732.586,1272.743c-1.191,0-2.385-.046-3.573.015-.891.046-1.108-.314-1.121-1.154-.059-3.643-.083-3.642,3.515-3.642,1.632,0,3.266.031,4.9-.013.81-.022,1.17.166,1.191,1.086.086,3.71.118,3.709-3.585,3.709Z" transform="translate(-218.365 -334.498)" fill="#a66d58"/>
          <path id="Trazado_134263" data-name="Trazado 134263" d="M621.357,918.743a1.207,1.207,0,0,1-1.019.079,9.47,9.47,0,0,0-10.576,5.865,1.609,1.609,0,0,1-1.855,1.191c-1.944-.064-3.892-.044-5.836,0-.519.013-.836-.057-.985-.588-1.27-4.5-6.658-7.68-11.216-6.418-.182.05-.415-.084-.624-.133a.583.583,0,0,1-.1-.375,48.267,48.267,0,0,0,1.336-6.574c.015-.125.132-.225.211-.331a2.437,2.437,0,0,1,1.293-.189q13.316,0,26.632,0a2.427,2.427,0,0,1,1.293.189,1.767,1.767,0,0,1,.374,1.1,21.046,21.046,0,0,0,.992,4.9A1.544,1.544,0,0,1,621.357,918.743Z" transform="translate(-116.473 -72.55)" fill="#fcc8a5"/>
          <path id="Trazado_134264" data-name="Trazado 134264" d="M568.458,912a18.537,18.537,0,0,1-1.446,7.278c-.469.675-1.3.7-1.937,1.069a9.737,9.737,0,0,0-4.385,5.122c-.222.584-.454,1.018-1.205.908-.858-.126-.581-.772-.582-1.233-.011-4.375.005-8.75.014-13.124Z" transform="translate(-94.237 -73.085)" fill="#985713"/>
          <path id="Trazado_134265" data-name="Trazado 134265" d="M706.443,919.276A18.5,18.5,0,0,1,705,912l9.529.02q.018,6.695.034,13.389c0,.43.087.938-.592.958-.444.013-.842.049-1.052-.531a9.7,9.7,0,0,0-5.994-6.124C706.735,919.639,706.6,919.423,706.443,919.276Z" transform="translate(-201.559 -73.084)" fill="#985713"/>
          <path id="Trazado_134266" data-name="Trazado 134266" d="M629.9,1036.546a13.079,13.079,0,0,1-5.507-1.232,2.464,2.464,0,0,1-1.522-3.226,2.362,2.362,0,0,1,3.207-1.281,9.839,9.839,0,0,0,7.7.012,2.361,2.361,0,0,1,3.275,1.356,2.49,2.49,0,0,1-1.633,3.18A13.132,13.132,0,0,1,629.9,1036.546Z" transform="translate(-141.115 -160.186)" fill="#975713"/>
          <path id="Trazado_134267" data-name="Trazado 134267" d="M640.821,985.023h4.831c0,.75-.008,1.5,0,2.249.01,1.252-.348,2.558,1.448,3.136.921.3,1.119,1.443.869,2.415a2.249,2.249,0,0,1-1.932,1.752,4.107,4.107,0,0,1-.527.041c-3.5.116-4.909.1-4.7-4.433C640.892,988.466,640.823,986.743,640.821,985.023Z" transform="translate(-154.407 -126.716)" fill="#975713"/>
          <path id="Trazado_134268" data-name="Trazado 134268" d="M591.195,962.161a4.841,4.841,0,1,1-4.722-4.929A4.921,4.921,0,0,1,591.195,962.161Z" transform="translate(-110.873 -106.304)" fill="#f8f8f8"/>
          <path id="Trazado_134269" data-name="Trazado 134269" d="M682.03,962.135a4.955,4.955,0,0,1,4.75-4.9,4.867,4.867,0,1,1-4.75,4.9Z" transform="translate(-184.693 -106.306)" fill="#f8f8f8"/>
          <path id="Trazado_134270" data-name="Trazado 134270" d="M645.011,1185.271,645,1185l5.056.005q-.009.134-.017.268A6.7,6.7,0,0,1,645.011,1185.271Z" transform="translate(-157.501 -273.579)" fill="#fbcfb2"/>
          <path id="Trazado_134271" data-name="Trazado 134271" d="M634.082,1186.026h5.031c1.264,1.482,2.856,2.655,4.015,4.237q-.838,3.988-1.676,7.976-4.155-.005-8.31-.011a2.3,2.3,0,0,0-1.4.254c-.5-2.655-1.008-5.308-1.5-7.965-.078-.424-.083-.861-.121-1.292Z" transform="translate(-146.572 -274.334)" fill="#df6661"/>
        </g>
      </g>
    </g>
  </g>
</svg>
