<svg xmlns="http://www.w3.org/2000/svg" width="375" height="303.187" viewBox="0 0 375 303.187">
  <g id="Grupo_68433" data-name="Grupo 68433" transform="translate(-1020 -2074)">
    <rect id="Rectángulo_31387" data-name="Rectángulo 31387" width="375" height="201" transform="translate(1020 2126)" fill="#aed3f2"/>
    <g id="Grupo_68432" data-name="Grupo 68432" transform="translate(-9118.071 -646.035)">
      <g id="Grupo_62466" data-name="Grupo 62466" transform="translate(10197.498 2720.035)">
        <path id="Trazado_133378" data-name="Trazado 133378" d="M9980.359,2713.9a7.7,7.7,0,0,0,4.589-7.122,7.236,7.236,0,1,0-14.442-.068,7.673,7.673,0,0,0,4.6,7.191c-11.121,1.679-10.61,13.756-10.61,13.756l26.28.122S9991.343,2715.562,9980.359,2713.9Z" transform="translate(-9873.087 -2568.779)" fill="#aed3f2"/>
        <g id="Grupo_62445" data-name="Grupo 62445" transform="translate(107.687)">
          <g id="Grupo_62433" data-name="Grupo 62433" transform="translate(0 11.897)">
            <g id="Grupo_62432" data-name="Grupo 62432">
              <rect id="Rectángulo_13834" data-name="Rectángulo 13834" width="154.657" height="114.857" transform="translate(0.102 0.204)" fill="#fff"/>
              <path id="Trazado_133379" data-name="Trazado 133379" d="M10143.235,2639.948c0-1.2-.062-45.331-.149-114.857l.149.143H9988.592l.177-.177v114.857l-.162-.163,154.655.163-154.655.163h-.158v-115.2h154.977v.149C10143.235,2594.617,10143.235,2638.752,10143.235,2639.948Z" transform="translate(-9988.448 -2524.88)" fill="#344154"/>
            </g>
            <path id="Trazado_133380" data-name="Trazado 133380" d="M10143.457,2550.146c0,.1-34.553.177-77.158.177s-77.16-.082-77.16-.177,34.541-.177,77.16-.177S10143.457,2550.052,10143.457,2550.146Z" transform="translate(-9988.669 -2532.918)" fill="#839eb6"/>
            <path id="Trazado_133381" data-name="Trazado 133381" d="M10000.2,2536.511a2.331,2.331,0,1,1-2.332-2.331A2.331,2.331,0,0,1,10000.2,2536.511Z" transform="translate(-9990.721 -2527.86)" fill="#839eb6"/>
            <path id="Trazado_133382" data-name="Trazado 133382" d="M10010.5,2536.511a2.331,2.331,0,1,1-2.332-2.331A2.331,2.331,0,0,1,10010.5,2536.511Z" transform="translate(-9994.021 -2527.86)" fill="#839eb6"/>
            <path id="Trazado_133383" data-name="Trazado 133383" d="M10020.9,2536.511a2.331,2.331,0,1,1-2.325-2.331A2.331,2.331,0,0,1,10020.9,2536.511Z" transform="translate(-9997.353 -2527.86)" fill="#839eb6"/>
          </g>
          <g id="Grupo_62436" data-name="Grupo 62436" transform="translate(58.149)">
            <path id="Trazado_133384" data-name="Trazado 133384" d="M10099.352,2510.913a4.078,4.078,0,0,0-4.078-2.257,5.513,5.513,0,0,0-6.8-.211,4.92,4.92,0,0,0-7.612,3.65,4.078,4.078,0,0,0-3.929,6.735,3.949,3.949,0,0,0,1.285,7.754l20.191-11.091a4.077,4.077,0,0,0,.939-4.58Z" transform="translate(-10074.008 -2507.375)" fill="#839eb6"/>
            <g id="Grupo_62435" data-name="Grupo 62435" transform="translate(1.331 1.9)">
              <g id="Grupo_62434" data-name="Grupo 62434" transform="translate(0 2.099)">
                <path id="Trazado_133385" data-name="Trazado 133385" d="M10078.232,2529.541a16.767,16.767,0,0,1,17.467-14.551l.869.048c9.318,1.006,13.669,9.515,12.4,18.771l-2.9,31.052-.155,1.509-21.783,3.249.429-7.931s-8.916-1.842-8.583-10.826C10076.125,2546.5,10077.213,2537.594,10078.232,2529.541Z" transform="translate(-10075.968 -2513.807)" fill="#ffbf9d"/>
                <path id="Trazado_133386" data-name="Trazado 133386" d="M10088.464,2582.321a21.807,21.807,0,0,0,11.942-2.861s-3.093,6.327-12.017,5.077Z" transform="translate(-10079.946 -2534.468)" fill="#ff9a6c"/>
                <path id="Trazado_133387" data-name="Trazado 133387" d="M10082.2,2548.744a1.28,1.28,0,0,0,1.168,1.359,1.225,1.225,0,0,0,1.36-1.087,1.277,1.277,0,0,0-1.169-1.359,1.229,1.229,0,0,0-1.359,1.087Z" transform="translate(-10077.961 -2524.277)" fill="#344154"/>
                <path id="Trazado_133388" data-name="Trazado 133388" d="M10081.795,2542.431c.147.17,1.161-.5,2.541-.428s2.356.816,2.514.68-.066-.381-.5-.72a3.5,3.5,0,0,0-2-.734,3.4,3.4,0,0,0-2.04.551C10081.93,2542.07,10081.727,2542.363,10081.795,2542.431Z" transform="translate(-10077.831 -2522.219)" fill="#344154"/>
                <path id="Trazado_133389" data-name="Trazado 133389" d="M10100.1,2549.963a1.293,1.293,0,0,0,1.176,1.359,1.231,1.231,0,0,0,1.359-1.087,1.291,1.291,0,0,0-1.176-1.36,1.234,1.234,0,0,0-1.361,1.088Z" transform="translate(-10083.695 -2524.667)" fill="#344154"/>
                <path id="Trazado_133390" data-name="Trazado 133390" d="M10101.792,2543.823c.149.17,1.155-.5,2.534-.428s2.359.816,2.516.68-.069-.381-.5-.72a3.433,3.433,0,0,0-2-.727,3.336,3.336,0,0,0-2.039.544C10101.86,2543.449,10101.723,2543.741,10101.792,2543.823Z" transform="translate(-10084.235 -2522.666)" fill="#344154"/>
                <path id="Trazado_133391" data-name="Trazado 133391" d="M10092.087,2553.675a9.74,9.74,0,0,0-2.223-.517c-.353-.054-.679-.135-.727-.38a1.753,1.753,0,0,1,.286-1.033c.372-.836.76-1.712,1.175-2.63a53.657,53.657,0,0,0,2.719-6.905,50.583,50.583,0,0,0-3.241,6.667l-1.135,2.651a2.1,2.1,0,0,0-.253,1.359.9.9,0,0,0,.559.544,2.723,2.723,0,0,0,.592.109,8.546,8.546,0,0,0,2.248.136Z" transform="translate(-10080.034 -2522.534)" fill="#344154"/>
                <path id="Trazado_133392" data-name="Trazado 133392" d="M10097.439,2560.78c-.218,0-.3,1.475-1.631,2.474s-2.922.761-2.949.965c0,.1.346.313,1.02.36a3.7,3.7,0,0,0,2.453-.72,3.226,3.226,0,0,0,1.271-2.039C10097.712,2561.161,10097.508,2560.78,10097.439,2560.78Z" transform="translate(-10081.378 -2528.484)" fill="#344154"/>
                <path id="Trazado_133393" data-name="Trazado 133393" d="M10101.7,2535.969c.116.38,1.5.272,3.114.551s2.894.781,3.125.455c.109-.156-.1-.523-.611-.911a5.324,5.324,0,0,0-2.291-.931,5.239,5.239,0,0,0-2.467.163C10101.968,2535.507,10101.628,2535.792,10101.7,2535.969Z" transform="translate(-10084.206 -2520.243)" fill="#839eb6"/>
                <path id="Trazado_133394" data-name="Trazado 133394" d="M10082.88,2536.56c.225.32,1.2.048,2.338.089s2.1.312,2.338,0c.109-.15,0-.476-.434-.788a3.2,3.2,0,0,0-1.876-.612,3.254,3.254,0,0,0-1.9.538C10082.946,2536.085,10082.744,2536.4,10082.88,2536.56Z" transform="translate(-10078.167 -2520.304)" fill="#839eb6"/>
                <path id="Trazado_133395" data-name="Trazado 133395" d="M10080.9,2524.916s2.65-5.505,5.438-6.687c3.4-1.42,4.594,2.25,7.767,1.529s6.382-2.086,9.463.5c3.4,2.821,1.637,4.594,1.656,8.591.068,16.2,2.794,20.919,4.01,13.348.137-.829,2.482-1.359,3-4.88.681-4.546,1.123-10.086.26-13.382-.721-2.773-2.182-4.758-4.874-6.96-4.247-3.507-10.3-3.874-14.435-3.663S10080.9,2517.841,10080.9,2524.916Z" transform="translate(-10077.547 -2513.26)" fill="#839eb6"/>
                <path id="Trazado_133396" data-name="Trazado 133396" d="M10121.5,2554.375a2.438,2.438,0,0,1,2.719-2.223c1.671.245,3.485,1.291,3.207,4.757-.5,6.117-6.558,4.364-6.552,4.187S10121.234,2556.936,10121.5,2554.375Z" transform="translate(-10090.354 -2525.714)" fill="#ffbf9d"/>
                <path id="Trazado_133397" data-name="Trazado 133397" d="M10123.1,2559.825a2.854,2.854,0,0,0,.272.183,1.143,1.143,0,0,0,.8.082,2.64,2.64,0,0,0,1.414-2.277,3.526,3.526,0,0,0-.177-1.55,1.232,1.232,0,0,0-.734-.883.536.536,0,0,0-.679.238c-.1.163-.068.292-.1.3s-.122-.115-.055-.367a.682.682,0,0,1,.272-.36.815.815,0,0,1,.6-.109,1.523,1.523,0,0,1,1.039,1.04,3.683,3.683,0,0,1,.231,1.74,2.786,2.786,0,0,1-1.774,2.521,1.145,1.145,0,0,1-.966-.245A.5.5,0,0,1,10123.1,2559.825Z" transform="translate(-10091.067 -2526.653)" fill="#ff9a6c"/>
              </g>
              <path id="Trazado_133398" data-name="Trazado 133398" d="M10111.346,2529.023a5.775,5.775,0,0,1-2.656,1.074,2.011,2.011,0,0,1-2.155-1.516c-.048-.435.082-.924-.183-1.271s-.944-.319-1.461-.286a3.925,3.925,0,0,1-3.928-3.01,1.629,1.629,0,0,1-2.217.095,8.92,8.92,0,0,1-1.584-1.869,2.528,2.528,0,0,0-2.038-1.162,6.154,6.154,0,0,1-1.359.231c-.8-.115-1.149-1.081-1.238-1.882s-.128-1.747-.788-2.216a3.042,3.042,0,0,0-2.194-.17c-.748.075-1.7-.15-1.85-.884a1.469,1.469,0,0,1,.327-1.1,3.975,3.975,0,0,1,4.757-1.271,5.4,5.4,0,0,1,9.958-.558,5.469,5.469,0,0,1,8.644,2.433,3.969,3.969,0,0,1,4.188,5.988,3.758,3.758,0,0,1,1.921,3.1,2.168,2.168,0,0,1-2.554,2.087,2.2,2.2,0,0,1-3.9,2" transform="translate(-10079.721 -2510.171)" fill="#839eb6"/>
            </g>
            <path id="Trazado_133399" data-name="Trazado 133399" d="M10124.133,2534.7a1.474,1.474,0,0,1-.443,1.162,2.045,2.045,0,0,1-1.271.68,2.12,2.12,0,0,1-1.72-.6h.258a6.08,6.08,0,0,1-1.3,1.474,3.615,3.615,0,0,1-1.154.639,2.716,2.716,0,0,1-2.962-1.053,3.408,3.408,0,0,1-.437-1.3,1.183,1.183,0,0,1,0-.5,1.883,1.883,0,0,1,.157.469,4.058,4.058,0,0,0,.511,1.2,2.507,2.507,0,0,0,3.682.272,6.373,6.373,0,0,0,1.244-1.359l.115-.17.143.149a1.885,1.885,0,0,0,1.455.544,1.846,1.846,0,0,0,1.143-.53A3.052,3.052,0,0,0,10124.133,2534.7Z" transform="translate(-10087.166 -2516.129)" fill="#fff"/>
            <path id="Trazado_133400" data-name="Trazado 133400" d="M10104.569,2511.966a3.508,3.508,0,0,0-.441.136,2.089,2.089,0,0,0-.992.761l-.081.115-.082-.123a7.614,7.614,0,0,0-2.85-2.548,5.871,5.871,0,0,0-2.391-.68,5.112,5.112,0,0,0-4.256,2,4.135,4.135,0,0,0-.767,1.821v.191l-.185-.062a3.45,3.45,0,0,0-2.56.183,3.4,3.4,0,0,0-1.476,1.428,4.483,4.483,0,0,0-.469,1.8,1.169,1.169,0,0,1-.054-.5,3.523,3.523,0,0,1,1.868-2.943,3.711,3.711,0,0,1,2.794-.244l-.211.129a4.446,4.446,0,0,1,.812-1.978,5.334,5.334,0,0,1,1.729-1.5,5.23,5.23,0,0,1,2.829-.646,6.209,6.209,0,0,1,2.516.72,7.475,7.475,0,0,1,2.866,2.719h-.156a2.05,2.05,0,0,1,1.114-.747A.86.86,0,0,1,10104.569,2511.966Z" transform="translate(-10078.477 -2507.994)" fill="#fff"/>
            <path id="Trazado_133401" data-name="Trazado 133401" d="M10101.794,2561.274c-.1,0-.108-.68-.6-1.21s-1.115-.679-1.1-.788.175-.082.448,0a1.728,1.728,0,0,1,.924.578,1.842,1.842,0,0,1,.43,1C10101.933,2561.1,10101.863,2561.281,10101.794,2561.274Z" transform="translate(-10082.364 -2523.98)" fill="#ff9a6c"/>
            <path id="Trazado_133402" data-name="Trazado 133402" d="M10102.909,2559.431c-.087.048-.3-.177-.618-.34s-.617-.218-.631-.319.372-.218.793,0S10103.046,2559.39,10102.909,2559.431Z" transform="translate(-10082.867 -2523.802)" fill="#ff9a6c"/>
            <path id="Trazado_133403" data-name="Trazado 133403" d="M10113.041,2578.967c0-.034.095-.048.169-.156a.536.536,0,0,0,.049-.544c-.087-.238-.361-.455-.53-.863a.8.8,0,0,1,.041-.68,5.307,5.307,0,0,1,.421-.5c.5-.592-.87-1.074-.68-1.849a.971.971,0,0,1,.36-.639c.149-.1.246-.109.252-.088a1.026,1.026,0,0,0-.361.747.963.963,0,0,0,.423.748,1.43,1.43,0,0,1,.387.531.737.737,0,0,1-.115.761c-.157.2-.327.333-.407.469a.5.5,0,0,0,0,.428c.1.306.366.571.455.89a.68.68,0,0,1-.177.72A.284.284,0,0,1,10113.041,2578.967Z" transform="translate(-10086.337 -2528.603)" fill="#ff9a6c"/>
            <path id="Trazado_133404" data-name="Trazado 133404" d="M10115.757,2578.649a.542.542,0,0,0-.066-.224,2.3,2.3,0,0,0-.319-.53,2.541,2.541,0,0,1-.246-.408.864.864,0,0,1-.06-.6c.122-.435.5-.679.68-1.006s.048-.577-.205-.856a2.051,2.051,0,0,1-.312-.469,1.032,1.032,0,0,1-.075-.5c.081-.639.523-.809.518-.761a1.237,1.237,0,0,0-.266.775,1.055,1.055,0,0,0,.38.741,1.539,1.539,0,0,1,.36.523.849.849,0,0,1-.1.734c-.252.395-.584.632-.678.91a1,1,0,0,0,.2.789,1.667,1.667,0,0,1,.245.639A.349.349,0,0,1,10115.757,2578.649Z" transform="translate(-10087.152 -2528.489)" fill="#ff9a6c"/>
          </g>
          <g id="Grupo_62441" data-name="Grupo 62441" transform="translate(30.96 49.453)">
            <path id="Trazado_133405" data-name="Trazado 133405" d="M10133.839,2648.313l8.156,7.856-2.63-15.027,16.549-5.233s4.39,20.62,5.156,25.5c1.359,8.754-.311,21.191-8.468,22.068-8.835.944-15.487-7.754-19.708-13.464-3.256-4.391-8.517-12.07-8.517-12.07l9.515-9.63" transform="translate(-10062.957 -2598.007)" fill="#839eb6"/>
            <path id="Trazado_133406" data-name="Trazado 133406" d="M10041.885,2634.5c-2.658,8.359-6.368,9.624-7.837,33.574-.286,4.669.72,10.874,5.15,12.4,4.923,1.679,12.458-1.359,14.818-5.437v-16.495Z" transform="translate(-10034.003 -2597.555)" fill="#839eb6"/>
            <path id="Trazado_133407" data-name="Trazado 133407" d="M10059.87,2682.851a37.077,37.077,0,0,0-1.632-3.521,36.1,36.1,0,0,0-2.249-3.16,3.487,3.487,0,0,1,.858.775,13.014,13.014,0,0,1,2.778,4.757A3.7,3.7,0,0,1,10059.87,2682.851Z" transform="translate(-10041.048 -2610.905)" fill="#344154"/>
            <path id="Trazado_133408" data-name="Trazado 133408" d="M10039.7,2631.592c.143-.5,8.313-22.727,10.915-27.593,3.12-5.818,9.672-8.394,13.735-8.646s47.574,3.222,47.574,3.222,12.193,3.058,14.66,14.1c3.092,13.831,5.58,27.471,5.58,27.471l-21.815,4.709-2.562-6.463-41,9.148-10-14.8Z" transform="translate(-10035.828 -2585.01)" fill="#839eb6"/>
            <g id="Grupo_62438" data-name="Grupo 62438" transform="translate(19.843)">
              <path id="Trazado_133409" data-name="Trazado 133409" d="M10493.326,2807.629l-16.989-7.5-1.9-7.333-19.846,9.386-4.146-4.594-1.768,5.179-4.351,1.42-8.562,16.875-1.563,39.092.136,10.154,58.652.387-.476-16.624Z" transform="translate(-10434.199 -2792.8)" fill="#839eb6"/>
              <path id="Trazado_133410" data-name="Trazado 133410" d="M10113.047,2580.15a49.61,49.61,0,0,0-7.919,3.683c-5.58,2.977-11.928,5.7-11.928,5.7l.482,8.964,21.123-10.6" transform="translate(-10072.812 -2580.143)" fill="#839eb6"/>
              <path id="Trazado_133411" data-name="Trazado 133411" d="M10457.267,2799.85l4.146,4.594-2.241,9.6-3.672-8.679" transform="translate(-10441.023 -2795.059)" fill="#839eb6"/>
              <g id="Grupo_62437" data-name="Grupo 62437" transform="translate(18.961 8.672)" opacity="0.3">
                <path id="Trazado_133412" data-name="Trazado 133412" d="M10092.458,2594.606c-.183.136-1.358,11.085-1.358,11.085l21.17-12.791-19.275,9.678Z" transform="translate(-10091.1 -2592.9)" fill="#d9a171"/>
              </g>
            </g>
            <path id="Trazado_133413" data-name="Trazado 133413" d="M10087.9,2667.712s-.435-16.236-.048-26.41c.32-8.373-1-29.734-1-29.734l-2.76-.448a312.011,312.011,0,0,0-7.074,46.215l-.782,10.3" transform="translate(-10047.533 -2590.065)" fill="#d9a171"/>
            <path id="Trazado_133414" data-name="Trazado 133414" d="M10142.8,2631a5.12,5.12,0,0,1,.2.87c.116.612.259,1.407.436,2.372.353,2.039.821,4.812,1.359,7.85s.992,5.852,1.291,7.863c.149,1.013.265,1.828.34,2.392a5.577,5.577,0,0,1,.081.884,5.119,5.119,0,0,1-.2-.863c-.108-.612-.259-1.414-.436-2.379-.36-2.039-.836-4.805-1.359-7.843s-.965-5.851-1.265-7.87c-.135-.972-.251-1.774-.332-2.393A5.167,5.167,0,0,1,10142.8,2631Z" transform="translate(-10068.857 -2596.434)" fill="#344154"/>
            <path id="Trazado_133415" data-name="Trazado 133415" d="M10149.123,2603.87c0,.041-.57.51-1.426,1.393a17.25,17.25,0,0,0-4.486,8.353c-.265,1.2-.325,1.964-.38,1.957a1.8,1.8,0,0,1,0-.536,10.3,10.3,0,0,1,.175-1.469,15.588,15.588,0,0,1,4.54-8.447,12.856,12.856,0,0,1,1.122-.958,2.077,2.077,0,0,1,.454-.292Z" transform="translate(-10068.862 -2587.742)" fill="#344154"/>
            <path id="Trazado_133416" data-name="Trazado 133416" d="M10462.408,2812.564l-1.9-.734-1.767,3.072-.34,5.049,2.514.408,1.9-3.119Z" transform="translate(-10422.109 -2798.896)" fill="#d9a171"/>
            <path id="Trazado_133417" data-name="Trazado 133417" d="M10063.129,2622.36c.081,0,.143,10.928.143,24.405s-.062,24.413-.143,24.413-.15-10.928-.15-24.413S10063.061,2622.36,10063.129,2622.36Z" transform="translate(-10043.285 -2593.666)" fill="#344154"/>
            <path id="Trazado_133418" data-name="Trazado 133418" d="M10090.575,2593.84c-.327.625-.687,1.232-1.075,1.821-.679,1.121-1.557,2.718-2.406,4.506l-.2.428-.137.286-.13-.279a34.417,34.417,0,0,1-1.767-4.479c-.183-.584-.319-1.053-.4-1.359a2.574,2.574,0,0,1-.094-.516,18.292,18.292,0,0,1,.679,1.842,47.006,47.006,0,0,0,1.844,4.41h-.274c.067-.136.137-.285.205-.435a37.009,37.009,0,0,1,2.494-4.486c.36-.55.68-.985.884-1.278A2.253,2.253,0,0,1,10090.575,2593.84Z" transform="translate(-10050.138 -2584.529)" fill="#344154"/>
            <path id="Trazado_133419" data-name="Trazado 133419" d="M10114.97,2590.93a2.125,2.125,0,0,1-.284.177l-.857.448-3.152,1.638c-2.664,1.36-6.313,3.351-10.352,5.512-2.46,1.312-4.757,2.529-6.8,3.541l-.183.095v-.211c0-2.63-.049-4.845-.062-6.443v-1.821a3.56,3.56,0,0,1,0-.645,3.491,3.491,0,0,1,.056.645c0,.455.033,1.06.068,1.815.039,1.6.094,3.819.17,6.443l-.192-.109c2.039-1.033,4.338-2.256,6.8-3.568,4.038-2.161,7.7-4.078,10.393-5.437,1.359-.68,2.432-1.2,3.193-1.549l.884-.4A1.958,1.958,0,0,1,10114.97,2590.93Z" transform="translate(-10052.991 -2583.597)" fill="#344154"/>
            <path id="Trazado_133420" data-name="Trazado 133420" d="M10065.856,2601.1c.047,0-.286.585-.68,1.543a17.167,17.167,0,0,0-1.467,7.965c.06,1.046.169,1.692.121,1.706a1.361,1.361,0,0,1-.131-.449,9.118,9.118,0,0,1-.2-1.237,14.779,14.779,0,0,1,1.48-8.073,10.31,10.31,0,0,1,.626-1.088A.911.911,0,0,1,10065.856,2601.1Z" transform="translate(-10043.432 -2586.854)" fill="#344154"/>
            <path id="Trazado_133421" data-name="Trazado 133421" d="M10089.562,2611.6c-.04.068-.521-.157-1.074-.5s-.957-.68-.91-.754.523.163,1.067.51A3.145,3.145,0,0,1,10089.562,2611.6Z" transform="translate(-10051.165 -2589.812)" fill="#344154"/>
            <path id="Trazado_133422" data-name="Trazado 133422" d="M10090.714,2607.923a14.046,14.046,0,0,1-1.285-2.555,14.41,14.41,0,0,1-1.019-2.678,13.868,13.868,0,0,1,1.284,2.556A14.484,14.484,0,0,1,10090.714,2607.923Z" transform="translate(-10051.434 -2587.364)" fill="#344154"/>
            <g id="Grupo_62439" data-name="Grupo 62439" transform="translate(4.897 52.991)" opacity="0.3">
              <path id="Trazado_133423" data-name="Trazado 133423" d="M10087.554,2670.384a1.959,1.959,0,0,0-.679-1.237c-.68-.456-1.584.149-2.3.577-1.889,1.121-4.227,1.081-6.429.985a162.639,162.639,0,0,1-19.811-1.876,30.438,30.438,0,0,1-9.306-2.773,12.466,12.466,0,0,1-6.287-7.123l-1.529-.829c1.189,2.528,1.067,9.705,1.49,12.471s1.651,4.758,4.314,5.593a9.341,9.341,0,0,0,3.344.238c10.915-.544,21.931-.047,32.846-.591,1.558-.075,3.366-.286,4.2-1.6C10088.1,2673.109,10087.826,2671.662,10087.554,2670.384Z" transform="translate(-10041.209 -2658.11)" fill="#d9a171"/>
            </g>
            <path id="Trazado_133424" data-name="Trazado 133424" d="M10155.027,2675.268a.984.984,0,0,1-.074-.129l-.2-.388c-.087-.177-.2-.38-.318-.632l-.537-.8a29.078,29.078,0,0,0-4.235-4.6c-1.978-1.815-4.479-3.861-7.3-6.192-1.4-1.176-2.888-2.413-4.382-3.792a40.589,40.589,0,0,1-4.4-4.574h.211l-8.5,8.9-1.135,1.182v-.183c3.215,4.7,6.116,9.243,9.209,13.056a63.134,63.134,0,0,0,4.621,5.172,39.242,39.242,0,0,0,4.5,4,13.657,13.657,0,0,0,7.937,3.12h.723l.632-.068.543-.054.44-.1.6-.129a.935.935,0,0,1,.209,0l-.2.061-.6.156-.441.115-.545.075-.64.082h-.676c-2.04.088-5.085-.849-8.062-3.065a38.278,38.278,0,0,1-4.545-4,62.078,62.078,0,0,1-4.665-5.166c-3.091-3.82-6.026-8.366-9.235-13.056l-.068-.1.083-.088,1.135-1.183c2.976-3.113,5.853-6.116,8.508-8.883l.109-.115.1.123a41.818,41.818,0,0,0,4.357,4.56c1.487,1.359,2.968,2.617,4.362,3.8,2.807,2.345,5.3,4.4,7.257,6.246a28.024,28.024,0,0,1,4.2,4.676c.188.313.364.585.515.823l.3.645.177.395a1.019,1.019,0,0,1,.024.122Z" transform="translate(-10062.803 -2603.764)" fill="#344154"/>
            <g id="Grupo_62440" data-name="Grupo 62440" transform="translate(62.475 62.757)" opacity="0.3">
              <path id="Trazado_133425" data-name="Trazado 133425" d="M10126.861,2672.765l-.933-.286a55.852,55.852,0,0,0,5.595,15.149h6.632C10135.627,2684.482,10126.861,2672.765,10126.861,2672.765Z" transform="translate(-10125.929 -2672.479)" fill="#d9a171"/>
            </g>
          </g>
          <g id="Grupo_62444" data-name="Grupo 62444" transform="translate(29.927 84.868)">
            <g id="Grupo_62442" data-name="Grupo 62442" transform="translate(36.624)">
              <path id="Trazado_133426" data-name="Trazado 133426" d="M10120.372,2648.438l-13.423-14.66-8.053-1.529-9.129,1.155a1.967,1.967,0,0,0,1.156,2.222l-3.4.191a1.923,1.923,0,0,0,1.258,2.507l-2.413.422a3.467,3.467,0,0,0,3.758,1.984,52.474,52.474,0,0,1,7.138-.482l4.723,2.61-7.034-.292-5.109.965s-.681,1.3.481,1.618a32.663,32.663,0,0,0,5.595,0l6.375,2.039s2.493,3.534,3.362,4.5,5.01,2.752,5.01,2.752l2.039,1.828Z" transform="translate(-10086.37 -2632.25)" fill="#ffbf9d"/>
              <path id="Trazado_133427" data-name="Trazado 133427" d="M10088.1,2636.814a13.732,13.732,0,0,0,2.623-.095c1.618-.129,3.841-.34,6.294-.605l2.351-.265h-.094c1.82.517,3.4.944,4.548,1.223a7.535,7.535,0,0,0,1.826.367,8.518,8.518,0,0,0-1.738-.68c-1.114-.367-2.679-.856-4.493-1.4h-.1l-2.357.245c-2.446.265-4.669.53-6.273.754A12.82,12.82,0,0,0,10088.1,2636.814Z" transform="translate(-10086.925 -2633.246)" fill="#ff9a6c"/>
              <path id="Trazado_133428" data-name="Trazado 133428" d="M10087.3,2640.852a10.329,10.329,0,0,0,2.372-.164c1.461-.163,3.473-.428,5.689-.754l2.2-.333h-.13a45.723,45.723,0,0,0,5.552,1.957,44.557,44.557,0,0,0-5.368-2.419h-.13l-2.2.313c-2.215.326-4.221.68-5.661.91A11.037,11.037,0,0,0,10087.3,2640.852Z" transform="translate(-10086.669 -2634.457)" fill="#ff9a6c"/>
            </g>
            <g id="Grupo_62443" data-name="Grupo 62443" transform="translate(0 0.51)">
              <path id="Trazado_133429" data-name="Trazado 133429" d="M10036.955,2636.609l6.8,25.7a3.2,3.2,0,0,0,3.152,2.378l35.231-.679a3.2,3.2,0,0,0,3.065-3.854l-5.192-24.623a3.2,3.2,0,0,0-3.127-2.536h-37.147a2.881,2.881,0,0,0-2.78,3.609Z" transform="translate(-10033.886 -2632.999)" fill="#344154"/>
              <path id="Trazado_133430" data-name="Trazado 133430" d="M10069.641,2648.109a1.726,1.726,0,1,1-2.487.68A1.843,1.843,0,0,1,10069.641,2648.109Z" transform="translate(-10043.533 -2637.765)" fill="#fff"/>
              <path id="Trazado_133431" data-name="Trazado 133431" d="M10032.972,2644.658a2.3,2.3,0,0,1,0-2.834,3.5,3.5,0,0,1,2.717-1.264,7.542,7.542,0,0,1,2.983.618,19.375,19.375,0,0,1,3.4,1.686,3.2,3.2,0,0,1,1.685,1.971c.149.884-.8,1.889-1.583,1.447a3.726,3.726,0,0,1,2.188,2.6c.163,1.108-.435,1.713-1.51,2.039a1.678,1.678,0,0,1,.965,2.14,1.931,1.931,0,0,1-2.412.741,5.582,5.582,0,0,1-2.1-1.768,5.176,5.176,0,0,1,.6,3.534,6.9,6.9,0,0,1-4.521-5.552,3.189,3.189,0,0,1-.87-3.928,3.308,3.308,0,0,1-1.971-2.766" transform="translate(-10032.483 -2635.422)" fill="#ffbf9d"/>
              <path id="Trazado_133432" data-name="Trazado 133432" d="M10044.217,2654.648a7.94,7.94,0,0,1-1.027-.788,6.943,6.943,0,0,0-2.717-1.359,3.762,3.762,0,0,0-1.651,0,3.2,3.2,0,0,0-1.211.6,3.965,3.965,0,0,0-.781.992.688.688,0,0,1,.095-.347,2.289,2.289,0,0,1,.57-.781,3.014,3.014,0,0,1,1.266-.679,3.681,3.681,0,0,1,1.768,0,6.347,6.347,0,0,1,2.772,1.495A5.029,5.029,0,0,1,10044.217,2654.648Z" transform="translate(-10033.876 -2639.145)" fill="#ff9a6c"/>
              <path id="Trazado_133433" data-name="Trazado 133433" d="M10043.439,2648.247a5.644,5.644,0,0,1-1.251-.523,13.5,13.5,0,0,0-1.357-.584,11.409,11.409,0,0,0-1.714-.442,5.026,5.026,0,0,0-1.739,0,3.11,3.11,0,0,0-1.283.564,3.176,3.176,0,0,0-.844,1.006.673.673,0,0,1,.1-.361,2.2,2.2,0,0,1,.626-.788,3.146,3.146,0,0,1,1.359-.679,4.862,4.862,0,0,1,1.829,0,10.124,10.124,0,0,1,1.752.475,10.718,10.718,0,0,1,1.361.679A9.324,9.324,0,0,1,10043.439,2648.247Z" transform="translate(-10033.37 -2637.278)" fill="#ff9a6c"/>
            </g>
          </g>
        </g>
        <g id="Grupo_62448" data-name="Grupo 62448" transform="translate(86.263 27.561)">
          <g id="Grupo_62446" data-name="Grupo 62446">
            <path id="Trazado_133434" data-name="Trazado 133434" d="M10003.4,2558.933l-8.6-.2a20.064,20.064,0,1,0,2.12,6.865h0Z" transform="translate(-9956.929 -2547.928)" fill="#fafafa"/>
            <path id="Trazado_133435" data-name="Trazado 133435" d="M10003.395,2558.933l-6.429,6.721-.067.068-.036-.088h.123a20.915,20.915,0,0,1,0,4.8,20.14,20.14,0,0,1-1.476,5.519,17.868,17.868,0,0,1-1.488,2.8c-.306.456-.6.925-.931,1.359l-1.088,1.319a20.2,20.2,0,0,1-21.686,5.56,20.478,20.478,0,0,1-7.524-4.758,19.832,19.832,0,0,1-4.865-7.9l-.354-1.162c-.114-.387-.169-.788-.258-1.183s-.16-.785-.212-1.182l-.121-1.2a7.807,7.807,0,0,1-.054-1.189v-1.189l.1-1.176a9.776,9.776,0,0,1,.143-1.169,20.468,20.468,0,0,1,3.4-8.414,19.8,19.8,0,0,1,6.322-5.817,20.282,20.282,0,0,1,14.911-2.161,21.689,21.689,0,0,1,6.033,2.6,19.934,19.934,0,0,1,4.325,3.724,20.151,20.151,0,0,1,2.663,3.935l-.048-.034,8.6.259-8.6-.136h-.041v-.034a20.358,20.358,0,0,0-2.669-3.895,20.072,20.072,0,0,0-4.31-3.676,21.619,21.619,0,0,0-5.988-2.549,20.11,20.11,0,0,0-14.755,2.168,19.561,19.561,0,0,0-6.233,5.763,20.11,20.11,0,0,0-3.4,8.312,9.087,9.087,0,0,0-.144,1.149l-.1,1.162v1.176a7.39,7.39,0,0,0,.055,1.176l.122,1.183a11.312,11.312,0,0,0,.211,1.169c.088.387.136.781.258,1.162l.347,1.155a19.51,19.51,0,0,0,4.807,7.809,19.8,19.8,0,0,0,28.89-.68l1.079-1.305c.328-.448.619-.917.926-1.359a18.625,18.625,0,0,0,1.488-2.772,20.343,20.343,0,0,0,1.482-5.472,20.832,20.832,0,0,0,0-4.757l-.056-.469.17.435h-.1Z" transform="translate(-9956.925 -2547.929)" fill="#344154"/>
          </g>
          <g id="Grupo_62447" data-name="Grupo 62447" transform="translate(10.082 17.515)">
            <path id="Trazado_133436" data-name="Trazado 133436" d="M9975.837,2575.739a2.039,2.039,0,1,1-2.04-2.039A2.039,2.039,0,0,1,9975.837,2575.739Z" transform="translate(-9971.76 -2573.7)" fill="#344154"/>
            <path id="Trazado_133437" data-name="Trazado 133437" d="M9987.809,2575.739a2.04,2.04,0,1,1-2.039-2.039A2.039,2.039,0,0,1,9987.809,2575.739Z" transform="translate(-9975.594 -2573.7)" fill="#344154"/>
            <path id="Trazado_133438" data-name="Trazado 133438" d="M9999.908,2574.731a2.039,2.039,0,1,1-2.774-.748A2.039,2.039,0,0,1,9999.908,2574.731Z" transform="translate(-9979.56 -2573.705)" fill="#344154"/>
          </g>
        </g>
        <g id="Grupo_62462" data-name="Grupo 62462" transform="translate(0 139.443)">
          <g id="Grupo_62450" data-name="Grupo 62450" transform="translate(0 31.079)">
            <g id="Grupo_62449" data-name="Grupo 62449">
              <rect id="Rectángulo_13835" data-name="Rectángulo 13835" width="154.657" height="114.857" transform="translate(0.136 0.211)" fill="#fff"/>
              <path id="Trazado_133439" data-name="Trazado 133439" d="M9984.75,2873.348c0-1.2-.06-45.332-.143-114.857l.143.143H9830.107l.177-.177v114.858l-.164-.156,154.656.156-154.656.163H9830v-115.2h.188l154.644.034h.143v.143C9984.818,2828.016,9984.75,2872.152,9984.75,2873.348Z" transform="translate(-9830 -2758.28)" fill="#344154"/>
            </g>
            <path id="Trazado_133440" data-name="Trazado 133440" d="M9984.787,2780.917c0,.1-34.628.184-77.336.184s-77.342-.082-77.342-.184,34.622-.177,77.342-.177S9984.787,2780.849,9984.787,2780.917Z" transform="translate(-9830.035 -2765.476)" fill="#839eb6"/>
            <circle id="Elipse_4620" data-name="Elipse 4620" cx="2.277" cy="2.277" r="2.277" transform="translate(4.384 4.812)" fill="#839eb6"/>
            <circle id="Elipse_4621" data-name="Elipse 4621" cx="2.277" cy="2.277" r="2.277" transform="translate(11.248 4.812)" fill="#839eb6"/>
            <circle id="Elipse_4622" data-name="Elipse 4622" cx="2.277" cy="2.277" r="2.277" transform="translate(18.112 4.812)" fill="#839eb6"/>
          </g>
          <g id="Grupo_62461" data-name="Grupo 62461" transform="translate(17.521)">
            <path id="Trazado_133441" data-name="Trazado 133441" d="M10032.7,2889.319s3.778-4.941,5.553-5.132,12.879.191,14.441,0,10.345-3.908,10.345-3.908,1.556.53,1.359,1.924-9.956,6.667-11.127,6.865-10.54.884-10.54.884l-2.35,4.241Z" transform="translate(-9912.459 -2766.285)" fill="#b8695e"/>
            <g id="Grupo_62456" data-name="Grupo 62456" transform="translate(47.828 35.9)">
              <path id="Trazado_133442" data-name="Trazado 133442" d="M9980.839,2796.14a5.912,5.912,0,0,0,.938-10.263l-6.852-2.3q-1.479,13.267-3.146,26.506a10.014,10.014,0,0,0,5.26-1.455,4.438,4.438,0,0,0,1.945-4.757,4.682,4.682,0,0,0,1.855-7.713Z" transform="translate(-9940.771 -2771.206)" fill="#344154"/>
              <g id="Grupo_62454" data-name="Grupo 62454" transform="translate(4.112 14.937)">
                <g id="Grupo_62453" data-name="Grupo 62453">
                  <path id="Trazado_133443" data-name="Trazado 133443" d="M9934.566,2792.162l.258-3.146,19.24-1.665c5.879,0,11.553,6.45,11.35,12.328-.258,6.531-.822,14.5-2.086,19.261-2.543,9.576-10.127,10.052-10.127,10.052l-.68,9.65c-.51,5.627-5.369,6.382-10.99,5.879h0a10.243,10.243,0,0,1-9.311-10.772Z" transform="translate(-9932.205 -2787.35)" fill="#b8695e"/>
                  <g id="Grupo_62451" data-name="Grupo 62451" transform="translate(25.776 14.674)">
                    <path id="Trazado_133444" data-name="Trazado 133444" d="M9975.385,2815.085a1.259,1.259,0,0,1-1.36,1.142,1.2,1.2,0,0,1-1.175-1.258,1.256,1.256,0,0,1,1.358-1.142,1.2,1.2,0,0,1,1.177,1.258Z" transform="translate(-9971.002 -2810.505)" fill="#344154"/>
                    <path id="Trazado_133445" data-name="Trazado 133445" d="M9975.084,2810.524c-.17.143-1.046-.68-2.391-.782s-2.4.436-2.529.258.13-.36.586-.632a3.482,3.482,0,0,1,2.038-.408,3.4,3.4,0,0,1,1.883.829C9975.058,2810.15,9975.166,2810.456,9975.084,2810.524Z" transform="translate(-9970.131 -2808.942)" fill="#344154"/>
                  </g>
                  <g id="Grupo_62452" data-name="Grupo 62452" transform="translate(12.604 13.577)">
                    <path id="Trazado_133446" data-name="Trazado 133446" d="M9956.918,2813.925a1.253,1.253,0,0,1-1.358,1.135,1.2,1.2,0,0,1-1.17-1.257,1.25,1.25,0,0,1,1.357-1.135,1.2,1.2,0,0,1,1.171,1.257Z" transform="translate(-9951.914 -2809.037)" fill="#344154"/>
                    <path id="Trazado_133447" data-name="Trazado 133447" d="M9955.678,2808.906c-.169.15-1.046-.679-2.392-.781s-2.393.442-2.521.259c-.069-.082.122-.354.583-.625a3.4,3.4,0,0,1,2.04-.408,3.279,3.279,0,0,1,1.882.829C9955.617,2808.532,9955.726,2808.845,9955.678,2808.906Z" transform="translate(-9950.752 -2807.328)" fill="#344154"/>
                  </g>
                  <path id="Trazado_133448" data-name="Trazado 133448" d="M9963.629,2819.741a8.764,8.764,0,0,1,2.222-.177c.348,0,.679-.034.756-.258a1.747,1.747,0,0,0-.122-1.04l-.748-2.718a45.733,45.733,0,0,1-1.584-7.068,44.734,44.734,0,0,1,2.148,6.926c.245.952.482,1.855.68,2.719a2.049,2.049,0,0,1,.041,1.36.883.883,0,0,1-.62.442,2.237,2.237,0,0,1-.591,0A8.8,8.8,0,0,1,9963.629,2819.741Z" transform="translate(-9942.272 -2794.119)" fill="#344154"/>
                  <path id="Trazado_133449" data-name="Trazado 133449" d="M9956.954,2846.365a25.972,25.972,0,0,1-13.017-4.866s2.6,7.15,12.765,7.293Z" transform="translate(-9935.963 -2804.698)" fill="#925249"/>
                </g>
                <path id="Trazado_133450" data-name="Trazado 133450" d="M9956.081,2803.514c-.17.347-1.5.041-3.086.068s-2.915.326-3.093,0c-.074-.163.178-.489.729-.788a5.236,5.236,0,0,1,2.351-.564,5.137,5.137,0,0,1,2.359.523C9955.871,2803.025,9956.13,2803.344,9956.081,2803.514Z" transform="translate(-9937.87 -2792.117)" fill="#344154"/>
                <path id="Trazado_133451" data-name="Trazado 133451" d="M9975.9,2803.713c-.266.285-1.162-.129-2.27-.258s-2.08,0-2.265-.347c-.08-.163.1-.455.544-.679a3.3,3.3,0,0,1,3.65.489C9975.924,2803.251,9976.026,2803.577,9975.9,2803.713Z" transform="translate(-9944.744 -2792.071)" fill="#344154"/>
              </g>
              <path id="Trazado_133452" data-name="Trazado 133452" d="M9967.778,2784.271a6.118,6.118,0,0,0,3-6,6.943,6.943,0,0,0-4.193-5.362,7.089,7.089,0,0,0-1.357-.408,6.281,6.281,0,0,0-2.937-1.176,3.283,3.283,0,0,0-2.256-2.807,7.889,7.889,0,0,0-3.76-.231,6.381,6.381,0,0,0-10.275-.6,144.709,144.709,0,0,0-11.908,3.771,5.137,5.137,0,0,0-.972,1.251,4.918,4.918,0,0,0-1.121,1.835,5.879,5.879,0,0,0-3.737,10.385,5.369,5.369,0,0,0,.307,8.6,6.9,6.9,0,0,0,0,5.437,3.344,3.344,0,0,0,1.556,1.767,1.27,1.27,0,0,0,.11.381c.488.972,1.963.72,2.873.136a11.813,11.813,0,0,0,4.439-6.382c.842-2.5,1.266-5.138,2.079-7.646l.061-.177a7.191,7.191,0,0,1,1.693-2.772,17.734,17.734,0,0,0,2.182,1.733,7.794,7.794,0,0,0,9.194-.864,11.465,11.465,0,0,0,6.967,3.4,11.118,11.118,0,0,0,7.477-1.427,3.61,3.61,0,0,0,1.3-1.523A1.108,1.108,0,0,0,9967.778,2784.271Z" transform="translate(-9926.153 -2765.372)" fill="#344154"/>
              <path id="Trazado_133453" data-name="Trazado 133453" d="M9933.27,2813.3c-.123-.075-5.021-2.535-5.816,2.78s4.71,5.009,4.756,4.859S9933.27,2813.3,9933.27,2813.3Z" transform="translate(-9926.545 -2780.525)" fill="#b8695e"/>
              <path id="Trazado_133454" data-name="Trazado 133454" d="M9931.516,2819.467a1.473,1.473,0,0,1-.271.1.941.941,0,0,1-.681-.088,2.33,2.33,0,0,1-.755-2.216,3.179,3.179,0,0,1,.456-1.284,1.1,1.1,0,0,1,.8-.6.476.476,0,0,1,.51.333.44.44,0,0,1,0,.272c0,.014.13-.068.115-.292a.605.605,0,0,0-.156-.367.681.681,0,0,0-.488-.211,1.307,1.307,0,0,0-1.094.679,3.139,3.139,0,0,0-.539,1.435,2.429,2.429,0,0,0,1.007,2.494,1,1,0,0,0,.862,0C9931.491,2819.6,9931.529,2819.48,9931.516,2819.467Z" transform="translate(-9927.191 -2781.307)" fill="#925249"/>
              <path id="Trazado_133455" data-name="Trazado 133455" d="M9977.729,2783a.475.475,0,0,1,0,.129,3.085,3.085,0,0,1,.048.4,4.022,4.022,0,0,1-.2,1.5,4.081,4.081,0,0,1-1.357,1.937,4.235,4.235,0,0,1-2.986.85l.109-.075a9.242,9.242,0,0,1-2.752,4.376,7.1,7.1,0,0,1-2.555,1.489,5.917,5.917,0,0,1-3.12.095,10.331,10.331,0,0,1-2.868-1.094,7.921,7.921,0,0,1-2.289-1.774h.163a9.751,9.751,0,0,1-4.759,1.957,7.639,7.639,0,0,1-3.968-.809,8.074,8.074,0,0,1-2.149-1.57c-.21-.224-.372-.408-.469-.53a.859.859,0,0,1-.142-.2s.225.251.679.679a8.429,8.429,0,0,0,2.161,1.5,7.629,7.629,0,0,0,3.888.741,9.616,9.616,0,0,0,4.636-1.944l.088-.068.074.088a7.872,7.872,0,0,0,2.222,1.706,10.283,10.283,0,0,0,2.809,1.067,5.7,5.7,0,0,0,2.99-.082,6.927,6.927,0,0,0,2.473-1.441,9.038,9.038,0,0,0,2.72-4.248v-.082h.087a4.018,4.018,0,0,0,2.861-.782,3.95,3.95,0,0,0,1.359-1.848,4.26,4.26,0,0,0,.252-1.461C9977.75,2783.19,9977.715,2783,9977.729,2783Z" transform="translate(-9933.292 -2771.02)" fill="#5e6178"/>
              <path id="Trazado_133456" data-name="Trazado 133456" d="M9934.521,2778.57a10.675,10.675,0,0,0-.679,1.768,7.675,7.675,0,0,0,.252,4.845v.082l-.075.054a4.9,4.9,0,0,0-1.687,1.985,4.687,4.687,0,0,0-.395,2.827,4.939,4.939,0,0,0,1.909,3.113l.089.068-.062.1a6.117,6.117,0,0,0-1.039,3.242,6.6,6.6,0,0,0,.442,2.684,7.317,7.317,0,0,0,1.271,2.08.662.662,0,0,1-.131-.115,3.545,3.545,0,0,1-.333-.347,5.877,5.877,0,0,1-.944-1.563,6.667,6.667,0,0,1-.5-2.719,6.206,6.206,0,0,1,1.047-3.364v.156a5.153,5.153,0,0,1-2.039-3.262,4.93,4.93,0,0,1,.42-2.971,5.093,5.093,0,0,1,1.788-2.039l-.04.129a7.615,7.615,0,0,1-.176-4.961,6.659,6.659,0,0,1,.543-1.312c.082-.142.156-.251.2-.319A.553.553,0,0,1,9934.521,2778.57Z" transform="translate(-9927.891 -2769.6)" fill="#5e6178"/>
              <path id="Trazado_133457" data-name="Trazado 133457" d="M9930.132,2823.821a4.036,4.036,0,0,0-.231.945,1.41,1.41,0,0,0,.266.945,1.184,1.184,0,0,0,1.052.455.982.982,0,0,0,.775-.788,1.851,1.851,0,0,0-.055-1.012c-.183-.571-.38-.911-.339-.925a2.423,2.423,0,0,1,.5.87,1.927,1.927,0,0,1,.115,1.121,1.5,1.5,0,0,1-.307.619,1.1,1.1,0,0,1-.681.36,1.357,1.357,0,0,1-1.27-.564,1.568,1.568,0,0,1-.259-1.094,1.474,1.474,0,0,1,.43-.931Z" transform="translate(-9927.285 -2783.975)" fill="#344154"/>
              <g id="Grupo_62455" data-name="Grupo 62455" transform="translate(20.778 41.769)">
                <path id="Trazado_133458" data-name="Trazado 133458" d="M9958.08,2827.319a2.453,2.453,0,0,0,.4,4.024,1.414,1.414,0,0,0,.9.21c.551-.081.925-.591,1.231-1.053l.772-1.149a.584.584,0,0,0,.143-.435c-.04-.163-.2-.252-.358-.326l-2.966-1.421" transform="translate(-9956.881 -2826.939)" fill="#925249"/>
                <path id="Trazado_133459" data-name="Trazado 133459" d="M9959.188,2831.275a2.789,2.789,0,0,1-1.359-.482,2.224,2.224,0,0,1-1.026-1.278,1.708,1.708,0,0,1,0-1.006,2.943,2.943,0,0,1,.462-.944,2.717,2.717,0,0,1,.762-.68l.094-.054.1.054c1.908,1.176,3.452,1.889,3.4,1.978a13.051,13.051,0,0,1-3.616-1.651h.2a2.4,2.4,0,0,0-.679.591,2.03,2.03,0,0,0-.442,1.638,2.113,2.113,0,0,0,.836,1.141A12.512,12.512,0,0,1,9959.188,2831.275Z" transform="translate(-9956.727 -2826.83)" fill="#344154"/>
              </g>
            </g>
            <g id="Grupo_62457" data-name="Grupo 62457" transform="translate(0 93.184)">
              <path id="Trazado_133460" data-name="Trazado 133460" d="M9855.779,2902.664s19.336-34.661,22.55-40.269c3.786-6.592,7.082-8.984,10.053-10.425a23.37,23.37,0,0,1,10-2.236l9.588-.075s3.644,5.437,8.583,6.524c6.8,1.468,11.907-3.582,11.907-3.582l13.776,5.641-2.766,25.459a37.527,37.527,0,0,1-6.8,17.779l-.912,1.182-50.767-.047,5.885-18.316L9876,2902.65Z" transform="translate(-9855.779 -2849.66)" fill="#5e6178"/>
              <path id="Trazado_133461" data-name="Trazado 133461" d="M9979.408,2862.29s4,2.352,7.014,12.1,9.517,27.084,9.517,27.084l16.309-18.507,9.682,6.116s-15.635,27.1-18.095,30.312c-3.7,4.758-13.04,7.517-18.526,1.162-3.987-4.622-13.517-26.981-13.517-26.981Z" transform="translate(-9892.947 -2853.706)" fill="#5e6178"/>
              <path id="Trazado_133462" data-name="Trazado 133462" d="M9972.18,2883.08a1.322,1.322,0,0,1,.149.292c.089.2.225.482.368.863a27.431,27.431,0,0,1,1.033,3.3,29.18,29.18,0,0,1-3.346,22.04,28.4,28.4,0,0,1-1.972,2.841c-.25.319-.461.551-.6.714a1.32,1.32,0,0,1-.232.237,10.6,10.6,0,0,1,.729-1.039,32.846,32.846,0,0,0,1.863-2.882,30.188,30.188,0,0,0,3.315-21.857,34.054,34.054,0,0,0-.916-3.31A10.2,10.2,0,0,1,9972.18,2883.08Z" transform="translate(-9891.596 -2860.366)" fill="#344154"/>
              <path id="Trazado_133463" data-name="Trazado 133463" d="M9901.838,2878.5a1.192,1.192,0,0,1,0,.354c-.042.272-.083.6-.136,1.006-.13.877-.333,2.134-.619,3.683-.571,3.1-1.488,7.361-2.768,12s-2.67,8.774-3.771,11.731c-.544,1.475-1.012,2.664-1.358,3.479-.156.374-.292.68-.394.931a1.326,1.326,0,0,1-.164.319,1.158,1.158,0,0,1,.095-.346c.089-.251.2-.571.333-.951l1.25-3.521c1.033-2.97,2.387-7.1,3.665-11.737s2.229-8.869,2.86-11.955l.727-3.657c.082-.4.145-.727.2-.992A2.331,2.331,0,0,1,9901.838,2878.5Z" transform="translate(-9867.584 -2858.899)" fill="#344154"/>
            </g>
            <g id="Grupo_62459" data-name="Grupo 62459" transform="translate(9.977 142.823)">
              <g id="Grupo_62458" data-name="Grupo 62458">
                <path id="Trazado_133464" data-name="Trazado 133464" d="M9870.459,2926.03a15.436,15.436,0,0,1,2.753-2.984,2.689,2.689,0,0,1,2.719.034l.551.489s2.869-1.284,4.242-.3c0,0,2.717-1.285,4.028.19,0,0,2.107-1.359,3-.177a4.889,4.889,0,0,1,.367,4.248c-.429,1.04-1.237,4.574-1.861,4.635,0,0-1.68.177-1.9-.727s-.317-1.359-.317-1.359-.64,3.2-1.407,3.358-2.244.075-2.3-1.359c0,0-.679,1.067-1.413.755s-1.563-.823-1.487-1.692.087-1.733.087-1.733-.38,1.265-1.013.992-1.271-.218-1.624-1.291-1.237-3.127-1.237-3.127Z" transform="translate(-9870.459 -2922.699)" fill="#b8695e"/>
                <path id="Trazado_133465" data-name="Trazado 133465" d="M9880.238,2929.743a8.591,8.591,0,0,1,.274-.9,5.2,5.2,0,0,0,.094-2.222,5.3,5.3,0,0,0-.886-2.039c-.338-.469-.609-.679-.582-.747a2.043,2.043,0,0,1,.741.632,4.552,4.552,0,0,1,.82,4.438A1.944,1.944,0,0,1,9880.238,2929.743Z" transform="translate(-9873.239 -2923.061)" fill="#925249"/>
                <path id="Trazado_133466" data-name="Trazado 133466" d="M9885.542,2923.57a4.941,4.941,0,0,1,.367,1.264,12.446,12.446,0,0,1-.43,6.28,4.217,4.217,0,0,1-.53,1.2,22.166,22.166,0,0,0,.87-4.336,23.239,23.239,0,0,0-.277-4.411Z" transform="translate(-9875.101 -2922.978)" fill="#925249"/>
                <path id="Trazado_133467" data-name="Trazado 133467" d="M9891.215,2923.88a13.454,13.454,0,0,1-.769,6.68c-.076,0,.327-1.481.536-3.323S9891.132,2923.886,9891.215,2923.88Z" transform="translate(-9876.861 -2923.077)" fill="#925249"/>
              </g>
              <path id="Trazado_133468" data-name="Trazado 133468" d="M9905.326,2924.7a1.068,1.068,0,0,0-.721-.584,2.326,2.326,0,0,0-2.08.557,7.946,7.946,0,0,0-1.514,1.869h4.078C9905.033,2925.874,9905.557,2925.242,9905.326,2924.7Z" transform="translate(-9880.248 -2923.134)" fill="#b8695e"/>
            </g>
            <path id="Trazado_133469" data-name="Trazado 133469" d="M10052.937,2833.207a4.813,4.813,0,0,0-1.2-3.432,10.807,10.807,0,0,0-4.078-2.351,49.227,49.227,0,0,1-4.939-2.141,15.715,15.715,0,0,1-3.562-2.44,9.9,9.9,0,0,1-2.311-3.249,10.9,10.9,0,0,1-.83-4.438,9.834,9.834,0,0,1,2.842-7.279,11.918,11.918,0,0,1,7.535-3.31v-5.627h4.208v5.7a11.017,11.017,0,0,1,7.278,3.875,12.744,12.744,0,0,1,2.625,8.345h-7.592a7.272,7.272,0,0,0-1.3-4.717,4.32,4.32,0,0,0-3.487-1.563,4.432,4.432,0,0,0-3.337,1.224,4.648,4.648,0,0,0-1.183,3.4,4.425,4.425,0,0,0,1.162,3.2,12.678,12.678,0,0,0,4.295,2.474,45.81,45.81,0,0,1,5.159,2.379,14.762,14.762,0,0,1,3.4,2.521,9.718,9.718,0,0,1,2.127,3.2,11.024,11.024,0,0,1,.733,4.193,9.8,9.8,0,0,1-2.779,7.252,12.228,12.228,0,0,1-7.674,3.283v5.233h-4.179v-5.206a12.716,12.716,0,0,1-8.347-3.82,12.225,12.225,0,0,1-2.949-8.631h7.592a7,7,0,0,0,1.481,4.792,5.436,5.436,0,0,0,4.275,1.672,5.219,5.219,0,0,0,3.649-1.223A4.246,4.246,0,0,0,10052.937,2833.207Z" transform="translate(-9913.056 -2740.227)" fill="#344154"/>
            <g id="Grupo_62460" data-name="Grupo 62460" transform="translate(119.696)">
              <rect id="Rectángulo_13836" data-name="Rectángulo 13836" width="5.661" height="39.276" transform="translate(16.107)" fill="#344154"/>
              <path id="Trazado_133470" data-name="Trazado 133470" d="M10440.822,2978.822l-18.961,11.968-18.962-11.968v-.122h37.923Z" transform="translate(-10402.899 -2942.347)" fill="#344154"/>
            </g>
          </g>
        </g>
        <g id="Grupo_62465" data-name="Grupo 62465" transform="translate(15.752 180.328)">
          <g id="Grupo_62463" data-name="Grupo 62463">
            <path id="Trazado_133471" data-name="Trazado 133471" d="M9894.647,2810.721l-4.247-7.476a20.038,20.038,0,1,0-4.8,5.342h0Z" transform="translate(-9853.217 -2772.709)" fill="#fafafa"/>
            <path id="Trazado_133472" data-name="Trazado 133472" d="M9894.609,2810.737l-9.066-2.039h-.094l.06-.075h0l.088.082a20.35,20.35,0,0,1-4.116,2.488,20.137,20.137,0,0,1-5.493,1.563,18.006,18.006,0,0,1-3.167.163c-.549-.034-1.1-.048-1.665-.088l-1.691-.258a20.2,20.2,0,0,1-12.506-8.033,19.806,19.806,0,0,1-3.4-7.734,20.339,20.339,0,0,1,.236-8.9,19.729,19.729,0,0,1,4.288-8.238l.816-.9c.272-.306.59-.551.882-.829a8.636,8.636,0,0,1,.9-.795l.966-.679a8.589,8.589,0,0,1,.993-.68l1.019-.619,1.06-.516a9.235,9.235,0,0,1,1.074-.476,20.385,20.385,0,0,1,8.973-1.359,19.729,19.729,0,0,1,8.235,2.433,20.089,20.089,0,0,1,9.515,11.7,21.755,21.755,0,0,1,.87,6.511,19.8,19.8,0,0,1-.984,5.621,20.28,20.28,0,0,1-2.039,4.309v-.062l4.192,7.476-4.294-7.476h0a20.612,20.612,0,0,0,1.971-4.3,19.771,19.771,0,0,0,.943-5.58,21.451,21.451,0,0,0-.882-6.45,20.138,20.138,0,0,0-9.428-11.553,19.537,19.537,0,0,0-8.156-2.392,20.193,20.193,0,0,0-8.832,1.359,9.11,9.11,0,0,0-1.062.476l-1.047.51-1.006.612a8.408,8.408,0,0,0-.98.679l-.95.68a11.762,11.762,0,0,0-.9.781,8.416,8.416,0,0,0-.871.815l-.809.89a19.551,19.551,0,0,0-4.241,8.156,20.279,20.279,0,0,0-.237,8.794,19.7,19.7,0,0,0,3.337,7.653,20.058,20.058,0,0,0,12.361,7.972l1.674.258c.557.047,1.107.061,1.645.095a18.454,18.454,0,0,0,3.146-.15,19.959,19.959,0,0,0,5.438-1.529,20.51,20.51,0,0,0,4.077-2.447l.373-.285-.284.374h0v-.1Z" transform="translate(-9853.179 -2772.725)" fill="#344154"/>
          </g>
          <g id="Grupo_62464" data-name="Grupo 62464" transform="translate(10.42 18.004)">
            <path id="Trazado_133473" data-name="Trazado 133473" d="M9872.587,2801.239a2.039,2.039,0,1,1-2.039-2.039A2.038,2.038,0,0,1,9872.587,2801.239Z" transform="translate(-9868.509 -2799.2)" fill="#344154"/>
            <path id="Trazado_133474" data-name="Trazado 133474" d="M9884.557,2801.239a2.039,2.039,0,1,1-2.039-2.039A2.038,2.038,0,0,1,9884.557,2801.239Z" transform="translate(-9872.344 -2799.2)" fill="#344154"/>
            <path id="Trazado_133475" data-name="Trazado 133475" d="M9896.628,2800.231a2.038,2.038,0,1,1-2.772-.747A2.039,2.039,0,0,1,9896.628,2800.231Z" transform="translate(-9876.301 -2799.205)" fill="#344154"/>
          </g>
        </g>
      </g>
    </g>
  </g>
</svg>
