<svg xmlns="http://www.w3.org/2000/svg" width="190" height="149" viewBox="0 0 190 149">
  <g id="Grupo_68416" data-name="Grupo 68416" transform="translate(-390 -3200)">
    <rect id="Rect치ngulo_31741" data-name="Rect치ngulo 31741" width="190" height="149" transform="translate(390 3200)" fill="none"/>
    <g id="Grupo_68415" data-name="Grupo 68415" transform="translate(-885.57 -542.59)">
      <rect id="Rect치ngulo_15052" data-name="Rect치ngulo 15052" width="149" height="149" transform="translate(1296.57 3742.59)" fill="none"/>
      <g id="Grupo_63584" data-name="Grupo 63584" transform="translate(1300.085 3745.95)">
        <circle id="Elipse_4752" data-name="Elipse 4752" cx="64.874" cy="64.874" r="64.874" transform="translate(0 129.118) rotate(-84.35)" fill="#f2e9e4"/>
        <path id="Trazado_140471" data-name="Trazado 140471" d="M1069.153,3608.658h-3.385a61.495,61.495,0,1,1-18.011-43.508,61.495,61.495,0,0,1,18.011,43.508h6.771a68.281,68.281,0,1,0-20,48.276,68.272,68.272,0,0,0,20-48.276Z" transform="translate(-933.294 -3537.512)" fill="#f2e9e4"/>
      </g>
      <g id="Grupo_63587" data-name="Grupo 63587" transform="translate(1314.677 3771.597)">
        <g id="Grupo_63585" data-name="Grupo 63585" transform="translate(7.253 1.818)">
          <path id="Trazado_140472" data-name="Trazado 140472" d="M1061.847,3590.751h-6.371v-9.1H979.045v9.1h-6.371a4.553,4.553,0,0,0-4.553,4.548h0v60.965h38.221l1.788,7.283h18.2l1.824-7.283h38.239V3595.3a4.547,4.547,0,0,0-4.547-4.548Zm-68.248-3.642h47.316a9.1,9.1,0,0,0,9.1,9.1v14.56a9.1,9.1,0,0,0-9.1,9.1H993.6a9.1,9.1,0,0,0-9.095-9.1v-14.56A9.1,9.1,0,0,0,993.6,3587.109Zm67.348,63.695H973.579V3596.21h5.465v29.121h76.431V3596.21h5.459Z" transform="translate(-968.12 -3581.65)" fill="#aed3f2"/>
          <path id="Trazado_140473" data-name="Trazado 140473" d="M1044.4,3621.222a9.1,9.1,0,1,0-9.1-9.094,9.1,9.1,0,0,0,9.1,9.094Z" transform="translate(-995.261 -3590.283)" fill="#aed3f2"/>
        </g>
        <path id="Trazado_140474" data-name="Trazado 140474" d="M1007.61,3622.993a10.943,10.943,0,0,0-8.94-8.94V3602.83a10.942,10.942,0,0,0,8.94-8.94h43.979a10.948,10.948,0,0,0,8.94,8.94v11.223a10.949,10.949,0,0,0-8.94,8.94Z" transform="translate(-973.209 -3584.777)" fill="#fff" stroke="#344154" stroke-miterlimit="10" stroke-width="1"/>
        <g id="Grupo_63586" data-name="Grupo 63586">
          <path id="Trazado_140475" data-name="Trazado 140475" d="M1066.937,3653.213H1063.3v-59.147a6.365,6.365,0,0,0-6.365-6.365h-4.553v-7.283a1.788,1.788,0,0,0-1.788-1.818H974.128a1.824,1.824,0,0,0-1.824,1.818v7.283h-4.547a6.376,6.376,0,0,0-6.371,6.365v59.147h-3.618a1.824,1.824,0,0,0-1.818,1.818v8.2a6.377,6.377,0,0,0,6.371,6.365h100.092a6.365,6.365,0,0,0,6.365-6.365v-8.2a1.787,1.787,0,0,0-1.842-1.818Zm-90.991-70.972h72.8v40.033h-72.8Zm-1.788,43.675h30.932v10.919a1.824,1.824,0,0,0,3.641,0v-10.913h1.788v10.919a1.824,1.824,0,0,0,3.641,0v-10.919h1.818v7.277a1.824,1.824,0,1,0,3.641,0v-7.277h30.938a1.788,1.788,0,0,0,1.788-1.788v-27.3h1.824v50.958H970.486v-50.958h1.788v27.3a1.823,1.823,0,0,0,1.854,1.788Zm-9.1-31.85a2.735,2.735,0,0,1,2.73-2.73h4.547v1.806h-3.641a1.824,1.824,0,0,0-1.788,1.788v54.594a1.824,1.824,0,0,0,1.788,1.823h87.356a1.817,1.817,0,0,0,1.818-1.824V3594.93a1.787,1.787,0,0,0-1.818-1.788h-3.642v-1.788h4.553a2.742,2.742,0,0,1,2.73,2.73v59.147H965.027Zm55.887,62.789-.912,3.641h-15.353l-.912-3.641Zm44.187,6.371a2.742,2.742,0,0,1-2.73,2.73H962.3a2.736,2.736,0,0,1-2.73-2.73v-6.371H1000l1.478,5.9a1.789,1.789,0,0,0,1.788,1.377h18.2a1.818,1.818,0,0,0,1.788-1.377l1.472-5.9h40.438Z" transform="translate(-955.95 -3578.6)" fill="#344154"/>
          <path id="Trazado_140476" data-name="Trazado 140476" d="M1043.161,3600a10.925,10.925,0,1,0,10.919,10.923A10.925,10.925,0,0,0,1043.161,3600Zm0,18.2a7.268,7.268,0,1,0,0-.018Z" transform="translate(-986.767 -3587.246)" fill="#344154"/>
          <path id="Trazado_140477" data-name="Trazado 140477" d="M1052.609,3622.4a7.283,7.283,0,0,1,7.277-7.283,1.788,1.788,0,0,0,1.788-1.788v-14.56a1.788,1.788,0,0,0-1.788-1.788,7.283,7.283,0,0,1-7.277-7.283,1.824,1.824,0,0,0-1.824-1.788h-47.316a1.823,1.823,0,0,0-1.788,1.788,7.289,7.289,0,0,1-7.307,7.206,1.824,1.824,0,0,0-1.824,1.788v14.56a1.818,1.818,0,0,0,1.824,1.788,7.289,7.289,0,0,1,7.277,7.283,1.823,1.823,0,0,0,1.788,1.788h47.316a1.823,1.823,0,0,0,1.853-1.71Zm-47.471-1.823a10.942,10.942,0,0,0-8.94-8.94v-11.223a10.942,10.942,0,0,0,8.94-8.939h43.979a10.948,10.948,0,0,0,8.94,8.939v11.223a10.949,10.949,0,0,0-8.94,8.94Z" transform="translate(-970.737 -3582.361)" fill="#344154"/>
          <path id="Trazado_140478" data-name="Trazado 140478" d="M1049.314,3687.946a1.824,1.824,0,0,0,1.788-1.824V3684.3a1.824,1.824,0,0,0-3.642,0v1.817a1.824,1.824,0,0,0,1.854,1.824Z" transform="translate(-992.92 -3620.61)" fill="#344154"/>
        </g>
      </g>
    </g>
  </g>
</svg>
