<svg xmlns="http://www.w3.org/2000/svg" width="190" height="149" viewBox="0 0 190 149">
  <g id="Grupo_68418" data-name="Grupo 68418" transform="translate(-390 -3558)">
    <rect id="Rect치ngulo_31395" data-name="Rect치ngulo 31395" width="190" height="149" transform="translate(390 3558)" fill="none"/>
    <g id="Grupo_63640" data-name="Grupo 63640" transform="translate(411 3558)">
      <rect id="Rect치ngulo_15065" data-name="Rect치ngulo 15065" width="148.999" height="148.999" transform="translate(0)" fill="none"/>
      <g id="Grupo_63635" data-name="Grupo 63635" transform="translate(3.558 3.31)">
        <ellipse id="Elipse_4763" data-name="Elipse 4763" cx="64.876" cy="64.876" rx="64.876" ry="64.876" transform="translate(0 129.121) rotate(-84.35)" fill="#f2e9e4"/>
        <path id="Trazado_140551" data-name="Trazado 140551" d="M338.394,4153h-3.386A61.483,61.483,0,1,1,317,4109.515,61.48,61.48,0,0,1,335.008,4153h6.773a68.262,68.262,0,1,0-19.993,48.262A68.264,68.264,0,0,0,341.781,4153Z" transform="translate(-202.577 -4081.8)" fill="#f2e9e4"/>
      </g>
      <g id="Grupo_63639" data-name="Grupo 63639" transform="translate(28.099 18.09)">
        <path id="Trazado_140552" data-name="Trazado 140552" d="M336.249,4213.153H267.1v-3.731a18.2,18.2,0,0,0,0-36.215V4107.6h69.149Z" transform="translate(-247.079 -4103.963)" fill="#fff"/>
        <g id="Grupo_63638" data-name="Grupo 63638" transform="translate(0)">
          <g id="Grupo_63636" data-name="Grupo 63636" transform="translate(25.48 34.575)">
            <path id="Trazado_140553" data-name="Trazado 140553" d="M275.16,4153.279h58.245v27.3H275.16Z" transform="translate(-275.16 -4153.279)" fill="#aed3f2"/>
            <path id="Trazado_140554" data-name="Trazado 140554" d="M331.58,4223.14H351.6v9.1H331.58Z" transform="translate(-293.368 -4175.825)" fill="#aed3f2"/>
          </g>
          <g id="Grupo_63637" data-name="Grupo 63637">
            <path id="Trazado_140555" data-name="Trazado 140555" d="M328.531,4102.229H255.738a1.817,1.817,0,0,0-1.822,1.823v67.422a18.2,18.2,0,0,0,0,36.214v5.553a1.815,1.815,0,0,0,1.822,1.816h72.793a1.822,1.822,0,0,0,1.822-1.816V4104.052A1.823,1.823,0,0,0,328.531,4102.229ZM241.163,4189.6a10.294,10.294,0,1,0,.014-.013Zm85.532,21.836H257.56V4207.7a18.2,18.2,0,0,0,0-36.213v-65.621h69.149Z" transform="translate(-237.539 -4102.229)" fill="#344154"/>
            <path id="Trazado_140556" data-name="Trazado 140556" d="M274.292,4181.528h58.245a1.818,1.818,0,0,0,1.822-1.817v-27.3a1.821,1.821,0,0,0-1.822-1.822H274.292a1.821,1.821,0,0,0-1.822,1.822v27.3a1.817,1.817,0,0,0,1.822,1.816Zm1.815-20.015h41.862v16.377H276.107Zm45.485,16.376v-16.376h9.1v16.376Zm9.1-20.021h-9.1v-3.616h9.1Zm-12.733-3.636v3.636H276.107v-3.616Z" transform="translate(-248.812 -4117.837)" fill="#344154"/>
            <path id="Trazado_140557" data-name="Trazado 140557" d="M350.735,4220.46h-20.02a1.815,1.815,0,0,0-1.815,1.816v9.1a1.822,1.822,0,0,0,1.815,1.822h20.02a1.822,1.822,0,0,0,1.822-1.822v-9.1a1.817,1.817,0,0,0-1.822-1.816Zm-1.822,9.1H332.537V4224.1h16.376Z" transform="translate(-267.024 -4140.386)" fill="#344154"/>
            <path id="Trazado_140558" data-name="Trazado 140558" d="M268.169,4229.642a5.466,5.466,0,0,1-5.459,5.458,1.822,1.822,0,1,1-3.644,0h-3.637a1.822,1.822,0,1,1,0-3.637h7.281a1.83,1.83,0,0,0,1.815-1.823,2.032,2.032,0,0,0-2.032-1.82h-3.386a5.458,5.458,0,1,1,0-10.917,1.822,1.822,0,1,1,3.644,0h3.637a1.822,1.822,0,1,1,0,3.637h-7.321a1.822,1.822,0,1,0,0,3.644h3.386A5.655,5.655,0,0,1,268.169,4229.642Z" transform="translate(-242.689 -4138.65)" fill="#344154"/>
            <path id="Trazado_140559" data-name="Trazado 140559" d="M317,4126.795a8.039,8.039,0,0,1,.359-2.472,6.218,6.218,0,0,1,1.355-2.032l1.72-1.774a3.952,3.952,0,0,0,1.1-2.675,3.028,3.028,0,0,0-.725-2.154,2.707,2.707,0,0,0-2.1-.786,3.152,3.152,0,0,0-2.154.712,2.39,2.39,0,0,0-.819,1.909h-2.431a4.435,4.435,0,0,1,1.517-3.44,5.678,5.678,0,0,1,3.887-1.308,5.355,5.355,0,0,1,3.867,1.355,4.814,4.814,0,0,1,1.355,3.65,6.475,6.475,0,0,1-2.127,4.531l-1.436,1.416a4.435,4.435,0,0,0-.955,3.061Zm-.1,4.172a1.473,1.473,0,0,1,.359-1,1.384,1.384,0,0,1,1.07-.4,1.42,1.42,0,0,1,1.084.4,1.45,1.45,0,0,1,.366,1,1.355,1.355,0,0,1-.366.988,1.413,1.413,0,0,1-1.084.393,1.352,1.352,0,0,1-1.07-.393A1.407,1.407,0,0,1,316.9,4130.967Z" transform="translate(-261.992 -4105.63)" fill="#344154"/>
          </g>
        </g>
      </g>
    </g>
  </g>
</svg>
