<svg xmlns="http://www.w3.org/2000/svg" width="85.718" height="85.718" viewBox="0 0 85.718 85.718">
  <g id="Grupo_70099" data-name="Grupo 70099" transform="translate(-1177 -2328)">
    <circle id="Elipse_76" data-name="Elipse 76" cx="42.859" cy="42.859" r="42.859" transform="translate(1177 2328)" fill="#5e6178" opacity="0.1"/>
    <path id="Trazado_133138" data-name="Trazado 133138" d="M530.481,305.731c.046.092.065.143.094.187.786,1.191.759,1.346-.39,2.151q-3.922,2.746-7.845,5.49c-.766.535-1.151.465-1.687-.3q-4.359-6.219-8.715-12.439c-.54-.771-.475-1.16.286-1.693q4.055-2.843,8.113-5.682c.8-.558,1.149-.491,1.723.323.253.359.5.718.787,1.121l.465-.295c1.637-1.043,3.28-2.077,4.9-3.144a.85.85,0,0,0,.258-.627c.015-3.707.011-7.415.011-11.122q0-6.387,0-12.774A2.67,2.67,0,0,1,531.425,264H559.01a2.676,2.676,0,0,1,2.956,2.971q0,11.783-.005,23.566a.848.848,0,0,0,.453.871,3.278,3.278,0,0,1,1.642,3.407,3.351,3.351,0,0,1-2.319,2.883c-2.335.868-4.682,1.706-7.022,2.559-3.563,1.3-7.131,2.582-10.685,3.9a12.77,12.77,0,0,1-7.253.427,7.952,7.952,0,0,0-5.988.939C530.694,305.58,530.606,305.646,530.481,305.731Zm-.218-15.127c.181-.054.3-.09.424-.127a17.756,17.756,0,0,1,8.1-.708c2.7.421,5.386.906,8.073,1.392a10.593,10.593,0,0,1,2.539.643,3.684,3.684,0,0,0,1.766.395,9.879,9.879,0,0,1,.991,0,14,14,0,0,0,7.234-1.128,4.214,4.214,0,0,1,.788-.22V271.084H549.63c0,1.429,0,2.821,0,4.213a.919.919,0,0,1-.574.967.9.9,0,0,1-1.039-.288q-1.088-1.092-2.177-2.183c-.2-.2-.406-.4-.629-.62-.973.979-1.884,1.909-2.811,2.823a.86.86,0,0,1-1.414-.056,1.517,1.517,0,0,1-.163-.731c-.015-1.371-.007-2.742-.007-4.127H530.263Zm7.71,4.351c1.382.244,2.7.478,4.016.708,1.86.325,3.716.67,5.581.962a1.707,1.707,0,0,0,1.985-1.467,1.744,1.744,0,0,0-1.408-1.987c-.143-.034-.287-.063-.431-.088-2.635-.466-5.276-.9-7.9-1.4-6.1-1.154-11.261.8-15.888,4.737l5.474,7.823a.761.761,0,0,0,.168-.041,9.725,9.725,0,0,1,7.536-1.342,10.972,10.972,0,0,0,6.331-.361c1.76-.678,3.544-1.3,5.317-1.941q6.171-2.247,12.339-4.5a1.729,1.729,0,0,0,1.132-2.286,1.755,1.755,0,0,0-2.347-1.015q-4.161,1.5-8.31,3.037a.9.9,0,0,0-.46.4,3.569,3.569,0,0,1-4.185,2.128c-1.586-.293-3.176-.563-4.764-.846-1.475-.263-2.95-.528-4.471-.8Zm-16.2,16.848,7.214-5.06-8.08-11.55-7.215,5.059Zm19.014-46.042c-3.24,0-6.415,0-9.59,0-.508,0-.9.246-.929.749-.055.908-.016,1.821-.016,2.735h10.535Zm8.865,3.484H560.2c0-.845.007-1.651,0-2.457-.008-.709-.334-1.026-1.062-1.027q-4.57-.006-9.14,0c-.106,0-.211.011-.342.018Zm-7.055,4.111c.53-.551.945-.99,1.368-1.421,1.2-1.222,1.306-1.219,2.528.015.426.43.856.856,1.34,1.34v-7.5H542.6Z" transform="translate(682.417 2082.002)" fill="#5e6178"/>
  </g>
</svg>
