<svg xmlns="http://www.w3.org/2000/svg" width="57" height="57" viewBox="0 0 57 57">
  <g id="Grupo_70080" data-name="Grupo 70080" transform="translate(-208 -9687)">
    <circle id="Elipse_4331" data-name="Elipse 4331" cx="28.5" cy="28.5" r="28.5" transform="translate(208 9687)" fill="#d9a171"/>
    <g id="Grupo_70079" data-name="Grupo 70079" transform="translate(1 -1)">
      <path id="Trazado_133120" data-name="Trazado 133120" d="M774.241,458.155c0-.875-.585-1.4-1.672-1.4a3.709,3.709,0,0,1-2.572-.821,3.456,3.456,0,0,1,.97-5.878.841.841,0,0,0,.622-.85c.075-.765.5-1.2,1.087-1.188s1,.444,1.019,1.244c.013.5.222.555.634.559.846.007,1.351.439,1.336,1.08-.015.662-.5,1.036-1.364,1.045-.574.006-1.149-.006-1.723,0-1.162.02-1.742.493-1.736,1.4s.616,1.45,1.752,1.375A3.508,3.508,0,0,1,776.3,458.5a3.355,3.355,0,0,1-2,2.862c-.374.182-.582.336-.569.8.024.879-.322,1.288-.98,1.312-.683.024-1.081-.4-1.1-1.289-.008-.47-.216-.511-.594-.516-1.157-.015-1.648-.348-1.643-1.064s.54-1.057,1.655-1.059c.6,0,1.2.026,1.8-.011A1.336,1.336,0,0,0,774.241,458.155Z" transform="translate(-536.638 9261.388)" fill="#12263f" stroke="#12263f" stroke-width="1"/>
      <g id="Elipse_4770" data-name="Elipse 4770" transform="translate(220 9701)" fill="none" stroke="#12263f" stroke-width="1">
        <circle cx="16" cy="16" r="16" stroke="none"/>
        <circle cx="16" cy="16" r="15.5" fill="none"/>
      </g>
      <g id="Elipse_4771" data-name="Elipse 4771" transform="translate(223 9704)" fill="none" stroke="#12263f" stroke-width="1" stroke-dasharray="1">
        <circle cx="13" cy="13" r="13" stroke="none"/>
        <circle cx="13" cy="13" r="12.5" fill="none"/>
      </g>
    </g>
  </g>
</svg>
