<svg xmlns="http://www.w3.org/2000/svg" width="85.718" height="85.718" viewBox="0 0 85.718 85.718">
  <g id="Grupo_70101" data-name="Grupo 70101" transform="translate(-967 -2850)">
    <circle id="Elipse_4052" data-name="Elipse 4052" cx="42.859" cy="42.859" r="42.859" transform="translate(967 2850)" fill="#5e6178" opacity="0.1"/>
    <g id="Grupo_64110" data-name="Grupo 64110" transform="translate(319 2648)">
      <path id="Trazado_133150" data-name="Trazado 133150" d="M691.235,267.081H665.29c-1,0-1.29-.293-1.29-1.292q0-21.249,0-42.5c0-1,.291-1.29,1.291-1.29H717.18c1,0,1.292.293,1.292,1.291q0,21.249,0,42.5c0,1-.294,1.292-1.292,1.292Zm25.318-16.933V223.924H665.908v26.225Zm.014,1.946h-50.64V253.9h50.64Zm0,3.756H665.925v1.809h50.641Zm-50.637,3.728V261.4h50.617v-1.826Zm0,3.757v1.829h50.62v-1.829Z" transform="translate(0)" fill="#5e6178"/>
      <path id="Trazado_133151" data-name="Trazado 133151" d="M719.467,276.525H701.1c-1.035,0-1.238-.187-1.36-1.235a2.849,2.849,0,0,0-2.611-2.515c-.869-.081-1.131-.358-1.132-1.222q0-6.308,0-12.616c0-.834.278-1.132,1.092-1.2a2.829,2.829,0,0,0,2.658-2.651c.069-.82.364-1.1,1.192-1.1q18.543,0,37.086,0c.816,0,1.107.284,1.177,1.115a2.831,2.831,0,0,0,2.671,2.639c.783.065,1.081.368,1.082,1.154q.006,6.367,0,12.734c0,.782-.3,1.078-1.087,1.148a2.845,2.845,0,0,0-2.66,2.592c-.093.931-.347,1.162-1.314,1.162q-9.213,0-18.426,0Zm-9.381-11.285a9.391,9.391,0,1,0,9.434-9.376A9.4,9.4,0,0,0,710.085,265.239Zm15.691,9.383H737.4a4.829,4.829,0,0,1,3.659-3.657V259.542A4.83,4.83,0,0,1,737.4,255.9H725.857A11.379,11.379,0,0,1,725.776,274.622Zm-27.885-15.079v11.389c2.339.946,2.859,1.467,3.671,3.667h11.587a11.336,11.336,0,0,1,.021-18.715H701.55A4.835,4.835,0,0,1,697.891,259.543Z" transform="translate(-28.239 -28.227)" fill="#5e6178"/>
      <path id="Trazado_133154" data-name="Trazado 133154" d="M866.777,292.949a3.82,3.82,0,0,1-2.77-3.048,2.536,2.536,0,0,1-.043-.641.933.933,0,0,1,1.854-.089,2.842,2.842,0,0,1,.02.292,1.878,1.878,0,0,0,3.748-.18,1.869,1.869,0,0,0-1.824-1.853,3.743,3.743,0,0,1-1.524-7.184.705.705,0,0,0,.547-.795c-.041-.967.276-1.406.914-1.414s.973.443.94,1.393a.7.7,0,0,0,.523.811,3.681,3.681,0,0,1,2.3,3.379c-.016.462-.218.856-.665.911a1.51,1.51,0,0,1-.98-.3c-.171-.126-.2-.485-.237-.748a1.922,1.922,0,0,0-1.76-1.684,1.877,1.877,0,1,0-.072,3.751,3.766,3.766,0,0,1,3.585,2.775,3.713,3.713,0,0,1-2.235,4.447c-.355.141-.5.3-.455.672a2.278,2.278,0,0,1-.017.7.887.887,0,0,1-.946.787.869.869,0,0,1-.9-.834A10.194,10.194,0,0,1,866.777,292.949Z" transform="translate(-176.475 -49.458)" fill="#5e6178"/>
    </g>
  </g>
</svg>
