<svg xmlns="http://www.w3.org/2000/svg" width="190" height="149" viewBox="0 0 190 149">
  <g id="Grupo_68421" data-name="Grupo 68421" transform="translate(-390 -4095)">
    <rect id="Rect치ngulo_31398" data-name="Rect치ngulo 31398" width="190" height="149" transform="translate(390 4095)" fill="none"/>
    <g id="Grupo_63646" data-name="Grupo 63646" transform="translate(-156.05 40.42)">
      <rect id="Rect치ngulo_15066" data-name="Rect치ngulo 15066" width="149" height="149" transform="translate(567.05 4054.58)" fill="none"/>
      <g id="Grupo_63641" data-name="Grupo 63641" transform="translate(570.605 4057.898)">
        <circle id="Elipse_4764" data-name="Elipse 4764" cx="64.876" cy="64.876" r="64.876" transform="translate(0 129.121) rotate(-84.35)" fill="#f2e9e4"/>
        <path id="Trazado_140560" data-name="Trazado 140560" d="M338.395,3919.39h-3.386A61.5,61.5,0,1,1,317,3875.916a61.5,61.5,0,0,1,18.009,43.474h6.773a68.262,68.262,0,1,0-19.993,48.269,68.262,68.262,0,0,0,19.993-48.269Z" transform="translate(-202.574 -3848.208)" fill="#f2e9e4"/>
      </g>
      <g id="Grupo_63645" data-name="Grupo 63645" transform="translate(585.113 4090.868)">
        <path id="Trazado_140561" data-name="Trazado 140561" d="M343.67,3931.735a1.815,1.815,0,0,0,1.287-.528l2.357-2.357,2.35,2.357a1.822,1.822,0,0,0,2.574,0l2.357-2.357,2.35,2.357a1.822,1.822,0,0,0,2.574,0l2.35-2.357,2.357,2.357a1.816,1.816,0,0,0,1.287.528v25.479H343.67Z" transform="translate(-261.754 -3906.263)" fill="#fff"/>
        <g id="Grupo_63644" data-name="Grupo 63644" transform="translate(0)">
          <g id="Grupo_63642" data-name="Grupo 63642" transform="translate(1.842 1.815)">
            <path id="Trazado_140562" data-name="Trazado 140562" d="M332.92,3957.3h5.472v10.917h-5.466Z" transform="translate(-260.127 -3917.26)" fill="#aed3f2"/>
            <path id="Trazado_140563" data-name="Trazado 140563" d="M378.6,3957.3h5.466v10.917H378.6Z" transform="translate(-274.869 -3917.26)" fill="#aed3f2"/>
            <path id="Trazado_140564" data-name="Trazado 140564" d="M225.44,3986.85h109.2v12.74H225.44Z" transform="translate(-225.44 -3926.796)" fill="#aed3f2"/>
            <path id="Trazado_140565" data-name="Trazado 140565" d="M262.73,3975.308h14.785L275.693,3968H264.775Z" transform="translate(-237.474 -3920.713)" fill="#aed3f2"/>
            <path id="Trazado_140566" data-name="Trazado 140566" d="M290.959,3902.731a4.551,4.551,0,0,0-4.551-4.551H229.991a4.558,4.558,0,0,0-4.551,4.551h0v35.489h65.519Z" transform="translate(-225.44 -3898.18)" fill="#aed3f2"/>
          </g>
          <g id="Grupo_63643" data-name="Grupo 63643">
            <path id="Trazado_140567" data-name="Trazado 140567" d="M333.759,3935.534h-3.644v-20.02a1.822,1.822,0,0,0-3.447-.813l-.677,1.355-1.856-1.856a1.822,1.822,0,0,0-2.574,0l-2.35,2.357-2.35-2.357a1.829,1.829,0,0,0-2.58,0l-2.35,2.357-2.35-2.357a1.822,1.822,0,0,0-2.574,0l-1.856,1.856-.677-1.355a1.822,1.822,0,0,0-3.447.813v20.02h-3.644a1.814,1.814,0,0,0-1.815,1.822v18.2H271.883v-3.644a1.822,1.822,0,0,0-1.822-1.815H266l-.914-3.644H285.5a6.366,6.366,0,0,0,6.366-6.366v-38.219a6.366,6.366,0,0,0-6.366-6.366H229.086a6.367,6.367,0,0,0-6.366,6.366v38.218a6.366,6.366,0,0,0,6.366,6.366H249.4l-1.023,3.644h-3.8a1.822,1.822,0,0,0-1.822,1.815v3.644h-18.2a1.816,1.816,0,0,0-1.815,1.815v12.739a1.814,1.814,0,0,0,1.815,1.822h109.2a1.814,1.814,0,0,0,1.815-1.822v-32.752a1.815,1.815,0,0,0-1.815-1.823Zm-29.123-14.561a1.813,1.813,0,0,0,1.287-.529l2.357-2.357,2.35,2.357a1.822,1.822,0,0,0,2.574,0l2.357-2.357,2.35,2.357a1.822,1.822,0,0,0,2.574,0l2.35-2.357,2.357,2.357a1.813,1.813,0,0,0,1.287.529v25.479H304.636Zm-5.459,18.211H301v7.281h-1.822Zm-72.793-37.318a2.709,2.709,0,0,1,2.709-2.709H285.51a2.709,2.709,0,0,1,2.709,2.709v33.667H226.384Zm2.709,40.948a2.709,2.709,0,0,1-2.709-2.709v-.921H288.26v.915a2.709,2.709,0,0,1-2.709,2.709Zm33.186,7.281H252.215l1.023-3.644h8.127Zm-15.869,3.637h21.835v1.822H246.4Zm85.54,14.575H226.384v-9.1H331.951Zm0-12.74H299.177v-5.459h32.773Zm0-9.1h-1.822v-7.281h1.822Z" transform="translate(-222.72 -3895.5)" fill="#344154"/>
            <path id="Trazado_140568" data-name="Trazado 140568" d="M348.129,3958.265h14.555a1.822,1.822,0,1,0,0-3.637H348.129a1.822,1.822,0,1,0,0,3.637Z" transform="translate(-262.569 -3914.581)" fill="#344154"/>
            <path id="Trazado_140569" data-name="Trazado 140569" d="M348.129,3966.265h14.555a1.822,1.822,0,1,0,0-3.637H348.129a1.822,1.822,0,1,0,0,3.637Z" transform="translate(-262.569 -3917.163)" fill="#344154"/>
            <path id="Trazado_140570" data-name="Trazado 140570" d="M348.129,3950.185h14.555a1.822,1.822,0,1,0,0-3.637H348.129a1.822,1.822,0,1,0,0,3.637Z" transform="translate(-262.569 -3911.974)" fill="#344154"/>
            <path id="Trazado_140571" data-name="Trazado 140571" d="M348.129,3942.125h14.555a1.822,1.822,0,1,0,0-3.637H348.129a1.822,1.822,0,1,0,0,3.637Z" transform="translate(-262.569 -3909.373)" fill="#344154"/>
          </g>
        </g>
      </g>
      <path id="Trazado_140572" data-name="Trazado 140572" d="M624.66,4130.288h9.732v20.338h9.556v-20.338h9.732l-14.507-14.508Z" transform="translate(-18.592 -19.751)" fill="#fff"/>
      <path id="Trazado_140573" data-name="Trazado 140573" d="M253.117,3917.087v1.138h8.595v19.207a1.131,1.131,0,0,0,1.138,1.137h9.556a1.144,1.144,0,0,0,1.138-1.138v-19.207h8.595a1.138,1.138,0,0,0,.8-1.944l-14.507-14.5a1.131,1.131,0,0,0-1.605,0l-14.514,14.5a1.138,1.138,0,0,0,.806,1.944v-1.138l.806.806,13.708-13.7,11.757,11.758h-6.983a1.142,1.142,0,0,0-.806.332,1.158,1.158,0,0,0-.332.806v19.208h-7.281v-19.207a1.133,1.133,0,0,0-1.138-1.138h-9.732v1.138l.806.806Z" transform="translate(352.951 193.449)" fill="#344154"/>
    </g>
  </g>
</svg>
