<svg xmlns="http://www.w3.org/2000/svg" width="295" height="190" viewBox="0 0 295 190">
  <g id="Grupo_68545" data-name="Grupo 68545" transform="translate(-285 -11033)">
    <rect id="Rectángulo_31351" data-name="Rectángulo 31351" width="295" height="190" transform="translate(285 11033)" fill="none"/>
    <g id="Grupo_68544" data-name="Grupo 68544" transform="translate(293.901 11009.114)">
      <g id="Background_Complete" data-name="Background Complete" transform="translate(27.181 23.886)">
        <g id="Grupo_68436" data-name="Grupo 68436" transform="translate(22.495 14.137)">
          <path id="Trazado_140575" data-name="Trazado 140575" d="M116.306,86.371h0a14.259,14.259,0,0,1-14.259-14.259h0a14.259,14.259,0,0,1,14.259-14.259h0a14.259,14.259,0,0,1,14.259,14.259h0A14.259,14.259,0,0,1,116.306,86.371Z" transform="translate(-102.047 -57.853)" fill="#ebebeb"/>
          <g id="Grupo_68435" data-name="Grupo 68435" transform="translate(7.51 6.314)">
            <g id="Grupo_68434" data-name="Grupo 68434">
              <rect id="Rectángulo_31746" data-name="Rectángulo 31746" width="2.951" height="9.534" transform="translate(0.284 4.767)" fill="#fff"/>
              <path id="Trazado_140576" data-name="Trazado 140576" d="M121.835,76.541a1.759,1.759,0,1,0-1.745-1.76A1.752,1.752,0,0,0,121.835,76.541Z" transform="translate(-120.09 -73.022)" fill="#fff"/>
            </g>
            <path id="Trazado_140577" data-name="Trazado 140577" d="M135.226,88.6c0-1.34.617-2.139,1.8-2.139,1.085,0,1.607.767,1.607,2.139v5h2.937V87.564c0-2.554-1.448-3.788-3.469-3.788a3.324,3.324,0,0,0-2.873,1.575V84.067H132.4V93.6h2.831Z" transform="translate(-127.274 -79.3)" fill="#fff"/>
          </g>
        </g>
        <path id="Trazado_140578" data-name="Trazado 140578" d="M174.474,23.886l1.953,3.57L180,29.409l-3.57,1.953-1.953,3.57-1.953-3.57-3.57-1.953,3.57-1.953Z" transform="translate(-104.125 -23.886)" fill="#f5f5f5"/>
        <path id="Trazado_140579" data-name="Trazado 140579" d="M372.061,256.273l1.464,2.678,2.678,1.464-2.678,1.464-1.464,2.678-1.464-2.678-2.678-1.464,2.678-1.464Z" transform="translate(-197.089 -159.55)" fill="#ebebeb"/>
        <path id="Trazado_140580" data-name="Trazado 140580" d="M385.2,224.508l.661,1.208,1.208.661-1.208.661-.661,1.208-.661-1.208-1.208-.661,1.208-.661Z" transform="translate(-200.508 -141.007)" fill="#e0e0e0"/>
        <g id="Grupo_68438" data-name="Grupo 68438" transform="translate(0 105.263)">
          <g id="Grupo_68437" data-name="Grupo 68437">
            <path id="Trazado_140581" data-name="Trazado 140581" d="M56.8,285.1a4.317,4.317,0,0,0,2.521-4.026,4.057,4.057,0,1,0-8.1.067,4.309,4.309,0,0,0,2.632,4C47.634,286.159,48,292.926,48,292.926l14.732-.123S62.983,285.954,56.8,285.1Z" transform="translate(-48 -276.792)" fill="#e0e0e0"/>
          </g>
        </g>
        <g id="Grupo_68439" data-name="Grupo 68439" transform="translate(188.088 156.331)">
          <path id="Trazado_140582" data-name="Trazado 140582" d="M395.892,401.341a2.293,2.293,0,0,0-4.523.134,2.293,2.293,0,0,0-4.523-.095,3.1,3.1,0,0,0,.556,2.233,9.216,9.216,0,0,0,1.617,1.709c.823.733,1.584,1.421,2.407,2.154.817-.74,1.511-1.435,2.328-2.175a9.174,9.174,0,0,0,1.6-1.724A3.1,3.1,0,0,0,395.892,401.341Z" transform="translate(-386.806 -399.49)" fill="#ebebeb"/>
        </g>
        <g id="Grupo_68442" data-name="Grupo 68442" transform="translate(202.078 61.467)">
          <g id="Grupo_68440" data-name="Grupo 68440" transform="translate(4.691)">
            <path id="Trazado_140583" data-name="Trazado 140583" d="M431.688,180.551l1.578-.313,2.493-5.484-.625-3.151s2.41-.634,2.941,3.549.633,3.071.633,3.071,5.185-1.007,5.7-.643c.378.265,1.54,5.383,2.148,8.163a3.081,3.081,0,0,1-1.537,3.469,2.322,2.322,0,0,1-.543.186c-1.292.256-8.1.515-8.1.515l-2.727.541Z" transform="translate(-431.688 -171.569)" fill="#e0e0e0"/>
          </g>
          <g id="Grupo_68441" data-name="Grupo 68441" transform="translate(0 8.502)">
            <path id="Trazado_140584" data-name="Trazado 140584" d="M420.418,192.508l3.112,10.6,2.7-.536L424.136,192Z" transform="translate(-420.418 -191.997)" fill="#e0e0e0"/>
          </g>
        </g>
      </g>
      <g id="Icons" transform="translate(5.215 57.052)">
        <g id="Grupo_68443" data-name="Grupo 68443" transform="translate(200.649)">
          <path id="Trazado_140585" data-name="Trazado 140585" d="M359.334,138.095h0a16.911,16.911,0,0,1-22.6-7.811h0a16.911,16.911,0,0,1,7.811-22.6h0a16.911,16.911,0,0,1,22.6,7.811h0A16.911,16.911,0,0,1,359.334,138.095Z" transform="translate(-335.022 -105.973)" fill="#d9a171"/>
          <path id="Trazado_140586" data-name="Trazado 140586" d="M359.034,136.261a.4.4,0,0,0,.393-.512c-.041-.2-.151-.72-.194-.936-.057-.295-.128-.372-.43-.505a3.332,3.332,0,0,1-1.674-1.7,5.464,5.464,0,0,1,2.691-7.453c2.786-1.355,5.144-.4,6.25,1.877,1.455,2.991,1.359,6.159-.606,7.115a1.786,1.786,0,0,1-2.61-1.2,24.629,24.629,0,0,0-.874-4.128,1.545,1.545,0,0,0-2.157-.877c-1.11.539-1.443,2.121-.7,3.659a4.44,4.44,0,0,0,1.13,1.48s1.2,5.363,1.415,6.3a12.923,12.923,0,0,0,1.886,3.957.153.153,0,0,0,.276-.06,12.3,12.3,0,0,0,.221-4.306c-.1-.523-.656-3.206-.656-3.206a3.307,3.307,0,0,0,3.163.06c3.335-1.622,4.119-5.763,2.14-9.833-1.5-3.077-5.5-4.676-9.458-2.749-4.929,2.4-5.7,7.14-4.262,10.087C355.849,135.116,357.3,136.375,359.034,136.261Z" transform="translate(-346.298 -115.567)" fill="#fff"/>
        </g>
        <g id="Grupo_68445" data-name="Grupo 68445" transform="translate(234.346 57.261)">
          <path id="Trazado_140587" data-name="Trazado 140587" d="M423.488,266.109h0a11.663,11.663,0,0,1-6.732-15.058h0a11.664,11.664,0,0,1,15.058-6.732h0a11.664,11.664,0,0,1,6.732,15.058h0A11.663,11.663,0,0,1,423.488,266.109Z" transform="translate(-415.985 -243.548)" fill="#aed3f2"/>
          <g id="Grupo_68444" data-name="Grupo 68444" transform="translate(3.406 5.313)">
            <path id="Trazado_140588" data-name="Trazado 140588" d="M438.518,264.646a6.283,6.283,0,0,0-11.686-4.588c-.035.084-.07.168-.1.253a6.188,6.188,0,0,0-.309,3.329l-2.251,2.719,3.644.209a6.289,6.289,0,0,0,10.65-1.773C438.483,264.746,438.5,264.7,438.518,264.646Zm-7.792,2.8a5.26,5.26,0,0,1-2.4-1.847l-2.126-.12,1.31-1.584a5.188,5.188,0,0,1,.158-3.229,4.874,4.874,0,0,1,.206-.466,5.284,5.284,0,0,1,9.79,3.848c-.038.131-.08.259-.13.388A5.266,5.266,0,0,1,430.726,267.449Z" transform="translate(-424.169 -256.312)" fill="#fff" fill-rule="evenodd"/>
            <path id="Trazado_140589" data-name="Trazado 140589" d="M443.164,268.677c-.118-.127-.692-.743-.806-.84s-.2-.159-.351-.052-.551.321-.669.383-.208.043-.327-.084a4.176,4.176,0,0,1-.886-1.15,4.574,4.574,0,0,1-.422-1.292c-.028-.174.076-.223.174-.267s.207-.113.313-.167l.078-.049a1.663,1.663,0,0,0,.156-.136.275.275,0,0,0,.084-.254c-.008-.085-.028-.9-.04-1.23s-.149-.328-.234-.36-.173-.082-.269-.119a.57.57,0,0,0-.453.032,1.711,1.711,0,0,0-.958,1,1.944,1.944,0,0,0-.112.515,3.463,3.463,0,0,0,.136,1.185,6.316,6.316,0,0,0,1.631,3.095c1.247,1.128,1.319.939,1.593,1.015a1.536,1.536,0,0,0,1.229-.308,1.26,1.26,0,0,0,.344-.646C443.362,268.876,443.279,268.8,443.164,268.677Z" transform="translate(-432.496 -260.233)" fill="#fff" fill-rule="evenodd"/>
          </g>
        </g>
        <g id="Grupo_68446" data-name="Grupo 68446" transform="translate(0 8.129)">
          <path id="Trazado_140590" data-name="Trazado 140590" d="M57.157,143.292h0a8.894,8.894,0,0,1-8.894-8.894h0a8.894,8.894,0,0,1,8.894-8.894h0a8.894,8.894,0,0,1,8.894,8.894h0A8.894,8.894,0,0,1,57.157,143.292Z" transform="translate(-48.263 -125.504)" fill="#6595bf"/>
          <path id="Trazado_140591" data-name="Trazado 140591" d="M58.246,144.448a5.53,5.53,0,0,0,8.507-4.91,3.941,3.941,0,0,0,.97-1.006,3.883,3.883,0,0,1-1.117.306,1.949,1.949,0,0,0,.855-1.076,3.906,3.906,0,0,1-1.234.472,1.946,1.946,0,0,0-3.313,1.773,5.518,5.518,0,0,1-4.007-2.032,1.947,1.947,0,0,0,.6,2.6,1.933,1.933,0,0,1-.881-.243,1.946,1.946,0,0,0,1.56,1.931,1.946,1.946,0,0,1-.878.033,1.945,1.945,0,0,0,1.816,1.35A3.907,3.907,0,0,1,58.246,144.448Z" transform="translate(-54.091 -132.577)" fill="#fff"/>
        </g>
        <g id="Grupo_68448" data-name="Grupo 68448" transform="translate(6.005 95.324)">
          <path id="Trazado_140592" data-name="Trazado 140592" d="M81.562,365.222h0a15.318,15.318,0,0,1-18.451-11.351h0A15.318,15.318,0,0,1,74.463,335.42h0a15.318,15.318,0,0,1,18.451,11.351h0A15.318,15.318,0,0,1,81.562,365.222Z" transform="translate(-62.691 -335)" fill="#5e6178"/>
          <g id="Grupo_68447" data-name="Grupo 68447" transform="translate(6.256 6.256)">
            <path id="Trazado_140593" data-name="Trazado 140593" d="M85.192,352.4c2.182-.519,2.442-.573,3.313-.739a4.656,4.656,0,0,1,1.585-.08,2.782,2.782,0,0,1,1.92,1.181,4.664,4.664,0,0,1,.643,1.45c.244.852.315,1.109.834,3.29s.573,2.442.739,3.313a4.657,4.657,0,0,1,.08,1.584,2.78,2.78,0,0,1-1.181,1.92,4.647,4.647,0,0,1-1.45.643c-.852.244-1.108.314-3.29.834s-2.442.573-3.313.739a4.638,4.638,0,0,1-1.584.08,2.78,2.78,0,0,1-1.92-1.181,4.653,4.653,0,0,1-.643-1.45c-.245-.852-.315-1.109-.834-3.29s-.573-2.442-.739-3.313a4.653,4.653,0,0,1-.08-1.584,2.782,2.782,0,0,1,1.181-1.92,4.652,4.652,0,0,1,1.45-.643c.852-.245,1.109-.315,3.29-.835m-.35-1.472c-2.219.529-2.5.6-3.357.852a6.157,6.157,0,0,0-1.893.852,4.291,4.291,0,0,0-1.82,2.959,6.154,6.154,0,0,0,.092,2.074c.168.881.225,1.161.753,3.38s.6,2.5.852,3.357a6.157,6.157,0,0,0,.852,1.893,4.293,4.293,0,0,0,2.958,1.82,6.179,6.179,0,0,0,2.074-.093c.881-.168,1.161-.225,3.38-.753s2.495-.6,3.357-.852a6.161,6.161,0,0,0,1.893-.852A4.293,4.293,0,0,0,95.8,362.6a6.179,6.179,0,0,0-.093-2.074c-.168-.881-.225-1.161-.753-3.38s-.6-2.5-.852-3.357a6.163,6.163,0,0,0-.852-1.893,4.293,4.293,0,0,0-2.959-1.82,6.178,6.178,0,0,0-2.074.093c-.881.168-1.161.225-3.38.753" transform="translate(-77.722 -350.031)" fill="#fff"/>
            <path id="Trazado_140594" data-name="Trazado 140594" d="M92.453,361.566a4.313,4.313,0,1,0,5.195,3.2,4.313,4.313,0,0,0-5.195-3.2m1.648,6.919a2.8,2.8,0,1,1,2.074-3.372,2.8,2.8,0,0,1-2.074,3.372" transform="translate(-84.387 -356.696)" fill="#fff"/>
            <path id="Trazado_140595" data-name="Trazado 140595" d="M107.051,357.189a1.008,1.008,0,1,1-1.214-.747,1.008,1.008,0,0,1,1.214.747" transform="translate(-93.683 -353.758)" fill="#fff"/>
          </g>
        </g>
        <g id="Grupo_68449" data-name="Grupo 68449" transform="translate(200.849 97.778)">
          <path id="Trazado_140596" data-name="Trazado 140596" d="M376.788,355.182h0a7.144,7.144,0,0,1-7.143-7.144h0a7.143,7.143,0,0,1,7.143-7.144h0a7.143,7.143,0,0,1,7.143,7.144h0A7.144,7.144,0,0,1,376.788,355.182Z" transform="translate(-369.644 -340.895)" fill="#6595bf"/>
          <path id="Trazado_140597" data-name="Trazado 140597" d="M382.922,356.32h1.739v-4.355h1.213l.129-1.458h-1.343v-.83c0-.344.069-.479.4-.479H386v-1.513h-1.2c-1.294,0-1.878.57-1.878,1.661v1.163h-.9v1.476h.9Z" transform="translate(-376.868 -344.858)" fill="#fff"/>
        </g>
      </g>
      <g id="Device" transform="translate(94.768 40.668)">
        <g id="Grupo_68515" data-name="Grupo 68515" transform="translate(0)">
          <g id="Grupo_68514" data-name="Grupo 68514">
            <g id="Grupo_68509" data-name="Grupo 68509">
              <g id="Grupo_68457" data-name="Grupo 68457">
                <g id="Grupo_68456" data-name="Grupo 68456">
                  <g id="Grupo_68452" data-name="Grupo 68452">
                    <g id="Grupo_68451" data-name="Grupo 68451">
                      <g id="Grupo_68450" data-name="Grupo 68450">
                        <path id="Trazado_140598" data-name="Trazado 140598" d="M230.249,233.123l-57.39-.034a12.5,12.5,0,0,1-12.494-12.5l.028-143.879a12.5,12.5,0,0,1,12.508-12.5l57.391.034a12.5,12.5,0,0,1,12.494,12.5l-.028,143.879A12.5,12.5,0,0,1,230.249,233.123Z" transform="translate(-160.365 -64.207)" fill="#263238"/>
                      </g>
                    </g>
                  </g>
                  <g id="Grupo_68455" data-name="Grupo 68455" transform="translate(3.803 5.089)">
                    <g id="Grupo_68454" data-name="Grupo 68454">
                      <g id="Grupo_68453" data-name="Grupo 68453">
                        <path id="Trazado_140599" data-name="Trazado 140599" d="M235.565,76.468l-11.127-.006a2.764,2.764,0,0,0-2.7,2.823V81.3a2.764,2.764,0,0,1-2.7,2.823l-21.689-.013a2.766,2.766,0,0,1-2.7-2.826V79.269a2.766,2.766,0,0,0-2.7-2.826l-3.913,0-9.739-.005a8.755,8.755,0,0,0-8.76,8.753L169.5,225.625a8.755,8.755,0,0,0,8.75,8.758l57.276.033a8.755,8.755,0,0,0,8.76-8.753l.027-140.437A8.755,8.755,0,0,0,235.565,76.468Z" transform="translate(-169.502 -76.435)" fill="#fff"/>
                      </g>
                    </g>
                  </g>
                </g>
              </g>
              <g id="Grupo_68467" data-name="Grupo 68467" transform="translate(64.24 16.485)">
                <g id="Grupo_68460" data-name="Grupo 68460">
                  <g id="Grupo_68459" data-name="Grupo 68459">
                    <g id="Grupo_68458" data-name="Grupo 68458">
                      <path id="Trazado_140600" data-name="Trazado 140600" d="M321.173,103.862c0,.037-1.446.08-3.232.095s-3.232,0-3.233-.042,1.446-.08,3.232-.095S321.173,103.824,321.173,103.862Z" transform="translate(-314.709 -103.815)" fill="#263238"/>
                    </g>
                  </g>
                </g>
                <g id="Grupo_68463" data-name="Grupo 68463" transform="translate(0.014 1.654)">
                  <g id="Grupo_68462" data-name="Grupo 68462">
                    <g id="Grupo_68461" data-name="Grupo 68461">
                      <path id="Trazado_140601" data-name="Trazado 140601" d="M321.206,107.836c0,.037-1.447.08-3.232.095s-3.232,0-3.233-.042,1.446-.08,3.231-.095S321.206,107.8,321.206,107.836Z" transform="translate(-314.742 -107.789)" fill="#263238"/>
                    </g>
                  </g>
                </g>
                <g id="Grupo_68466" data-name="Grupo 68466" transform="translate(0.027 3.308)">
                  <g id="Grupo_68465" data-name="Grupo 68465">
                    <g id="Grupo_68464" data-name="Grupo 68464">
                      <path id="Trazado_140602" data-name="Trazado 140602" d="M321.239,111.809c0,.038-1.447.08-3.232.095s-3.233,0-3.233-.041,1.446-.08,3.232-.095S321.239,111.771,321.239,111.809Z" transform="translate(-314.775 -111.763)" fill="#263238"/>
                    </g>
                  </g>
                </g>
              </g>
              <g id="Grupo_68470" data-name="Grupo 68470" transform="translate(9.759 14.634)">
                <g id="Grupo_68469" data-name="Grupo 68469">
                  <g id="Grupo_68468" data-name="Grupo 68468">
                    <path id="Trazado_140603" data-name="Trazado 140603" d="M183.9,106.185a1.333,1.333,0,0,1,.169-.011l.471-.015,1.74-.042-.048.049q-.009-.579-.02-1.262c0-.234-.02-.455,0-.726a.669.669,0,0,1,.584-.536c.28-.005.527-.018.831,0a.676.676,0,0,1,.571.672c.007.588.014,1.2.021,1.84l-.081-.079,2.194-.022-.083.085c-.008-.884-.016-1.8-.025-2.734q0-.35-.006-.7a.709.709,0,0,0-.308-.519l-.959-.946-.925-.913-.449-.443c-.154-.149-.275-.3-.454-.339a.591.591,0,0,0-.5.1c-.133.112-.274.271-.408.4l-.787.794c-.5.514-1.011.984-1.386,1.429a1.551,1.551,0,0,0-.11.819q0,.408,0,.773,0,.711-.008,1.246c0,.318-.007.581-.009.8a2.832,2.832,0,0,1-.011.287,2.081,2.081,0,0,1-.015-.264c-.006-.212-.013-.471-.022-.784q-.012-.538-.028-1.255-.007-.373-.015-.789,0-.21-.007-.431a.913.913,0,0,1,.121-.459c.406-.5.89-.938,1.389-1.467l.781-.8c.141-.138.256-.276.424-.42a.745.745,0,0,1,.636-.125,1.185,1.185,0,0,1,.527.377l.45.441.929.91.961.944a1.831,1.831,0,0,1,.245.266.719.719,0,0,1,.115.37q0,.348.006.7c.007.936.014,1.85.021,2.735v.084h-.084l-2.195.014h-.08v-.08c0-.637-.006-1.252-.01-1.84a.529.529,0,0,0-.443-.533c-.253-.013-.55,0-.8,0a.539.539,0,0,0-.473.427c-.021.221-.005.478-.01.7q0,.682,0,1.262v.049h-.048l-1.768-.012-.46-.008A.862.862,0,0,1,183.9,106.185Z" transform="translate(-183.811 -99.366)" fill="#263238"/>
                  </g>
                </g>
              </g>
              <g id="Grupo_68489" data-name="Grupo 68489" transform="translate(8.37 126.092)">
                <g id="Grupo_68475" data-name="Grupo 68475" transform="translate(24.031 4.99)">
                  <g id="Grupo_68474" data-name="Grupo 68474">
                    <g id="Grupo_68471" data-name="Grupo 68471">
                      <path id="Trazado_140604" data-name="Trazado 140604" d="M253.515,379.254a3.2,3.2,0,0,1-.6.042l-1.64.034c-1.385.02-3.3.032-5.41.032s-4.026-.012-5.411-.032l-1.64-.034a3.2,3.2,0,0,1-.6-.042,3.207,3.207,0,0,1,.6-.042l1.64-.035c1.384-.02,3.3-.032,5.411-.032s4.026.012,5.41.032l1.64.035A3.207,3.207,0,0,1,253.515,379.254Z" transform="translate(-238.211 -379.146)" fill="#455a64"/>
                    </g>
                    <g id="Grupo_68472" data-name="Grupo 68472" transform="translate(0 3.765)">
                      <path id="Trazado_140605" data-name="Trazado 140605" d="M277.568,388.3c0,.06-8.811.108-19.678.108s-19.679-.048-19.679-.108,8.809-.108,19.679-.108S277.568,388.24,277.568,388.3Z" transform="translate(-238.211 -388.192)" fill="#455a64"/>
                    </g>
                    <g id="Grupo_68473" data-name="Grupo 68473" transform="translate(0 7.307)">
                      <path id="Trazado_140606" data-name="Trazado 140606" d="M265.269,396.81c0,.06-6.058.108-13.528.108s-13.53-.049-13.53-.108,6.056-.109,13.53-.109S265.269,396.75,265.269,396.81Z" transform="translate(-238.211 -396.701)" fill="#455a64"/>
                    </g>
                  </g>
                </g>
                <g id="Grupo_68476" data-name="Grupo 68476" transform="translate(61.779 15.723)">
                  <path id="Trazado_140607" data-name="Trazado 140607" d="M331.292,408.51l-1.223-1.227-1.164,1.161.005-3.511,2.387,0Zm-1.222-1.379.038.038,1.076,1.08.005-3.2-2.171,0-.005,3.142Z" transform="translate(-328.905 -404.934)" fill="#263238"/>
                </g>
                <g id="Grupo_68477" data-name="Grupo 68477" transform="translate(29.406 16.423)">
                  <path id="Trazado_140608" data-name="Trazado 140608" d="M253.324,409.035l-.431-.192a1.182,1.182,0,1,1,.63-1.038,1.2,1.2,0,0,1-.3.8Zm-1.008-2.337a1.117,1.117,0,0,0,.018,2.233,1.152,1.152,0,0,0,.537-.169l.018-.01.318.142-.072-.313.015-.016a1.115,1.115,0,0,0-.834-1.867Z" transform="translate(-251.126 -406.616)" fill="#263238"/>
                </g>
                <g id="Grupo_68478" data-name="Grupo 68478" transform="translate(32.957 16.587)">
                  <path id="Trazado_140609" data-name="Trazado 140609" d="M261.079,409.08l-.495-1.207-.927-.845,2.25-.018Zm-1.212-1.972.79.725.421,1.028.707-1.768Z" transform="translate(-259.657 -407.01)" fill="#263238"/>
                </g>
                <g id="Grupo_68479" data-name="Grupo 68479" transform="translate(33.935 16.587)">
                  <rect id="Rectángulo_31747" data-name="Rectángulo 31747" width="1.463" height="0.082" transform="translate(0 0.798) rotate(-33.054)" fill="#263238"/>
                </g>
                <g id="Grupo_68480" data-name="Grupo 68480" transform="translate(25.308 16.298)">
                  <path id="Trazado_140610" data-name="Trazado 140610" d="M244.038,406.875a1.541,1.541,0,0,1-2.044-.548.719.719,0,0,0-.7.57.939.939,0,0,0,.171.677,2.792,2.792,0,0,0,.492.516c.251.221.482.43.733.651.247-.225.457-.437.7-.663a2.763,2.763,0,0,0,.485-.524A.941.941,0,0,0,244.038,406.875Z" transform="translate(-241.281 -406.316)" fill="#e8505b"/>
                </g>
                <g id="Grupo_68481" data-name="Grupo 68481">
                  <path id="Trazado_140611" data-name="Trazado 140611" d="M247.147,389.563s-.005-.135-.007-.392,0-.641-.007-1.139c0-1-.01-2.482-.017-4.394-.009-3.825-.022-9.391-.039-16.372l.072.072-66.56.037h0l.109-.109c0,7.749,0,15.265,0,22.3l-.1-.1,47.629.049,13.9.029,3.731.014.967.007c.218,0,.333.007.333.007s-.106,0-.32.007l-.955.007-3.708.013-13.88.03-47.7.049h-.1v-.1c0-7.032,0-14.548,0-22.3v-.108h.112l66.56.037h.072v.071c-.017,7-.03,12.579-.039,16.415-.008,1.906-.013,3.378-.018,4.378q-.005.739-.008,1.126C247.152,389.438,247.147,389.563,247.147,389.563Z" transform="translate(-180.475 -367.158)" fill="#263238"/>
                </g>
                <g id="Grupo_68488" data-name="Grupo 68488" transform="translate(2.682 3.736)">
                  <g id="Grupo_68485" data-name="Grupo 68485">
                    <g id="Grupo_68484" data-name="Grupo 68484">
                      <g id="Grupo_68483" data-name="Grupo 68483">
                        <rect id="Rectángulo_31748" data-name="Rectángulo 31748" width="14.741" height="18.438" transform="matrix(0.006, -1, 1, 0.006, 0.11, 14.838)" fill="#ebebeb"/>
                        <g id="Grupo_68482" data-name="Grupo 68482">
                          <path id="Trazado_140612" data-name="Trazado 140612" d="M205.552,376.337a.7.7,0,0,1-.092.005l-.261,0-1.006.006-3.78,0-13.3-.027.1-.1c-.022,4.389-.046,9.418-.072,14.739.023.026-.2-.205-.1-.108h.315l.319,0,.636,0,1.262.008,2.484.015,4.784.031,8.635.062-.091.09c.045-4.426.082-8.1.107-10.676.017-1.282.031-2.291.04-2.993q.009-.508.015-.793c0-.18.012-.278.012-.278s.006.085.008.259,0,.445.006.776c0,.7,0,1.7.007,2.973,0,2.592-.009,6.284-.015,10.734v.09h-.091l-8.635-.036-4.784-.023-2.484-.013-1.262-.007-.636,0-.319,0h-.315c.095.1-.135-.132-.111-.11.035-5.322.067-10.35.1-14.739v-.1h.1l13.36.124,3.758.047.987.017.251.007A.369.369,0,0,1,205.552,376.337Z" transform="translate(-186.92 -376.134)" fill="#263238"/>
                        </g>
                      </g>
                    </g>
                  </g>
                  <rect id="Rectángulo_31749" data-name="Rectángulo 31749" width="12.885" height="17.143" transform="matrix(0.006, -1, 1, 0.006, 0.751, 13.914)" fill="#e0e0e0"/>
                  <path id="Trazado_140613" data-name="Trazado 140613" d="M188.725,398.378l6.033-7.975,3.68,5.032,2.531-2.664,4.9,5.7Z" transform="translate(-187.973 -384.464)" fill="#f5f5f5"/>
                  <g id="Grupo_68487" data-name="Grupo 68487" transform="translate(9.374 3.631)">
                    <g id="Grupo_68486" data-name="Grupo 68486">
                      <path id="Trazado_140614" data-name="Trazado 140614" d="M212.141,386.214a1.35,1.35,0,1,1-1.342-1.357A1.35,1.35,0,0,1,212.141,386.214Z" transform="translate(-209.441 -384.857)" fill="#f5f5f5"/>
                    </g>
                  </g>
                </g>
              </g>
              <g id="Grupo_68504" data-name="Grupo 68504" transform="translate(11.043 31.403)">
                <g id="Grupo_68499" data-name="Grupo 68499">
                  <g id="Grupo_68492" data-name="Grupo 68492" transform="translate(11.916 2.895)">
                    <g id="Grupo_68491" data-name="Grupo 68491">
                      <g id="Grupo_68490" data-name="Grupo 68490">
                        <path id="Trazado_140615" data-name="Trazado 140615" d="M234.906,146.72a.68.68,0,0,1-.2.022l-.564.02-2.077.034c-1.754.02-4.176.032-6.851.032s-5.1-.012-6.852-.032l-2.076-.034-.565-.02a.68.68,0,0,1-.2-.022.694.694,0,0,1,.2-.022l.565-.02,2.076-.035c1.753-.02,4.176-.032,6.852-.032s5.1.012,6.851.032l2.077.035.564.02A.694.694,0,0,1,234.906,146.72Z" transform="translate(-215.527 -146.612)" fill="#263238"/>
                      </g>
                    </g>
                  </g>
                  <g id="Grupo_68498" data-name="Grupo 68498" transform="translate(0 78.933)">
                    <g id="Grupo_68493" data-name="Grupo 68493" transform="translate(54.986 0.243)">
                      <path id="Trazado_140616" data-name="Trazado 140616" d="M322.556,335.2l-1.817-1.823-1.731,1.726.008-5.217,3.547.005Zm-1.816-2.049.057.056,1.6,1.605.008-4.761-3.227,0-.008,4.669Z" transform="translate(-319.009 -329.885)" fill="#263238"/>
                    </g>
                    <g id="Grupo_68494" data-name="Grupo 68494" transform="translate(8.066 0.246)">
                      <path id="Trazado_140617" data-name="Trazado 140617" d="M210.6,334.654l-.849-.379A2.327,2.327,0,1,1,211,332.232a2.351,2.351,0,0,1-.587,1.573Zm-1.986-4.6a2.2,2.2,0,1,0,.035,4.4,2.265,2.265,0,0,0,1.058-.334l.035-.02.626.279-.141-.615.028-.031a2.2,2.2,0,0,0-1.642-3.675Z" transform="translate(-206.277 -329.892)" fill="#263238"/>
                    </g>
                    <g id="Grupo_68495" data-name="Grupo 68495" transform="translate(15.055 0.569)">
                      <path id="Trazado_140618" data-name="Trazado 140618" d="M225.868,334.743l-.974-2.376-1.826-1.664,4.428-.035Zm-2.386-3.882,1.555,1.427.829,2.024,1.391-3.482Z" transform="translate(-223.069 -330.668)" fill="#263238"/>
                    </g>
                    <g id="Grupo_68496" data-name="Grupo 68496" transform="translate(16.98 0.569)">
                      <rect id="Rectángulo_31750" data-name="Rectángulo 31750" width="2.88" height="0.162" transform="matrix(0.838, -0.545, 0.545, 0.838, 0, 1.571)" fill="#263238"/>
                    </g>
                    <g id="Grupo_68497" data-name="Grupo 68497">
                      <path id="Trazado_140619" data-name="Trazado 140619" d="M192.323,330.4a1.37,1.37,0,0,0-2.7.09,1.369,1.369,0,0,0-2.7-.047,1.848,1.848,0,0,0,.337,1.332,5.47,5.47,0,0,0,.969,1.017c.493.436.949.846,1.442,1.281.486-.444.9-.86,1.386-1.3a5.49,5.49,0,0,0,.953-1.033A1.849,1.849,0,0,0,192.323,330.4Z" transform="translate(-186.898 -329.301)" fill="#6595bf"/>
                    </g>
                  </g>
                  <circle id="Elipse_4765" data-name="Elipse 4765" cx="3.004" cy="3.004" r="3.004" transform="translate(2.018)" fill="#ebebeb"/>
                </g>
                <g id="Grupo_68503" data-name="Grupo 68503" transform="translate(1.142 62.467)">
                  <g id="Grupo_68500" data-name="Grupo 68500" transform="translate(0 4.684)">
                    <path id="Trazado_140620" data-name="Trazado 140620" d="M245.9,301.1c0,.06-12.595.108-28.127.108s-28.13-.048-28.13-.108,12.592-.109,28.13-.109S245.9,301.043,245.9,301.1Z" transform="translate(-189.643 -300.994)" fill="#455a64"/>
                  </g>
                  <g id="Grupo_68501" data-name="Grupo 68501">
                    <path id="Trazado_140621" data-name="Trazado 140621" d="M245.9,289.847c0,.06-12.595.109-28.127.109s-28.13-.049-28.13-.109,12.592-.108,28.13-.108S245.9,289.787,245.9,289.847Z" transform="translate(-189.643 -289.739)" fill="#455a64"/>
                  </g>
                  <g id="Grupo_68502" data-name="Grupo 68502" transform="translate(0 9.432)">
                    <path id="Trazado_140622" data-name="Trazado 140622" d="M220.264,312.508c0,.06-6.855.109-15.31.109s-15.311-.049-15.311-.109,6.854-.108,15.311-.108S220.264,312.449,220.264,312.508Z" transform="translate(-189.643 -312.4)" fill="#455a64"/>
                  </g>
                </g>
              </g>
              <g id="Grupo_68508" data-name="Grupo 68508" transform="translate(36.638 153.231)">
                <g id="Grupo_68505" data-name="Grupo 68505">
                  <path id="Trazado_140623" data-name="Trazado 140623" d="M250.782,433.581a1.2,1.2,0,1,1-1.19-1.218A1.2,1.2,0,0,1,250.782,433.581Z" transform="translate(-248.392 -432.363)" fill="#263238"/>
                </g>
                <g id="Grupo_68506" data-name="Grupo 68506" transform="translate(3.703 0.017)">
                  <path id="Trazado_140624" data-name="Trazado 140624" d="M259.68,433.622a1.2,1.2,0,1,1-1.19-1.218A1.2,1.2,0,0,1,259.68,433.622Z" transform="translate(-257.29 -432.404)" fill="#263238"/>
                </g>
                <g id="Grupo_68507" data-name="Grupo 68507" transform="translate(7.407 0.034)">
                  <path id="Trazado_140625" data-name="Trazado 140625" d="M268.578,433.663a1.2,1.2,0,1,1-1.19-1.218A1.2,1.2,0,0,1,268.578,433.663Z" transform="translate(-266.188 -432.445)" fill="#263238"/>
                </g>
              </g>
            </g>
            <g id="Grupo_68512" data-name="Grupo 68512" transform="translate(8.877 40.351)">
              <rect id="Rectángulo_31751" data-name="Rectángulo 31751" width="66.564" height="40.707" fill="#e0e0e0"/>
              <path id="Trazado_140626" data-name="Trazado 140626" d="M196.457,223.167l19.074-25.53L227.356,213.6l8.015-8.539,15.719,18.087Z" transform="translate(-190.312 -182.452)" fill="#f5f5f5"/>
              <g id="Grupo_68511" data-name="Grupo 68511" transform="translate(33.453 7.753)">
                <g id="Grupo_68510" data-name="Grupo 68510">
                  <path id="Trazado_140627" data-name="Trazado 140627" d="M270.671,184.081a4.3,4.3,0,1,1-4.3-4.3A4.3,4.3,0,0,1,270.671,184.081Z" transform="translate(-262.067 -179.781)" fill="#f5f5f5"/>
                </g>
              </g>
            </g>
            <g id="Grupo_68513" data-name="Grupo 68513" transform="translate(8.59 26.698)">
              <path id="Trazado_140628" data-name="Trazado 140628" d="M247.675,220.544c0-.871-.04-37.644-.1-92.083l.1.1-66.556.01h-.007l.108-.109c-.007,34.437-.015,66.307-.02,92.083l-.088-.088,66.563.088-66.563.088h-.088v-.088c-.006-25.776-.013-57.646-.02-92.083v-.108h.116l66.556.01h.1v.1c-.02,27.246-.037,50.277-.049,66.5-.011,8.1-.02,14.5-.026,18.876,0,2.183-.009,3.861-.012,5q0,.845-.006,1.282C247.679,220.4,247.675,220.544,247.675,220.544Z" transform="translate(-181.003 -128.353)" fill="#263238"/>
            </g>
          </g>
        </g>
      </g>
      <g id="Megaphone" transform="translate(67.565 65.162)">
        <g id="Grupo_68542" data-name="Grupo 68542">
          <g id="Grupo_68536" data-name="Grupo 68536">
            <g id="Grupo_68534" data-name="Grupo 68534">
              <g id="Grupo_68516" data-name="Grupo 68516" transform="translate(44.221 83.223)">
                <path id="Trazado_140629" data-name="Trazado 140629" d="M228.219,345.6l1.473-4.948c.257-1.073.6-2.339,1.057-3.783a10.209,10.209,0,0,1,2.437-3.644c1.5-1.529,2.218-1.539,3.229-2.35.092-.059.194-.143.281-.19a1.592,1.592,0,0,0,.491-.425c.871-.942.035-2.4-1.734-2.261-1.331.1-3.5.485-7.032,4.127-.044.055-.09.1-.134.158-1.853,2.408-3.593-4.467-3.907-7.026a2.682,2.682,0,0,0-3.625-2.08l-8.6,4.022a4.014,4.014,0,0,0-2.51.085,2.556,2.556,0,0,0-1.638,3.034l3.488,13.923-10.244,34.085h22.08Z" transform="translate(-201.252 -323.009)" fill="#ffbe9d"/>
              </g>
              <g id="Grupo_68532" data-name="Grupo 68532">
                <g id="Grupo_68524" data-name="Grupo 68524">
                  <g id="Grupo_68518" data-name="Grupo 68518" transform="translate(49.399 69.702)">
                    <g id="Grupo_68517" data-name="Grupo 68517">
                      <path id="Trazado_140630" data-name="Trazado 140630" d="M252.444,295.334l-6.825,13.374-3.413-.948-17.154,13.954a3.475,3.475,0,0,1-4.827-.429l-6.531-7.59s13.169-5.673,15.605-10.369-.379-5.761-.379-5.761l6.2-7.044Z" transform="translate(-213.694 -290.522)" fill="#6595bf"/>
                    </g>
                  </g>
                  <g id="Grupo_68519" data-name="Grupo 68519">
                    <path id="Trazado_140631" data-name="Trazado 140631" d="M174.3,170.249s-9.991-2.21-24.05-15.73-20.665-31.473-22.386-31.385-9.235-3.4-23.526,27.687-8.662,38.307-5.818,38.248,22.154-5.439,34.215-4.068,27.564,7.657,27.564,7.657Z" transform="translate(-95.007 -123.056)" fill="#6595bf"/>
                  </g>
                  <g id="Grupo_68520" data-name="Grupo 68520" transform="translate(63.147 41.335)">
                    <path id="Trazado_140632" data-name="Trazado 140632" d="M284.1,245.171l-3.408,6.48-1.527,2.9a8.458,8.458,0,0,1-11.025,3.745l-21.414-7.461L259.2,222.368l21.394,11.4A8.458,8.458,0,0,1,284.1,245.171Z" transform="translate(-246.725 -222.368)" fill="#5e6178"/>
                  </g>
                  <g id="Grupo_68522" data-name="Grupo 68522" transform="translate(1.871 0.713)">
                    <path id="Trazado_140634" data-name="Trazado 140634" d="M108.121,152.387c-7.605,16.84-10.772,31.847-7.071,33.518s12.866-10.626,20.471-27.466,10.772-31.847,7.071-33.518S115.727,135.546,108.121,152.387Z" transform="translate(-99.503 -124.769)" fill="#5e6178"/>
                  </g>
                </g>
                <g id="Grupo_68525" data-name="Grupo 68525" transform="translate(96.555 64.85)">
                  <path id="Trazado_140636" data-name="Trazado 140636" d="M332.795,287.517l-5.8-1.823,3.592-6.829,4.353,2.706Z" transform="translate(-326.991 -278.865)" fill="#6595bf"/>
                </g>
                <g id="Grupo_68526" data-name="Grupo 68526" transform="translate(96.555 64.85)" opacity="0.6">
                  <path id="Trazado_140637" data-name="Trazado 140637" d="M330.582,278.865l-3.592,6.829,1.193.375,2.92-6.88Z" transform="translate(-326.991 -278.865)"/>
                </g>
                <g id="Grupo_68527" data-name="Grupo 68527" transform="translate(83.513 60.696)">
                  <path id="Trazado_140638" data-name="Trazado 140638" d="M308.291,274.614c-.085.188-2.982-.938-6.469-2.515s-6.249-3.007-6.163-3.194,2.98.939,6.47,2.515S308.375,274.426,308.291,274.614Z" transform="translate(-295.656 -268.884)" fill="#6595bf"/>
                </g>
                <g id="Grupo_68528" data-name="Grupo 68528" transform="translate(86.55 56.733)">
                  <path id="Trazado_140639" data-name="Trazado 140639" d="M314.335,264.989c-.092.185-2.712-.92-5.855-2.467s-5.617-2.952-5.525-3.137,2.711.921,5.854,2.469S314.425,264.8,314.335,264.989Z" transform="translate(-302.952 -259.364)" fill="#6595bf"/>
                </g>
                <g id="Grupo_68529" data-name="Grupo 68529" transform="translate(82.378 65.551)">
                  <path id="Trazado_140640" data-name="Trazado 140640" d="M304.447,285.689c-.031.1-.72-.06-1.82-.4-.549-.17-1.2-.385-1.921-.634s-1.458-.635-2.255-1c-3.175-1.474-5.6-2.917-5.52-3.088.094-.2,2.685.951,5.831,2.411.789.358,1.521.751,2.211,1.04s1.314.542,1.833.772C303.845,285.255,304.477,285.591,304.447,285.689Z" transform="translate(-292.929 -280.549)" fill="#6595bf"/>
                </g>
                <g id="Grupo_68530" data-name="Grupo 68530" transform="translate(11.192 23.352)">
                  <path id="Trazado_140641" data-name="Trazado 140641" d="M136.7,180.4s-8.683-5.385-13.435,6.347,4.385,13.661,4.385,13.661A78.165,78.165,0,0,0,136.7,180.4Z" transform="translate(-121.897 -179.163)" fill="#6595bf"/>
                </g>
                <g id="Grupo_68531" data-name="Grupo 68531" transform="translate(10.352 10.604)" opacity="0.5">
                  <path id="Trazado_140642" data-name="Trazado 140642" d="M144.757,148.533a13.076,13.076,0,0,1-.34,2.241c-.275,1.434-.663,3.515-1.22,6.07-.367,1.259-.768,2.633-1.2,4.106l-.675,2.287-.354,1.2c-.13.4-.3.794-.45,1.2l-1.962,5.062-.517,1.328c-.169.448-.408.87-.611,1.311l-1.29,2.661-1.295,2.66c-.221.432-.406.881-.653,1.292l-.724,1.227-2.767,4.672c-.226.369-.43.745-.665,1.095l-.722,1.02-1.383,1.947-2.489,3.484c-1.66,2.012-3.053,3.6-4.009,4.7a13.185,13.185,0,0,1-1.553,1.654,13.233,13.233,0,0,1,1.329-1.839l3.825-4.85,2.4-3.511,1.339-1.95.7-1.019c.229-.35.428-.727.647-1.1l2.711-4.663.713-1.222c.244-.408.426-.854.645-1.284l1.282-2.643,1.285-2.641c.2-.437.442-.856.611-1.3l.519-1.316,1.989-5.012c.154-.4.327-.789.461-1.185s.246-.794.368-1.183l.706-2.262c.459-1.456.887-2.814,1.28-4.058l1.445-5.993A13.411,13.411,0,0,1,144.757,148.533Z" transform="translate(-119.877 -148.533)"/>
                </g>
              </g>
              <g id="Grupo_68533" data-name="Grupo 68533" transform="translate(51.48 80.049)" opacity="0.4">
                <path id="Trazado_140643" data-name="Trazado 140643" d="M218.693,327.278a16.908,16.908,0,0,0,2.773,4.048,5.709,5.709,0,0,0,4.415,1.8,3.494,3.494,0,0,0,3.2-3.163,2.045,2.045,0,0,0,2.635-.465,4.611,4.611,0,0,0,.938-2.733,2.578,2.578,0,0,0,3.256-.882,4.21,4.21,0,0,0,.41-3.562,12.469,12.469,0,0,0-1.709-3.274,4.528,4.528,0,0,0,2.422-.248,1.56,1.56,0,0,0,.8-2.044,2.037,2.037,0,0,0-1.194-.761,7.707,7.707,0,0,0-3.524-.569c-.311,0,.535,3.528-7.86,8.349A70.511,70.511,0,0,1,218.693,327.278Z" transform="translate(-218.693 -315.383)"/>
              </g>
            </g>
            <g id="Grupo_68535" data-name="Grupo 68535" transform="translate(61.857 96.838)">
              <path id="Trazado_140644" data-name="Trazado 140644" d="M252.152,355.918c-.005.039-.564-.069-1.47-.044a8.311,8.311,0,0,0-6.17,2.958c-.586.691-.852,1.194-.886,1.174a1.288,1.288,0,0,1,.164-.364,6.652,6.652,0,0,1,.6-.906,7.864,7.864,0,0,1,6.287-3.014,6.7,6.7,0,0,1,1.085.1A1.285,1.285,0,0,1,252.152,355.918Z" transform="translate(-243.624 -355.72)" fill="#eb996e"/>
            </g>
            <path id="Trazado_140645" data-name="Trazado 140645" d="M220.008,328.227c1.352,1.3,2.277,2.733,3.7,4.041.644.594,1.646,1.721,2.51,1.87s1.417.035,1.759-.772c.277-.654-.221-1.547-.564-2.086-.9-1.417-1.768-2.526-2.444-3.628-.317-.516.093-.623.243-.384.651.675,1.622,1.259,2.2,1.994.8,1.006.943,2.338,3.032,1.917a1.883,1.883,0,0,0,.775-.322,2.089,2.089,0,0,0,.488-2.486,6.8,6.8,0,0,0-1.163-1.759c.889,1,1.86,2.061,3.274,2.175a1.948,1.948,0,0,0,1.98-1.071,2.581,2.581,0,0,0-.783-2.61,27.185,27.185,0,0,0-3.55-3.626,2.7,2.7,0,0,0-1.726-.64,2.516,2.516,0,0,0-2.1.769,2.838,2.838,0,0,0-.568,2.176,3.613,3.613,0,0,0-3.307.042,4.673,4.673,0,0,0-1.838,2.644Z" transform="translate(-167.981 -238.518)" fill="#ffbe9d"/>
            <path id="Trazado_140646" data-name="Trazado 140646" d="M242.721,314.312a2.2,2.2,0,0,1-.259-2.481c.312-.611.705-1.2,1.1-1.34,1.744-.589,9.366.73,9.3,2.422-.071,1.737-.626,2.5-4.762,1.9-.728-.1-1.869-.249-1.869-.249l-1,1.5Z" transform="translate(-180.936 -232.395)" fill="#ffbe9d"/>
          </g>
          <g id="Grupo_68537" data-name="Grupo 68537" transform="translate(58.95 85.188)">
            <path id="Trazado_140647" data-name="Trazado 140647" d="M240.841,331.541a10.006,10.006,0,0,0-4.2-3.808,2.433,2.433,0,0,1,.807.284,7.238,7.238,0,0,1,3.031,2.748A2.435,2.435,0,0,1,240.841,331.541Z" transform="translate(-236.641 -327.729)" fill="#eb996e"/>
          </g>
          <g id="Grupo_68538" data-name="Grupo 68538" transform="translate(61.92 82.315)">
            <path id="Trazado_140648" data-name="Trazado 140648" d="M246.289,322.313c-.038.035-.541-.375-1.227-.795a8.615,8.615,0,0,0-.894-.493c-.236-.111-.392-.141-.391-.174s.179-.05.444.03a4.1,4.1,0,0,1,.956.452A2.952,2.952,0,0,1,246.289,322.313Z" transform="translate(-243.776 -320.826)" fill="#eb996e"/>
          </g>
          <g id="Grupo_68539" data-name="Grupo 68539" transform="translate(63.026 81.225)">
            <path id="Trazado_140649" data-name="Trazado 140649" d="M249.12,319.212a3.294,3.294,0,0,1-1.468-.165,2.684,2.684,0,0,1-.939-.492c-.209-.178-.3-.327-.276-.345a6.142,6.142,0,0,0,1.279.63A10.929,10.929,0,0,1,249.12,319.212Z" transform="translate(-246.434 -318.208)" fill="#eb996e"/>
          </g>
          <g id="Grupo_68540" data-name="Grupo 68540" transform="translate(52.249 87.297)">
            <path id="Trazado_140650" data-name="Trazado 140650" d="M226.6,336.593a5.309,5.309,0,0,1-.695-.9,8.2,8.2,0,0,0-1.779-2.022A3.587,3.587,0,0,0,221.6,333a4.583,4.583,0,0,0-1.061.338c-.008-.01.072-.087.243-.192a2.374,2.374,0,0,1,.794-.3,3.541,3.541,0,0,1,2.671.643,7.242,7.242,0,0,1,1.781,2.114A6.768,6.768,0,0,1,226.6,336.593Z" transform="translate(-220.542 -332.796)" fill="#eb996e"/>
          </g>
          <g id="Grupo_68541" data-name="Grupo 68541" transform="translate(57.882 107.933)">
            <path id="Trazado_140651" data-name="Trazado 140651" d="M240.328,382.395a45.69,45.69,0,0,1-6.254.68,45.69,45.69,0,0,1,6.254-.68Z" transform="translate(-234.074 -382.378)" fill="#eb996e"/>
          </g>
        </g>
      </g>
      <g id="Stars" transform="translate(27.181 34.69)">
        <g id="Grupo_68543" data-name="Grupo 68543" transform="translate(0 0)">
          <path id="Trazado_140652" data-name="Trazado 140652" d="M404.767,49.844l.47.859.859.47-.859.47-.47.859-.47-.859-.859-.47.859-.47Z" transform="translate(-205.336 -49.844)" fill="#d9a171"/>
          <path id="Trazado_140653" data-name="Trazado 140653" d="M428.372,101.014l.47.859.859.47-.859.47-.47.859-.47-.859-.859-.47.859-.47Z" transform="translate(-219.116 -79.716)" fill="#d9a171"/>
          <path id="Trazado_140654" data-name="Trazado 140654" d="M50.039,237.533l.47.859.859.47-.859.47-.47.859-.47-.859-.859-.47.859-.47Z" transform="translate(-48.711 -159.414)" fill="#d9a171"/>
          <path id="Trazado_140655" data-name="Trazado 140655" d="M371.357,62.562l1.085,1.984,1.984,1.085-1.984,1.085L371.357,68.7l-1.085-1.984-1.984-1.085,1.984-1.085Z" transform="translate(-184.816 -57.268)" fill="#d9a171"/>
          <path id="Trazado_140656" data-name="Trazado 140656" d="M68.766,205.1l1.083,1.979,1.979,1.083-1.979,1.083-1.083,1.98-1.083-1.98-1.98-1.083,1.98-1.083Z" transform="translate(-58.631 -140.478)" fill="#d9a171"/>
          <path id="Trazado_140657" data-name="Trazado 140657" d="M432.363,318.565l1.083,1.979,1.979,1.083-1.979,1.083-1.083,1.98-1.083-1.98-1.979-1.083,1.979-1.083Z" transform="translate(-220.434 -206.72)" fill="#d9a171"/>
        </g>
      </g>
    </g>
  </g>
</svg>
