<svg xmlns="http://www.w3.org/2000/svg" width="162" height="161.262" viewBox="0 0 162 161.262">
  <g id="Grupo_70101" data-name="Grupo 70101" transform="translate(-457 -7292.738)">
    <g id="Elipse_156" data-name="Elipse 156" transform="translate(467 7301)" fill="#d9a171" stroke="#707070" stroke-width="1">
      <ellipse cx="76" cy="76.5" rx="76" ry="76.5" stroke="none"/>
      <ellipse cx="76" cy="76.5" rx="75.5" ry="76" fill="none"/>
    </g>
    <g id="Grupo_66842" data-name="Grupo 66842" transform="translate(-34.059 6769.79)">
      <path id="Trazado_133715" data-name="Trazado 133715" d="M770.54,643.967c-1.565-3.82-3.648-7.451-4.619-11.488-1.714-7.126,3.811-14.5,11.147-14.607q16.816-.254,33.638,0c8.394.134,13.734,8.961,10.5,16.982-1.06,2.625-2.218,5.21-3.331,7.813a.681.681,0,0,1-.365.931,2.2,2.2,0,0,1-1.452-.328,58.108,58.108,0,0,0-21.657-4.294,58.814,58.814,0,0,0-20.436,3.355A13.945,13.945,0,0,0,770.54,643.967Z" transform="translate(-204.781 -70.704)" fill="#6595bf"/>
      <path id="Trazado_133716" data-name="Trazado 133716" d="M784.991,705.235c-.068-.512.215-.762.653-.94A58.966,58.966,0,0,1,800.1,700.38a66.248,66.248,0,0,1,11.231-.441,54.468,54.468,0,0,1,19.7,4.444c.308.132.627.24.94.359.02.037.065.08.058.109a22.471,22.471,0,0,1-3.134,7.259c-1.206.058-2.157-.693-3.21-1.078a50.146,50.146,0,0,0-12.4-2.77,51.347,51.347,0,0,0-24.3,3.389c-.375.148-.723.5-1.178.2Z" transform="translate(-219.231 -131.972)" fill="#4877a0"/>
      <path id="Trazado_133717" data-name="Trazado 133717" d="M957.787,722.465l3.076-7.368q.175-.405.351-.81a54.7,54.7,0,0,1,6.553-.523c5.841.026,11.228,1.783,16.431,4.216a4,4,0,0,1,1.884,5.382,3.925,3.925,0,0,1-5.24,1.934,37.777,37.777,0,0,0-10.248-3.174,20,20,0,0,0-11.035,1.351A3.174,3.174,0,0,1,957.787,722.465Z" transform="translate(-348.125 -142.327)" fill="#1e3f5d"/>
      <path id="Trazado_133718" data-name="Trazado 133718" d="M833.007,665.949c1.059,0,2.118.026,3.175-.01.623-.021.916.131.9.836q-.057,3.238,0,6.478c.012.7-.28.845-.9.837-2.117-.027-4.235-.04-6.351.006-.763.016-.914-.288-.9-.969.034-2.074.051-4.15-.007-6.224-.023-.83.3-1,1.036-.967C830.972,665.987,831.991,665.949,833.007,665.949Z" transform="translate(-252.006 -106.649)" fill="#fefefe"/>
      <path id="Trazado_133719" data-name="Trazado 133719" d="M901.1,670.039c0,1.058-.029,2.118.011,3.175.024.641-.161.9-.85.89q-3.238-.056-6.478,0c-.719.013-.829-.31-.823-.917.024-2.117.028-4.234,0-6.351-.009-.64.162-.9.851-.89q3.238.056,6.478,0c.719-.013.841.309.822.917C901.076,667.921,901.1,668.98,901.1,670.039Z" transform="translate(-299.769 -106.66)" fill="#fefefe"/>
      <path id="Trazado_133720" data-name="Trazado 133720" d="M629.9,936.777v12.2a2.222,2.222,0,0,1-1.679.411q-26.768.014-53.536,0a2.316,2.316,0,0,1-1.682-.411v-12.2a2.317,2.317,0,0,1,1.682-.411q26.768-.012,53.536,0A2.222,2.222,0,0,1,629.9,936.777Z" transform="translate(-61.119 -308.357)" fill="#feca5a"/>
      <path id="Trazado_133721" data-name="Trazado 133721" d="M629.9,914.13H573V906h56.9Q629.9,910.064,629.9,914.13Z" transform="translate(-61.119 -285.71)" fill="#faa51f"/>
      <g id="Grupo_66840" data-name="Grupo 66840" transform="translate(493.22 522.948)">
        <path id="Trazado_133722" data-name="Trazado 133722" d="M573.36,613.676v19.554h-73.8a50.81,50.81,0,0,1,7.192-21.015q5.993-9.926,23.675-26.334,14.234-13.261,17.456-17.981a23.167,23.167,0,0,0,4.345-12.886q0-7.042-3.783-10.826T538,540.4q-6.594,0-10.489,3.971t-4.5,13.186l-20.978-2.1q1.872-17.38,11.762-24.948t24.724-7.567q16.256,0,25.548,8.765a28.755,28.755,0,0,1,9.29,21.8,37.964,37.964,0,0,1-2.66,14.123,57.436,57.436,0,0,1-8.428,14.047q-3.821,4.871-13.785,14.01t-12.624,12.137a36.3,36.3,0,0,0-4.308,5.844Z" transform="translate(-499.564 -522.948)" fill="#4877a0"/>
      </g>
      <g id="Grupo_66841" data-name="Grupo 66841" transform="translate(491.059 522.948)">
        <path id="Trazado_133723" data-name="Trazado 133723" d="M564.855,613.676v19.554h-73.8a50.813,50.813,0,0,1,7.192-21.015q5.993-9.926,23.675-26.334Q536.16,572.62,539.383,567.9a23.167,23.167,0,0,0,4.345-12.886q0-7.042-3.783-10.826T529.493,540.4q-6.594,0-10.489,3.971t-4.5,13.186l-20.977-2.1q1.872-17.38,11.762-24.948t24.724-7.567q16.256,0,25.548,8.765a28.755,28.755,0,0,1,9.29,21.8,37.964,37.964,0,0,1-2.66,14.123,57.429,57.429,0,0,1-8.429,14.047q-3.82,4.871-13.785,14.01t-12.624,12.137a36.3,36.3,0,0,0-4.308,5.844Z" transform="translate(-491.059 -522.948)" fill="#aed3f2"/>
      </g>
      <path id="Trazado_133724" data-name="Trazado 133724" d="M702.861,816.963a52.142,52.142,0,0,1,4.867-8.106,3.027,3.027,0,0,1,1.832-.38c4.276,0,8.551-.03,12.827.008a12.64,12.64,0,0,1,12.9,12.872c.041,3.471-.038,6.942.008,10.413,0,.952.034,1.9-.009,2.854q.061,8.684.037,17.367a14.255,14.255,0,0,1-.034,1.519c.043,2.631.034,5.262.007,7.891.026,3.5-.269,7.016.211,10.513a11.668,11.668,0,0,0,9.583,9.555c3.348.493,6.67.115,9.994-.085A76,76,0,0,0,767,879.664a50.48,50.48,0,0,0,16.831-6.859c8.5-5.545,13.315-13.486,15.057-23.4.146-.829.013-1.765.683-2.491.5.389.1.938.355,1.324.258,9.077-1.617,17.572-7.145,24.962A36.691,36.691,0,0,1,777.5,884.815a65.97,65.97,0,0,1-20.46,4.9,9.22,9.22,0,0,0-3.318.455h-2.033c-.418-.267-.883-.07-1.321-.131-.575.063-1.169-.134-1.728.131H745.08a3.306,3.306,0,0,0-2.033,0h-2.8c-2.5-.365-5.04-.223-7.545-.626-2.173-.349-4.335-.735-6.477-1.234a3.1,3.1,0,0,1-1.511-.608.919.919,0,0,1,.15-1.053,9.969,9.969,0,0,0,1.558-6.475c-.038-.794-.017-1.592-.011-2.39-.054-2.651-.051-5.3-.007-7.95q-.072-4.057,0-8.114-.072-4.073,0-8.145c-.051-4.051-.058-8.1,0-12.154-.04-2.679-.056-5.359.005-8.037-.023-2.577.007-5.154-.013-7.732-.038-4.956-3.337-8.256-8.306-8.281-4.48-.023-8.96,0-13.439-.013C704.038,817.359,703.37,817.491,702.861,816.963Z" transform="translate(-157.98 -212.963)" fill="#4877a0"/>
      <path id="Trazado_133725" data-name="Trazado 133725" d="M606,841.9q7.68.012,15.36.026a8.206,8.206,0,0,1,8.559,8.518c.007,2.581-.014,5.162-.022,7.743a2.222,2.222,0,0,1-1.679.411q-26.768.014-53.536,0a2.317,2.317,0,0,1-1.682-.411v-9.911a24.546,24.546,0,0,1,1.515-2.872,8.047,8.047,0,0,1,6.968-3.478q11.433-.011,22.866,0C604.9,841.927,605.45,841.912,606,841.9Z" transform="translate(-61.119 -237.904)" fill="#feca5a"/>
      <path id="Trazado_133726" data-name="Trazado 133726" d="M629.9,1080.777c.007,1.429.039,2.858.014,4.286a9.852,9.852,0,0,1-2.034,5.309c-.713,1.367-2.027,1.87-3.365,2.333-.387.134-.826.052-1.2.268H579.353a7.94,7.94,0,0,1-5.761-4.444c-.3-.618-.262-1.316-.592-1.909v-5.845a2.317,2.317,0,0,1,1.682-.411q26.768-.012,53.536,0A2.222,2.222,0,0,1,629.9,1080.777Z" transform="translate(-61.119 -415.764)" fill="#feca5a"/>
      <path id="Trazado_133727" data-name="Trazado 133727" d="M573,986h56.9q0,4.066,0,8.133a2.226,2.226,0,0,1-1.679.409q-26.768.014-53.536,0A2.317,2.317,0,0,1,573,994.13Z" transform="translate(-61.119 -345.381)" fill="#faa51f"/>
      <path id="Trazado_133728" data-name="Trazado 133728" d="M573,1018h56.9q0,4.065,0,8.13a2.222,2.222,0,0,1-1.679.411q-26.768.014-53.536,0a2.316,2.316,0,0,1-1.682-.411Z" transform="translate(-61.119 -369.251)" fill="#feca5a"/>
      <path id="Trazado_133729" data-name="Trazado 133729" d="M573,1050h56.9v8.133H573Z" transform="translate(-61.119 -393.117)" fill="#faa51f"/>
      <path id="Trazado_133730" data-name="Trazado 133730" d="M861,1129.136a1.9,1.9,0,0,1,2.033,0Z" transform="translate(-275.933 -451.926)" fill="#c59c73"/>
      <path id="Trazado_133731" data-name="Trazado 133731" d="M883,1129.194c.537-.487,1.189-.159,1.783-.251.081.057.107.113.079.169s-.056.083-.083.083Z" transform="translate(-292.342 -451.984)" fill="#bf9366"/>
      <path id="Trazado_133732" data-name="Trazado 133732" d="M890,1129.225q0-.126,0-.251c.426.065.914-.183,1.267.251Z" transform="translate(-297.563 -452.015)" fill="#c8a17a"/>
      <path id="Trazado_133733" data-name="Trazado 133733" d="M749.229,773.512c-.009-3.552.013-7.1-.035-10.654a12.125,12.125,0,0,0-9.469-11.893,14.262,14.262,0,0,0-3.123-.385c-4.862.03-9.725.014-14.588.014a44.293,44.293,0,0,1,17.7-15.132c.425-.207,1.033-.228,1.128-.878a44.025,44.025,0,0,1,14.249-3.886,50.558,50.558,0,0,1,25.831,3.555c.272.117.56.191.836.3a6.407,6.407,0,0,1,1.946,1.3,51.107,51.107,0,0,1,12.749,9.488c5.142,5.407,8.681,11.814,11.7,18.556a70.08,70.08,0,0,1,5.209,17.283,41.925,41.925,0,0,1,.858,8.8c-.368-.238-.045-.741-.376-1.019a36.725,36.725,0,0,1-6.456,17.323,34.336,34.336,0,0,1-11.528,10.052,57.444,57.444,0,0,1-20.485,6.462,99.841,99.841,0,0,1-13.582.983c-5.846-.029-10.441-3.26-12.086-8.879a12.086,12.086,0,0,1-.475-3.1c-.06-2.791-.013-5.584-.008-8.377a1.891,1.891,0,0,1,1.323-.332c1.777-.012,3.555-.025,5.332,0,1.555.024,1.8.283,1.824,1.9s.039,3.217,0,4.824c-.027,1.036.377,1.448,1.418,1.413,1.522-.051,3.048-.051,4.57,0,1.031.035,1.453-.354,1.429-1.4-.042-1.861.024-3.725-.023-5.585a2.385,2.385,0,0,1,1.538-2.466,11.885,11.885,0,0,0,6.5-11.79c-.673-5.7-5.467-9.9-10-10.353-.672-.067-1.341-.172-2.015-.24a4.426,4.426,0,0,1-4.114-4.5,4.378,4.378,0,0,1,4.311-4.3c3.383-.1,6.77-.02,10.155-.034,1.715-.007,1.76-.052,1.766-1.8.005-1.439-.018-2.878.007-4.316.016-.909-.351-1.305-1.278-1.288-1.608.029-3.216.02-4.824,0-1.8-.018-2.012-.234-2.031-2.079-.016-1.566-.027-3.132,0-4.7.019-.964-.351-1.387-1.342-1.362-1.565.04-3.133.052-4.7,0-1.085-.039-1.394.457-1.374,1.452.038,1.861-.018,3.724.02,5.586a2.327,2.327,0,0,1-1.472,2.38,11.56,11.56,0,0,0-6.3,7.853C749.825,772.744,749.869,773.338,749.229,773.512Z" transform="translate(-172.266 -154.699)" fill="#6595bf"/>
      <path id="Trazado_133734" data-name="Trazado 133734" d="M829.07,844.79a12.911,12.911,0,0,1,4.061-7.552,10.61,10.61,0,0,1,3.19-2.038,1.176,1.176,0,0,0,.867-1.318c-.042-2.284.01-4.571-.03-6.856-.013-.77.12-1.141,1.02-1.113,2.072.065,4.147.049,6.22.006.741-.015.932.253.919.952-.037,2.073.023,4.148-.031,6.221-.021.8.251,1.006,1.015.989,2.073-.046,4.148.012,6.221-.03.731-.015.941.234.928.944-.039,2.073-.048,4.148,0,6.221.02.789-.23,1.005-1.006,1q-5.586-.053-11.173,0a4.035,4.035,0,0,0-4.094,3.982,4.084,4.084,0,0,0,3.953,4.135c.589.044,1.176.123,1.762.2a12.086,12.086,0,0,1,10.29,9.669c.913,5.777-1.739,11.01-6.815,13.28a1.536,1.536,0,0,0-1.086,1.7c.061,2.2-.009,4.4.035,6.6.016.786-.15,1.128-1.032,1.1q-3.044-.1-6.093,0c-.875.027-1.057-.3-1.038-1.1.048-1.946-.049-3.9.042-5.839.049-1.05-.33-1.261-1.289-1.238-2.283.055-4.569,0-6.854-.009q0-4.035,0-8.07c.475-.493,1.1-.373,1.676-.376,3.341-.013,6.683-.006,10.024-.006a4.374,4.374,0,0,0,2.432-.582,3.685,3.685,0,0,0-1.434-6.777c-.835-.124-1.681-.167-2.516-.308a12.44,12.44,0,0,1-9.505-7.39c-.573-1.181-.439-2.473-.665-3.708Q829.069,846.134,829.07,844.79Z" transform="translate(-252.106 -225.977)" fill="#fefefe"/>
      <path id="Trazado_133735" data-name="Trazado 133735" d="M829.068,910.776a13.877,13.877,0,0,0,2.267,5.833,12.346,12.346,0,0,0,9.73,5.145c2.6.148,4.32,1.884,4.229,4.24-.088,2.282-1.9,3.882-4.44,3.895-3.933.02-7.866.023-11.8.034Q829.062,920.349,829.068,910.776Z" transform="translate(-252.106 -289.275)" fill="#6595bf"/>
      <path id="Trazado_133736" data-name="Trazado 133736" d="M625.974,910.772H573V906h52.974Q625.974,908.385,625.974,910.772Z" transform="translate(-61.119 -285.71)" fill="#b9895a"/>
    </g>
  </g>
</svg>
