<svg xmlns="http://www.w3.org/2000/svg" xmlns:xlink="http://www.w3.org/1999/xlink" width="340" height="260" viewBox="0 0 340 260">
  <defs>
    <radialGradient id="radial-gradient" cx="0.5" cy="0.5" r="0.309" gradientTransform="translate(-0.803 -0.118) scale(3.046 1.235)" gradientUnits="objectBoundingBox">
      <stop offset="0" stop-color="#663310"/>
      <stop offset="1" stop-color="#5b2b10"/>
    </radialGradient>
    <radialGradient id="radial-gradient-2" cx="0.5" cy="0.5" r="0.809" gradientTransform="translate(0.201 -0.118) scale(0.467 1.235)" xlink:href="#radial-gradient"/>
    <radialGradient id="radial-gradient-3" cx="0.5" cy="0.5" r="0.287" gradientTransform="translate(8.804 -0.118) scale(14.586 1.235)" xlink:href="#radial-gradient"/>
    <radialGradient id="radial-gradient-4" cx="0.5" cy="0.5" r="0.29" gradientTransform="translate(7.358 -0.118) scale(7.493 1.235)" xlink:href="#radial-gradient"/>
    <radialGradient id="radial-gradient-5" cx="0.5" cy="0.5" r="0.435" gradientTransform="translate(0.016 -0.118) scale(1.081 1.235)" xlink:href="#radial-gradient"/>
    <linearGradient id="linear-gradient" x1="0.478" y1="-0.021" x2="0.523" y2="1.119" gradientUnits="objectBoundingBox">
      <stop offset="0" stop-color="#f8ae1d"/>
      <stop offset="1" stop-color="#f89a0c"/>
    </linearGradient>
    <linearGradient id="linear-gradient-2" x1="0.522" y1="-0.021" x2="0.477" y2="1.119" xlink:href="#linear-gradient"/>
  </defs>
  <g id="Grupo_69970" data-name="Grupo 69970" transform="translate(-1021 -13238)">
    <rect id="Rect치ngulo_31743" data-name="Rect치ngulo 31743" width="340" height="260" transform="translate(1021 13238)" fill="none"/>
    <g id="Grupo_69966" data-name="Grupo 69966" transform="translate(1073.747 12924.948)">
      <g id="Grupo_69954" data-name="Grupo 69954" transform="translate(-0.723 331.391)">
        <g id="Grupo_69952" data-name="Grupo 69952" transform="translate(0 2.047)">
          <path id="Trazado_140964" data-name="Trazado 140964" d="M71.623,431.627l1.689,105.52c.082,4.663-5.256,11.338-5.256,11.338-5.243,2.609-17.86,3.193-28.341,2.681-7.328-.388-13.579-1.25-15.5-2.328-4.712-2.682-5.2-10.031-5.2-10.031L17.266,430.182l13.193-23.49.549-9.325,2.59-44.715,1.129-19.779,3.662-.176,3.828-.157,6.5-.276,1.116-.041,2.494,20.364,5.9,47.8.537,4.3Z" transform="translate(-17.247 -332.222)" fill="#633415"/>
          <path id="Trazado_140965" data-name="Trazado 140965" d="M72.791,473.154l.021,1.864c.084,4.658-5.246,11.333-5.246,11.333-5.228,2.614-17.86,3.187-28.323,2.671-7.347-.36-13.59-1.234-15.531-2.331-4.692-2.664-5.21-10.012-5.21-10.012l-.185-11.827C35.132,469.368,58.177,473.838,72.791,473.154Z" transform="translate(-16.755 -270.083)" fill="#633415" opacity="0.3" style="mix-blend-mode: multiply;isolation: isolate"/>
          <path id="Trazado_140966" data-name="Trazado 140966" d="M45.9,390.334l-7.476-2.51s-2.479-34.8-4.169-55.309l6.514-.255Z" transform="translate(-9.287 -332.204)" fill="#633415" opacity="0.1" style="mix-blend-mode: multiply;isolation: isolate"/>
          <path id="Trazado_140967" data-name="Trazado 140967" d="M71.623,410.844l1.689,105.52c.082,4.663-5.256,11.338-5.256,11.338-5.243,2.609-17.86,3.193-28.341,2.681-7.328-.388-13.579-1.25-15.5-2.328-4.712-2.682-5.2-10.031-5.2-10.031L17.266,409.4l13.193-23.49.549-9.325c6.633.564,18.791,1.981,27.222,3.018l.537,4.3Z" transform="translate(-17.247 -311.438)" fill="#633415" opacity="0.4" style="mix-blend-mode: multiply;isolation: isolate"/>
          <path id="Trazado_140968" data-name="Trazado 140968" d="M63.291,407.245s-22.47-1.207-36.5.7l.8,75.924,36.381.424Z" transform="translate(-12.786 -297.249)" fill="#e5463b"/>
          <path id="Trazado_140969" data-name="Trazado 140969" d="M37.889,401.143s10.94-.617,16.218,1.059l1.52,94.614L42.46,494.844Z" transform="translate(-7.585 -299.983)" fill="#633415" opacity="0.3" style="mix-blend-mode: screen;isolation: isolate"/>
          <path id="Trazado_140970" data-name="Trazado 140970" d="M38.483,382.778l6.124-.545,7.307,18.283-11.4-.683Z" transform="translate(-7.306 -308.791)" fill="#633415" opacity="0.3" style="mix-blend-mode: screen;isolation: isolate"/>
          <path id="Trazado_140971" data-name="Trazado 140971" d="M47.128,352.595l-18.744.06,1.136-19.8,3.648-.156,3.838-.171,6.515-.257,1.1-.049Z" transform="translate(-12.038 -332.22)" fill="#633415" opacity="0.3" style="mix-blend-mode: multiply;isolation: isolate"/>
          <path id="Trazado_140972" data-name="Trazado 140972" d="M38.9,412.783l-9.688,24.678L39.74,551.006c-7.347-.36-13.59-1.234-15.531-2.331C19.517,546.012,19,538.663,19,538.663L17.253,430.033l13.221-23.5,4.26-73.83,3.648-.156.109.471C38.091,335.241,38.9,412.783,38.9,412.783Z" transform="translate(-17.253 -332.068)" fill="#633415" opacity="0.3" style="mix-blend-mode: multiply;isolation: isolate"/>
        </g>
        <g id="Grupo_69953" data-name="Grupo 69953" transform="translate(16.773)">
          <path id="Trazado_140973" data-name="Trazado 140973" d="M45.059,333.369a2.649,2.649,0,0,1-2.563,2.62l-11.18.173a2.606,2.606,0,0,1-2.642-2.529,2.438,2.438,0,0,1,.612-1.689,2.6,2.6,0,0,1,1.944-.937l11.178-.179A2.594,2.594,0,0,1,45.059,333.369Z" transform="translate(-28.675 -330.828)" fill="#c97c40"/>
          <path id="Trazado_140974" data-name="Trazado 140974" d="M44.46,334.663a2.5,2.5,0,0,1-1.963.969l-11.18.173a2.606,2.606,0,0,1-2.642-2.529,2.438,2.438,0,0,1,.612-1.689C32.578,332.212,40.407,333.82,44.46,334.663Z" transform="translate(-28.675 -330.472)" fill="#c97c40" opacity="0.4" style="mix-blend-mode: multiply;isolation: isolate"/>
        </g>
      </g>
      <g id="Grupo_69958" data-name="Grupo 69958" transform="translate(96.808 338.415)">
        <g id="Grupo_69956" data-name="Grupo 69956" transform="translate(0 0.962)">
          <g id="Grupo_69955" data-name="Grupo 69955">
            <path id="Trazado_140975" data-name="Trazado 140975" d="M92.8,341.433c6.1.366,12.5.421,19.032.354.963,12.891,2.151,28.06,3.172,42.292.339,4.736-.3,10.613,1.056,14.1.96,2.467,6.034,4.265,9.165,7.752,7.268,8.1,6.7,22.313,6.7,39.826,0,27.383-.7,52.668-.7,79.654,0,9.375-.066,17.354-5.992,20.442-5.262,2.742-15.853,1.408-23.614,1.408-13.465,0-26.667,1.564-29.607-9.164-.7-27.987-1.056-60.82-1.056-91.986,0-10.4-1.006-21.64,1.41-29.607,2.505-8.265,9.857-12.756,15.508-17.975,1.74-18.348,2.555-37.622,4.229-56.037A.963.963,0,0,1,92.8,341.433Z" transform="translate(-70.746 -341.433)" fill="#2e6919" fill-rule="evenodd"/>
          </g>
        </g>
        <path id="Trazado_140976" data-name="Trazado 140976" d="M121.029,537.441s-2.286,7.4-7.237,8.883c-3.206.962-11.428.988-16.838.888l7.9-124.548C114.214,415.1,98.05,400.6,98.05,400.6l-5.892-58.958h9.556l4.063,57.566s13.394,6,15.252,19.813C122.555,430.377,121.029,537.441,121.029,537.441Z" transform="translate(-60.713 -340.372)" fill="#68a326" opacity="0.4" style="mix-blend-mode: multiply;isolation: isolate"/>
        <path id="Trazado_140977" data-name="Trazado 140977" d="M73.6,402.188s16.281,6.413,52.3,0c0,0-2.466-21.624-26.148-20.681S73.6,402.188,73.6,402.188Z" transform="translate(-69.407 -321.71)" fill="#68a326" opacity="0.41"/>
        <path id="Trazado_140978" data-name="Trazado 140978" d="M128.939,478.125c-1.116,2.294-3.16,5.491-6.231,6.41-3.206.962-11.428.988-16.838.888-1.347-.023-2.517-.054-3.389-.081-5.063.141-18.7.394-23.307-.808a11.232,11.232,0,0,1-6.047-4.611C81.8,476.58,107.263,468.421,128.939,478.125Z" transform="translate(-69.63 -278.583)" fill="#68a326" opacity="0.4" style="mix-blend-mode: multiply;isolation: isolate"/>
        <path id="Trazado_140979" data-name="Trazado 140979" d="M90.206,401.574,83.691,521.8a23.876,23.876,0,0,1-3.536-.537,11.232,11.232,0,0,1-6.047-4.611,19.516,19.516,0,0,1-2.294-4.272s-1.658-101.107-.14-117.235A33.5,33.5,0,0,0,90.206,401.574Z" transform="translate(-70.611 -315.308)" fill="#68a326" opacity="0.18" style="mix-blend-mode: multiply;isolation: isolate"/>
        <path id="Trazado_140980" data-name="Trazado 140980" d="M84.091,395.707h8.281V346.862H88.231Z" transform="translate(-64.493 -337.928)" fill="#68a326" opacity="0.41"/>
        <path id="Trazado_140981" data-name="Trazado 140981" d="M131.217,447.064c-.2,22.454-.467,40.986-.467,40.986a19.013,19.013,0,0,1-1.006,2.473c-1.116,2.294-3.16,5.491-6.231,6.41-3.206.962-11.428.988-16.838.888-1.347-.023-2.517-.054-3.389-.081-4.094.109-13.773.292-19.771-.27a23.876,23.876,0,0,1-3.536-.537,11.232,11.232,0,0,1-6.047-4.611,19.516,19.516,0,0,1-2.294-4.272s-.1-6.112-.229-15.571C90.037,468.5,116.889,457.3,131.217,447.064Z" transform="translate(-70.435 -290.981)" fill="#68a326" opacity="0.4" style="mix-blend-mode: multiply;isolation: isolate"/>
        <path id="Trazado_140982" data-name="Trazado 140982" d="M86.911,399.91h5.445l.917,112.654H86.911Z" transform="translate(-63.172 -313.074)" fill="#a4c47a" opacity="0.34" style="mix-blend-mode: screen;isolation: isolate"/>
        <path id="Trazado_140983" data-name="Trazado 140983" d="M88.275,383.989s-8.882,6.61-9.128,16.378l11.4,1.385,1.179-17.763Z" transform="translate(-66.809 -320.533)" fill="#a4c47a" opacity="0.47"/>
        <path id="Trazado_140984" data-name="Trazado 140984" d="M105.723,351.613c-6.793-1.2-15.491-2.864-20.625-4.388l.391-5.58h19.533Z" transform="translate(-64.021 -340.372)" fill="#68a326" opacity="0.8" style="mix-blend-mode: multiply;isolation: isolate"/>
        <g id="Grupo_69957" data-name="Grupo 69957" transform="translate(19.596)">
          <path id="Trazado_140985" data-name="Trazado 140985" d="M105.945,344.85c-1.977,2.294-4.2-.172-4.2-.172-4.063,3.413-6.764,1.9-7.733,1.1a3.351,3.351,0,0,1-.408-.392c-4.2,2.5-6.163-.117-6.163-.117-4.2.74-3.3-2.1-3.213-2.383.51-1.614,4.663-2.11,9.1-2.11a67.784,67.784,0,0,1,10.4.793C107.669,342.311,105.945,344.85,105.945,344.85Z" transform="translate(-84.089 -340.778)" fill="#dd2e1f"/>
          <path id="Trazado_140986" data-name="Trazado 140986" d="M103,344.85c-1.977,2.294-4.2-.172-4.2-.172-4.063,3.413-6.764,1.9-7.733,1.1a16.866,16.866,0,0,0-.689-5,67.784,67.784,0,0,1,10.4.793C104.722,342.311,103,344.85,103,344.85Z" transform="translate(-81.143 -340.778)" fill="#a02e28" opacity="0.39" style="mix-blend-mode: multiply;isolation: isolate"/>
        </g>
      </g>
      <g id="Grupo_69960" data-name="Grupo 69960" transform="translate(43.343 364.002)">
        <path id="Trazado_140987" data-name="Trazado 140987" d="M102.037,518.22c-.288,10.263-.529,17.553-.529,17.553s-.107.229-.319.586c-.681,1.2-2.4,3.83-4.514,4.489-1.54.474-10.109.417-17.374.273-2.231-.047-4.335-.1-6.074-.142-5.166.142-13.45.322-18.724.216a26.128,26.128,0,0,1-4.726-.347c-1.934-.586-3.521-2.818-4.309-4.118-.348-.573-.537-.957-.537-.957s-.013-.5-.047-1.43c-.085-2.6-.264-8.556-.477-16.133-.6-20.718-1.445-53.522-1.16-63.13,0-.109.015-.2.025-.31.429-9.573,7.912-14.748,12.7-17.1a26.439,26.439,0,0,1,3.95-1.6V403.956c0-2.817.142-5.56.4-8.212a112.974,112.974,0,0,1,4.831-23.722c.3-.931.49-1.445.49-1.445l-3.19-.189.11-.62.667-3.821,1.994-11.419H81.233l1.877,10.717.9,5.143-1.291.072-1.9.117s.109.3.3.849a113.229,113.229,0,0,1,5.062,24.665c.225,2.543.355,5.181.355,7.865v32.112s.574.167,1.505.527h.012c4.031,1.563,14.81,6.826,15.155,18.484C103.481,464.688,102.634,497.515,102.037,518.22Z" transform="translate(-43.191 -352.675)" fill="#99573a"/>
        <path id="Trazado_140988" data-name="Trazado 140988" d="M83.961,432.31c-5.668,2.577-16.051,5.083-32.067,1.072a26.439,26.439,0,0,1,3.95-1.6V399.671a109.784,109.784,0,0,1,5.226-31.934c.3-.931.49-1.445.49-1.445l-3.19-.189.11-.62a47.57,47.57,0,0,1,9.055-1.72,19.153,19.153,0,0,1,11.1,2.411l-1.9.117s.109.3.3.849a110.143,110.143,0,0,1,5.417,32.531v32.112S83.03,431.951,83.961,432.31Z" transform="translate(-39.113 -348.391)" fill="#99573a" opacity="0.22" style="mix-blend-mode: multiply;isolation: isolate"/>
        <path id="Trazado_140989" data-name="Trazado 140989" d="M96.843,425.975l-4.773,79.754H49.705a40.231,40.231,0,0,1-4.82-3.367c-.3-9.726-2.029-66.148-1.637-79.263,0-.109.015-.2.025-.31C50.062,427.778,61.888,432.656,96.843,425.975Z" transform="translate(-43.191 -320.694)" fill="#a0583f"/>
        <path id="Trazado_140990" data-name="Trazado 140990" d="M90.769,535.773s-2.075,4.226-4.833,5.075c-1.54.474-10.109.417-17.374.273.441-29.463,1.551-102.7,2.029-123.049a224.882,224.882,0,0,0-4.478-48.332l2.684-1.192-2.386-14.021h4.081l2.773,15.86-3.19.189a109.212,109.212,0,0,1,5.717,33.379v32.112s16.24,4.643,16.672,19.011C92.881,469.447,90.769,535.773,90.769,535.773Z" transform="translate(-32.451 -352.675)" fill="#99573a" opacity="0.25" style="mix-blend-mode: multiply;isolation: isolate"/>
        <path id="Trazado_140991" data-name="Trazado 140991" d="M66.711,375.111c-.3,2.388-5.372,37.294-2.385,61.161,0,0-10.744,8.951-9.849,29.535.731,16.815.242,60.074.028,75.388a26.128,26.128,0,0,1-4.726-.347c-2.77-.849-4.846-5.075-4.846-5.075s-2.112-66.326-1.684-80.694,16.674-19.011,16.674-19.011V403.956a109.212,109.212,0,0,1,5.717-33.379l-3.19-.189,2.771-15.86H69C68.31,360.815,66.937,373.333,66.711,375.111Z" transform="translate(-43.191 -352.675)" fill="#99573a" opacity="0.22" style="mix-blend-mode: multiply;isolation: isolate"/>
        <path id="Trazado_140992" data-name="Trazado 140992" d="M74.672,367.157s.109.3.3.849A46.028,46.028,0,0,1,59,368.6c.3-.931.49-1.445.49-1.445l-3.19-.189.777-4.441c3.793.681,10.1.991,19.884-.7l.9,5.143Z" transform="translate(-37.047 -349.256)" fill="#99573a" opacity="0.22" style="mix-blend-mode: multiply;isolation: isolate"/>
        <path id="Trazado_140993" data-name="Trazado 140993" d="M44.377,427.45c3.282,2.983,28.639,7.459,56.686,0,0,0-.351-15.271-26.256-16.468S44.377,427.45,44.377,427.45Z" transform="translate(-42.635 -326.252)" fill="#99573a" opacity="0.25" style="mix-blend-mode: multiply;isolation: isolate"/>
        <path id="Trazado_140994" data-name="Trazado 140994" d="M100.463,479.04c-.681,1.2-2.4,3.83-4.514,4.489-1.54.474-10.109.417-17.374.273-2.231-.047-4.335-.1-6.074-.142-5.166.142-13.45.322-18.724.216a26.128,26.128,0,0,1-4.726-.347c-1.934-.586-3.521-2.818-4.309-4.118C52.165,477.575,72.919,474.934,100.463,479.04Z" transform="translate(-42.464 -295.357)" fill="#99573a" opacity="0.32" style="mix-blend-mode: multiply;isolation: isolate"/>
        <path id="Trazado_140995" data-name="Trazado 140995" d="M61.96,368.138h3.03l.1,47.735H60.767Z" transform="translate(-34.956 -346.298)" fill="#a0583f" opacity="0.39" style="mix-blend-mode: screen;isolation: isolate"/>
        <path id="Trazado_140996" data-name="Trazado 140996" d="M61.46,356.828v7.338h3.205l-1.6-7.338Z" transform="translate(-34.631 -351.597)" fill="#a0583f" opacity="0.39" style="mix-blend-mode: screen;isolation: isolate"/>
        <path id="Trazado_140997" data-name="Trazado 140997" d="M52.705,424.989s7.76,3.282,21.186,0A11.955,11.955,0,0,0,63.3,418.1C55.391,417.829,52.705,424.989,52.705,424.989Z" transform="translate(-38.733 -322.895)" fill="#a0583f" opacity="0.28" style="mix-blend-mode: screen;isolation: isolate"/>
        <path id="Trazado_140998" data-name="Trazado 140998" d="M101.649,466c-.288,10.263-.529,17.553-.529,17.553s-.107.229-.319.586c-.681,1.2-2.4,3.83-4.514,4.489-1.54.474-10.109.417-17.374.273-2.231-.047-4.335-.1-6.074-.142-5.166.142-13.45.322-18.724.216a26.128,26.128,0,0,1-4.726-.347c-1.934-.586-3.521-2.818-4.309-4.118-.348-.573-.537-.957-.537-.957s-.013-.5-.047-1.43c-.085-2.6-.264-8.556-.477-16.133C54.723,468.289,77.587,471.7,101.649,466Z" transform="translate(-42.802 -300.454)" fill="#a0583f" opacity="0.25" style="mix-blend-mode: multiply;isolation: isolate"/>
        <path id="Trazado_140999" data-name="Trazado 140999" d="M56.253,428.527s2.213.728,10.454-.2l2.06,67.048-16.063-.6Z" transform="translate(-38.733 -318.099)" fill="#a0583f" opacity="0.39" style="mix-blend-mode: screen;isolation: isolate"/>
        <g id="Grupo_69959" data-name="Grupo 69959" transform="translate(21.087 0)">
          <path id="Trazado_141000" data-name="Trazado 141000" d="M75.45,354.592c0,.74-.442,1.336-.966,1.336H58.518c-.539,0-.968-.6-.968-1.336s.429-1.326.968-1.326H74.483C75.008,353.266,75.45,353.864,75.45,354.592Z" transform="translate(-57.55 -353.266)" fill="#a0583f"/>
          <path id="Trazado_141001" data-name="Trazado 141001" d="M71.882,354.592c0,.74-.442,1.336-.966,1.336H65.259c0-.858-.023-1.778-.094-2.662h5.751C71.44,353.266,71.882,353.864,71.882,354.592Z" transform="translate(-53.982 -353.266)" fill="#a0583f" opacity="0.35" style="mix-blend-mode: multiply;isolation: isolate"/>
          <path id="Trazado_141002" data-name="Trazado 141002" d="M62.227,355.928H58.518c-.539,0-.968-.6-.968-1.336s.429-1.326.968-1.326h3.53A8.706,8.706,0,0,0,62.227,355.928Z" transform="translate(-57.55 -353.266)" fill="#a0583f" opacity="0.35" style="mix-blend-mode: multiply;isolation: isolate"/>
        </g>
        <rect id="Rect치ngulo_31834" data-name="Rect치ngulo 31834" width="1.602" height="1.332" transform="translate(26.829)" fill="#a0583f" opacity="0.39" style="mix-blend-mode: screen;isolation: isolate"/>
        <path id="Trazado_141003" data-name="Trazado 141003" d="M102.037,505.07c-.288,10.263-.529,17.553-.529,17.553s-.107.229-.319.586c-.681,1.2-2.4,3.83-4.514,4.489-1.54.474-10.109.417-17.374.273-2.231-.047-4.335-.1-6.074-.142-5.166.142-13.45.322-18.724.216a26.128,26.128,0,0,1-4.726-.347c-1.934-.586-3.521-2.818-4.309-4.118-.348-.573-.537-.957-.537-.957s-.013-.5-.047-1.43c-.085-2.6-.264-8.556-.477-16.133-.6-20.718-1.445-53.522-1.16-63.13,0-.109.015-.2.025-.31.429-9.573,7.912-14.748,12.7-17.1a26.439,26.439,0,0,1,3.95-1.6V390.806c0-1.872.059-3.711.189-5.5.05-.918.12-1.817.206-2.711a86.973,86.973,0,0,0,25.861.347c.06.717.116,1.433.166,2.162.119,1.862.189,3.771.189,5.7v32.112s.574.167,1.505.527h.012c4.031,1.563,14.81,6.826,15.155,18.484C103.481,451.538,102.634,484.365,102.037,505.07Z" transform="translate(-43.191 -339.525)" fill="#a0583f" opacity="0.4" style="mix-blend-mode: multiply;isolation: isolate"/>
        <path id="Trazado_141004" data-name="Trazado 141004" d="M80.945,385.1c-6.122,2.517-16.745,5.347-26.232.2.05-.918.12-1.817.206-2.711a86.973,86.973,0,0,0,25.861.347C80.839,383.657,80.9,384.374,80.945,385.1Z" transform="translate(-37.792 -339.525)" fill="#99573a" opacity="0.38" style="mix-blend-mode: multiply;isolation: isolate"/>
      </g>
      <g id="Grupo_69962" data-name="Grupo 69962" transform="translate(150.614 370.426)">
        <path id="Trazado_141005" data-name="Trazado 141005" d="M162.62,427.174V533.446a7.478,7.478,0,0,1-1.483,4.006c-1.364,1.9-4,3.843-9.083,4.383a23.015,23.015,0,0,1-2.915.163h-33.71c-.41,0-.794,0-1.176-.031-10.422-.408-12.024-6.231-12.261-8.015a3.265,3.265,0,0,1-.054-.507V427.174c0-15.39,19.171-20.377,22.759-26.708,2.185-3.875,1.259-43.276,1.259-43.276H138.6s-.424,39.008,1.27,43.276C141.553,404.751,162.62,411.784,162.62,427.174Z" transform="translate(-101.938 -355.147)" fill="url(#radial-gradient)"/>
        <path id="Trazado_141006" data-name="Trazado 141006" d="M162.62,409V509.339a7.478,7.478,0,0,1-1.483,4.006l-59.145-3.5a3.265,3.265,0,0,1-.054-.507v-100.7C110.2,414.27,131.811,422.023,162.62,409Z" transform="translate(-101.938 -331.041)" fill="#6e3316" opacity="0.51"/>
        <path id="Trazado_141007" data-name="Trazado 141007" d="M152.888,427.174V533.446s0,7.279-10.566,8.39c.091-5.1.184-10.776.278-16.762.4-23.962.755-52.743.583-69.213-.332-31.893-14.9-47.43-17.215-51.519-1.811-3.206-2.871-33.923-3.256-47.153h6.159s-.424,39.008,1.27,43.276C131.82,404.751,152.888,411.784,152.888,427.174Z" transform="translate(-92.206 -355.147)" fill="#663310" opacity="0.37" style="mix-blend-mode: multiply;isolation: isolate"/>
        <path id="Trazado_141008" data-name="Trazado 141008" d="M127.1,402.707c-2.651,3.27-17.875,13.493-19.2,31.074-.847,11.269,2.514,58.745,5.033,91.439.488,6.247.938,11.941,1.325,16.748-12.315-.474-12.315-8.522-12.315-8.522V427.174c0-15.39,19.171-20.377,22.759-26.708,2.185-3.875,1.259-43.276,1.259-43.276h1.405C128.007,367.561,129.346,399.925,127.1,402.707Z" transform="translate(-101.938 -355.147)" fill="#663310" opacity="0.14" style="mix-blend-mode: multiply;isolation: isolate"/>
        <path id="Trazado_141009" data-name="Trazado 141009" d="M162.62,473.551v6.575s0,7.279-10.566,8.39a23.027,23.027,0,0,1-2.915.163h-33.71c-.41,0-.794,0-1.176-.031-12.315-.474-12.315-8.522-12.315-8.522V472.9c3.269-.358,7-.7,10.99-1,12.51-.932,27.592-1.388,39.4-.145A65.283,65.283,0,0,1,162.62,473.551Z" transform="translate(-101.938 -301.827)" fill="#663310" opacity="0.25" style="mix-blend-mode: multiply;isolation: isolate"/>
        <path id="Trazado_141010" data-name="Trazado 141010" d="M104.492,408.6s12.359,12.538,52.964,0c0,0-11.371-17.446-26.209-19.083S104.492,408.6,104.492,408.6Z" transform="translate(-100.741 -340.047)" opacity="0.29" fill="url(#radial-gradient-2)" style="mix-blend-mode: screen;isolation: isolate"/>
        <path id="Trazado_141011" data-name="Trazado 141011" d="M115.01,408.789h7.214V514h-3.605Z" transform="translate(-95.814 -330.972)" opacity="0.38" fill="url(#radial-gradient-3)" style="mix-blend-mode: screen;isolation: isolate"/>
        <path id="Trazado_141012" data-name="Trazado 141012" d="M123.9,396.264l-1.437-32.3H119.59l.488,32.3Z" transform="translate(-93.668 -351.975)" opacity="0.21" fill="url(#radial-gradient-4)" style="mix-blend-mode: screen;isolation: isolate"/>
        <path id="Trazado_141013" data-name="Trazado 141013" d="M118.8,395.9c-4.815.069-6.917,12.509,1.689,12.374C128.876,408.141,127.374,395.776,118.8,395.9Z" transform="translate(-95.999 -337.012)" opacity="0.51" fill="url(#radial-gradient-5)" style="mix-blend-mode: screen;isolation: isolate"/>
        <g id="Grupo_69961" data-name="Grupo 69961" transform="translate(23.275)">
          <path id="Trazado_141014" data-name="Trazado 141014" d="M131.81,357.433a1.507,1.507,0,0,1-1.325,1.634H119.113a1.67,1.67,0,0,1,0-3.269h11.372A1.5,1.5,0,0,1,131.81,357.433Z" transform="translate(-117.787 -355.799)" fill="#6e3316"/>
          <path id="Trazado_141015" data-name="Trazado 141015" d="M129.38,357.433a1.507,1.507,0,0,1-1.325,1.634h-5.083c.2-1,.411-2.143.637-3.269h4.445A1.5,1.5,0,0,1,129.38,357.433Z" transform="translate(-115.357 -355.799)" fill="#6e3316" opacity="0.46" style="mix-blend-mode: multiply;isolation: isolate"/>
        </g>
      </g>
      <g id="Grupo_69965" data-name="Grupo 69965" transform="translate(121.107 458.278)">
        <g id="Grupo_69964" data-name="Grupo 69964" transform="translate(62.115 24.619)">
          <g id="Grupo_69963" data-name="Grupo 69963">
            <path id="Trazado_141016" data-name="Trazado 141016" d="M124.252,465.543a16.808,16.808,0,0,1-.487,2.143c-3.625,12.132-27.07,18.558-27.07,18.558v-8.361s9.473-2.724,15.852-7.362c3.121-2.273,5.5-5.008,5.657-8.108.446-8.652-4.2-26.673-4.972-29.578-.067-.261-.1-.4-.1-.4l-16.432.243-.112-6.411-.011-.613s20.669-.478,21.393.007a27.049,27.049,0,0,1,1.714,5.044C122.077,439.083,125.881,455.88,124.252,465.543Z" transform="translate(-96.571 -425.445)" fill="#c5d4e5"/>
            <path id="Trazado_141017" data-name="Trazado 141017" d="M117.689,457.4c-.478,6.773-5.187,10.316-8.32,11.94,3.121-2.273,5.5-5.008,5.657-8.108.487-9.428-5.077-29.978-5.077-29.978l1.7-1.074S118.413,447.157,117.689,457.4Z" transform="translate(-93.393 -424.268)" fill="#8596b1"/>
            <path id="Trazado_141018" data-name="Trazado 141018" d="M124.227,457.567a16.811,16.811,0,0,1-.487,2.143c-3.625,12.132-27.07,18.558-27.07,18.558v-3.324c6.889-2.586,17.6-7.018,22.477-11.238A25.847,25.847,0,0,0,124.227,457.567Z" transform="translate(-96.546 -417.469)" fill="#8596b1" opacity="0.24" style="mix-blend-mode: multiply;isolation: isolate"/>
            <path id="Trazado_141019" data-name="Trazado 141019" d="M114.8,430.4l-1.694,1.073-16.433.243v-2.4Z" transform="translate(-96.546 -424.482)" fill="#8596b1" opacity="0.24" style="mix-blend-mode: multiply;isolation: isolate"/>
            <path id="Trazado_141020" data-name="Trazado 141020" d="M119.678,430.707a24.265,24.265,0,0,0-2.93-2.248c-3.272-2.075-15.727-2.212-20.166-2.191l-.011-.613s20.669-.478,21.393.007A27.049,27.049,0,0,1,119.678,430.707Z" transform="translate(-96.571 -425.445)" fill="#c5d4e5" opacity="0.36" style="mix-blend-mode: screen;isolation: isolate"/>
          </g>
          <path id="Trazado_141021" data-name="Trazado 141021" d="M98,473.232s12.553-2.995,18.376-8.991,5.584-8.823,5.584-8.823A27.04,27.04,0,0,1,111.2,466.1,84.923,84.923,0,0,1,98,471.743Z" transform="translate(-96.216 -418.003)" fill="#c5d4e5" opacity="0.46" style="mix-blend-mode: screen;isolation: isolate"/>
        </g>
        <path id="Trazado_141022" data-name="Trazado 141022" d="M107.6,483.349q-.017,1.975-.044,3.725c-.056,3.672-.144,6.512-.282,8.119a8.3,8.3,0,0,1-.174,1.279,5.916,5.916,0,0,1-5.078,4.468s-.222.007-.634.017c-4.486.121-31.5.806-40.482.287a14.027,14.027,0,0,1-2.638-.3,7.378,7.378,0,0,1-4.594-4.913V418.95H107.1s.139,8.626.278,20.132C107.545,453.021,107.7,471.187,107.6,483.349Z" transform="translate(-45.107 -402.438)" fill="#c5d4e5"/>
        <path id="Trazado_141023" data-name="Trazado 141023" d="M107.376,439.082q-1.013.109-2.077.2c-13.669,1.233-33.082.583-43.784.065-4.8-.232-7.843-.438-7.843-.438V418.95H107.1S107.236,427.576,107.376,439.082Z" transform="translate(-45.107 -402.438)" fill="#efecc7"/>
        <path id="Trazado_141024" data-name="Trazado 141024" d="M98.106,470.54q-.017,1.975-.044,3.725c-.056,3.672-.144,6.512-.282,8.119a8.3,8.3,0,0,1-.174,1.279,5.916,5.916,0,0,1-5.078,4.468s-.222.007-.634.017c.56-4.333,1.317-10.635,1.6-15.472C93.5,472.676,95.691,471.737,98.106,470.54Z" transform="translate(-35.617 -389.629)" fill="#c5d4e5" opacity="0.56" style="mix-blend-mode: multiply;isolation: isolate"/>
        <path id="Trazado_141025" data-name="Trazado 141025" d="M60.9,501.244a14.027,14.027,0,0,1-2.638-.3,7.378,7.378,0,0,1-4.594-4.913V418.95h5.215Z" transform="translate(-45.107 -402.438)" fill="#c5d4e5" opacity="0.56" style="mix-blend-mode: multiply;isolation: isolate"/>
        <path id="Trazado_141026" data-name="Trazado 141026" d="M107.563,482.382c0,.242-.007.484-.01.721-.473.094-1.052.206-1.726.33a159.059,159.059,0,0,1-25.173,2.618c-2.165.035-4.359-.006-6.531-.109a170.724,170.724,0,0,1-20.451-2.328V434.941c2.673.13,7.173.333,12.641.508,11.306.363,26.753.6,38.719-.171.8-.051,1.577-.1,2.343-.166C107.56,450.25,107.734,470.372,107.563,482.382Z" transform="translate(-45.107 -398.467)" fill="url(#linear-gradient)"/>
        <path id="Trazado_141027" data-name="Trazado 141027" d="M74.123,485.942c-3.789-.177-7.5-.522-10.859-.929-3.8-.448-7.134-.975-9.592-1.4V434.941c1.409.069,3.325.16,5.627.251,2.06.086,4.428.174,7.014.257Z" transform="translate(-45.107 -398.467)" fill="#e38808" opacity="0.46"/>
        <path id="Trazado_141028" data-name="Trazado 141028" d="M107.271,480.145a8.3,8.3,0,0,1-.174,1.28,5.916,5.916,0,0,1-5.078,4.468s-31.312.87-41.116.3a14.029,14.029,0,0,1-2.638-.3,7.378,7.378,0,0,1-4.594-4.913v-1.422c4.345,1.965,12.518,4.264,26.982,4.245C95.244,483.789,103.173,481.814,107.271,480.145Z" transform="translate(-45.107 -387.39)" fill="#c5d4e5" opacity="0.56" style="mix-blend-mode: multiply;isolation: isolate"/>
        <path id="Trazado_141029" data-name="Trazado 141029" d="M85.239,429.32v62.71l9.913-2.75V429.744Z" transform="translate(-37.269 -399.863)" fill="#efecc7" opacity="0.25" style="mix-blend-mode: screen;isolation: isolate"/>
        <path id="Trazado_141030" data-name="Trazado 141030" d="M97.337,483.07c-.473.094-1.052.206-1.726.33-.154-11.024-.555-39.336-.794-48.155.8-.051,1.577-.1,2.343-.166C97.347,450.526,97.526,471.157,97.337,483.07Z" transform="translate(-34.891 -398.433)" fill="#e38808" opacity="0.33"/>
        <path id="Trazado_141031" data-name="Trazado 141031" d="M60.753,444.079a2.347,2.347,0,1,1-2.348-2.347A2.348,2.348,0,0,1,60.753,444.079Z" transform="translate(-44.514 -396.781)" fill="#f8ae1d" opacity="0.24" style="mix-blend-mode: screen;isolation: isolate"/>
        <path id="Trazado_141032" data-name="Trazado 141032" d="M97.85,439.082q-1.013.109-2.077.2L92.037,418.95h5.535S97.71,427.576,97.85,439.082Z" transform="translate(-35.581 -402.438)" fill="#efecc7" opacity="0.43" style="mix-blend-mode: multiply;isolation: isolate"/>
        <path id="Trazado_141033" data-name="Trazado 141033" d="M65.875,418.95c-1.578,6.545-3.422,14.641-4.36,20.4-4.8-.232-7.843-.438-7.843-.438V418.95Z" transform="translate(-45.107 -402.438)" fill="#efecc7" opacity="0.43" style="mix-blend-mode: multiply;isolation: isolate"/>
        <path id="Trazado_141034" data-name="Trazado 141034" d="M108.875,427.068c-4.038-2.18-4.908,2.9-7.085,8.111s-6.527-3.278-7.733-6.662-7.015.483-7.254,4.239-.243,6.158-2.417,4.82-2.42-8.576-3.871-7.234,1.936,10.5-1.711,12.625-2.153-9.13-1.914-13.866-2.414-4.692-2.414-4.692c-8.221,7.492-14.747-.486-14.747-.486l-4.353,4.112c-3.661,2.967-10.6-.492-7.994-7.462,1-2.687,3.423-5.9,7.994-9.461,16.437-12.811,46.9.483,51.975,6.284a17.681,17.681,0,0,1,1.529,2.016C112.022,424.272,110.515,427.951,108.875,427.068Z" transform="translate(-46.81 -405.722)" fill="#f7f5d7"/>
        <path id="Trazado_141035" data-name="Trazado 141035" d="M108.875,424.457c-4.038-2.18-4.908,2.9-7.085,8.111s-6.527-3.278-7.733-6.662-7.015.483-7.254,4.239-.243,6.158-2.417,4.82-2.42-8.576-3.871-7.234,1.936,10.5-1.711,12.625-2.153-9.13-1.914-13.866-2.414-4.692-2.414-4.692c-8.221,7.492-14.747-.486-14.747-.486l-4.353,4.112c-3.661,2.967-10.6-.492-7.994-7.462.437,2.231,1.409,3.651,4.369,3.906,4.832.413,8.457-4.508,8.457-4.508s0,6.509,7.495,4.508,9.187-5.632,9.187-5.632-.127,6.288,1.872,7.738,3.6-2.106,3.6-2.106-.63,3.8,1.785,3.556,5.8-4.836,5.8-4.836,2.175,4.836,8.7,3.385c3.719-.826,7.592-4.319,10.233-7.173C112.022,421.661,110.515,425.341,108.875,424.457Z" transform="translate(-46.81 -403.112)" fill="#e2dfc5" style="mix-blend-mode: multiply;isolation: isolate"/>
        <path id="Trazado_141036" data-name="Trazado 141036" d="M54.758,414.215c.491-.1,2.258-3.878,6.044-2.438s2.387,6.143,2.387,6.143a6.759,6.759,0,0,0-2.816-4.717C57.866,411.668,54.758,414.215,54.758,414.215Z" transform="translate(-44.837 -404.3)" fill="#e2dfc5" opacity="0.47" style="mix-blend-mode: multiply;isolation: isolate"/>
        <path id="Trazado_141037" data-name="Trazado 141037" d="M79.43,418.614s.241-4.351,1.934-4.109,2.658,4.109,2.658,4.109.967-4.612,5.319-4.119,4.108,6.053,4.108,6.053a6.644,6.644,0,0,0-4.832-3.87c-3.447-.468-4.595,3.87-4.595,3.87s-.532-3.825-2.417-3.87A2.224,2.224,0,0,0,79.43,418.614Z" transform="translate(-38.712 -403.553)" fill="#e2dfc5" opacity="0.29" style="mix-blend-mode: multiply;isolation: isolate"/>
        <path id="Trazado_141038" data-name="Trazado 141038" d="M76.375,440.651a2.266,2.266,0,1,0-.678,4.473C78.877,445.849,79.035,441.26,76.375,440.651Z" transform="translate(-40.153 -397.065)" fill="#f8ae1d" opacity="0.2" style="mix-blend-mode: screen;isolation: isolate"/>
        <path id="Trazado_141039" data-name="Trazado 141039" d="M66.172,461.189a2.154,2.154,0,1,1-2.156-2.153A2.155,2.155,0,0,1,66.172,461.189Z" transform="translate(-43.073 -392.485)" fill="#f8ae1d"/>
        <path id="Trazado_141040" data-name="Trazado 141040" d="M86.816,469.042a2.743,2.743,0,1,1-2.742-2.744A2.743,2.743,0,0,1,86.816,469.042Z" transform="translate(-38.24 -390.682)" fill="#f8ae1d" opacity="0.24" style="mix-blend-mode: screen;isolation: isolate"/>
        <path id="Trazado_141041" data-name="Trazado 141041" d="M85.639,452.341a2.155,2.155,0,1,1-2.156-2.153A2.155,2.155,0,0,1,85.639,452.341Z" transform="translate(-38.24 -394.682)" fill="#f8ae1d"/>
        <path id="Trazado_141042" data-name="Trazado 141042" d="M107.563,472.946c0,.242-.007.484-.01.721-.473.094-1.052.206-1.726.33a159.059,159.059,0,0,1-25.173,2.618c-2.165.035-4.359-.006-6.531-.109a170.724,170.724,0,0,1-20.451-2.328v-1.095c5.9,1.123,15.048,2.256,29.521,1.367C94.159,473.776,103.069,473.219,107.563,472.946Z" transform="translate(-45.107 -389.031)" fill="#f8ae1d" opacity="0.55" style="mix-blend-mode: multiply;isolation: isolate"/>
        <path id="Trazado_141043" data-name="Trazado 141043" d="M87.08,436.625H92.4L90.586,481.1H88.046Z" transform="translate(-36.812 -398.049)" fill="#ffefd2" opacity="0.37" style="mix-blend-mode: screen;isolation: isolate"/>
        <path id="Trazado_141044" data-name="Trazado 141044" d="M63.264,485.013c-3.8-.448-7.134-.975-9.592-1.4V434.941c1.409.069,3.325.16,5.627.251Z" transform="translate(-45.107 -398.467)" fill="#e38808" opacity="0.38" style="mix-blend-mode: multiply;isolation: isolate"/>
        <path id="Trazado_141045" data-name="Trazado 141045" d="M56.7,475.983s25.283,5.454,44.274-.929l-.87,6.841s-17.858,5.056-44.041-1.22Z" transform="translate(-44.514 -388.508)" fill="#c5d4e5" opacity="0.37" style="mix-blend-mode: multiply;isolation: isolate"/>
      </g>
      <g id="Grupo_69967" data-name="Grupo 69967" transform="translate(-28.234 458.278)">
        <g id="Grupo_69964-2" data-name="Grupo 69964" transform="translate(0 24.619)">
          <g id="Grupo_69963-2" data-name="Grupo 69963">
            <path id="Trazado_141016-2" data-name="Trazado 141016" d="M96.964,465.543a16.808,16.808,0,0,0,.487,2.143c3.625,12.132,27.07,18.558,27.07,18.558v-8.361s-9.473-2.724-15.852-7.362c-3.121-2.273-5.5-5.008-5.657-8.108-.446-8.652,4.2-26.673,4.972-29.578.067-.261.1-.4.1-.4l16.432.243.112-6.411.011-.613s-20.669-.478-21.393.007a27.049,27.049,0,0,0-1.714,5.044C99.139,439.083,95.335,455.88,96.964,465.543Z" transform="translate(-96.571 -425.445)" fill="#c5d4e5"/>
            <path id="Trazado_141017-2" data-name="Trazado 141017" d="M109.423,457.4c.478,6.773,5.187,10.316,8.32,11.94-3.121-2.273-5.5-5.008-5.657-8.108-.487-9.428,5.077-29.978,5.077-29.978l-1.7-1.074S108.7,447.157,109.423,457.4Z" transform="translate(-105.644 -424.268)" fill="#8596b1"/>
            <path id="Trazado_141018-2" data-name="Trazado 141018" d="M96.67,457.567a16.811,16.811,0,0,0,.487,2.143c3.625,12.132,27.07,18.558,27.07,18.558v-3.324c-6.889-2.586-17.6-7.018-22.477-11.238A25.847,25.847,0,0,1,96.67,457.567Z" transform="translate(-96.277 -417.469)" fill="#8596b1" opacity="0.24" style="mix-blend-mode: multiply;isolation: isolate"/>
            <path id="Trazado_141019-2" data-name="Trazado 141019" d="M96.67,430.4l1.694,1.073,16.433.243v-2.4Z" transform="translate(-86.847 -424.482)" fill="#8596b1" opacity="0.24" style="mix-blend-mode: multiply;isolation: isolate"/>
            <path id="Trazado_141020-2" data-name="Trazado 141020" d="M96.571,430.707a24.265,24.265,0,0,1,2.93-2.248c3.272-2.075,15.727-2.212,20.166-2.191l.011-.613s-20.669-.478-21.393.007A27.049,27.049,0,0,0,96.571,430.707Z" transform="translate(-91.604 -425.445)" fill="#c5d4e5" opacity="0.36" style="mix-blend-mode: screen;isolation: isolate"/>
          </g>
          <path id="Trazado_141021-2" data-name="Trazado 141021" d="M121.963,473.232s-12.553-2.995-18.376-8.991S98,455.418,98,455.418a27.04,27.04,0,0,0,10.76,10.682,84.922,84.922,0,0,0,13.2,5.644Z" transform="translate(-95.675 -418.003)" fill="#c5d4e5" opacity="0.46" style="mix-blend-mode: screen;isolation: isolate"/>
        </g>
        <path id="Trazado_141022-2" data-name="Trazado 141022" d="M53.707,483.349q.017,1.975.044,3.725c.056,3.672.144,6.512.282,8.119a8.3,8.3,0,0,0,.174,1.279,5.916,5.916,0,0,0,5.078,4.468s.222.007.634.017c4.486.121,31.5.806,40.482.287a14.026,14.026,0,0,0,2.638-.3,7.378,7.378,0,0,0,4.594-4.913V418.95H54.206s-.139,8.626-.278,20.132C53.758,453.021,53.6,471.187,53.707,483.349Z" transform="translate(-26.008 -402.438)" fill="#c5d4e5"/>
        <path id="Trazado_141023-2" data-name="Trazado 141023" d="M53.672,439.082q1.013.109,2.077.2c13.669,1.233,33.082.583,43.784.065,4.8-.232,7.843-.438,7.843-.438V418.95H53.95S53.812,427.576,53.672,439.082Z" transform="translate(-25.752 -402.438)" fill="#efecc7"/>
        <path id="Trazado_141024-2" data-name="Trazado 141024" d="M91.895,470.54q.017,1.975.044,3.725c.056,3.672.144,6.512.282,8.119a8.3,8.3,0,0,0,.174,1.279,5.916,5.916,0,0,0,5.078,4.468s.222.007.634.017c-.56-4.333-1.317-10.635-1.6-15.472C96.5,472.676,94.31,471.737,91.895,470.54Z" transform="translate(-64.196 -389.629)" fill="#c5d4e5" opacity="0.56" style="mix-blend-mode: multiply;isolation: isolate"/>
        <path id="Trazado_141025-2" data-name="Trazado 141025" d="M53.672,501.244a14.027,14.027,0,0,0,2.638-.3,7.378,7.378,0,0,0,4.594-4.913V418.95H55.688Z" transform="translate(20.721 -402.438)" fill="#c5d4e5" opacity="0.56" style="mix-blend-mode: multiply;isolation: isolate"/>
        <path id="Trazado_141026-2" data-name="Trazado 141026" d="M53.742,482.382c0,.242.007.484.01.721.473.094,1.052.206,1.726.33a159.059,159.059,0,0,0,25.173,2.618c2.165.035,4.359-.006,6.531-.109a170.724,170.724,0,0,0,20.451-2.328V434.941c-2.673.13-7.173.333-12.641.508-11.306.363-26.753.6-38.719-.171-.8-.051-1.577-.1-2.343-.166C53.744,450.25,53.571,470.372,53.742,482.382Z" transform="translate(-26.009 -398.467)" fill="url(#linear-gradient-2)"/>
        <path id="Trazado_141027-2" data-name="Trazado 141027" d="M53.672,485.942c3.789-.177,7.5-.522,10.859-.929,3.8-.448,7.134-.975,9.592-1.4V434.941c-1.409.069-3.325.16-5.627.251-2.06.086-4.428.174-7.014.257Z" transform="translate(7.501 -398.467)" fill="#e38808" opacity="0.46"/>
        <path id="Trazado_141028-2" data-name="Trazado 141028" d="M53.672,480.145a8.3,8.3,0,0,0,.174,1.28,5.916,5.916,0,0,0,5.078,4.468s31.312.87,41.116.3a14.029,14.029,0,0,0,2.638-.3,7.378,7.378,0,0,0,4.594-4.913v-1.422c-4.345,1.965-12.518,4.264-26.982,4.245C65.7,483.789,57.77,481.814,53.672,480.145Z" transform="translate(-25.647 -387.39)" fill="#c5d4e5" opacity="0.56" style="mix-blend-mode: multiply;isolation: isolate"/>
        <path id="Trazado_141029-2" data-name="Trazado 141029" d="M95.152,429.32v62.71l-9.913-2.75V429.744Z" transform="translate(-52.932 -399.863)" fill="#efecc7" opacity="0.25" style="mix-blend-mode: screen;isolation: isolate"/>
        <path id="Trazado_141030-2" data-name="Trazado 141030" d="M94.9,483.07c.473.094,1.052.206,1.726.33.154-11.024.555-39.336.794-48.155-.8-.051-1.577-.1-2.343-.166C94.887,450.526,94.709,471.157,94.9,483.07Z" transform="translate(-67.154 -398.433)" fill="#e38808" opacity="0.33"/>
        <path id="Trazado_141031-2" data-name="Trazado 141031" d="M56.059,444.079a2.347,2.347,0,1,0,2.348-2.347A2.348,2.348,0,0,0,56.059,444.079Z" transform="translate(17.892 -396.781)" fill="#f8ae1d" opacity="0.24" style="mix-blend-mode: screen;isolation: isolate"/>
        <path id="Trazado_141032-2" data-name="Trazado 141032" d="M92.037,439.082q1.013.109,2.077.2L97.85,418.95H92.315S92.177,427.576,92.037,439.082Z" transform="translate(-64.117 -402.438)" fill="#efecc7" opacity="0.43" style="mix-blend-mode: multiply;isolation: isolate"/>
        <path id="Trazado_141033-2" data-name="Trazado 141033" d="M53.672,418.95c1.578,6.545,3.422,14.641,4.36,20.4,4.8-.232,7.843-.438,7.843-.438V418.95Z" transform="translate(15.749 -402.438)" fill="#efecc7" opacity="0.43" style="mix-blend-mode: multiply;isolation: isolate"/>
        <path id="Trazado_141034-2" data-name="Trazado 141034" d="M48.649,427.068c4.038-2.18,4.908,2.9,7.085,8.111s6.527-3.278,7.733-6.662,7.015.483,7.254,4.239.243,6.158,2.417,4.82,2.42-8.576,3.871-7.234-1.936,10.5,1.711,12.625,2.153-9.13,1.914-13.866,2.414-4.692,2.414-4.692c8.221,7.492,14.747-.486,14.747-.486l4.353,4.112c3.661,2.967,10.6-.492,7.994-7.462-1-2.687-3.423-5.9-7.994-9.461-16.437-12.811-46.9.483-51.975,6.284a17.681,17.681,0,0,0-1.529,2.016C45.5,424.272,47.009,427.951,48.649,427.068Z" transform="translate(-20.524 -405.722)" fill="#f7f5d7"/>
        <path id="Trazado_141035-2" data-name="Trazado 141035" d="M48.649,424.457c4.038-2.18,4.908,2.9,7.085,8.111s6.527-3.278,7.733-6.662,7.015.483,7.254,4.239.243,6.158,2.417,4.82,2.42-8.576,3.871-7.234-1.936,10.5,1.711,12.625,2.153-9.13,1.914-13.866,2.414-4.692,2.414-4.692c8.221,7.492,14.747-.486,14.747-.486l4.353,4.112c3.661,2.967,10.6-.492,7.994-7.462-.437,2.231-1.409,3.651-4.369,3.906-4.832.413-8.457-4.508-8.457-4.508s0,6.509-7.495,4.508-9.187-5.632-9.187-5.632.127,6.288-1.872,7.738-3.6-2.106-3.6-2.106.63,3.8-1.785,3.556-5.8-4.836-5.8-4.836-2.175,4.836-8.7,3.385c-3.719-.826-7.592-4.319-10.233-7.173C45.5,421.661,47.009,425.341,48.649,424.457Z" transform="translate(-20.524 -403.112)" fill="#e2dfc5" style="mix-blend-mode: multiply;isolation: isolate"/>
        <path id="Trazado_141036-2" data-name="Trazado 141036" d="M63.442,414.215c-.491-.1-2.258-3.878-6.044-2.438s-2.387,6.143-2.387,6.143a6.759,6.759,0,0,1,2.816-4.717C60.333,411.668,63.442,414.215,63.442,414.215Z" transform="translate(16.827 -404.3)" fill="#e2dfc5" opacity="0.47" style="mix-blend-mode: multiply;isolation: isolate"/>
        <path id="Trazado_141037-2" data-name="Trazado 141037" d="M93.451,418.614s-.241-4.351-1.934-4.109-2.658,4.109-2.658,4.109-.967-4.612-5.319-4.119-4.108,6.053-4.108,6.053a6.644,6.644,0,0,1,4.832-3.87c3.447-.468,4.595,3.87,4.595,3.87s.532-3.825,2.417-3.87A2.224,2.224,0,0,1,93.451,418.614Z" transform="translate(-43.98 -403.553)" fill="#e2dfc5" opacity="0.29" style="mix-blend-mode: multiply;isolation: isolate"/>
        <path id="Trazado_141038-2" data-name="Trazado 141038" d="M75.486,440.651a2.266,2.266,0,1,1,.678,4.473C72.985,445.849,72.826,441.26,75.486,440.651Z" transform="translate(-21.519 -397.065)" fill="#f8ae1d" opacity="0.2" style="mix-blend-mode: screen;isolation: isolate"/>
        <path id="Trazado_141039-2" data-name="Trazado 141039" d="M61.864,461.189a2.154,2.154,0,1,0,2.156-2.153A2.155,2.155,0,0,0,61.864,461.189Z" transform="translate(5.226 -392.485)" fill="#f8ae1d"/>
        <path id="Trazado_141040-2" data-name="Trazado 141040" d="M81.33,469.042a2.743,2.743,0,1,0,2.742-2.744A2.743,2.743,0,0,0,81.33,469.042Z" transform="translate(-39.717 -390.682)" fill="#f8ae1d" opacity="0.24" style="mix-blend-mode: screen;isolation: isolate"/>
        <path id="Trazado_141041-2" data-name="Trazado 141041" d="M81.33,452.341a2.155,2.155,0,1,0,2.156-2.153A2.155,2.155,0,0,0,81.33,452.341Z" transform="translate(-38.54 -394.682)" fill="#f8ae1d"/>
        <path id="Trazado_141042-2" data-name="Trazado 141042" d="M53.672,472.946c0,.242.007.484.01.721.473.094,1.052.206,1.726.33a159.059,159.059,0,0,0,25.173,2.618c2.165.035,4.359-.006,6.531-.109a170.724,170.724,0,0,0,20.451-2.328v-1.095c-5.9,1.123-15.048,2.256-29.521,1.367C67.076,473.776,58.166,473.219,53.672,472.946Z" transform="translate(-25.939 -389.031)" fill="#f8ae1d" opacity="0.55" style="mix-blend-mode: multiply;isolation: isolate"/>
        <path id="Trazado_141043-2" data-name="Trazado 141043" d="M92.4,436.625H87.08L88.892,481.1h2.541Z" transform="translate(-52.477 -398.049)" fill="#ffefd2" opacity="0.37" style="mix-blend-mode: screen;isolation: isolate"/>
        <path id="Trazado_141044-2" data-name="Trazado 141044" d="M53.672,485.013c3.8-.448,7.134-.975,9.592-1.4V434.941c-1.409.069-3.325.16-5.627.251Z" transform="translate(18.36 -398.467)" fill="#e38808" opacity="0.38" style="mix-blend-mode: multiply;isolation: isolate"/>
        <path id="Trazado_141045-2" data-name="Trazado 141045" d="M100.333,475.983s-25.283,5.454-44.274-.929l.87,6.841s17.858,5.056,44.041-1.22Z" transform="translate(-22.325 -388.508)" fill="#c5d4e5" opacity="0.37" style="mix-blend-mode: multiply;isolation: isolate"/>
      </g>
      <g id="Grupo_69968" data-name="Grupo 69968" transform="translate(-323.123 566.169) rotate(-40)">
        <g id="Grupo_64031" data-name="Grupo 64031" transform="translate(342.209 26.174)">
          <g id="Grupo_64012" data-name="Grupo 64012" transform="translate(0 0)">
            <g id="Grupo_64002" data-name="Grupo 64002" transform="translate(0)">
              <g id="Grupo_64001" data-name="Grupo 64001">
                <g id="Grupo_64000" data-name="Grupo 64000">
                  <g id="Grupo_63999" data-name="Grupo 63999">
                    <g id="Grupo_63988" data-name="Grupo 63988">
                      <g id="Grupo_63987" data-name="Grupo 63987">
                        <circle id="Elipse_4339" data-name="Elipse 4339" cx="17.75" cy="17.75" r="17.75" transform="matrix(0.252, -0.968, 0.968, 0.252, 0, 34.352)" fill="#a66d58"/>
                      </g>
                    </g>
                    <g id="Grupo_63990" data-name="Grupo 63990" transform="translate(4.471 3.899)" opacity="0.1">
                      <g id="Grupo_63989" data-name="Grupo 63989">
                        <path id="Trazado_133055" data-name="Trazado 133055" d="M374.386,35.938A17.749,17.749,0,0,0,352.75,48.665s11.934,3.67,16.1-.439S374.386,35.938,374.386,35.938Z" transform="translate(-352.75 -35.366)" fill="#fff"/>
                      </g>
                    </g>
                    <g id="Grupo_63992" data-name="Grupo 63992" transform="translate(7.955 7.813)">
                      <g id="Grupo_63991" data-name="Grupo 63991">
                        <path id="Trazado_133056" data-name="Trazado 133056" d="M387.52,61.477a13.494,13.494,0,1,1-9.675-16.448A13.493,13.493,0,0,1,387.52,61.477Z" transform="translate(-360.961 -44.593)" fill="#8b5946"/>
                      </g>
                    </g>
                    <g id="Grupo_63996" data-name="Grupo 63996" transform="translate(8.539 8.68)">
                      <g id="Grupo_63995" data-name="Grupo 63995">
                        <path id="Trazado_133058" data-name="Trazado 133058" d="M388.541,63.293A13.312,13.312,0,1,1,379,47.066,13.312,13.312,0,0,1,388.541,63.293Z" transform="translate(-362.339 -46.637)" fill="#d9a171"/>
                      </g>
                    </g>
                  </g>
                </g>
              </g>
            </g>
            <g id="Grupo_64011" data-name="Grupo 64011" transform="translate(15.502 13.194)">
              <g id="Grupo_64005" data-name="Grupo 64005" transform="translate(0.439 0.339)">
                <g id="Grupo_64004" data-name="Grupo 64004">
                  <g id="Grupo_64003" data-name="Grupo 64003">
                    <path id="Trazado_133060" data-name="Trazado 133060" d="M386.5,65.556l.855-3.3.016,0a6.974,6.974,0,0,1,1.634.911,5.72,5.72,0,0,1,.687.73l.07-.09.817-1.055.188-.242-.427-.77-.316.054a6.365,6.365,0,0,0-2.209-1.309l.47-1.813-.447-.6-.118.455-.775-.2-.479,1.846c-2.612-.416-4.2.725-4.629,2.391-.589,2.27,1.2,3.362,2.9,4.273l-.847,3.267a6.478,6.478,0,0,1-2.945-2.088l-1.163,1.459a7.387,7.387,0,0,0,3.65,2.393l-.355,1.369-.641-.154.525.6,1.34.347.474-1.83c2.632.4,4.23-.716,4.662-2.382C390.031,67.551,388.2,66.467,386.5,65.556Zm-1.251-.69c-.876-.523-1.485-1.065-1.281-1.849.186-.719.829-1.18,2.035-1.058Zm2.106-2.609h0Zm-2.118,8.167.75-2.891c.908.532,1.529,1.094,1.322,1.894C387.131,70.129,386.481,70.553,385.242,70.424Z" transform="translate(-379.786 -58.078)" fill="#885947"/>
                  </g>
                </g>
              </g>
              <g id="Grupo_64010" data-name="Grupo 64010">
                <g id="Grupo_64009" data-name="Grupo 64009">
                  <path id="Trazado_133062" data-name="Trazado 133062" d="M383.747,71.152l-.475,1.83-1.34-.347.47-1.813a7.388,7.388,0,0,1-3.651-2.394l1.163-1.459a6.485,6.485,0,0,0,2.946,2.089l.847-3.268c-1.7-.911-3.491-2-2.9-4.274.432-1.666,2.018-2.807,4.63-2.391l.478-1.846,1.34.347-.47,1.813a7.236,7.236,0,0,1,3.058,1.856l-1.1,1.476a6.984,6.984,0,0,0-2.418-1.568l-.856,3.3c1.7.912,3.528,2,2.939,4.267C387.978,70.436,386.38,71.556,383.747,71.152Zm.473-7.34.754-2.908c-1.206-.121-1.849.34-2.035,1.059C382.735,62.748,383.344,63.289,384.22,63.813Zm2.06,4.562c.207-.8-.414-1.363-1.322-1.894l-.75,2.892C385.448,69.5,386.1,69.077,386.28,68.375Z" transform="translate(-378.752 -57.278)" fill="#a66d58"/>
                </g>
              </g>
            </g>
          </g>
          <g id="Grupo_64015" data-name="Grupo 64015" transform="translate(18.244 8.823)">
            <g id="Grupo_64014" data-name="Grupo 64014">
              <g id="Grupo_64013" data-name="Grupo 64013">
                <path id="Trazado_133063" data-name="Trazado 133063" d="M385.217,73.1a.73.73,0,0,1,.109.016l.317.059.513.1a5.071,5.071,0,0,0,.7.11l.888.086a3.7,3.7,0,0,0,.509.017h.551c.19-.006.388.012.59-.013l.626-.063c.214-.026.437-.034.661-.076l.687-.137a14.192,14.192,0,0,0,2.967-.978l.76-.4c.128-.069.26-.133.388-.207l.373-.244c.249-.167.511-.322.758-.506l.732-.585.186-.148c.06-.052.115-.11.173-.165l.347-.336.35-.34a4.835,4.835,0,0,0,.327-.369c.211-.255.437-.5.642-.77l.582-.841a13.3,13.3,0,0,0,2.1-8.108q-.051-.513-.1-1.018c-.049-.334-.127-.66-.187-.985-.037-.161-.054-.326-.106-.482l-.141-.467-.14-.462c-.024-.076-.045-.154-.071-.229l-.09-.22-.356-.867c-.127-.28-.28-.544-.417-.811l-.208-.395c-.076-.127-.16-.247-.238-.369l-.47-.718a14.161,14.161,0,0,0-2.118-2.3l-.534-.454c-.175-.146-.366-.26-.541-.387l-.516-.359c-.164-.12-.346-.2-.509-.3l-.481-.269a3.709,3.709,0,0,0-.454-.232l-.818-.356a5.106,5.106,0,0,0-.669-.246l-.5-.162-.3-.1a.722.722,0,0,1-.1-.039A.7.7,0,0,1,392.1,47l.309.09.5.151a4.933,4.933,0,0,1,.675.235l.826.347a3.629,3.629,0,0,1,.458.229l.487.265a5.877,5.877,0,0,1,.515.3l.522.356c.176.126.369.241.547.386l.541.453a14.135,14.135,0,0,1,2.146,2.3l.477.722c.08.123.165.244.242.371l.211.4c.138.269.294.534.423.817l.361.873.092.222c.027.075.048.153.073.23l.142.466.144.472c.053.157.071.324.108.486.062.328.14.658.191.994q.051.509.1,1.028a13.384,13.384,0,0,1-2.123,8.186l-.589.848c-.208.27-.436.52-.65.776a4.946,4.946,0,0,1-.331.372l-.355.343-.35.339c-.059.055-.115.113-.175.166l-.188.149-.74.588c-.25.185-.515.34-.766.508l-.378.245c-.129.074-.262.138-.392.207l-.768.4a14.1,14.1,0,0,1-2.994.97l-.693.134c-.225.041-.45.047-.666.071l-.63.058c-.2.024-.4,0-.593.008l-.554,0a3.585,3.585,0,0,1-.512-.023l-.891-.1a4.934,4.934,0,0,1-.7-.123l-.512-.112-.314-.072A.632.632,0,0,1,385.217,73.1Z" transform="translate(-385.217 -46.972)" fill="#263238"/>
              </g>
            </g>
          </g>
          <g id="Grupo_64018" data-name="Grupo 64018" transform="translate(4.413 11.04)">
            <g id="Grupo_64017" data-name="Grupo 64017">
              <g id="Grupo_64016" data-name="Grupo 64016">
                <path id="Trazado_133064" data-name="Trazado 133064" d="M353.13,67.08a.723.723,0,0,1-.046-.154c-.027-.116-.062-.264-.106-.447s-.1-.433-.138-.714-.1-.6-.132-.954q-.025-.267-.054-.558c-.017-.194-.018-.4-.028-.607-.027-.42-.01-.868,0-1.34a17.608,17.608,0,0,1,1.3-5.977c.189-.434.36-.848.558-1.219.1-.187.182-.371.278-.54l.281-.485c.172-.313.361-.576.515-.813s.3-.434.422-.591l.282-.363a.713.713,0,0,1,.105-.12.777.777,0,0,1-.084.137l-.261.376c-.117.161-.256.36-.4.6s-.331.5-.5.82l-.272.486c-.094.17-.176.354-.269.54-.193.37-.359.784-.543,1.216a18.2,18.2,0,0,0-1.291,5.937c-.012.469-.033.915-.011,1.332.008.209.006.411.021.6l.045.555c.02.355.076.672.111.951s.076.52.116.715l.081.451A.765.765,0,0,1,353.13,67.08Z" transform="translate(-352.612 -52.199)" fill="#fff"/>
              </g>
            </g>
          </g>
          <g id="Grupo_64021" data-name="Grupo 64021" transform="translate(17.904 15.946)">
            <g id="Grupo_64020" data-name="Grupo 64020">
              <g id="Grupo_64019" data-name="Grupo 64019">
                <path id="Trazado_133065" data-name="Trazado 133065" d="M384.828,66.907a1.122,1.122,0,0,1-.282-.476,2.088,2.088,0,0,1,.721-2.42,1.12,1.12,0,0,1,.5-.244c.01.021-.185.1-.438.317a2.164,2.164,0,0,0-.69,2.317C384.73,66.719,384.848,66.895,384.828,66.907Z" transform="translate(-384.414 -63.766)" fill="#fff"/>
              </g>
            </g>
          </g>
          <g id="Grupo_64024" data-name="Grupo 64024" transform="translate(22.517 13.767)">
            <g id="Grupo_64023" data-name="Grupo 64023">
              <g id="Grupo_64022" data-name="Grupo 64022">
                <path id="Trazado_133066" data-name="Trazado 133066" d="M395.305,59.7a1.225,1.225,0,0,1,.075-.554c.077-.3.168-.529.2-.52a2.367,2.367,0,0,1-.279,1.075Z" transform="translate(-395.291 -58.628)" fill="#fff"/>
              </g>
            </g>
          </g>
          <g id="Grupo_64027" data-name="Grupo 64027" transform="translate(15.386 7.222)">
            <g id="Grupo_64026" data-name="Grupo 64026">
              <g id="Grupo_64025" data-name="Grupo 64025">
                <path id="Trazado_133067" data-name="Trazado 133067" d="M389.2,44.2a2.761,2.761,0,0,1-.416-.126c-.131-.046-.293-.1-.484-.151s-.4-.124-.647-.176-.506-.123-.795-.172-.6-.1-.922-.143a13.89,13.89,0,0,0-4.254.147c-.321.068-.628.126-.909.206s-.544.151-.78.227-.448.154-.634.221-.344.13-.473.185a2.724,2.724,0,0,1-.406.154,2.7,2.7,0,0,1,.385-.2c.125-.062.28-.135.466-.207s.392-.165.631-.24.5-.17.782-.244.591-.148.915-.22a13.195,13.195,0,0,1,4.293-.149c.327.049.64.091.927.157s.555.123.8.189.457.136.647.2.35.12.479.174A2.7,2.7,0,0,1,389.2,44.2Z" transform="translate(-378.479 -43.2)" fill="#fff"/>
              </g>
            </g>
          </g>
          <g id="Grupo_64030" data-name="Grupo 64030" transform="translate(11.85 35.633)">
            <g id="Grupo_64029" data-name="Grupo 64029">
              <g id="Grupo_64028" data-name="Grupo 64028">
                <path id="Trazado_133068" data-name="Trazado 133068" d="M377.816,113.03a1.526,1.526,0,0,1-.328,0c-.211,0-.516-.028-.89-.074a12.822,12.822,0,0,1-5.486-2.042c-.313-.21-.559-.392-.722-.526a1.583,1.583,0,0,1-.246-.217,1.588,1.588,0,0,1,.277.176c.171.122.424.29.742.489a14.355,14.355,0,0,0,5.448,2.028c.37.057.672.1.881.115A1.6,1.6,0,0,1,377.816,113.03Z" transform="translate(-370.144 -110.174)" fill="#fff"/>
              </g>
            </g>
          </g>
        </g>
        <g id="Grupo_64034" data-name="Grupo 64034" transform="translate(346.045 30.017)">
          <g id="Grupo_64033" data-name="Grupo 64033" transform="translate(0 0)">
            <g id="Grupo_64032" data-name="Grupo 64032">
              <path id="Trazado_133069" data-name="Trazado 133069" d="M386.251,57.5s.018-.1.059-.282.114-.46.174-.826a17.905,17.905,0,0,0,.311-3.226,17.506,17.506,0,0,0-.147-2.338,17.1,17.1,0,0,0-.57-2.726,17.935,17.935,0,0,0-3.1-6,17.673,17.673,0,0,0-6.386-5.069,17.987,17.987,0,0,0-6.732-1.661,18.823,18.823,0,0,0-2.459.06,17.736,17.736,0,0,0-9.508,3.908,17.407,17.407,0,0,0-1.978,1.885,16.492,16.492,0,0,0-1.689,2.2,17.684,17.684,0,0,0-2.8,10.809c.025.467.087.928.144,1.388.078.457.151.913.26,1.36a17.379,17.379,0,0,0,.813,2.61,17.737,17.737,0,0,0,6.413,8.037,18.881,18.881,0,0,0,2.12,1.247,17.984,17.984,0,0,0,6.693,1.819,17.663,17.663,0,0,0,8.045-1.329,17.931,17.931,0,0,0,5.621-3.74,17.14,17.14,0,0,0,1.822-2.105,17.623,17.623,0,0,0,1.265-1.972,17.947,17.947,0,0,0,1.3-2.971c.126-.349.19-.626.249-.806s.086-.275.086-.275-.088.381-.31,1.09a17.336,17.336,0,0,1-2.534,4.972,17.127,17.127,0,0,1-1.821,2.121,17.959,17.959,0,0,1-5.637,3.774,17.743,17.743,0,0,1-8.089,1.352,18.084,18.084,0,0,1-6.738-1.822,18.969,18.969,0,0,1-2.136-1.253,17.849,17.849,0,0,1-6.464-8.09,17.538,17.538,0,0,1-.82-2.629c-.11-.45-.184-.909-.263-1.37-.058-.464-.121-.928-.146-1.4a17.808,17.808,0,0,1,2.824-10.889,16.587,16.587,0,0,1,1.7-2.22,17.484,17.484,0,0,1,1.993-1.9,17.847,17.847,0,0,1,9.578-3.929,19.005,19.005,0,0,1,2.476-.058,18.087,18.087,0,0,1,6.774,1.681,17.749,17.749,0,0,1,6.414,5.111,17.968,17.968,0,0,1,3.094,6.037,17.149,17.149,0,0,1,.561,2.738,17.317,17.317,0,0,1-.2,5.577C386.359,57.123,386.251,57.5,386.251,57.5Z" transform="translate(-351.252 -35.234)" fill="#263238"/>
            </g>
          </g>
        </g>
      </g>
      <g id="Grupo_69969" data-name="Grupo 69969" transform="matrix(0.921, 0.391, -0.391, 0.921, -95.394, 191.324)">
        <g id="Grupo_64031-2" data-name="Grupo 64031" transform="translate(342.209 26.174)">
          <g id="Grupo_64012-2" data-name="Grupo 64012" transform="translate(0 0)">
            <g id="Grupo_64002-2" data-name="Grupo 64002" transform="translate(0)">
              <g id="Grupo_64001-2" data-name="Grupo 64001">
                <g id="Grupo_64000-2" data-name="Grupo 64000">
                  <g id="Grupo_63999-2" data-name="Grupo 63999">
                    <g id="Grupo_63988-2" data-name="Grupo 63988">
                      <g id="Grupo_63987-2" data-name="Grupo 63987">
                        <circle id="Elipse_4339-2" data-name="Elipse 4339" cx="24.805" cy="24.805" r="24.805" transform="matrix(0.252, -0.968, 0.968, 0.252, 0, 48.006)" fill="#a66d58"/>
                      </g>
                    </g>
                    <g id="Grupo_63990-2" data-name="Grupo 63990" transform="translate(6.249 5.449)" opacity="0.1">
                      <g id="Grupo_63989-2" data-name="Grupo 63989">
                        <path id="Trazado_133055-2" data-name="Trazado 133055" d="M382.986,36.166A24.8,24.8,0,0,0,352.75,53.951s16.677,5.129,22.5-.614S382.986,36.166,382.986,36.166Z" transform="translate(-352.75 -35.366)" fill="#fff"/>
                      </g>
                    </g>
                    <g id="Grupo_63992-2" data-name="Grupo 63992" transform="translate(11.116 10.919)">
                      <g id="Grupo_63991-2" data-name="Grupo 63991">
                        <path id="Trazado_133056-2" data-name="Trazado 133056" d="M398.076,68.187A18.857,18.857,0,1,1,384.555,45.2,18.856,18.856,0,0,1,398.076,68.187Z" transform="translate(-360.961 -44.593)" fill="#8b5946"/>
                      </g>
                    </g>
                    <g id="Grupo_63996-2" data-name="Grupo 63996" transform="translate(11.933 12.13)">
                      <g id="Grupo_63995-2" data-name="Grupo 63995">
                        <path id="Trazado_133058-2" data-name="Trazado 133058" d="M398.955,69.913a18.6,18.6,0,1,1-13.339-22.676A18.6,18.6,0,0,1,398.955,69.913Z" transform="translate(-362.339 -46.637)" fill="#d9a171"/>
                      </g>
                    </g>
                  </g>
                </g>
              </g>
            </g>
            <g id="Grupo_64011-2" data-name="Grupo 64011" transform="translate(21.663 18.439)">
              <g id="Grupo_64005-2" data-name="Grupo 64005" transform="translate(0.613 0.474)">
                <g id="Grupo_64004-2" data-name="Grupo 64004">
                  <g id="Grupo_64003-2" data-name="Grupo 64003">
                    <path id="Trazado_133060-2" data-name="Trazado 133060" d="M389.174,68.529l1.195-4.607.022.006a9.747,9.747,0,0,1,2.283,1.273,7.99,7.99,0,0,1,.96,1.021l.1-.126,1.141-1.475.262-.339-.6-1.075-.442.075a8.9,8.9,0,0,0-3.087-1.829l.657-2.534-.624-.84-.165.635-1.083-.28-.669,2.579c-3.65-.581-5.866,1.013-6.469,3.342-.823,3.173,1.681,4.7,4.055,5.972l-1.183,4.565a9.052,9.052,0,0,1-4.116-2.918l-1.625,2.039a10.323,10.323,0,0,0,5.1,3.345l-.5,1.914-.9-.216.734.836,1.872.486.663-2.557c3.678.564,5.911-1,6.515-3.329C394.1,71.316,391.548,69.8,389.174,68.529Zm-1.748-.964c-1.224-.732-2.075-1.488-1.791-2.584.26-1,1.158-1.649,2.844-1.479Zm2.943-3.646h0ZM387.41,75.331l1.047-4.041c1.269.743,2.137,1.529,1.847,2.647C390.05,74.919,389.142,75.512,387.41,75.331Z" transform="translate(-379.786 -58.078)" fill="#885947"/>
                  </g>
                </g>
              </g>
              <g id="Grupo_64010-2" data-name="Grupo 64010">
                <g id="Grupo_64009-2" data-name="Grupo 64009">
                  <path id="Trazado_133062-2" data-name="Trazado 133062" d="M385.732,76.667l-.663,2.557-1.872-.486.657-2.534a10.324,10.324,0,0,1-5.1-3.345l1.625-2.039a9.062,9.062,0,0,0,4.116,2.919l1.184-4.566c-2.374-1.273-4.878-2.8-4.055-5.973.6-2.329,2.82-3.923,6.47-3.342l.669-2.58,1.872.486-.657,2.534a10.113,10.113,0,0,1,4.274,2.594l-1.534,2.063a9.76,9.76,0,0,0-3.378-2.192l-1.2,4.611c2.374,1.274,4.93,2.789,4.107,5.962C391.645,75.666,389.411,77.231,385.732,76.667Zm.661-10.257,1.053-4.064c-1.686-.17-2.583.475-2.844,1.48C384.318,64.922,385.17,65.679,386.393,66.41Zm2.879,6.375c.29-1.119-.578-1.9-1.848-2.647l-1.047,4.041C388.109,74.36,389.018,73.767,389.272,72.785Z" transform="translate(-378.752 -57.278)" fill="#a66d58"/>
                </g>
              </g>
            </g>
          </g>
          <g id="Grupo_64015-2" data-name="Grupo 64015" transform="translate(25.495 12.329)">
            <g id="Grupo_64014-2" data-name="Grupo 64014">
              <g id="Grupo_64013-2" data-name="Grupo 64013">
                <path id="Trazado_133063-2" data-name="Trazado 133063" d="M385.217,83.481a1.021,1.021,0,0,1,.152.022l.443.082.717.139a7.088,7.088,0,0,0,.983.154l1.241.12a5.178,5.178,0,0,0,.712.024l.77,0c.266-.008.542.017.824-.018l.874-.088c.3-.036.611-.047.924-.106l.96-.191a19.832,19.832,0,0,0,4.146-1.367l1.062-.558c.179-.1.363-.186.542-.289l.522-.341c.347-.234.714-.451,1.059-.707l1.023-.818.26-.207c.084-.073.161-.154.242-.231l.484-.47.49-.475a6.755,6.755,0,0,0,.457-.516c.3-.356.611-.7.9-1.076l.813-1.175a18.58,18.58,0,0,0,2.938-11.33q-.071-.718-.14-1.422c-.069-.467-.177-.922-.262-1.377-.052-.225-.075-.456-.148-.673l-.2-.653q-.1-.325-.195-.646c-.034-.107-.062-.215-.1-.32l-.126-.308-.5-1.211c-.177-.392-.392-.76-.582-1.133l-.29-.552c-.106-.177-.223-.345-.333-.516l-.657-1a19.79,19.79,0,0,0-2.96-3.209l-.746-.634c-.245-.2-.512-.364-.756-.541l-.721-.5c-.229-.168-.483-.28-.711-.417l-.672-.375a5.179,5.179,0,0,0-.634-.325l-1.143-.5a7.135,7.135,0,0,0-.934-.343l-.695-.227-.426-.143a1.008,1.008,0,0,1-.143-.055.975.975,0,0,1,.149.037l.432.126.7.21a6.891,6.891,0,0,1,.943.328l1.155.486a5.073,5.073,0,0,1,.64.32l.68.37a8.212,8.212,0,0,1,.719.413l.73.5c.247.176.516.337.764.539l.756.633a19.752,19.752,0,0,1,3,3.218l.666,1.009c.111.172.23.341.338.519l.295.555c.193.376.411.746.591,1.142l.5,1.221.128.31c.038.1.067.214.1.322l.2.652.2.659c.073.219.1.452.151.679.087.459.2.919.267,1.39q.071.711.143,1.436a18.7,18.7,0,0,1-2.966,11.44l-.823,1.185c-.291.377-.609.726-.908,1.085a6.9,6.9,0,0,1-.462.52l-.5.479-.49.473c-.082.077-.16.158-.245.232l-.263.209-1.034.822c-.349.258-.72.475-1.071.71l-.528.342c-.18.1-.366.193-.547.29l-1.073.558a19.706,19.706,0,0,1-4.184,1.356l-.969.187c-.315.057-.628.066-.93.1l-.88.081c-.284.034-.563.006-.829.012l-.774-.007a5.009,5.009,0,0,1-.715-.032l-1.245-.136a6.893,6.893,0,0,1-.984-.171l-.716-.157-.439-.1A.883.883,0,0,1,385.217,83.481Z" transform="translate(-385.217 -46.972)" fill="#263238"/>
              </g>
            </g>
          </g>
          <g id="Grupo_64018-2" data-name="Grupo 64018" transform="translate(6.167 15.427)">
            <g id="Grupo_64017-2" data-name="Grupo 64017">
              <g id="Grupo_64016-2" data-name="Grupo 64016">
                <path id="Trazado_133064-2" data-name="Trazado 133064" d="M353.336,72.994a1.011,1.011,0,0,1-.064-.215c-.038-.162-.087-.369-.148-.624-.066-.272-.138-.6-.193-1s-.146-.835-.184-1.333q-.036-.373-.076-.78c-.024-.271-.025-.555-.04-.848-.037-.586-.014-1.213,0-1.873a24.6,24.6,0,0,1,1.816-8.352c.264-.606.5-1.186.78-1.7.135-.261.254-.518.388-.755l.393-.678c.24-.437.5-.805.72-1.136s.417-.607.59-.826l.394-.507a1,1,0,0,1,.147-.168,1.081,1.081,0,0,1-.117.191l-.365.526c-.163.225-.358.5-.562.841s-.462.705-.694,1.145l-.38.679c-.131.237-.246.494-.376.755-.27.518-.5,1.1-.759,1.7a25.433,25.433,0,0,0-1.8,8.3c-.017.655-.046,1.278-.015,1.861.011.292.009.574.03.844l.063.776c.028.5.106.938.155,1.33s.107.726.162,1,.084.467.114.63A1.066,1.066,0,0,1,353.336,72.994Z" transform="translate(-352.612 -52.199)" fill="#fff"/>
              </g>
            </g>
          </g>
          <g id="Grupo_64021-2" data-name="Grupo 64021" transform="translate(25.019 22.285)">
            <g id="Grupo_64020-2" data-name="Grupo 64020">
              <g id="Grupo_64019-2" data-name="Grupo 64019">
                <path id="Trazado_133065-2" data-name="Trazado 133065" d="M384.993,68.156a1.567,1.567,0,0,1-.394-.665,2.917,2.917,0,0,1,1.007-3.382,1.566,1.566,0,0,1,.692-.341c.014.029-.258.145-.612.443a3.024,3.024,0,0,0-.964,3.238C384.856,67.893,385.02,68.138,384.993,68.156Z" transform="translate(-384.414 -63.766)" fill="#fff"/>
              </g>
            </g>
          </g>
          <g id="Grupo_64024-2" data-name="Grupo 64024" transform="translate(31.467 19.239)">
            <g id="Grupo_64023-2" data-name="Grupo 64023">
              <g id="Grupo_64022-2" data-name="Grupo 64022">
                <path id="Trazado_133066-2" data-name="Trazado 133066" d="M395.311,60.13a1.712,1.712,0,0,1,.1-.774c.108-.414.235-.74.284-.727a3.307,3.307,0,0,1-.389,1.5Z" transform="translate(-395.291 -58.628)" fill="#fff"/>
              </g>
            </g>
          </g>
          <g id="Grupo_64027-2" data-name="Grupo 64027" transform="translate(21.501 10.093)">
            <g id="Grupo_64026-2" data-name="Grupo 64026">
              <g id="Grupo_64025-2" data-name="Grupo 64025">
                <path id="Trazado_133067-2" data-name="Trazado 133067" d="M393.46,44.592a3.858,3.858,0,0,1-.581-.175c-.183-.064-.409-.14-.676-.212s-.565-.173-.9-.247-.707-.172-1.11-.24c-.4-.085-.833-.136-1.288-.2a19.411,19.411,0,0,0-5.945.206c-.449.095-.878.176-1.271.288-.4.1-.76.21-1.091.317s-.625.216-.886.308-.481.181-.66.258a3.808,3.808,0,0,1-.567.215,3.763,3.763,0,0,1,.538-.281c.175-.087.392-.188.651-.289s.548-.231.882-.336.694-.238,1.093-.341c.394-.119.826-.207,1.278-.307a18.439,18.439,0,0,1,6-.208c.458.069.894.127,1.3.219.406.075.776.172,1.114.264s.638.19.9.274.489.168.67.243A3.781,3.781,0,0,1,393.46,44.592Z" transform="translate(-378.479 -43.2)" fill="#fff"/>
              </g>
            </g>
          </g>
          <g id="Grupo_64030-2" data-name="Grupo 64030" transform="translate(16.56 49.795)">
            <g id="Grupo_64029-2" data-name="Grupo 64029">
              <g id="Grupo_64028-2" data-name="Grupo 64028">
                <path id="Trazado_133068-2" data-name="Trazado 133068" d="M380.866,114.165a2.134,2.134,0,0,1-.458.005c-.3-.006-.721-.039-1.244-.1a17.919,17.919,0,0,1-7.666-2.854c-.438-.294-.782-.547-1.009-.736a2.21,2.21,0,0,1-.343-.3,2.216,2.216,0,0,1,.386.246c.239.17.593.406,1.037.684a20.06,20.06,0,0,0,7.613,2.834c.518.08.939.133,1.231.161A2.229,2.229,0,0,1,380.866,114.165Z" transform="translate(-370.144 -110.174)" fill="#fff"/>
              </g>
            </g>
          </g>
        </g>
        <g id="Grupo_64034-2" data-name="Grupo 64034" transform="translate(347.57 31.545)">
          <g id="Grupo_64033-2" data-name="Grupo 64033" transform="translate(0 0)">
            <g id="Grupo_64032-2" data-name="Grupo 64032">
              <path id="Trazado_133069-2" data-name="Trazado 133069" d="M400.162,66.348s.025-.135.082-.394.159-.643.243-1.155a25.024,25.024,0,0,0,.435-4.509,24.469,24.469,0,0,0-.206-3.267,23.892,23.892,0,0,0-.8-3.809,25.062,25.062,0,0,0-4.327-8.385,24.7,24.7,0,0,0-8.925-7.083,25.135,25.135,0,0,0-9.408-2.321,26.305,26.305,0,0,0-3.436.084,24.785,24.785,0,0,0-13.287,5.461,24.324,24.324,0,0,0-2.764,2.634,23.044,23.044,0,0,0-2.36,3.08,24.712,24.712,0,0,0-3.918,15.105c.034.652.122,1.3.2,1.94.109.638.212,1.276.364,1.9a24.283,24.283,0,0,0,1.136,3.647,24.787,24.787,0,0,0,8.961,11.232,26.382,26.382,0,0,0,2.963,1.742,25.132,25.132,0,0,0,9.353,2.543,24.684,24.684,0,0,0,11.242-1.857,25.058,25.058,0,0,0,7.855-5.227,23.953,23.953,0,0,0,2.546-2.942,24.63,24.63,0,0,0,1.767-2.755,25.082,25.082,0,0,0,1.81-4.152c.176-.488.266-.874.349-1.127s.12-.384.12-.384-.123.532-.433,1.523a24.227,24.227,0,0,1-3.541,6.948,23.926,23.926,0,0,1-2.544,2.963,25.1,25.1,0,0,1-7.877,5.274,24.795,24.795,0,0,1-11.3,1.889,25.272,25.272,0,0,1-9.416-2.546,26.508,26.508,0,0,1-2.985-1.751,24.944,24.944,0,0,1-9.033-11.3,24.507,24.507,0,0,1-1.146-3.674c-.154-.629-.257-1.271-.368-1.914-.081-.648-.169-1.3-.2-1.954a24.885,24.885,0,0,1,3.946-15.217,23.18,23.18,0,0,1,2.379-3.1,24.431,24.431,0,0,1,2.786-2.653,24.94,24.94,0,0,1,13.385-5.49,26.56,26.56,0,0,1,3.46-.081,25.276,25.276,0,0,1,9.466,2.349,24.8,24.8,0,0,1,8.963,7.142,25.11,25.11,0,0,1,4.323,8.437,23.968,23.968,0,0,1,.784,3.827,24.2,24.2,0,0,1-.28,7.794C400.313,65.823,400.162,66.348,400.162,66.348Z" transform="translate(-351.252 -35.234)" fill="#263238"/>
            </g>
          </g>
        </g>
      </g>
    </g>
  </g>
</svg>
