<svg xmlns="http://www.w3.org/2000/svg" width="340" height="292" viewBox="0 0 340 292">
  <g id="Grupo_70072" data-name="Grupo 70072" transform="translate(-1020 -14075)">
    <path id="Trazado_141374" data-name="Trazado 141374" d="M0,0H340V292H0Z" transform="translate(1020 14075)" fill="none"/>
    <g id="Grupo_70065" data-name="Grupo 70065" transform="translate(-1389.943 12747.008)">
      <path id="Trazado_141234" data-name="Trazado 141234" d="M3505.974,1815.09a13.747,13.747,0,0,0-12.849-.421c-5.621,2.78-10.394,9.7-14.186,20.558-.966,2.768-1.741,5.429-2.341,7.716-.712-2.268-1.622-4.91-2.73-7.651-4.314-10.665-9.416-17.342-15.166-19.846a13.745,13.745,0,0,0-12.813,1.043c-7.762,4.522-10.962,11.185-8.779,18.281,1.719,5.587,6.8,10.932,13.941,14.665a45.833,45.833,0,0,0,22.106,5.074q1.007-.024,2.009-.094l1.063-.074,2.338.049q1,.021,2.011,0a45.841,45.841,0,0,0,21.835-6.139c6.952-4.074,11.768-9.659,13.214-15.323C3517.465,1825.731,3513.946,1819.23,3505.974,1815.09Zm-61.779,17.5c-1.131-3.677.694-6.939,5.426-9.7a7.609,7.609,0,0,1,3.655-1.164,5.679,5.679,0,0,1,2.463.51c3.783,1.646,7.767,7.235,11.219,15.739,1.363,3.356,2.414,6.6,3.14,9.077C3457.35,1846.395,3446.3,1839.433,3444.194,1832.59Zm64.251-1.5c-1.771,6.938-12.471,14.427-25.171,15.705.605-2.507,1.5-5.8,2.7-9.218,3.036-8.661,6.745-14.437,10.443-16.264a5.688,5.688,0,0,1,2.436-.629,7.607,7.607,0,0,1,3.708.985C3507.417,1824.192,3509.4,1827.362,3508.445,1831.089Z" transform="translate(-807.878 -363.201)" fill="#905e4c"/>
      <path id="Trazado_141243" data-name="Trazado 141243" d="M3582.35,1708.728c1.158-2.789,2.337-5.583,5.344-6.995a6.726,6.726,0,0,1,7.136.913c6.124,4.606.788,9.681,7.76,18.415,2.166,2.714,4.789,4.905,6.087,8.085,1.816,4.452-.348,6.589-3.816,8.721-16.6,10.2-25.3-10.744-24.982-15.535C3580.11,1718.769,3581.6,1710.522,3582.35,1708.728Z" transform="translate(-918.308 -276.831)" fill="#40264f"/>
      <path id="Trazado_141244" data-name="Trazado 141244" d="M2827.608,2297.174c3.93-5.1,40.854-32.336,54.907-36.885,15.512-5.022.892,14.923.892,14.923s27.519-30.091,37.616-27.378c9.257,2.486,0,21.137,0,21.137s10.426-10.328,23.07-10.328c12.3,0-8.6,36.63-9.725,38.591Z" transform="translate(-339.131 -697.642)" fill="#f2e9e4"/>
      <g id="Grupo_70037" data-name="Grupo 70037" transform="translate(2426.207 1480.957)">
        <g id="Grupo_70035" data-name="Grupo 70035" transform="translate(0 0)">
          <circle id="Elipse_4766" data-name="Elipse 4766" cx="49.156" cy="49.156" r="49.156" transform="translate(0 69.517) rotate(-45)" fill="#aed3f2"/>
          <circle id="Elipse_4767" data-name="Elipse 4767" cx="25.374" cy="25.374" r="25.374" transform="translate(33.633 69.517) rotate(-45)" fill="#fffbf0" opacity="0.95"/>
          <path id="Trazado_141246" data-name="Trazado 141246" d="M2981.424,2100.84a47.331,47.331,0,0,0-20.684-27.058,25.367,25.367,0,0,0,22.318,35.117A47.844,47.844,0,0,0,2981.424,2100.84Z" transform="translate(-2866.327 -2044.728)" fill="#fffbf0" opacity="0.5"/>
          <path id="Trazado_141247" data-name="Trazado 141247" d="M2722.641,2045.053a47.288,47.288,0,0,0-23.374,15.5,25.37,25.37,0,0,0,37.137-17.438A47.5,47.5,0,0,0,2722.641,2045.053Z" transform="translate(-2666.527 -2021.115)" fill="#fffbf0" opacity="0.5"/>
          <path id="Trazado_141248" data-name="Trazado 141248" d="M2666.521,2228.858a25.308,25.308,0,0,0-13.2-15.634,47.612,47.612,0,0,0,9.377,37.7A25.328,25.328,0,0,0,2666.521,2228.858Z" transform="translate(-2630.58 -2152.086)" fill="#fffbf0" opacity="0.5"/>
          <path id="Trazado_141249" data-name="Trazado 141249" d="M2885.387,2377.315a47.314,47.314,0,0,0,25.9-18.891,25.368,25.368,0,0,0-35.459,20.673A47.666,47.666,0,0,0,2885.387,2377.315Z" transform="translate(-2802.466 -2262.218)" fill="#fffbf0" opacity="0.5"/>
          <path id="Trazado_141250" data-name="Trazado 141250" d="M2981.424,2100.84a47.331,47.331,0,0,0-20.684-27.058,25.367,25.367,0,0,0,22.318,35.117A47.844,47.844,0,0,0,2981.424,2100.84Z" transform="translate(-2866.327 -2044.728)" fill="#fffbf0" opacity="0.5"/>
          <path id="Trazado_141251" data-name="Trazado 141251" d="M2722.641,2045.053a47.288,47.288,0,0,0-23.374,15.5,25.37,25.37,0,0,0,37.137-17.438A47.5,47.5,0,0,0,2722.641,2045.053Z" transform="translate(-2666.527 -2021.115)" fill="#fffbf0" opacity="0.5"/>
          <path id="Trazado_141252" data-name="Trazado 141252" d="M2666.521,2228.858a25.308,25.308,0,0,0-13.2-15.634,47.612,47.612,0,0,0,9.377,37.7A25.328,25.328,0,0,0,2666.521,2228.858Z" transform="translate(-2630.58 -2152.086)" fill="#fffbf0" opacity="0.5"/>
          <path id="Trazado_141253" data-name="Trazado 141253" d="M2885.387,2377.315a47.314,47.314,0,0,0,25.9-18.891,25.368,25.368,0,0,0-35.459,20.673A47.666,47.666,0,0,0,2885.387,2377.315Z" transform="translate(-2802.466 -2262.218)" fill="#fffbf0" opacity="0.5"/>
          <path id="Trazado_141254" data-name="Trazado 141254" d="M2981.424,2100.84a47.331,47.331,0,0,0-20.684-27.058,25.367,25.367,0,0,0,22.318,35.117A47.844,47.844,0,0,0,2981.424,2100.84Z" transform="translate(-2866.327 -2044.728)" fill="#fffbf0" opacity="0.5"/>
          <path id="Trazado_141255" data-name="Trazado 141255" d="M2722.641,2045.053a47.288,47.288,0,0,0-23.374,15.5,25.37,25.37,0,0,0,37.137-17.438A47.5,47.5,0,0,0,2722.641,2045.053Z" transform="translate(-2666.527 -2021.115)" fill="#fffbf0" opacity="0.5"/>
          <path id="Trazado_141256" data-name="Trazado 141256" d="M2666.521,2228.858a25.308,25.308,0,0,0-13.2-15.634,47.612,47.612,0,0,0,9.377,37.7A25.328,25.328,0,0,0,2666.521,2228.858Z" transform="translate(-2630.58 -2152.086)" fill="#fffbf0" opacity="0.5"/>
          <path id="Trazado_141257" data-name="Trazado 141257" d="M2885.387,2377.315a47.314,47.314,0,0,0,25.9-18.891,25.368,25.368,0,0,0-35.459,20.673A47.666,47.666,0,0,0,2885.387,2377.315Z" transform="translate(-2802.466 -2262.218)" fill="#fffbf0" opacity="0.5"/>
          <g id="Grupo_70034" data-name="Grupo 70034" transform="translate(21.997 21.998)">
            <path id="Trazado_141258" data-name="Trazado 141258" d="M2983.058,2108.9a47.844,47.844,0,0,0-1.634-8.059,47.331,47.331,0,0,0-20.684-27.058,25.367,25.367,0,0,0,22.318,35.117Z" transform="translate(-2888.323 -2066.726)" fill="#fffbf0" opacity="0.5"/>
            <path id="Trazado_141259" data-name="Trazado 141259" d="M2699.267,2060.553a25.37,25.37,0,0,0,37.137-17.438,47.59,47.59,0,0,0-37.137,17.438Z" transform="translate(-2688.524 -2043.114)" fill="#fffbf0" opacity="0.5"/>
            <path id="Trazado_141260" data-name="Trazado 141260" d="M2653.325,2213.224a47.612,47.612,0,0,0,9.377,37.7,25.364,25.364,0,0,0-9.377-37.7Z" transform="translate(-2652.577 -2174.084)" fill="#fffbf0" opacity="0.5"/>
            <path id="Trazado_141261" data-name="Trazado 141261" d="M2893.918,2357.3a25.377,25.377,0,0,0-18.088,21.793,47.6,47.6,0,0,0,35.459-20.673A25.267,25.267,0,0,0,2893.918,2357.3Z" transform="translate(-2824.462 -2284.216)" fill="#fffbf0" opacity="0.5"/>
          </g>
        </g>
        <g id="Grupo_70036" data-name="Grupo 70036" transform="translate(53.916 52.816)">
          <path id="Trazado_141262" data-name="Trazado 141262" d="M2808.064,2210.066a19.572,19.572,0,0,0,2.917-2.4,13.039,13.039,0,0,0,3.754-7.031,15.174,15.174,0,0,0-1.892-10.1l-.127.1a10.146,10.146,0,0,1-4.252,7.873c-4.966,3.749-10.969,2.416-14.525-2.3-3.941-5.221-3.623-12.656,2.022-16.917s12.586-2.3,17.9,4.741c4.582,6.07,5.748,11.852,5.018,16.534a17.277,17.277,0,0,1-5.235,9.748,21.763,21.763,0,0,1-3.277,2.807Zm-10.625-16.9c2.6,3.438,6.5,4.287,9.727,1.853a7.736,7.736,0,0,0,3.254-6.987,3.082,3.082,0,0,0-.686-1.615c-3.556-4.712-8.019-7.006-11.924-4.059C2794.627,2184.761,2794.492,2189.261,2797.439,2193.166Z" transform="translate(-2791.302 -2177.053)" fill="#40264f"/>
        </g>
      </g>
      <g id="Grupo_70040" data-name="Grupo 70040" transform="translate(2442.769 1440.313)">
        <g id="Grupo_70039" data-name="Grupo 70039" transform="translate(0 0)">
          <path id="Trazado_141372" data-name="Trazado 141372" d="M31.765,0A31.765,31.765,0,1,1,0,31.765,31.765,31.765,0,0,1,31.765,0Z" transform="translate(0 44.923) rotate(-45)" fill="#6595bf"/>
          <circle id="Elipse_4769" data-name="Elipse 4769" cx="16.397" cy="16.397" r="16.397" transform="matrix(0.825, -0.566, 0.566, 0.825, 22.126, 40.678)" fill="#fffbf0" opacity="0.95"/>
          <path id="Trazado_141264" data-name="Trazado 141264" d="M2922.447,1931.4a30.588,30.588,0,0,0-1.583-21.953,16.394,16.394,0,0,0-.392,26.886A30.894,30.894,0,0,0,2922.447,1931.4Z" transform="translate(-2848.146 -1877.56)" fill="#fffbf0" opacity="0.5"/>
          <path id="Trazado_141265" data-name="Trazado 141265" d="M2802.308,1833.965a30.562,30.562,0,0,0-18.124.088,16.394,16.394,0,0,0,26.247,3.745A30.722,30.722,0,0,0,2802.308,1833.965Z" transform="translate(-2748.467 -1818.42)" fill="#fffbf0" opacity="0.5"/>
          <path id="Trazado_141266" data-name="Trazado 141266" d="M2700.725,1887.482a16.353,16.353,0,0,0-1.587-13.125,30.772,30.772,0,0,0-8.3,23.7A16.366,16.366,0,0,0,2700.725,1887.482Z" transform="translate(-2676.515 -1850.543)" fill="#fffbf0" opacity="0.5"/>
          <path id="Trazado_141267" data-name="Trazado 141267" d="M2766.047,2065.349a30.576,30.576,0,0,0,20.692-1.023,16.394,16.394,0,0,0-26.488-1.4A30.8,30.8,0,0,0,2766.047,2065.349Z" transform="translate(-2730.041 -1991.048)" fill="#fffbf0" opacity="0.5"/>
          <path id="Trazado_141268" data-name="Trazado 141268" d="M2922.447,1931.4a30.588,30.588,0,0,0-1.583-21.953,16.394,16.394,0,0,0-.392,26.886A30.894,30.894,0,0,0,2922.447,1931.4Z" transform="translate(-2848.146 -1877.56)" fill="#fffbf0" opacity="0.5"/>
          <path id="Trazado_141269" data-name="Trazado 141269" d="M2802.308,1833.965a30.562,30.562,0,0,0-18.124.088,16.394,16.394,0,0,0,26.247,3.745A30.722,30.722,0,0,0,2802.308,1833.965Z" transform="translate(-2748.467 -1818.42)" fill="#fffbf0" opacity="0.5"/>
          <path id="Trazado_141270" data-name="Trazado 141270" d="M2700.725,1887.482a16.353,16.353,0,0,0-1.587-13.125,30.772,30.772,0,0,0-8.3,23.7A16.366,16.366,0,0,0,2700.725,1887.482Z" transform="translate(-2676.515 -1850.543)" fill="#fffbf0" opacity="0.5"/>
          <path id="Trazado_141271" data-name="Trazado 141271" d="M2766.047,2065.349a30.576,30.576,0,0,0,20.692-1.023,16.394,16.394,0,0,0-26.488-1.4A30.8,30.8,0,0,0,2766.047,2065.349Z" transform="translate(-2730.041 -1991.048)" fill="#fffbf0" opacity="0.5"/>
          <path id="Trazado_141272" data-name="Trazado 141272" d="M2922.447,1931.4a30.588,30.588,0,0,0-1.583-21.953,16.394,16.394,0,0,0-.392,26.886A30.894,30.894,0,0,0,2922.447,1931.4Z" transform="translate(-2848.146 -1877.56)" fill="#fffbf0" opacity="0.5"/>
          <path id="Trazado_141273" data-name="Trazado 141273" d="M2802.308,1833.965a30.562,30.562,0,0,0-18.124.088,16.394,16.394,0,0,0,26.247,3.745A30.722,30.722,0,0,0,2802.308,1833.965Z" transform="translate(-2748.467 -1818.42)" fill="#fffbf0" opacity="0.5"/>
          <path id="Trazado_141274" data-name="Trazado 141274" d="M2700.725,1887.482a16.353,16.353,0,0,0-1.587-13.125,30.772,30.772,0,0,0-8.3,23.7A16.366,16.366,0,0,0,2700.725,1887.482Z" transform="translate(-2676.515 -1850.543)" fill="#fffbf0" opacity="0.5"/>
          <path id="Trazado_141275" data-name="Trazado 141275" d="M2766.047,2065.349a30.576,30.576,0,0,0,20.692-1.023,16.394,16.394,0,0,0-26.488-1.4A30.8,30.8,0,0,0,2766.047,2065.349Z" transform="translate(-2730.041 -1991.048)" fill="#fffbf0" opacity="0.5"/>
          <g id="Grupo_70038" data-name="Grupo 70038" transform="translate(14.214 14.214)">
            <path id="Trazado_141276" data-name="Trazado 141276" d="M2920.473,1936.334a30.738,30.738,0,0,0,.392-26.886,16.394,16.394,0,0,0-.392,26.886Z" transform="translate(-2862.36 -1891.774)" fill="#f9f3dc" opacity="0.5"/>
            <path id="Trazado_141277" data-name="Trazado 141277" d="M2784.184,1834.053a16.394,16.394,0,0,0,26.247,3.745,30.751,30.751,0,0,0-26.247-3.745Z" transform="translate(-2762.681 -1832.634)" fill="#fffbf0" opacity="0.5"/>
            <path id="Trazado_141278" data-name="Trazado 141278" d="M2699.138,1874.357a30.772,30.772,0,0,0-8.3,23.7,16.391,16.391,0,0,0,8.3-23.7Z" transform="translate(-2690.729 -1864.757)" fill="#fffbf0" opacity="0.5"/>
            <path id="Trazado_141279" data-name="Trazado 141279" d="M2777.75,2057.562a16.4,16.4,0,0,0-17.5,5.362,30.768,30.768,0,0,0,26.488,1.4A16.327,16.327,0,0,0,2777.75,2057.562Z" transform="translate(-2744.255 -2005.262)" fill="#fffbf0" opacity="0.5"/>
          </g>
        </g>
        <path id="Trazado_141280" data-name="Trazado 141280" d="M2787.73,1921.94l-.052-.022-3.639.361.29-1.947,4.565-.436,1.97.824-7.142,17.073-2.233-.934Z" transform="translate(-2746.392 -1885.604)" fill="#78759e"/>
        <path id="Trazado_141281" data-name="Trazado 141281" d="M2801.5,1949.086l.594-1.419,2.548-1c6.1-2.326,8.989-3.708,10.092-6.271.725-1.734.555-3.687-1.993-4.753a6.3,6.3,0,0,0-4.229-.072l-.054-1.936a8.12,8.12,0,0,1,5.558.288c3.677,1.538,4.172,4.708,3.15,7.15-1.318,3.152-4.669,4.744-9.718,6.706l-1.894.689-.021.053,7.669,3.208-.8,1.917Z" transform="translate(-2761.801 -1895.905)" fill="#78759e"/>
      </g>
      <g id="Grupo_70041" data-name="Grupo 70041" transform="translate(2496.693 1367.2)">
        <path id="Trazado_141282" data-name="Trazado 141282" d="M2865.789,1473.917l121.112-20.571a2.716,2.716,0,0,1,3.133,2.223l28.378,167.076a2.717,2.717,0,0,1-2.223,3.133l-121.112,20.571a2.715,2.715,0,0,1-3.132-2.223l-28.378-167.076A2.716,2.716,0,0,1,2865.789,1473.917Z" transform="translate(-2863.48 -1453.259)" fill="#f2e9e4"/>
        <path id="Trazado_141283" data-name="Trazado 141283" d="M2865.318,1473.807l121.737-20.677a2.4,2.4,0,0,1,2.767,1.964l5.692,33.511-126.467,21.48-5.692-33.511A2.4,2.4,0,0,1,2865.318,1473.807Z" transform="translate(-2863.32 -1453.095)" fill="#5e6178"/>
        <rect id="Rectángulo_31904" data-name="Rectángulo 31904" width="36.056" height="33.399" transform="translate(13.367 68.763) rotate(-9.537)" fill="#f1dc97"/>
        <rect id="Rectángulo_31905" data-name="Rectángulo 31905" width="36.056" height="33.399" transform="translate(53.525 62.016) rotate(-9.536)" fill="#f1dc97"/>
        <rect id="Rectángulo_31906" data-name="Rectángulo 31906" width="36.056" height="33.399" transform="matrix(0.986, -0.166, 0.166, 0.986, 93.683, 55.27)" fill="#f1dc97"/>
        <rect id="Rectángulo_31907" data-name="Rectángulo 31907" width="36.056" height="33.399" transform="translate(19.831 107.241) rotate(-9.536)" fill="#f1dc97"/>
        <rect id="Rectángulo_31908" data-name="Rectángulo 31908" width="36.056" height="33.399" transform="translate(59.989 100.495) rotate(-9.537)" fill="#f1dc97"/>
        <rect id="Rectángulo_31909" data-name="Rectángulo 31909" width="36.056" height="33.399" transform="translate(100.147 93.748) rotate(-9.536)" fill="#f1dc97"/>
        <rect id="Rectángulo_31910" data-name="Rectángulo 31910" width="36.056" height="33.399" transform="translate(26.296 145.72) rotate(-9.536)" fill="#f1dc97"/>
        <rect id="Rectángulo_31911" data-name="Rectángulo 31911" width="36.056" height="33.399" transform="translate(66.454 138.973) rotate(-9.536)" fill="#f1dc97"/>
        <rect id="Rectángulo_31912" data-name="Rectángulo 31912" width="36.056" height="33.399" transform="translate(106.612 132.227) rotate(-9.537)" fill="#f1dc97"/>
        <path id="Trazado_141284" data-name="Trazado 141284" d="M2978.028,1757.094l-3.408-2.451-6.931,9.637-9.724-6.809-2.407,3.439,9.68,6.778-6.9,9.594,3.408,2.451,6.931-9.637,9.724,6.808,2.408-3.439-9.681-6.778Z" transform="translate(-2934.335 -1685.261)" fill="#5e6178"/>
        <path id="Trazado_141285" data-name="Trazado 141285" d="M3332.607,1698.117l-3.408-2.451-6.931,9.637-9.724-6.808-2.408,3.439,9.68,6.778-6.9,9.594,3.409,2.451,6.93-9.637,9.724,6.808,2.408-3.439-9.681-6.778Z" transform="translate(-3207.33 -1639.854)" fill="#5e6178"/>
        <path id="Trazado_141286" data-name="Trazado 141286" d="M2921.122,1565.24l-23.833,4a1.484,1.484,0,0,1-1.71-1.218l-.585-3.479a1.485,1.485,0,0,1,1.218-1.71l23.833-4a1.484,1.484,0,0,1,1.709,1.218l.584,3.479A1.484,1.484,0,0,1,2921.122,1565.24Z" transform="translate(-2887.691 -1534.489)" fill="#fffbf0"/>
        <path id="Trazado_141287" data-name="Trazado 141287" d="M3115.073,1502.228l-77.961,13.1a1.484,1.484,0,0,1-1.709-1.218l-.585-3.479a1.484,1.484,0,0,1,1.218-1.709l77.96-13.1a1.485,1.485,0,0,1,1.71,1.218l.584,3.479A1.484,1.484,0,0,1,3115.073,1502.228Z" transform="translate(-2995.342 -1485.975)" fill="#fffbf0"/>
        <path id="Trazado_141288" data-name="Trazado 141288" d="M3017.136,1561.216l-109.269,18.357a2.019,2.019,0,0,1-2.325-1.656l-.794-4.731a2.017,2.017,0,0,1,1.656-2.325l109.269-18.357a2.018,2.018,0,0,1,2.325,1.656l.795,4.731A2.019,2.019,0,0,1,3017.136,1561.216Z" transform="translate(-2895.194 -1529.61)" fill="#fffbf0"/>
      </g>
      <path id="Trazado_141289" data-name="Trazado 141289" d="M3525.437,1621.8a1.088,1.088,0,0,1,.142-.392l-4.814-.441c0,.007,0,.016,0,.023-.23,4.043-2.526,16.914-1.774,20.4.864,4,9.453,16.792,9.453,16.792l3.7-5.589s-5.783-9.157-6.789-12.2S3525.341,1622.827,3525.437,1621.8Z" transform="translate(-871.32 -215.139)" fill="#f7a491"/>
      <path id="Trazado_141290" data-name="Trazado 141290" d="M3240.969,1975.9a10.215,10.215,0,0,0-9.548.351c-4.025,2.351-7.207,7.726-9.458,15.974-.574,2.1-1.012,4.115-1.338,5.842-.646-1.645-1.456-3.557-2.419-5.531-3.749-7.686-7.877-12.373-12.268-13.933a10.217,10.217,0,0,0-9.446,1.434c-5.522,3.754-7.551,8.859-5.567,14.008,1.563,4.054,5.606,7.755,11.093,10.154a34.067,34.067,0,0,0,16.653,2.622q.745-.07,1.486-.173l.784-.11,1.736-.084q.746-.036,1.491-.106a34.065,34.065,0,0,0,15.873-5.678c4.944-3.379,8.227-7.769,9.007-12.043C3250.038,1983.2,3247.094,1978.558,3240.969,1975.9Zm-44.9,16.162c-1.028-2.668.157-5.181,3.523-7.469a5.658,5.658,0,0,1,2.65-1.052,4.221,4.221,0,0,1,1.853.252c2.89,1.025,6.133,4.964,9.131,11.091,1.183,2.418,2.13,4.771,2.8,6.568C3206.531,2001.619,3197.98,1997.027,3196.065,1992.061Zm47.562-4.426c-.955,5.235-8.5,11.34-17.853,12.943.319-1.89.812-4.378,1.523-6.974,1.8-6.578,4.257-11.052,6.9-12.6a4.222,4.222,0,0,1,1.774-.593,5.658,5.658,0,0,1,2.8.54C3242.508,1982.573,3244.141,1984.822,3243.626,1987.635Z" transform="translate(-618.28 -487.631)" fill="#5e6178"/>
      <path id="Trazado_141291" data-name="Trazado 141291" d="M3210.167,2088.79l-55.98,6.479,9.946,80.15,48.331.224Z" transform="translate(-590.569 -575.325)" fill="#78759e"/>
      <path id="Trazado_141292" data-name="Trazado 141292" d="M3247.936,2098.021l3.5,84.517-15.589-.013-8.712-82.1Z" transform="translate(-646.736 -582.433)" fill="#5e6178"/>
      <g id="Grupo_70050" data-name="Grupo 70050" transform="translate(2410.474 1432.927)">
        <path id="Trazado_141293" data-name="Trazado 141293" d="M2520.005,1770.374a3.784,3.784,0,1,1,4.037,3.513A3.784,3.784,0,0,1,2520.005,1770.374Z" transform="translate(-2512.771 -1759.985)" fill="#faa95d"/>
        <g id="Grupo_70042" data-name="Grupo 70042" transform="translate(10.347 17.19)">
          <path id="Trazado_141294" data-name="Trazado 141294" d="M2535.972,1817.353a25.221,25.221,0,0,0-.737-3.331.864.864,0,0,0-1.67.345,27.128,27.128,0,0,0,.713,3.582.9.9,0,0,0,1.145.549.922.922,0,0,0,.549-1.145Z" transform="translate(-2533.563 -1813.468)" fill="#faa95d"/>
        </g>
        <g id="Grupo_70043" data-name="Grupo 70043" transform="translate(14.338 13.652)">
          <path id="Trazado_141295" data-name="Trazado 141295" d="M2555.812,1800.827a37.581,37.581,0,0,1-3.5-2.53.865.865,0,0,0-1.135,1.3,16.459,16.459,0,0,0,3.823,2.875.92.92,0,0,0,.816-1.649Z" transform="translate(-2550.909 -1798.092)" fill="#faa95d"/>
        </g>
        <g id="Grupo_70044" data-name="Grupo 70044" transform="translate(16.601 8.961)">
          <path id="Trazado_141296" data-name="Trazado 141296" d="M2561.009,1778.356a.65.65,0,0,0-.166.873c.424.769,1.5.731,2.265.705a8.2,8.2,0,0,0,2.351-.447.917.917,0,0,0-.609-1.729C2562.662,1778.505,2561.833,1777.694,2561.009,1778.356Z" transform="translate(-2560.744 -1777.703)" fill="#faa95d"/>
        </g>
        <g id="Grupo_70045" data-name="Grupo 70045" transform="translate(13.785 1.947)">
          <path id="Trazado_141297" data-name="Trazado 141297" d="M2550.383,1747.528c-1.1,1.611-2,2.155-1.861,3.042a.762.762,0,0,0,.992.653c.592-.134.914-.761,1.269-1.2.34-.422.673-.845.977-1.295a.942.942,0,0,0-.089-1.287.92.92,0,0,0-1.288.089Z" transform="translate(-2548.508 -1747.219)" fill="#faa95d"/>
        </g>
        <g id="Grupo_70046" data-name="Grupo 70046" transform="translate(9.178 0)">
          <path id="Trazado_141298" data-name="Trazado 141298" d="M2530.677,1740.735a4.02,4.02,0,0,0-.886-1.786.793.793,0,0,0-1.291.438,3.844,3.844,0,0,0,.448,1.956.916.916,0,0,0,1.729-.608Z" transform="translate(-2528.485 -1738.759)" fill="#faa95d"/>
        </g>
        <g id="Grupo_70047" data-name="Grupo 70047" transform="translate(3.495 2.852)">
          <path id="Trazado_141299" data-name="Trazado 141299" d="M2507.026,1752.64c-1.588-1.206-1.911-1.546-2.535-1.48a.756.756,0,0,0-.7.8c.148.763.592.97,2.052,2.034a.922.922,0,0,0,1.267-.088.907.907,0,0,0-.088-1.267Z" transform="translate(-2503.786 -1751.152)" fill="#faa95d"/>
        </g>
        <g id="Grupo_70048" data-name="Grupo 70048" transform="translate(0 8.937)">
          <path id="Trazado_141300" data-name="Trazado 141300" d="M2488.953,1778.531a.839.839,0,0,0,.3,1.5c.649.085.9-.019,4.052-.595a.944.944,0,0,0,.851-.978.922.922,0,0,0-.978-.851C2489.908,1778.2,2489.58,1778.2,2488.953,1778.531Z" transform="translate(-2488.594 -1777.599)" fill="#faa95d"/>
        </g>
        <g id="Grupo_70049" data-name="Grupo 70049" transform="translate(2.539 14.712)">
          <path id="Trazado_141301" data-name="Trazado 141301" d="M2502.388,1803.013c-1.727,1.672-1.98,1.377-2.662,2.4a.776.776,0,0,0,.746,1.113,3.267,3.267,0,0,0,1.793-.965c.528-.418,1.033-.867,1.518-1.334a.931.931,0,0,0-.091-1.3.944.944,0,0,0-1.3.09Z" transform="translate(-2499.631 -1802.701)" fill="#faa95d"/>
        </g>
      </g>
      <path id="Trazado_141302" data-name="Trazado 141302" d="M3016.4,1345.669l-2.716,1.324-2.613-4.135-4.21,1.446-2.462-2.775-1.4,1.246,3.292,3.711,3.99-1.37,2.718,4.3,4.087-1.992Z" transform="translate(-474.167)" fill="#a7a4bc"/>
      <g id="Grupo_70052" data-name="Grupo 70052" transform="translate(2684.31 1404.28)">
        <path id="Trazado_141303" data-name="Trazado 141303" d="M3726.319,1634.065l-25.281,5.505a1.647,1.647,0,0,1-1.96-1.259l-3.605-16.557a1.647,1.647,0,0,1,1.259-1.959l25.281-5.505a1.648,1.648,0,0,1,1.96,1.259l3.6,16.556A1.647,1.647,0,0,1,3726.319,1634.065Z" transform="translate(-3691.592 -1614.252)" fill="#a7a4bc"/>
        <path id="Trazado_141304" data-name="Trazado 141304" d="M3685.27,1681.593l-6.534,10.561,10.026-4.315Z" transform="translate(-3678.736 -1666.099)" fill="#a7a4bc"/>
        <g id="Grupo_70051" data-name="Grupo 70051" transform="translate(13.503 4.654)">
          <path id="Trazado_141305" data-name="Trazado 141305" d="M3737.833,1642.372l2.543-.622s2.676-3.129,2.582-4-1.026-2.55-.577-2.888a1.714,1.714,0,0,1,2.386.219c.669.707.938,3.778,1.282,3.909a13.836,13.836,0,0,0,2.759-.482,1.941,1.941,0,0,1,1.912.627h0a1.035,1.035,0,0,1,.037,1.3l-.461.6.583.495a1.034,1.034,0,0,1,.123,1.453l-.372.444.387.281a1.035,1.035,0,0,1,.157,1.533l-.336.37.085.1a1.036,1.036,0,0,1-.032,1.4l-.342.356-6.773,1.655a4.792,4.792,0,0,1-1.938.07l-2.479.188a.54.54,0,0,1-.567-.418l-1.358-5.95A.539.539,0,0,1,3737.833,1642.372Z" transform="translate(-3737.422 -1634.477)" fill="#fffbf0"/>
        </g>
      </g>
      <g id="Grupo_70053" data-name="Grupo 70053" transform="translate(2709.056 1366.966)">
        <path id="Trazado_141306" data-name="Trazado 141306" d="M3799.175,1461.151l-4.151.214-2.177,3.54a.405.405,0,0,1-.724-.067l-1.486-3.881-4.04-.976a.405.405,0,0,1-.159-.709l3.231-2.613-.319-4.144a.4.4,0,0,1,.625-.371l3.484,2.266,3.842-1.585a.4.4,0,0,1,.545.479l-1.078,4.014,2.694,3.164A.405.405,0,0,1,3799.175,1461.151Z" transform="translate(-3786.288 -1452.078)" fill="#faa95d"/>
      </g>
      <g id="Grupo_70054" data-name="Grupo 70054" transform="translate(2482.619 1343.82)">
        <path id="Trazado_141307" data-name="Trazado 141307" d="M2813.608,1365.824l-7.972-2.1-.889,5.417-2.6-.427,1.358-8.271,7.924,2.088.939-6.389,7.27,1.776,1.867-6.433,2.526.733-2.57,8.854-6.911-1.689Z" transform="translate(-2802.151 -1351.485)" fill="#faa95d"/>
      </g>
      <path id="Trazado_141308" data-name="Trazado 141308" d="M3209.506,1352.207l1.563-2.539-1.255-.509a.537.537,0,0,1-.3-.7h0a.537.537,0,0,1,.7-.3l1.448.587,1.4-2.28-1.341-.544a.536.536,0,0,1-.3-.7h0a.538.538,0,0,1,.7-.3l1.533.622,1.623-2.611a.537.537,0,0,1,.657-.214l.234.1a.536.536,0,0,1,.256.778l-1.509,2.464,2.222.9,1.623-2.611a.536.536,0,0,1,.657-.214l.256.1a.537.537,0,0,1,.256.778l-1.51,2.463,1.255.509a.537.537,0,0,1,.3.7h0a.537.537,0,0,1-.7.3l-1.448-.587-1.376,2.288,1.341.544a.537.537,0,0,1,.3.7h0a.537.537,0,0,1-.7.3l-1.533-.622-1.658,2.692a.536.536,0,0,1-.658.216l-.274-.111a.536.536,0,0,1-.255-.779l1.563-2.538-2.222-.9-1.658,2.693a.537.537,0,0,1-.658.216l-.274-.111A.537.537,0,0,1,3209.506,1352.207Zm5.664-2.034,1.4-2.28-2.223-.9-1.4,2.28Z" transform="translate(-633.098 -0.893)" fill="#ea7708"/>
      <path id="Trazado_141309" data-name="Trazado 141309" d="M3662.892,1849.052c-.7-.111-2.4-1.328-3-1.439-.465-.086-1.47-.238-1.9-.3-.525-1.96-3.19-12.646-3.489-15.778-.323-3.393-2.667-18.692-2.667-18.692l-6.27,1.749s2.581,11.293,3.294,16.769c.613,4.7,5.773,15.278,6.429,16.394,0,.027,0,.053,0,.082.1,1.66.9,1.106.9,1.106l1.3.332s4.6.442,4.9.553S3663.591,1849.163,3662.892,1849.052Z" transform="translate(-968.89 -362.869)" fill="#f7a491"/>
      <path id="Trazado_141310" data-name="Trazado 141310" d="M3456.955,1966.9l-75.742,3.468,6.041,111.43H3451.7Z" transform="translate(-765.359 -481.479)" fill="#d9a171"/>
      <path id="Trazado_141311" data-name="Trazado 141311" d="M3721.78,1980.771,3692.8,1966.9l-5.258,114.9,22.152-2.014Z" transform="translate(-1001.208 -481.479)" fill="#a66d58"/>
      <path id="Trazado_141312" data-name="Trazado 141312" d="M3738.72,1995.986l-11.4,102.84-8.894.82,9.706-108.74Z" transform="translate(-1024.98 -499.963)" fill="#905e4c"/>
      <path id="Trazado_141313" data-name="Trazado 141313" d="M3508.058,1971.821l-3.188,113.766-21-.112-3.953-112.367Z" transform="translate(-841.356 -485.27)" fill="#905e4c"/>
      <path id="Trazado_141314" data-name="Trazado 141314" d="M3400.538,2059.888a46.892,46.892,0,0,0-2.1,7.372c-.031.2.25,1.161.224,1.368-2.7,3.68-6.575,4.485-9.9,4.72,1.694-1.653,4.182-3.221,4.3-3.744a65.079,65.079,0,0,0,1.716-9.69C3396.844,2060.87,3398.247,2060.112,3400.538,2059.888Z" transform="translate(-771.169 -553.073)" fill="#ffb1a4"/>
      <path id="Trazado_141315" data-name="Trazado 141315" d="M3455.347,1887.539l5.936,16.719s-9.54,1.8-13.106,2.449-23.492,1.525-24,1.878c-.375.263-4.491,13.575-6.33,20.916a17.275,17.275,0,0,1-7.556-.747c1.026-10.5,4.733-27.144,5.92-28.955C3418.148,1896.849,3455.347,1887.539,3455.347,1887.539Z" transform="translate(-787.75 -420.38)" fill="#78759e"/>
      <path id="Trazado_141316" data-name="Trazado 141316" d="M3475.034,2091.741a47.1,47.1,0,0,0-.686,7.636c.008.2.464,1.094.477,1.3-1.96,4.12-5.618,5.638-8.839,6.491,1.354-1.942,3.5-3.947,3.523-4.484a65.007,65.007,0,0,0-.129-9.84C3471.589,2093.4,3472.825,2092.391,3475.034,2091.741Z" transform="translate(-830.627 -577.597)" fill="#ffb1a4"/>
      <path id="Trazado_141317" data-name="Trazado 141317" d="M3512.251,1891.311l2.3,3.932a11.27,11.27,0,0,1-5.65,16.2l-.1.04c-3.38,1.311-22.79,5.9-23.22,6.342-.318.328-1.867,14.177-2.3,21.732a17.271,17.271,0,0,1-7.562.682c-.96-10.509-.437-27.549.39-29.552C3477.456,1907.427,3512.251,1891.311,3512.251,1891.311Z" transform="translate(-837.724 -423.284)" fill="#a7a4bc"/>
      <path id="Trazado_141318" data-name="Trazado 141318" d="M3466.668,2125.2c.517-.571,2.414,2.571,2.887,3.24a1.5,1.5,0,0,1,.318,1.441c-.168.311-10.173,6.2-12.613,6.616a1.227,1.227,0,0,1-.73-.2c-.954-.844,3.436-7.076,5.407-7.9A9.458,9.458,0,0,0,3466.668,2125.2Z" transform="translate(-823.244 -603.306)" fill="#40264f"/>
      <path id="Trazado_141319" data-name="Trazado 141319" d="M3553.732,1777.283c-.211-2.552-.567-9.438-.453-10.285-.772-2.651-3.589-6.581-4.179-7.692,0,0,3.821-4.328,6.653-4.292,0,0,3.014,3.806,5.251,4.973a5.539,5.539,0,0,0,1.125.336c2.161-.015,9.708-.244,11.116.176l-.8,11.662c-.406.668-.9,14.078-1.733,15.181s-12.983,6.128-15,4.832C3555.638,1792.123,3554.158,1782.442,3553.732,1777.283Z" transform="translate(-894.618 -318.347)" fill="#fffbf0"/>
      <path id="Trazado_141320" data-name="Trazado 141320" d="M3635.234,1778.688c3.1-.564,5.661,13.314,5.661,13.314s-6.891,1.924-8.657.915c0,0-2-8.883-2.722-8.573Z" transform="translate(-956.531 -336.561)" fill="#fffbf0"/>
      <path id="Trazado_141321" data-name="Trazado 141321" d="M3606.144,1752.361a31.043,31.043,0,0,0-.626,5.641c.156,1.6-.6,6.739-3.975,6.756s-.642-6.539-.323-8.1a59.892,59.892,0,0,0,.393-6.4Z" transform="translate(-933.709 -314.68)" fill="#f7a491"/>
      <path id="Trazado_141322" data-name="Trazado 141322" d="M3607.136,1752.679c.053-1.324.07-2.428.07-2.428l4.529,2.11s-.16.827-.32,1.881A3.956,3.956,0,0,1,3607.136,1752.679Z" transform="translate(-939.3 -314.68)" fill="#f47458"/>
      <path id="Trazado_141325" data-name="Trazado 141325" d="M3388.886,2092.276c.615-.464,1.89,2.977,2.229,3.724a1.5,1.5,0,0,1,.042,1.474c-.223.274-11.154,4.181-13.629,4.135a1.225,1.225,0,0,1-.681-.328c-.779-1.008,4.7-6.308,6.79-6.743A9.464,9.464,0,0,0,3388.886,2092.276Z" transform="translate(-761.94 -577.976)" fill="#40264f"/>
      <path id="Trazado_141326" data-name="Trazado 141326" d="M3632.023,1709.705s.817,6.041,2.771,7.131,1.136,3.77,1.136,3.77,1.771-6.223.227-8.221A8.594,8.594,0,0,0,3632.023,1709.705Z" transform="translate(-958.461 -283.463)" fill="#40264f"/>
      <path id="Trazado_141327" data-name="Trazado 141327" d="M3637.714,1741.4c-.53.788-.528,1.716,0,2.074s1.392.01,1.922-.777.527-1.715,0-2.073S3638.243,1740.61,3637.714,1741.4Z" transform="translate(-962.538 -307.157)" fill="#f7a491"/>
      <path id="Trazado_141328" data-name="Trazado 141328" d="M3527.164,1615.391l.011-.245s1.719-.334,2.7-.657a16.343,16.343,0,0,0,2.307-1.076,12.311,12.311,0,0,1-.987,2.119c-.178.032-3.1.412-3.122.388S3527.164,1615.391,3527.164,1615.391Z" transform="translate(-877.729 -209.326)" fill="#f7a491"/>
      <path id="Trazado_141329" data-name="Trazado 141329" d="M3610.4,1745.93l3.178.8a1.445,1.445,0,0,1-1.79.9C3610.073,1747.247,3610.4,1745.93,3610.4,1745.93Z" transform="translate(-941.795 -311.353)" fill="#fffbf0"/>
      <g id="Grupo_70059" data-name="Grupo 70059" transform="translate(2614.529 1369.1)">
        <path id="Trazado_141330" data-name="Trazado 141330" d="M3436.941,1494.515c-.024-.1-.047-.2-.067-.3a6.838,6.838,0,0,1,5.369-8.043c.167-.033.335-.058.5-.079l-3.371-16.906c-.162.045-.326.086-.494.12a6.838,6.838,0,0,1-8.043-5.369c-.013-.067-.023-.134-.035-.2l-47.65,9.5c.015.066.031.131.044.2a6.839,6.839,0,0,1-5.369,8.043l3.362,16.865a6.838,6.838,0,0,1,8.043,5.369c.02.1.037.2.052.3Z" transform="translate(-3377.283 -1463.192)" fill="#d9a171"/>
        <path id="Trazado_141331" data-name="Trazado 141331" d="M3384.962,1535.568l1.72,8.632a6.838,6.838,0,0,1,8.043,5.369c.02.1.037.2.053.3l47.655-9.5c-.024-.1-.047-.2-.067-.3a6.838,6.838,0,0,1,5.369-8.043c.168-.033.335-.058.5-.079l-1.725-8.652Z" transform="translate(-3382.775 -1509.047)" fill="#a66d58"/>
        <g id="Grupo_70055" data-name="Grupo 70055" transform="translate(10.622 5.325)">
          <path id="Trazado_141332" data-name="Trazado 141332" d="M3466.444,1506.644l-40.409,8.055-4.414-22.144,40.409-8.055Zm-39.827,7.184,38.956-7.765-4.124-20.691-38.957,7.765Z" transform="translate(-3421.621 -1484.5)" fill="#8b2544"/>
        </g>
        <g id="Grupo_70058" data-name="Grupo 70058" transform="translate(0 0)">
          <path id="Trazado_141342" data-name="Trazado 141342" d="M3435.68,1493.041l-48.606,9.688-.074-.479c-.015-.093-.03-.187-.048-.28a6.381,6.381,0,0,0-7.5-5.005l-.456.091-3.543-17.776.455-.091a6.381,6.381,0,0,0,5-7.5c-.009-.043-.019-.086-.028-.129l-.12-.521,48.587-9.685.089.527c.007.044.014.087.023.13a6.382,6.382,0,0,0,7.5,5.005c.14-.028.29-.064.46-.111l.482-.134,3.565,17.886-.5.061c-.176.022-.329.046-.468.073a6.381,6.381,0,0,0-5,7.5c.019.094.041.186.063.278Zm-47.851,8.592,46.733-9.315a7.311,7.311,0,0,1,5.763-8.432l.042-.009-3.18-15.955-.042.009a7.312,7.312,0,0,1-8.534-5.479l-46.739,9.316a7.313,7.313,0,0,1-5.329,8.227l3.186,15.984A7.312,7.312,0,0,1,3387.829,1501.633Z" transform="translate(-3375.456 -1461.357)" fill="#8b2544"/>
        </g>
      </g>
      <path id="Trazado_141343" data-name="Trazado 141343" d="M3540.117,1597.852a1.733,1.733,0,0,0-.879.616c-.583.628-1.094,1.894-1.185,1.8a51.077,51.077,0,0,1-5.568,2.809,5.087,5.087,0,0,1-.28.633l3.257,1.891c.11-.17.206-.315.275-.421a8.489,8.489,0,0,1,1.579-1.746,6.9,6.9,0,0,0,1.551-1.669c.12-.3.475-1.094.665-1.518s.43-.915.5-1.151a2.374,2.374,0,0,1,.421-.586A.4.4,0,0,0,3540.117,1597.852Z" transform="translate(-881.609 -197.343)" fill="#f7a491"/>
      <g id="Grupo_70005" data-name="Grupo 70005" transform="translate(2676.999 1440.141) rotate(-173)">
        <g id="Grupo_70003" data-name="Grupo 70003">
          <path id="Trazado_141148" data-name="Trazado 141148" d="M2.362.023a2.051,2.051,0,0,1,.6,3.866A.182.182,0,0,1,2.8,3.564a1.688,1.688,0,1,0-.671.172.182.182,0,0,1,.016.363A2.05,2.05,0,0,1,.538.666,2.036,2.036,0,0,1,1.96,0,2.1,2.1,0,0,1,2.362.023Z" transform="translate(0 0)" fill="#d9a171"/>
        </g>
        <g id="Grupo_70004" data-name="Grupo 70004" opacity="0.5">
          <path id="Trazado_141149" data-name="Trazado 141149" d="M2.362.023a2.051,2.051,0,0,1,.6,3.866A.182.182,0,0,1,2.8,3.564a1.688,1.688,0,1,0-.671.172.182.182,0,0,1,.016.363A2.05,2.05,0,0,1,.538.666,2.036,2.036,0,0,1,1.96,0,2.1,2.1,0,0,1,2.362.023Z" transform="translate(0 0)" fill="#fff"/>
        </g>
      </g>
      <g id="Grupo_70011" data-name="Grupo 70011" transform="translate(2668.082 1435.682) rotate(-173)">
        <g id="Grupo_70009" data-name="Grupo 70009">
          <path id="Trazado_141165" data-name="Trazado 141165" d="M2.362.023a2.051,2.051,0,0,1,.6,3.866A.182.182,0,1,1,2.8,3.564a1.688,1.688,0,1,0-.671.172.182.182,0,0,1,.016.363A2.05,2.05,0,0,1,.538.667,2.055,2.055,0,0,1,2.362.023Z" transform="translate(0 0)" fill="#d9a171"/>
        </g>
        <g id="Grupo_70010" data-name="Grupo 70010" opacity="0.5">
          <path id="Trazado_141166" data-name="Trazado 141166" d="M2.362.023a2.051,2.051,0,0,1,.6,3.866A.182.182,0,1,1,2.8,3.564a1.688,1.688,0,1,0-.671.172.182.182,0,0,1,.016.363A2.05,2.05,0,0,1,.538.667,2.055,2.055,0,0,1,2.362.023Z" transform="translate(0 0)" fill="#fff"/>
        </g>
      </g>
      <path id="Trazado_141324" data-name="Trazado 141324" d="M3598.156,1723.609c.088.9.585,1.589,1.11,1.538s.878-.823.791-1.724-.585-1.589-1.11-1.537S3598.067,1722.708,3598.156,1723.609Z" transform="translate(-932.376 -292.838)" fill="#f7a491"/>
      <path id="Trazado_141323" data-name="Trazado 141323" d="M3607.643,1709.105a5.611,5.611,0,0,1,2.384,3.067c.638,2.1-.089,7.515-4.6,8.821s-6.462-2.982-5.533-6.334S3602.845,1707.061,3607.643,1709.105Z" transform="translate(-933.552 -282.59)" fill="#f7a491"/>
      <g id="Grupo_70006" data-name="Grupo 70006" transform="matrix(0.97, 0.242, -0.242, 0.97, 2669.264, 1430.087)">
        <path id="Trazado_141152" data-name="Trazado 141152" d="M-.153.756c.052.335.275.579.5.544S.707.967.655.631.38.053.157.087-.206.422-.153.756Z" transform="translate(0.145 0.319)" fill="#263238"/>
        <path id="Trazado_141153" data-name="Trazado 141153" d="M.669.344-.1.171S.353.729.669.344Z" transform="translate(-0.271 0.064)" fill="#263238"/>
      </g>
      <path id="Trazado_141151" data-name="Trazado 141151" d="M1.314,2.168A8.735,8.735,0,0,0,0,.542,1.134,1.134,0,0,1,1.054,0Z" transform="translate(2672.251 1434.288) rotate(-157)" fill="#d68764"/>
      <g id="Grupo_70007" data-name="Grupo 70007" transform="translate(2674.334 1432.127) rotate(-173)">
        <path id="Trazado_141154" data-name="Trazado 141154" d="M0,.649C-.027.312.131.021.356,0S.789.237.819.575.692,1.2.467,1.223.035.987,0,.649Z" transform="translate(0.148 0)" fill="#263238"/>
        <path id="Trazado_141155" data-name="Trazado 141155" d="M.708.077,0,.432S.309-.219.708.077Z" transform="translate(0 1.121)" fill="#263238"/>
      </g>
      <path id="Trazado_141156" data-name="Trazado 141156" d="M0,.743A2.148,2.148,0,0,0,1.743,0" transform="translate(2670.721 1429.954) rotate(-163)" fill="none" stroke="#263238" stroke-linecap="round" stroke-linejoin="round" stroke-width="0.725"/>
      <path id="Trazado_141157" data-name="Trazado 141157" d="M1.664.227A1.926,1.926,0,0,1,0,0" transform="translate(2675.424 1430.459) rotate(-163)" fill="none" stroke="#263238" stroke-linecap="round" stroke-linejoin="round" stroke-width="0.725"/>
      <g id="Grupo_70008" data-name="Grupo 70008" transform="translate(2671.65 1437.165) rotate(-173)">
        <path id="Trazado_141160" data-name="Trazado 141160" d="M0,1.449A10.433,10.433,0,0,0,.431,0C.52,0,.609.007.7.015,1.9.094,2.435.529,2.66.987A1.561,1.561,0,0,1,2.8,1.71a1.5,1.5,0,0,1-.062.417A5.691,5.691,0,0,0,.41,1.482C.159,1.454,0,1.449,0,1.449Z" fill="#263238"/>
        <path id="Trazado_141161" data-name="Trazado 141161" d="M0,.424.138,0A3.588,3.588,0,0,1,2.394.651a1.5,1.5,0,0,1-.062.417A5.69,5.69,0,0,0,0,.424Z" transform="translate(0.41 1.058)" fill="#fff"/>
        <path id="Trazado_141162" data-name="Trazado 141162" d="M0,0C1.2.079,1.738.514,1.963.972A3.876,3.876,0,0,1,.642.618,1.457,1.457,0,0,1,0,0Z" transform="translate(0.697 0.015)" fill="#de5753"/>
      </g>
    </g>
  </g>
</svg>
