<svg xmlns="http://www.w3.org/2000/svg" width="295" height="190" viewBox="0 0 295 190">
  <g id="Grupo_69951" data-name="Grupo 69951" transform="translate(-285 -11489)">
    <rect id="Rectángulo_31353" data-name="Rectángulo 31353" width="295" height="190" transform="translate(285 11489)" fill="none"/>
    <g id="Grupo_69949" data-name="Grupo 69949" transform="translate(293.372 11357.961)">
      <rect id="Rectángulo_31810" data-name="Rectángulo 31810" width="217.409" height="116.748" transform="translate(32.765 186.194)" fill="#f2c190"/>
      <rect id="Rectángulo_31811" data-name="Rectángulo 31811" width="217.409" height="30.155" transform="translate(32.765 272.787)" fill="#a66d58"/>
      <rect id="Rectángulo_31812" data-name="Rectángulo 31812" width="217.409" height="4.355" transform="translate(32.765 272.787)" fill="#ebae6c"/>
      <rect id="Rectángulo_31813" data-name="Rectángulo 31813" width="22.755" height="56.584" transform="translate(147.315 216.202)" fill="#5e6178"/>
      <rect id="Rectángulo_31814" data-name="Rectángulo 31814" width="22.757" height="56.584" transform="translate(223.063 216.202)" fill="#5e6178"/>
      <rect id="Rectángulo_31815" data-name="Rectángulo 31815" width="44.337" height="93.219" transform="translate(174.425 209.723)" fill="#d9a171"/>
      <rect id="Rectángulo_31816" data-name="Rectángulo 31816" width="4.355" height="93.219" transform="translate(218.764 209.723)" fill="#ebae6c"/>
      <rect id="Rectángulo_31817" data-name="Rectángulo 31817" width="4.356" height="93.219" transform="translate(170.07 209.723)" fill="#ebae6c"/>
      <rect id="Rectángulo_31818" data-name="Rectángulo 31818" width="4.356" height="116.748" transform="translate(142.959 186.194)" fill="#ebae6c"/>
      <rect id="Rectángulo_31819" data-name="Rectángulo 31819" width="4.355" height="116.748" transform="translate(245.82 186.194)" fill="#ebae6c"/>
      <path id="Trazado_140931" data-name="Trazado 140931" d="M89.047,160.924H80.341v38.322A4.364,4.364,0,0,0,84.7,203.6h0a4.364,4.364,0,0,0,4.351-4.351Z" transform="translate(151.887 25.27)" fill="#6595bf" fill-rule="evenodd"/>
      <path id="Trazado_140932" data-name="Trazado 140932" d="M86.667,160.924H77.961v39.084a3.6,3.6,0,0,0,3.594,3.59h1.522a3.6,3.6,0,0,0,3.59-3.59Z" transform="translate(145.557 25.27)" fill="#fff" fill-rule="evenodd"/>
      <path id="Trazado_140933" data-name="Trazado 140933" d="M84.291,160.924h-8.71v38.322a4.367,4.367,0,0,0,4.355,4.351h0a4.367,4.367,0,0,0,4.355-4.351Z" transform="translate(139.228 25.27)" fill="#6595bf" fill-rule="evenodd"/>
      <path id="Trazado_140934" data-name="Trazado 140934" d="M81.908,160.924H73.2v38.322a4.364,4.364,0,0,0,4.355,4.351h0a4.364,4.364,0,0,0,4.351-4.351Z" transform="translate(132.901 25.27)" fill="#fff" fill-rule="evenodd"/>
      <path id="Trazado_140935" data-name="Trazado 140935" d="M79.532,160.924h-8.71v38.322a4.365,4.365,0,0,0,4.355,4.351h0a4.367,4.367,0,0,0,4.355-4.351Z" transform="translate(126.571 25.27)" fill="#6595bf" fill-rule="evenodd"/>
      <path id="Trazado_140936" data-name="Trazado 140936" d="M77.149,160.924H68.443v38.322a4.364,4.364,0,0,0,4.351,4.351h0a4.364,4.364,0,0,0,4.355-4.351Z" transform="translate(120.244 25.27)" fill="#fff" fill-rule="evenodd"/>
      <path id="Trazado_140937" data-name="Trazado 140937" d="M74.773,160.924h-8.71v38.322a4.367,4.367,0,0,0,4.355,4.351h0a4.367,4.367,0,0,0,4.355-4.351Z" transform="translate(113.914 25.27)" fill="#6595bf" fill-rule="evenodd"/>
      <path id="Trazado_140938" data-name="Trazado 140938" d="M72.393,160.924h-8.71v39.084a3.6,3.6,0,0,0,3.594,3.59H68.8a3.6,3.6,0,0,0,3.594-3.59Z" transform="translate(107.585 25.27)" fill="#fff" fill-rule="evenodd"/>
      <path id="Trazado_140939" data-name="Trazado 140939" d="M70.01,160.924H61.3v38.322a4.365,4.365,0,0,0,4.355,4.351h0a4.364,4.364,0,0,0,4.351-4.351Z" transform="translate(101.258 25.27)" fill="#6595bf" fill-rule="evenodd"/>
      <path id="Trazado_140940" data-name="Trazado 140940" d="M67.634,160.924h-8.71v38.322a4.367,4.367,0,0,0,4.355,4.351h0a4.365,4.365,0,0,0,4.355-4.351Z" transform="translate(94.928 25.27)" fill="#fff" fill-rule="evenodd"/>
      <path id="Trazado_140941" data-name="Trazado 140941" d="M65.251,160.924H56.545v38.322A4.365,4.365,0,0,0,60.9,203.6h0a4.364,4.364,0,0,0,4.351-4.351Z" transform="translate(88.601 25.27)" fill="#6595bf" fill-rule="evenodd"/>
      <path id="Trazado_140942" data-name="Trazado 140942" d="M67.593,185.024a2.681,2.681,0,1,0-2.682-2.682A2.686,2.686,0,0,0,67.593,185.024Z" transform="translate(110.851 75.106)" fill="#815c4a" fill-rule="evenodd"/>
      <rect id="Rectángulo_31820" data-name="Rectángulo 31820" width="105.84" height="56.584" transform="translate(37.119 216.202)" fill="#5e6178"/>
      <rect id="Rectángulo_31821" data-name="Rectángulo 31821" width="4.354" height="86.592" transform="translate(32.765 186.194)" fill="#ebae6c"/>
      <rect id="Rectángulo_31822" data-name="Rectángulo 31822" width="101.937" height="4.195" transform="translate(36.505 210.899)" fill="#ebae6c"/>
      <rect id="Rectángulo_31823" data-name="Rectángulo 31823" width="101.937" height="4.194" transform="translate(36.505 186.194)" fill="#ebae6c"/>
      <rect id="Rectángulo_31824" data-name="Rectángulo 31824" width="4.355" height="60.939" transform="translate(115.56 211.846)" fill="#ebae6c"/>
      <rect id="Rectángulo_31825" data-name="Rectángulo 31825" width="4.356" height="60.939" transform="translate(88.498 211.846)" fill="#ebae6c"/>
      <rect id="Rectángulo_31826" data-name="Rectángulo 31826" width="4.355" height="60.939" transform="translate(61.318 211.846)" fill="#ebae6c"/>
      <path id="Trazado_140943" data-name="Trazado 140943" d="M235.031,154.126H59.416L23.23,179H258.456Z" transform="translate(0.001 7.191)" fill="#5e6178" fill-rule="evenodd"/>
      <path id="Trazado_140948" data-name="Trazado 140948" d="M60.492,160.924H51.786v38.322a4.364,4.364,0,0,0,4.351,4.351h0a4.365,4.365,0,0,0,4.355-4.351Z" transform="translate(75.945 25.27)" fill="#6595bf" fill-rule="evenodd"/>
      <path id="Trazado_140949" data-name="Trazado 140949" d="M58.116,160.924h-8.71v39.084A3.6,3.6,0,0,0,53,203.6h1.522a3.6,3.6,0,0,0,3.594-3.59Z" transform="translate(69.615 25.27)" fill="#fff" fill-rule="evenodd"/>
      <path id="Trazado_140950" data-name="Trazado 140950" d="M55.736,160.924h-8.71v38.322a4.367,4.367,0,0,0,4.355,4.351h0a4.365,4.365,0,0,0,4.355-4.351Z" transform="translate(63.286 25.27)" fill="#6595bf" fill-rule="evenodd"/>
      <path id="Trazado_140951" data-name="Trazado 140951" d="M53.353,160.924H44.647v38.322A4.364,4.364,0,0,0,49,203.6h0a4.365,4.365,0,0,0,4.355-4.351Z" transform="translate(56.959 25.27)" fill="#fff" fill-rule="evenodd"/>
      <path id="Trazado_140952" data-name="Trazado 140952" d="M50.977,160.924h-8.71v38.322a4.367,4.367,0,0,0,4.355,4.351h0a4.367,4.367,0,0,0,4.355-4.351Z" transform="translate(50.629 25.27)" fill="#6595bf" fill-rule="evenodd"/>
      <path id="Trazado_140953" data-name="Trazado 140953" d="M48.594,160.924H39.888v38.322a4.365,4.365,0,0,0,4.355,4.351h0a4.364,4.364,0,0,0,4.351-4.351Z" transform="translate(44.302 25.27)" fill="#fff" fill-rule="evenodd"/>
      <path id="Trazado_140954" data-name="Trazado 140954" d="M46.218,160.924h-8.71v38.322a4.365,4.365,0,0,0,4.355,4.351h0a4.367,4.367,0,0,0,4.355-4.351Z" transform="translate(37.972 25.27)" fill="#6595bf" fill-rule="evenodd"/>
      <path id="Trazado_140955" data-name="Trazado 140955" d="M43.835,160.924H35.129v39.084a3.6,3.6,0,0,0,3.59,3.59h1.522a3.6,3.6,0,0,0,3.594-3.59Z" transform="translate(31.645 25.27)" fill="#fff" fill-rule="evenodd"/>
      <path id="Trazado_140956" data-name="Trazado 140956" d="M41.459,160.924h-8.71v38.322A4.365,4.365,0,0,0,37.1,203.6h0a4.367,4.367,0,0,0,4.355-4.351Z" transform="translate(25.316 25.27)" fill="#6595bf" fill-rule="evenodd"/>
      <path id="Trazado_140957" data-name="Trazado 140957" d="M39.079,160.924h-8.71v38.322a4.367,4.367,0,0,0,4.355,4.351h0a4.367,4.367,0,0,0,4.355-4.351Z" transform="translate(18.986 25.27)" fill="#fff" fill-rule="evenodd"/>
      <path id="Trazado_140958" data-name="Trazado 140958" d="M36.7,160.924H27.99v38.322a4.364,4.364,0,0,0,4.351,4.351h0a4.365,4.365,0,0,0,4.355-4.351Z" transform="translate(12.659 25.27)" fill="#6595bf" fill-rule="evenodd"/>
      <path id="Trazado_140959" data-name="Trazado 140959" d="M34.316,160.924H25.61v38.322a4.367,4.367,0,0,0,4.355,4.351h0a4.364,4.364,0,0,0,4.351-4.351Z" transform="translate(6.33 25.27)" fill="#fff" fill-rule="evenodd"/>
      <path id="Trazado_140960" data-name="Trazado 140960" d="M31.94,160.924H23.23v38.322a4.367,4.367,0,0,0,4.355,4.351h0a4.365,4.365,0,0,0,4.355-4.351Z" transform="translate(0 25.27)" fill="#6595bf" fill-rule="evenodd"/>
      <path id="Trazado_140961" data-name="Trazado 140961" d="M91.43,160.924H82.72v39.084a3.6,3.6,0,0,0,3.594,3.59h1.522a3.6,3.6,0,0,0,3.594-3.59Z" transform="translate(158.214 25.27)" fill="#fff" fill-rule="evenodd"/>
      <path id="Trazado_140962" data-name="Trazado 140962" d="M62.875,160.924h-8.71v38.322A4.367,4.367,0,0,0,58.52,203.6h0a4.367,4.367,0,0,0,4.355-4.351Z" transform="translate(82.272 25.27)" fill="#fff" fill-rule="evenodd"/>
      <path id="Trazado_140963" data-name="Trazado 140963" d="M93.806,160.924H85.1v38.322a4.365,4.365,0,0,0,4.355,4.351h0a4.364,4.364,0,0,0,4.351-4.351Z" transform="translate(164.543 25.27)" fill="#6595bf" fill-rule="evenodd"/>
      <rect id="Rectángulo_31831" data-name="Rectángulo 31831" width="44.337" height="3.78" transform="translate(174.425 299.162)" fill="#815c4a"/>
      <g id="Grupo_69948" data-name="Grupo 69948" transform="translate(54.026 138.766)">
        <rect id="Rectángulo_31832" data-name="Rectángulo 31832" width="178.202" height="34.771" rx="0.86" fill="#a66d58"/>
        <rect id="Rectángulo_31833" data-name="Rectángulo 31833" width="169.565" height="26.577" rx="0.717" transform="translate(4.32 4.098)" fill="#d9a171"/>
        <text id="RESTAURANTE" transform="translate(25.102 23.887)" fill="#815c4a" font-size="19" font-family="Roboto-Black, Roboto" font-weight="800"><tspan x="0" y="0">RESTAURANTE</tspan></text>
      </g>
    </g>
  </g>
</svg>
