<svg xmlns="http://www.w3.org/2000/svg" width="190" height="149" viewBox="0 0 190 149">
  <g id="Grupo_68417" data-name="Grupo 68417" transform="translate(-390 -3379)">
    <rect id="Rectángulo_31394" data-name="Rectángulo 31394" width="190" height="149" transform="translate(390 3379)" fill="none"/>
    <g id="Grupo_63583" data-name="Grupo 63583" transform="translate(411 3379)">
      <rect id="Rectángulo_15050" data-name="Rectángulo 15050" width="149" height="149" transform="translate(0 0)" fill="none"/>
      <g id="Grupo_63578" data-name="Grupo 63578" transform="translate(3.513 3.374)">
        <ellipse id="Elipse_4751" data-name="Elipse 4751" cx="64.874" cy="64.874" rx="64.874" ry="64.874" transform="translate(0 129.118) rotate(-84.35)" fill="#f2e9e4"/>
        <path id="Trazado_140460" data-name="Trazado 140460" d="M1069.17,3294.64h-3.385a61.5,61.5,0,1,1-18.011-43.478,61.5,61.5,0,0,1,18.011,43.478h6.771a68.26,68.26,0,1,0-20,48.276,68.258,68.258,0,0,0,20-48.276Z" transform="translate(-933.309 -3223.514)" fill="#f2e9e4"/>
      </g>
      <g id="Grupo_63582" data-name="Grupo 63582" transform="translate(18.107 32.643)">
        <g id="Grupo_63581" data-name="Grupo 63581" transform="translate(0)">
          <g id="Grupo_63579" data-name="Grupo 63579" transform="translate(1.818 1.824)">
            <path id="Trazado_140461" data-name="Trazado 140461" d="M983.39,3368.39h25.479v14.561H983.39Z" transform="translate(-968.854 -3311.978)" fill="#aed3f2"/>
            <path id="Trazado_140462" data-name="Trazado 140462" d="M1123.85,3374.5h10.919v7.277H1123.85Z" transform="translate(-1025.6 -3314.447)" fill="#aed3f2"/>
            <path id="Trazado_140463" data-name="Trazado 140463" d="M1081.1,3398.93h25.479v5.459H1081.1Z" transform="translate(-1008.329 -3324.317)" fill="#aed3f2"/>
            <path id="Trazado_140464" data-name="Trazado 140464" d="M959,3273.74v47.31h109.193v-47.31Zm32.78,18.2H966.259v-10.889h25.479Z" transform="translate(-959 -3273.74)" fill="#aed3f2"/>
          </g>
          <g id="Grupo_63580" data-name="Grupo 63580">
            <path id="Trazado_140465" data-name="Trazado 140465" d="M1066.942,3369h-9.1a1.817,1.817,0,0,0-1.818-1.824H999.606a1.788,1.788,0,0,0-1.788-1.788H972.31a1.824,1.824,0,0,0-1.788,1.788v.56l-13.38,5.019a1.818,1.818,0,0,0,0,3.4l13.38,5.018v.561a1.788,1.788,0,0,0,1.788,1.788h25.479a1.788,1.788,0,0,0,1.788-1.788h43.681v1.788h-12.713a1.824,1.824,0,0,0-1.788,1.824v5.459a1.824,1.824,0,0,0,1.788,1.788h25.479a1.788,1.788,0,0,0,1.818-1.788v-5.459a1.817,1.817,0,0,0-1.818-1.824h-9.1v-1.788h9.1a1.788,1.788,0,0,0,1.818-1.818h9.1a1.818,1.818,0,0,0,1.788-1.824v-7.277a1.788,1.788,0,0,0-1.788-1.817Zm-96.451,8.29-7.557-2.831,7.557-2.837Zm25.479,2.628H974.133V3369h21.837Zm58.235,7.289V3389h-21.837v-1.788Zm0-9.1h-54.6v-7.29h54.6Zm10.919-1.818h-7.283v-3.641h7.283Z" transform="translate(-955.955 -3308.942)" fill="#344154"/>
            <path id="Trazado_140466" data-name="Trazado 140466" d="M1066.937,3270.68H957.768a1.824,1.824,0,0,0-1.818,1.824v47.311a1.824,1.824,0,0,0,1.818,1.823h109.193a1.818,1.818,0,0,0,1.788-1.823V3272.5a1.818,1.818,0,0,0-1.812-1.824ZM1065.119,3318H959.556v-43.675h105.551Z" transform="translate(-955.95 -3270.68)" fill="#344154"/>
            <path id="Trazado_140467" data-name="Trazado 140467" d="M969.944,3297.494h25.479a1.788,1.788,0,0,0,1.818-1.818v-10.888a1.788,1.788,0,0,0-1.818-1.788H969.944a1.817,1.817,0,0,0-1.824,1.788v10.918a1.818,1.818,0,0,0,1.824,1.789Zm1.818-10.919H993.6v7.283H971.762Z" transform="translate(-960.867 -3275.657)" fill="#344154"/>
            <path id="Trazado_140468" data-name="Trazado 140468" d="M969.524,3325.729a1.824,1.824,0,0,0,1.669-1.919,1.086,1.086,0,0,1,.96-.262,5.459,5.459,0,0,1,2.384,2.3,9.412,9.412,0,0,0,4.124,3.785,5.883,5.883,0,0,0,2.05.369c2.384,0,4.631-1.383,6.228-2.384a68.653,68.653,0,0,1,10.352-5.25c2.491-1.013,5.364-1.919,7.677-.983a11.972,11.972,0,0,1,2.837,1.907,15.387,15.387,0,0,0,3.54,2.384c3.719,1.633,7.855.412,10.644-.649a52.2,52.2,0,0,0,11.437-6.062l.3-.215a10.262,10.262,0,0,1,2.384-1.406,2.045,2.045,0,0,1,1.788.088,1.82,1.82,0,1,0,2.235-2.873,5.53,5.53,0,0,0-5.209-.661,13.617,13.617,0,0,0-3.32,1.877l-.292.208a48.517,48.517,0,0,1-10.639,5.638c-2.187.835-5.364,1.788-7.891.721a12.913,12.913,0,0,1-2.706-1.854,14.642,14.642,0,0,0-3.767-2.456c-1.865-.75-4.732-1.316-10.412.984a72.777,72.777,0,0,0-10.853,5.518c-1.979,1.222-3.725,2.194-5.09,1.687a6.586,6.586,0,0,1-2.426-2.479,8.56,8.56,0,0,0-4.351-3.7,4.767,4.767,0,0,0-4.22.882,3.624,3.624,0,0,0-1.395,3.129,1.787,1.787,0,0,0,1.955,1.668Z" transform="translate(-960.638 -3287.99)" fill="#344154"/>
            <path id="Trazado_140469" data-name="Trazado 140469" d="M1104.314,3286.535H1118.9a1.818,1.818,0,0,0,0-3.635h-14.56a1.818,1.818,0,0,0,0,3.635Z" transform="translate(-1015.165 -3275.617)" fill="#344154"/>
            <path id="Trazado_140470" data-name="Trazado 140470" d="M1123.831,3292.06h-7.283a1.818,1.818,0,0,0,0,3.636h7.283a1.818,1.818,0,0,0,0-3.636Z" transform="translate(-1020.097 -3279.317)" fill="#344154"/>
          </g>
        </g>
        <rect id="Rectángulo_15051" data-name="Rectángulo 15051" width="21.837" height="7.277" transform="translate(10.895 10.919)" fill="#fff" stroke="#344154" stroke-miterlimit="10" stroke-width="1"/>
      </g>
    </g>
  </g>
</svg>
