<svg xmlns="http://www.w3.org/2000/svg" width="400" height="350" viewBox="0 0 400 350">
  <g id="Grupo_63266" data-name="Grupo 63266" transform="translate(-1020 -6526)">
    <rect id="Rectángulo_31148" data-name="Rectángulo 31148" width="400" height="350" transform="translate(1020 6526)" fill="none"/>
    <g id="Grupo_63265" data-name="Grupo 63265" transform="translate(-4236.614 3733.01)">
      <g id="Grupo_57146" data-name="Grupo 57146" transform="translate(5256.614 2837.178)">
        <g id="freepik--background-complete--inject-68" transform="translate(0 0)">
          <rect id="Rectángulo_8091" data-name="Rectángulo 8091" width="400" height="0.2" transform="translate(0 261.92)" fill="#aed3f2"/>
          <rect id="Rectángulo_8092" data-name="Rectángulo 8092" width="15.016" height="0.2" transform="translate(359.704 268.976)" fill="#aed3f2"/>
          <rect id="Rectángulo_8093" data-name="Rectángulo 8093" width="6.952" height="0.2" transform="translate(298.456 274.464)" fill="#aed3f2"/>
          <rect id="Rectángulo_8094" data-name="Rectángulo 8094" width="15.488" height="0.2" transform="translate(223.968 271.704)" fill="#aed3f2"/>
          <rect id="Rectángulo_8095" data-name="Rectángulo 8095" width="34.552" height="0.2" transform="translate(64.744 271.6)" fill="#aed3f2"/>
          <rect id="Rectángulo_8096" data-name="Rectángulo 8096" width="5.064" height="0.2" transform="translate(52.56 271.6)" fill="#aed3f2"/>
          <rect id="Rectángulo_8097" data-name="Rectángulo 8097" width="74.944" height="0.2" transform="translate(151.44 266.864)" fill="#aed3f2"/>
          <path id="Trazado_106057" data-name="Trazado 106057" d="M5453.856,3067.508H5299.384a4.568,4.568,0,0,1-4.56-4.568V2845.8a4.569,4.569,0,0,1,4.56-4.528h154.472a4.569,4.569,0,0,1,4.568,4.568h0v217.1A4.568,4.568,0,0,1,5453.856,3067.508Zm-154.472-226.08a4.367,4.367,0,0,0-4.359,4.368V3062.94a4.366,4.366,0,0,0,4.359,4.368h154.472a4.376,4.376,0,0,0,4.369-4.368V2845.8a4.377,4.377,0,0,0-4.369-4.368Z" transform="translate(-5264.256 -2841.268)" fill="#aed3f2"/>
          <path id="Trazado_106058" data-name="Trazado 106058" d="M5670.163,3067.508h-154.48a4.575,4.575,0,0,1-4.568-4.568V2845.8a4.577,4.577,0,0,1,4.568-4.528h154.48a4.569,4.569,0,0,1,4.552,4.528V3062.94A4.569,4.569,0,0,1,5670.163,3067.508Zm-154.48-226.08a4.376,4.376,0,0,0-4.369,4.368V3062.94a4.376,4.376,0,0,0,4.369,4.368h154.48a4.375,4.375,0,0,0,4.368-4.368V2845.8a4.375,4.375,0,0,0-4.368-4.368Z" transform="translate(-5307.515 -2841.268)" fill="#aed3f2"/>
          <rect id="Rectángulo_8098" data-name="Rectángulo 8098" width="161.8" height="115.304" transform="translate(46.968 14.944)" fill="#fafafa"/>
          <rect id="Rectángulo_8099" data-name="Rectángulo 8099" width="163.392" height="115.304" transform="translate(48.368 14.944)" fill="#aed3f2"/>
          <rect id="Rectángulo_8100" data-name="Rectángulo 8100" width="155.008" height="105.888" transform="translate(52.56 19.648)" fill="#fafafa"/>
          <path id="Trazado_106059" data-name="Trazado 106059" d="M5357.594,2971.716l24.592-105.888h32.24l-24.592,105.888Z" transform="translate(-5276.81 -2846.18)" fill="#fff" stroke="#5e6178" stroke-miterlimit="10" stroke-width="0"/>
          <path id="Trazado_106060" data-name="Trazado 106060" d="M5404.414,2971.716l24.6-105.888h14.561l-24.6,105.888Z" transform="translate(-5286.174 -2846.18)" fill="#fff" stroke="#5e6178" stroke-miterlimit="10" stroke-width="0"/>
          <rect id="Rectángulo_8101" data-name="Rectángulo 8101" width="0.536" height="105.888" transform="translate(207.032 19.648)" fill="#fafafa"/>
          <path id="Trazado_106061" data-name="Trazado 106061" d="M5311.394,2858.886v45.7h12.089s21.687-14.168,26.656-43.312a4.848,4.848,0,0,0-3.954-5.6,4.949,4.949,0,0,0-.846-.071h-30.656a3.288,3.288,0,0,0-3.288,3.288Z" transform="translate(-5267.569 -2844.134)" fill="#e0e0e0"/>
          <path id="Trazado_106062" data-name="Trazado 106062" d="M5311.394,3001.654v-80.216h12.089s24.535,47.24,27.375,80.216Z" transform="translate(-5267.569 -2857.302)" fill="#e0e0e0"/>
          <rect id="Rectángulo_8102" data-name="Rectángulo 8102" width="13.712" height="3.688" rx="1.51" transform="translate(43.056 60.448)" fill="#aed3f2"/>
          <path id="Trazado_106063" data-name="Trazado 106063" d="M5515.9,2858.886v45.7h-12.112s-21.72-14.168-26.656-43.312a4.861,4.861,0,0,1,4.8-5.672h30.688A3.3,3.3,0,0,1,5515.9,2858.886Z" transform="translate(-5300.704 -2844.134)" fill="#e0e0e0"/>
          <path id="Trazado_106064" data-name="Trazado 106064" d="M5515.742,3001.654v-80.216H5503.63s-24.529,47.24-27.376,80.216Z" transform="translate(-5300.542 -2857.302)" fill="#e0e0e0"/>
          <rect id="Rectángulo_8103" data-name="Rectángulo 8103" width="13.712" height="3.688" rx="1.51" transform="translate(202.232 60.44)" fill="#aed3f2"/>
          <rect id="Rectángulo_8104" data-name="Rectángulo 8104" width="26.584" height="102.992" transform="translate(184.96 158.928)" fill="#fafafa"/>
          <path id="Trazado_106065" data-name="Trazado 106065" d="M5510.314,3165.694h7.1v-11.9h-14.536Z" transform="translate(-5305.866 -2903.774)" fill="#f4f8ff"/>
          <rect id="Rectángulo_8105" data-name="Rectángulo 8105" width="26.584" height="102.992" transform="translate(57.776 158.928)" fill="#e0e0e0"/>
          <rect id="Rectángulo_8106" data-name="Rectángulo 8106" width="133.376" height="98.896" transform="translate(78.168 158.928)" fill="#fafafa"/>
          <path id="Trazado_106066" data-name="Trazado 106066" d="M5404.414,3018.068c0,9.6,9.248,17.488,20.56,17.488h10.208c11.3,0,20.551-7.872,20.551-17.488Z" transform="translate(-5286.174 -2876.628)" fill="#f2e9e4"/>
          <path id="Trazado_106067" data-name="Trazado 106067" d="M5396.606,2990.6h19.2s-3.336,8.8-3.336,13.984,14.607,25.479-6.264,25.479-6.263-20.3-6.263-25.479S5396.606,2990.6,5396.606,2990.6Z" transform="translate(-5284.286 -2871.135)" fill="#e0e0e0"/>
          <rect id="Rectángulo_8107" data-name="Rectángulo 8107" width="122.368" height="24.936" transform="translate(83.672 164.952)" fill="#f2e9e4"/>
          <path id="Trazado_106068" data-name="Trazado 106068" d="M5361.419,3165.694h-7.1v-11.9h14.544Z" transform="translate(-5276.156 -2903.774)" fill="#fafafa"/>
          <path id="Trazado_106069" data-name="Trazado 106069" d="M5432.984,3062.1a3.76,3.76,0,1,0,3.76-3.76,3.759,3.759,0,0,0-3.76,3.76Z" transform="translate(-5291.888 -2884.683)" fill="#fafafa"/>
          <rect id="Rectángulo_8108" data-name="Rectángulo 8108" width="122.368" height="24.936" transform="translate(83.672 195.912)" fill="#f2e9e4"/>
          <path id="Trazado_106070" data-name="Trazado 106070" d="M5432.984,3100.8a3.76,3.76,0,1,0,3.76-3.76,3.759,3.759,0,0,0-3.76,3.76Z" transform="translate(-5291.888 -2892.423)" fill="#fafafa"/>
          <rect id="Rectángulo_8109" data-name="Rectángulo 8109" width="122.368" height="24.936" transform="translate(83.672 226.864)" fill="#f2e9e4"/>
          <circle id="Elipse_4126" data-name="Elipse 4126" cx="3.76" cy="3.76" r="3.76" transform="translate(141.096 235.576)" fill="#fafafa"/>
          <rect id="Rectángulo_8110" data-name="Rectángulo 8110" width="59.384" height="42.272" transform="translate(236.52 13.552)" fill="#e0e0e0"/>
          <rect id="Rectángulo_8111" data-name="Rectángulo 8111" width="60.856" height="42.272" transform="translate(239.896 13.552)" fill="#aed3f2"/>
          <rect id="Rectángulo_8112" data-name="Rectángulo 8112" width="53.096" height="34.512" transform="translate(243.776 17.432)" fill="#fff" stroke="#5e6178" stroke-miterlimit="10" stroke-width="0"/>
          <rect id="Rectángulo_8113" data-name="Rectángulo 8113" width="34.408" height="14.408" transform="translate(253.12 27.48)" fill="#aed3f2"/>
          <rect id="Rectángulo_8114" data-name="Rectángulo 8114" width="36.144" height="37.904" transform="translate(307.936 34.688)" fill="#e0e0e0"/>
          <rect id="Rectángulo_8115" data-name="Rectángulo 8115" width="37.624" height="37.904" transform="translate(311.32 34.688)" fill="#aed3f2"/>
          <rect id="Rectángulo_8116" data-name="Rectángulo 8116" width="29.864" height="30.144" transform="translate(315.2 38.568)" fill="#fff" stroke="#5e6178" stroke-miterlimit="10" stroke-width="0"/>
          <path id="Trazado_106071" data-name="Trazado 106071" d="M5662.294,2907.062h0a5.024,5.024,0,0,1,5.016-5.024h1.137a5.024,5.024,0,0,1,5.015,5.024h0a5.015,5.015,0,0,1-5.015,5.016h-1.1a5.016,5.016,0,0,1-5.056-4.976Z" transform="translate(-5337.75 -2853.422)" fill="#aed3f2"/>
          <path id="Trazado_106072" data-name="Trazado 106072" d="M5698.05,2948.118H5585.257v22.056h-17.352v22.056h-17.351v22.056H5533.2v22.056H5515.85v22.048H5498.5v22.056h-17.353V3102.5h-17.352v22.056H5698.05Z" transform="translate(-5298.05 -2862.638)" fill="#fafafa"/>
          <rect id="Rectángulo_8117" data-name="Rectángulo 8117" width="98.904" height="6.616" transform="translate(163.96 239.864)" fill="#f2e9e4"/>
          <rect id="Rectángulo_8118" data-name="Rectángulo 8118" width="98.904" height="6.616" transform="translate(181.312 217.808)" fill="#f2e9e4"/>
          <rect id="Rectángulo_8119" data-name="Rectángulo 8119" width="98.904" height="6.616" transform="translate(198.664 195.752)" fill="#f2e9e4"/>
          <rect id="Rectángulo_8120" data-name="Rectángulo 8120" width="98.904" height="6.616" transform="translate(216.016 173.696)" fill="#f2e9e4"/>
          <rect id="Rectángulo_8121" data-name="Rectángulo 8121" width="98.904" height="6.616" transform="translate(233.368 151.648)" fill="#f2e9e4"/>
          <rect id="Rectángulo_8122" data-name="Rectángulo 8122" width="98.904" height="6.616" transform="translate(250.72 129.592)" fill="#f2e9e4"/>
          <rect id="Rectángulo_8123" data-name="Rectángulo 8123" width="98.904" height="6.616" transform="translate(268.072 107.536)" fill="#f2e9e4"/>
          <rect id="Rectángulo_8124" data-name="Rectángulo 8124" width="98.904" height="6.616" transform="translate(285.424 85.48)" fill="#f2e9e4"/>
          <path id="Trazado_106073" data-name="Trazado 106073" d="M5704.558,2948.118v22.056h-17.352v22.056h-17.352v22.056H5652.5v22.056H5635.15v22.048H5617.8v22.056h-17.352V3102.5h-17.352v22.056H5721.91v-176.44Z" transform="translate(-5321.911 -2862.638)" fill="#fff" stroke="#5e6178" stroke-miterlimit="10" stroke-width="0"/>
        </g>
        <g id="freepik--Documents--inject-68" transform="translate(69.685 14.241)">
          <path id="Trazado_106074" data-name="Trazado 106074" d="M5442.305,2973.8h0a8.8,8.8,0,0,0-8.576-6.824h-64a8.8,8.8,0,0,0-8.8,8.8h0v142.256a8.8,8.8,0,0,0,8.8,8.8h203.2a8.8,8.8,0,0,0,8.8-8.8v-119.5a8.8,8.8,0,0,0-8.8-8.8h-110.6A20.544,20.544,0,0,1,5442.305,2973.8Z" transform="translate(-5347.162 -2880.651)" fill="#d9a171"/>
          <path id="Trazado_106075" data-name="Trazado 106075" d="M5442.305,2973.8h0a8.8,8.8,0,0,0-8.576-6.824h-64a8.8,8.8,0,0,0-8.8,8.8h0v142.256a8.8,8.8,0,0,0,8.8,8.8h203.2a8.8,8.8,0,0,0,8.8-8.8v-119.5a8.8,8.8,0,0,0-8.8-8.8h-110.6A20.544,20.544,0,0,1,5442.305,2973.8Z" transform="translate(-5347.162 -2880.651)" fill="#344154" opacity="0.6" style="isolation: isolate"/>
          <path id="Trazado_106076" data-name="Trazado 106076" d="M5434.409,2920.128l5.7,18.472a9.29,9.29,0,0,0,11.608,6.128l18.464-5.7Z" transform="translate(-5361.858 -2871.281)" fill="#d9a171" opacity="0.22" style="isolation: isolate"/>
          <path id="Trazado_106077" data-name="Trazado 106077" d="M5416.272,2920.128l-66,20.392a9.272,9.272,0,0,0-6.14,11.586l0,.014,37.68,121.984a9.282,9.282,0,0,0,11.605,6.129h0l84.472-26.1a9.271,9.271,0,0,0,6.131-11.591l0-.009-32-103.512Z" transform="translate(-5343.721 -2871.281)" fill="#d9a171"/>
          <path id="Trazado_106078" data-name="Trazado 106078" d="M5416.272,2920.128l-66,20.392a9.272,9.272,0,0,0-6.14,11.586l0,.014,37.68,121.984a9.282,9.282,0,0,0,11.605,6.129h0l84.472-26.1a9.271,9.271,0,0,0,6.131-11.591l0-.009-32-103.512Z" transform="translate(-5343.721 -2871.281)" fill="#fff" stroke="#5e6178" stroke-miterlimit="10" stroke-width="0" opacity="0.8" style="isolation: isolate"/>
          <g id="Grupo_57126" data-name="Grupo 57126" transform="translate(47.902 169.604)" opacity="0.28">
            <path id="Trazado_106079" data-name="Trazado 106079" d="M5463.759,3079l-54.911,16.96a4.064,4.064,0,0,1-5.072-2.672h0a4.064,4.064,0,0,1,2.679-5.064l54.913-16.968a4.063,4.063,0,0,1,5.071,2.679h0A4.064,4.064,0,0,1,5463.759,3079Z" transform="translate(-5403.599 -3071.074)" fill="#d9a171"/>
          </g>
          <g id="Grupo_57127" data-name="Grupo 57127" transform="translate(14.678 70.065)" opacity="0.28">
            <path id="Trazado_106080" data-name="Trazado 106080" d="M5396.356,2954.577l-29.04,8.968a4.073,4.073,0,0,1-5.071-2.672h0a4.072,4.072,0,0,1,2.68-5.072l29.041-8.968a4.055,4.055,0,0,1,5.071,2.672h0A4.072,4.072,0,0,1,5396.356,2954.577Z" transform="translate(-5362.068 -2946.65)" fill="#d9a171"/>
          </g>
          <g id="Grupo_57128" data-name="Grupo 57128" transform="translate(19.436 79.579)" opacity="0.28">
            <path id="Trazado_106081" data-name="Trazado 106081" d="M5421.242,2966.467l-48,14.824a4.065,4.065,0,0,1-5.048-2.68h0a4.057,4.057,0,0,1,2.672-5.064l48-14.823a4.062,4.062,0,0,1,5.072,2.671h0A4.079,4.079,0,0,1,5421.242,2966.467Z" transform="translate(-5368.014 -2958.543)" fill="#d9a171"/>
          </g>
          <g id="Grupo_57129" data-name="Grupo 57129" transform="translate(24.173 88.133)" opacity="0.28">
            <path id="Trazado_106082" data-name="Trazado 106082" d="M5449.226,2977.157l-70.048,21.6a4.057,4.057,0,0,1-5.064-2.672h0a4.073,4.073,0,0,1,2.672-5.072l70.048-21.6a4.063,4.063,0,0,1,5.064,2.672h0A4.064,4.064,0,0,1,5449.226,2977.157Z" transform="translate(-5373.936 -2969.236)" fill="#d9a171"/>
          </g>
          <g id="Grupo_57130" data-name="Grupo 57130" transform="translate(58.246 103.495)" opacity="0.28">
            <path id="Trazado_106083" data-name="Trazado 106083" d="M5462.489,2996.358l-40.72,12.584a4.065,4.065,0,0,1-5.064-2.68h0a4.065,4.065,0,0,1,2.672-5.065l40.72-12.583a4.081,4.081,0,0,1,5.073,2.68h0A4.066,4.066,0,0,1,5462.489,2996.358Z" transform="translate(-5416.527 -2988.438)" fill="#d9a171"/>
          </g>
          <g id="Grupo_57131" data-name="Grupo 57131" transform="translate(28.916 121.845)" opacity="0.28">
            <path id="Trazado_106084" data-name="Trazado 106084" d="M5395.764,3019.3l-10.647,3.288a4.064,4.064,0,0,1-5.072-2.672h0a4.064,4.064,0,0,1,2.68-5.072l10.648-3.288a4.071,4.071,0,0,1,5.072,2.673h0A4.079,4.079,0,0,1,5395.764,3019.3Z" transform="translate(-5379.865 -3011.375)" fill="#d9a171"/>
          </g>
          <g id="Grupo_57132" data-name="Grupo 57132" transform="translate(33.668 118.861)" opacity="0.28">
            <path id="Trazado_106085" data-name="Trazado 106085" d="M5461.1,3015.568l-70.047,21.64a4.064,4.064,0,0,1-5.064-2.68h0a4.056,4.056,0,0,1,2.672-5.064l70.048-21.64a4.063,4.063,0,0,1,5.064,2.672h0A4.064,4.064,0,0,1,5461.1,3015.568Z" transform="translate(-5385.805 -3007.646)" fill="#d9a171"/>
          </g>
          <g id="Grupo_57133" data-name="Grupo 57133" transform="translate(38.413 142.574)" opacity="0.28">
            <path id="Trazado_106086" data-name="Trazado 106086" d="M5440,3045.207l-43.016,13.288a4.065,4.065,0,0,1-5.064-2.672h0a4.072,4.072,0,0,1,2.672-5.072l43.017-13.288a4.071,4.071,0,0,1,5.071,2.68h0A4.055,4.055,0,0,1,5440,3045.207Z" transform="translate(-5391.737 -3037.286)" fill="#d9a171"/>
          </g>
          <g id="Grupo_57134" data-name="Grupo 57134" transform="translate(96.975 134.227)" opacity="0.28">
            <path id="Trazado_106087" data-name="Trazado 106087" d="M5481.667,3034.777l-11.48,3.544a4.072,4.072,0,0,1-5.071-2.68h0a4.063,4.063,0,0,1,2.68-5.064l11.479-3.544a4.056,4.056,0,0,1,5.064,2.672h0A4.063,4.063,0,0,1,5481.667,3034.777Z" transform="translate(-5464.938 -3026.853)" fill="#d9a171"/>
          </g>
          <g id="Grupo_57135" data-name="Grupo 57135" transform="translate(43.164 149.568)" opacity="0.28">
            <path id="Trazado_106088" data-name="Trazado 106088" d="M5472.958,3053.988l-70.032,21.6a4.064,4.064,0,0,1-5.072-2.68h0a4.056,4.056,0,0,1,2.681-5.063l70.04-21.64a4.079,4.079,0,0,1,5.072,2.68h0a4.064,4.064,0,0,1-2.659,5.1Z" transform="translate(-5397.675 -3046.028)" fill="#d9a171"/>
          </g>
          <path id="Trazado_106089" data-name="Trazado 106089" d="M5469.038,2862.044l20.945,46.672a5.049,5.049,0,0,1-2.528,6.656l-88.848,39.88a5.042,5.042,0,0,1-6.657-2.528L5371,2906.052a5.041,5.041,0,0,1,2.528-6.664l88.847-39.88A5.055,5.055,0,0,1,5469.038,2862.044Z" transform="translate(-5349.086 -2859.069)" fill="#d9a171"/>
          <path id="Trazado_106090" data-name="Trazado 106090" d="M5469.038,2862.044l20.945,46.672a5.049,5.049,0,0,1-2.528,6.656l-88.848,39.88a5.042,5.042,0,0,1-6.657-2.528L5371,2906.052a5.041,5.041,0,0,1,2.528-6.664l88.847-39.88A5.055,5.055,0,0,1,5469.038,2862.044Z" transform="translate(-5349.086 -2859.069)" fill="#344154" opacity="0.3" style="isolation: isolate"/>
          <rect id="Rectángulo_8125" data-name="Rectángulo 8125" width="3.112" height="0.8" transform="matrix(0.912, -0.409, 0.409, 0.912, 103.11, 1.943)" fill="#d9a171"/>
          <rect id="Rectángulo_8126" data-name="Rectángulo 8126" width="9.704" height="0.8" transform="matrix(0.912, -0.409, 0.409, 0.912, 90.279, 7.694)" fill="#d9a171"/>
          <rect id="Rectángulo_8127" data-name="Rectángulo 8127" width="0.8" height="5.92" transform="translate(21.103 52.014) rotate(-24.18)" fill="#d9a171"/>
          <path id="Trazado_106091" data-name="Trazado 106091" d="M5466.162,2859.34l-22.913,44.88a20.52,20.52,0,0,1-23.439,10.52l-48.76-12.711a5.112,5.112,0,0,1,2.576-2.641l88.848-39.88A5.038,5.038,0,0,1,5466.162,2859.34Z" transform="translate(-5349.186 -2859.069)" fill="#d9a171" opacity="0.6" style="isolation: isolate"/>
          <path id="Trazado_106092" data-name="Trazado 106092" d="M5509.891,2931.208l-68.944,4.256a9.28,9.28,0,0,0-8.713,9.813v.019l7.864,127.424a9.28,9.28,0,0,0,9.821,8.706l.026,0,88.241-5.448a9.265,9.265,0,0,0,8.689-9.8l0-.027-6.64-108.136Z" transform="translate(-5361.419 -2873.497)" fill="#d9a171"/>
          <path id="Trazado_106093" data-name="Trazado 106093" d="M5509.891,2931.208l-68.944,4.256a9.28,9.28,0,0,0-8.713,9.813v.019l7.864,127.424a9.28,9.28,0,0,0,9.821,8.706l.026,0,88.241-5.448a9.265,9.265,0,0,0,8.689-9.8l0-.027-6.64-108.136Z" transform="translate(-5361.419 -2873.497)" fill="#fff" stroke="#5e6178" stroke-miterlimit="10" stroke-width="0" opacity="0.8" style="isolation: isolate"/>
          <g id="Grupo_57136" data-name="Grupo 57136" transform="translate(90.977 183.032)" opacity="0.22">
            <path id="Trazado_106094" data-name="Trazado 106094" d="M5519.1,3095.954l-57.368,3.544a4.066,4.066,0,0,1-4.288-3.8h0a4.072,4.072,0,0,1,3.792-4.3l57.368-3.536a4.063,4.063,0,0,1,4.3,3.792h0A4.062,4.062,0,0,1,5519.1,3095.954Z" transform="translate(-5457.441 -3087.859)" fill="#d9a171"/>
          </g>
          <g id="Grupo_57137" data-name="Grupo 57137" transform="translate(84.041 72.36)" opacity="0.22">
            <path id="Trazado_106095" data-name="Trazado 106095" d="M5483.418,2957.63l-30.345,1.856a4.072,4.072,0,0,1-4.3-3.792h0a4.073,4.073,0,0,1,3.8-4.3l30.344-1.872a4.055,4.055,0,0,1,4.288,3.792h0A4.064,4.064,0,0,1,5483.418,2957.63Z" transform="translate(-5448.771 -2949.519)" fill="#d9a171"/>
          </g>
          <g id="Grupo_57138" data-name="Grupo 57138" transform="translate(85.032 87.207)" opacity="0.22">
            <path id="Trazado_106096" data-name="Trazado 106096" d="M5504.449,2976.174l-50.136,3.088a4.057,4.057,0,0,1-4.3-3.792h0a4.064,4.064,0,0,1,3.8-4.3l50.128-3.088a4.056,4.056,0,0,1,4.3,3.792h0A4.064,4.064,0,0,1,5504.449,2976.174Z" transform="translate(-5450.01 -2968.078)" fill="#d9a171"/>
          </g>
          <g id="Grupo_57139" data-name="Grupo 57139" transform="translate(86.008 101.832)" opacity="0.22">
            <path id="Trazado_106097" data-name="Trazado 106097" d="M5528.718,2994.463l-73.168,4.512a4.072,4.072,0,0,1-4.312-3.8h0a4.056,4.056,0,0,1,3.792-4.288l73.176-4.52a4.064,4.064,0,0,1,4.288,3.8h0A4.065,4.065,0,0,1,5528.718,2994.463Z" transform="translate(-5451.23 -2986.36)" fill="#d9a171"/>
          </g>
          <g id="Grupo_57140" data-name="Grupo 57140" transform="translate(117.648 117.887)" opacity="0.22">
            <path id="Trazado_106098" data-name="Trazado 106098" d="M5537.62,3014.524l-42.535,2.624a4.065,4.065,0,0,1-4.3-3.792h0a4.056,4.056,0,0,1,3.792-4.3l42.536-2.624a4.055,4.055,0,0,1,4.3,3.792h0A4.062,4.062,0,0,1,5537.62,3014.524Z" transform="translate(-5490.78 -3006.428)" fill="#d9a171"/>
          </g>
          <g id="Grupo_57141" data-name="Grupo 57141" transform="translate(87.016 121.712)" opacity="0.22">
            <path id="Trazado_106099" data-name="Trazado 106099" d="M5467.914,3019.3l-11.128.688a4.057,4.057,0,0,1-4.289-3.792h0a4.066,4.066,0,0,1,3.792-4.3l11.128-.688a4.07,4.07,0,0,1,4.3,3.8h0A4.063,4.063,0,0,1,5467.914,3019.3Z" transform="translate(-5452.489 -3011.209)" fill="#d9a171"/>
          </g>
          <g id="Grupo_57142" data-name="Grupo 57142" transform="translate(88.001 133.936)" opacity="0.22">
            <path id="Trazado_106100" data-name="Trazado 106100" d="M5531.2,3034.584l-73.176,4.513a4.066,4.066,0,0,1-4.3-3.793h0a4.072,4.072,0,0,1,3.8-4.3l73.167-4.512a4.064,4.064,0,0,1,4.3,3.8h0A4.056,4.056,0,0,1,5531.2,3034.584Z" transform="translate(-5453.721 -3026.489)" fill="#d9a171"/>
          </g>
          <g id="Grupo_57143" data-name="Grupo 57143" transform="translate(88.993 151.728)" opacity="0.22">
            <path id="Trazado_106101" data-name="Trazado 106101" d="M5504.2,3056.824l-44.936,2.776a4.073,4.073,0,0,1-4.3-3.8h0a4.064,4.064,0,0,1,3.8-4.288l44.936-2.776a4.062,4.062,0,0,1,4.288,3.8h0A4.048,4.048,0,0,1,5504.2,3056.824Z" transform="translate(-5454.96 -3048.729)" fill="#d9a171"/>
          </g>
          <g id="Grupo_57144" data-name="Grupo 57144" transform="translate(150.168 149.992)" opacity="0.22">
            <path id="Trazado_106102" data-name="Trazado 106102" d="M5547.726,3054.654l-12,.736a4.057,4.057,0,0,1-4.288-3.792h0a4.055,4.055,0,0,1,3.792-4.3l12-.736a4.055,4.055,0,0,1,4.3,3.792h0A4.073,4.073,0,0,1,5547.726,3054.654Z" transform="translate(-5531.43 -3046.558)" fill="#d9a171"/>
          </g>
          <g id="Grupo_57145" data-name="Grupo 57145" transform="translate(89.984 166.04)" opacity="0.22">
            <path id="Trazado_106103" data-name="Trazado 106103" d="M5533.671,3074.714l-73.168,4.512a4.064,4.064,0,0,1-4.3-3.792h0a4.065,4.065,0,0,1,3.792-4.3l73.176-4.512a4.055,4.055,0,0,1,4.289,3.792h0A4.057,4.057,0,0,1,5533.671,3074.714Z" transform="translate(-5456.2 -3066.619)" fill="#d9a171"/>
          </g>
          <path id="Trazado_106104" data-name="Trazado 106104" d="M5529.31,2931.208l1.192,19.3a9.281,9.281,0,0,0,9.83,8.7h0l19.32-1.192Z" transform="translate(-5380.838 -2873.497)" fill="#d9a171" opacity="0.22" style="isolation: isolate"/>
          <path id="Trazado_106105" data-name="Trazado 106105" d="M5474.277,2989.67h0a6.92,6.92,0,0,0-7.009-6.829c-.064,0-.127,0-.191.005H5403a11.187,11.187,0,0,0-10.511,8.8l-25.29,129.56c-.943,4.856,2.224,8.8,7.08,8.8h203.2a11.214,11.214,0,0,0,10.512-8.8l20.855-106.8c.944-4.864-2.224-8.8-7.079-8.8H5491.2C5481.6,3005.607,5474.606,2999,5474.277,2989.67Z" transform="translate(-5348.382 -2883.823)" fill="#d9a171" opacity="0.5" style="isolation: isolate"/>
        </g>
      </g>
      <g id="freepik--Character--inject-68" transform="translate(5493.964 2893.511)">
        <path id="Trazado_106106" data-name="Trazado 106106" d="M5648.875,2937.386c1.12,3.752,6.9,10.776,7.352,15.888s-9.393,13.288-9.393,13.288-7.359-24.608-2.752-27.48S5648.875,2937.386,5648.875,2937.386Z" transform="translate(-5571.154 -2916.777)" fill="#344154"/>
        <path id="Trazado_106107" data-name="Trazado 106107" d="M5613.162,2969.451c-1.744,1.456-3.457,2.68-5.24,3.936s-3.625,2.4-5.5,3.472a62.062,62.062,0,0,1-5.8,3.032c-1.008.456-2.008.9-3.049,1.3-.512.208-1.031.408-1.56.584l-1.6.56a10.575,10.575,0,0,1-4.208.3,24.089,24.089,0,0,1-3.488-.672,46.244,46.244,0,0,1-6.248-2.224,83.24,83.24,0,0,1-11.353-6.04l1.5-2.784c1.889.8,3.824,1.6,5.745,2.3s3.856,1.432,5.791,2.032a48.612,48.612,0,0,0,5.76,1.5,18.727,18.727,0,0,0,2.712.328,5.63,5.63,0,0,0,2.016-.208,51.535,51.535,0,0,0,5.345-2.4c.887-.464,1.768-.936,2.632-1.448s1.744-1.008,2.6-1.536c1.72-1.064,3.4-2.192,5.064-3.352s3.32-2.4,4.8-3.576Z" transform="translate(-5555.666 -2922.259)" fill="#ffd2b1"/>
        <path id="Trazado_106108" data-name="Trazado 106108" d="M5627.281,2959.953c-1.984-1.552-10.191,3.528-12.679,5.648l1.815,10.984s11.8-4.943,12.5-8.32C5629.666,2964.736,5628.761,2961.136,5627.281,2959.953Z" transform="translate(-5565.561 -2921.281)" fill="#d9a171"/>
        <path id="Trazado_106109" data-name="Trazado 106109" d="M5627.281,2959.953c-1.984-1.552-10.191,3.528-12.679,5.648l1.815,10.984s11.8-4.943,12.5-8.32C5629.666,2964.736,5628.761,2961.136,5627.281,2959.953Z" transform="translate(-5565.561 -2921.281)" fill="#344154" opacity="0.2" style="isolation: isolate"/>
        <path id="Trazado_106110" data-name="Trazado 106110" d="M5656.15,2992.056l-24.911,4.856c-12.873-34.856-10.072-36-10.072-36a50.257,50.257,0,0,1,5.6-2.64l.335-.128c1.6-.584,1.92-.672,4.048-1.3,3.664-.872,7.08-1.6,11.313-2.2l.8-.111c.8-.1,1.527-.176,2.264-.248.5-.056.991-.088,1.465-.12l1.6-.088c2.735-.136,4.7-.1,4.7-.1C5652.526,2975.752,5653.759,2982,5656.15,2992.056Z" transform="translate(-5566.823 -2920.144)" fill="#d9a171"/>
        <path id="Trazado_106111" data-name="Trazado 106111" d="M5656.15,2992.056l-24.911,4.856c-12.873-34.856-10.072-36-10.072-36a50.257,50.257,0,0,1,5.6-2.64l.335-.128c1.6-.584,1.92-.672,4.048-1.3,3.664-.872,7.08-1.6,11.313-2.2l.8-.111c.8-.1,1.527-.176,2.264-.248.5-.056.991-.088,1.465-.12l1.6-.088c2.735-.136,4.7-.1,4.7-.1C5652.526,2975.752,5653.759,2982,5656.15,2992.056Z" transform="translate(-5566.823 -2920.144)" fill="#344154" opacity="0.2" style="isolation: isolate"/>
        <path id="Trazado_106112" data-name="Trazado 106112" d="M5640.5,2938.745c-1.6,2.648,4.2,3.872,7.632,1.16,2.744-2.176,2.1-7.2-.256-8.368S5640.5,2938.745,5640.5,2938.745Z" transform="translate(-5570.688 -2915.633)" fill="#d9a171"/>
        <path id="Trazado_106113" data-name="Trazado 106113" d="M5640.5,2938.745c-1.6,2.648,4.2,3.872,7.632,1.16,2.744-2.176,2.1-7.2-.256-8.368S5640.5,2938.745,5640.5,2938.745Z" transform="translate(-5570.688 -2915.633)" fill="#344154" opacity="0.4" style="isolation: isolate"/>
        <path id="Trazado_106114" data-name="Trazado 106114" d="M5668.754,3178.33l-6.232.464-2.28-14.344,6.232-.464Z" transform="translate(-5574.69 -2962.146)" fill="#ffd2b1"/>
        <path id="Trazado_106115" data-name="Trazado 106115" d="M5722.305,3154.061l-5.288,3.329-9.416-11.168,5.288-3.335Z" transform="translate(-5584.162 -2957.926)" fill="#ffd2b1"/>
        <path id="Trazado_106116" data-name="Trazado 106116" d="M5660.242,3164.452l1.263,7.968,6.145-1.032-1.167-7.392Z" transform="translate(-5574.69 -2962.147)" fill="#cf6f64"/>
        <path id="Trazado_106117" data-name="Trazado 106117" d="M5712.9,3142.9l-5.3,3.328,3.9,4.624,5.408-3.192Z" transform="translate(-5584.162 -2957.927)" fill="#cf6f64"/>
        <path id="Trazado_106118" data-name="Trazado 106118" d="M5634.3,3006.757s-.088,49.456,3.952,68.08c4.207,19.375,16.583,63.456,16.583,63.456l8.976-1.16s-7.016-44.528-10.008-63.784c-3.256-20.984-1.256-70.144-1.256-70.144Z" transform="translate(-5569.502 -2929.989)" fill="#d9a171"/>
        <path id="Trazado_106119" data-name="Trazado 106119" d="M5634.3,3006.757s-.088,49.456,3.952,68.08c4.207,19.375,16.583,63.456,16.583,63.456l8.976-1.16s-7.016-44.528-10.008-63.784c-3.256-20.984-1.256-70.144-1.256-70.144Z" transform="translate(-5569.502 -2929.989)" fill="#344154" opacity="0.7" style="isolation: isolate"/>
        <path id="Trazado_106120" data-name="Trazado 106120" d="M5655.312,3029.509l-4.4-4.384c.168,19,1.232,28.384,4.888,38.608C5655.223,3052.925,5655.175,3040.141,5655.312,3029.509Z" transform="translate(-5572.824 -2934.373)" fill="#344154" opacity="0.5" style="isolation: isolate"/>
        <path id="Trazado_106121" data-name="Trazado 106121" d="M5642.041,3005.151s13.416,40.872,20.072,64.416c7.025,24.84,33.952,52.313,33.952,52.313l7.728-4.464s-18.4-26.081-25.168-49.256c-13.761-47.048-8.1-57.016-18.257-66.584Z" transform="translate(-5571.049 -2929.663)" fill="#d9a171"/>
        <path id="Trazado_106122" data-name="Trazado 106122" d="M5642.041,3005.151s13.416,40.872,20.072,64.416c7.025,24.84,33.952,52.313,33.952,52.313l7.728-4.464s-18.4-26.081-25.168-49.256c-13.761-47.048-8.1-57.016-18.257-66.584Z" transform="translate(-5571.049 -2929.663)" fill="#344154" opacity="0.7" style="isolation: isolate"/>
        <path id="Trazado_106123" data-name="Trazado 106123" d="M5627.124,2922.535c3.569,1.192,6.809,10.048,6.944,13.536s-10.335,8.3-10.335,8.3-4.616-11.2-3.329-18.4C5620.965,2922.839,5627.124,2922.535,5627.124,2922.535Z" transform="translate(-5566.677 -2913.855)" fill="#344154"/>
        <path id="Trazado_106124" data-name="Trazado 106124" d="M5566.248,2971.723l-4.232-4.608-1.384,5.776s3.008,2.656,5.44,1.744Z" transform="translate(-5554.767 -2922.771)" fill="#ffd2b1"/>
        <path id="Trazado_106125" data-name="Trazado 106125" d="M5556.262,2965.465l-2.96,2.352,5.864,4.744,1.384-5.776Z" transform="translate(-5553.301 -2922.441)" fill="#ffd2b1"/>
        <path id="Trazado_106126" data-name="Trazado 106126" d="M5716.556,3158.242l4.945-4.984a.5.5,0,0,1,.655-.048l4.5,3.344a1,1,0,0,1,.169,1.4.851.851,0,0,1-.081.092c-1.761,1.7-2.688,2.44-4.865,4.632-1.335,1.352-3.152,3.456-5,5.32s-3.792.127-3.2-.8c2.7-4.216,2.217-5.792,2.4-7.936A1.6,1.6,0,0,1,5716.556,3158.242Z" transform="translate(-5585.355 -2959.97)" fill="#344154"/>
        <path id="Trazado_106127" data-name="Trazado 106127" d="M5660.1,3181.375h7.025a.528.528,0,0,1,.519.432l1.1,5.552a.944.944,0,0,1-.761,1.1.909.909,0,0,1-.175.015c-2.456-.041-3.64-.185-6.729-.185-1.9,0-5.816.192-8.439.192s-2.9-2.592-1.825-2.824c4.8-1.056,6.68-2.5,8.257-3.9A1.6,1.6,0,0,1,5660.1,3181.375Z" transform="translate(-5572.686 -2965.623)" fill="#344154"/>
        <path id="Trazado_106128" data-name="Trazado 106128" d="M5661.432,2969.755l-3.84,2.289,4.432,16.664C5661.055,2983.659,5661.488,2978.115,5661.432,2969.755Z" transform="translate(-5574.16 -2923.299)" fill="#d9a171" opacity="0.27" style="isolation: isolate"/>
        <path id="Trazado_106129" data-name="Trazado 106129" d="M5635.111,2934.555c2.728,2.28,6.688,5.6,11.352,1.72,4-3.344,6.8-12.12-.377-12.44C5642.336,2923.667,5635.111,2934.555,5635.111,2934.555Z" transform="translate(-5569.664 -2914.114)" fill="#344154"/>
        <path id="Trazado_106130" data-name="Trazado 106130" d="M5641.257,2939.185c0,3.776.583,10.584,3.6,12.52,0,0-.272,3.888-7.041,5.2-7.432,1.448-4.271-3-4.271-3,3.872-1.76,3.2-4.752,1.919-7.44Z" transform="translate(-5569.216 -2917.185)" fill="#ffd2b1"/>
        <path id="Trazado_106131" data-name="Trazado 106131" d="M5639.545,2942.9l-3.424,4.312a12.232,12.232,0,0,1,.736,1.936c1.5-.528,3.3-2.64,3.151-4.3A5.464,5.464,0,0,0,5639.545,2942.9Z" transform="translate(-5569.866 -2917.927)" fill="#f5bc8c"/>
        <path id="Trazado_106132" data-name="Trazado 106132" d="M5639.52,2926.481c.8,6.152,1.288,8.736-1.176,12.456-3.7,5.6-11.433,5.24-14.064-.543-2.4-5.208-3.3-14.4,2.177-17.96a8.455,8.455,0,0,1,13.063,6.048Z" transform="translate(-5567.121 -2913.153)" fill="#ffd2b1"/>
        <path id="Trazado_106133" data-name="Trazado 106133" d="M5630.151,2914.237c-4.161,2.952,4.184,3.824,4.191,8.1,0,1.768,2.9,7.376,7.033,7.056l4-7.1C5649.583,2915.493,5639.638,2907.493,5630.151,2914.237Z" transform="translate(-5568.438 -2911.685)" fill="#344154"/>
        <path id="Trazado_106134" data-name="Trazado 106134" d="M5627.99,2914.87c-7.32-.384-10.512,5.44-9.672,10.672a47.692,47.692,0,0,1,15.632-1.24C5643.982,2925.327,5627.99,2914.87,5627.99,2914.87Z" transform="translate(-5566.278 -2912.318)" fill="#344154"/>
        <path id="Trazado_106135" data-name="Trazado 106135" d="M5645.263,2934.476a4.513,4.513,0,0,1-1.048,3.3c-1.032,1.208-2.4.5-2.879-.936-.409-1.3-.361-3.48,1.031-4.168a2.04,2.04,0,0,1,2.708,1A2.019,2.019,0,0,1,5645.263,2934.476Z" transform="translate(-5570.863 -2915.844)" fill="#ffd2b1"/>
        <path id="Trazado_106136" data-name="Trazado 106136" d="M5632.393,2932.511c.1.5-.088.944-.408,1.008s-.665-.288-.76-.8.088-.951.408-1.016S5632.3,2932.015,5632.393,2932.511Z" transform="translate(-5568.88 -2915.687)" fill="#344154"/>
        <path id="Trazado_106137" data-name="Trazado 106137" d="M5625.4,2933.876c.1.5-.088.952-.408,1.016s-.664-.288-.76-.8.088-.952.408-1.008S5625.308,2933.372,5625.4,2933.876Z" transform="translate(-5567.483 -2915.964)" fill="#344154"/>
        <path id="Trazado_106138" data-name="Trazado 106138" d="M5624.627,2933.069l-1.256-.1S5624.163,2933.773,5624.627,2933.069Z" transform="translate(-5567.314 -2915.94)" fill="#344154"/>
        <path id="Trazado_106139" data-name="Trazado 106139" d="M5627.473,2934.785a13.665,13.665,0,0,1-1.152,3.5,2.167,2.167,0,0,0,1.833,0Z" transform="translate(-5567.905 -2916.305)" fill="#e8b590"/>
        <path id="Trazado_106140" data-name="Trazado 106140" d="M5631.185,2940.521a.145.145,0,0,1-.028-.287h0a4,4,0,0,0,2.9-2.16.147.147,0,1,1,.271.113,4.214,4.214,0,0,1-3.111,2.336Z" transform="translate(-5568.849 -2916.944)" fill="#344154"/>
        <path id="Trazado_106141" data-name="Trazado 106141" d="M5633.641,2929.719a.307.307,0,0,1-.2-.072,2.353,2.353,0,0,0-2.048-.608.313.313,0,0,1-.152-.608,2.969,2.969,0,0,1,2.6.744.3.3,0,0,1,0,.416A.288.288,0,0,1,5633.641,2929.719Z" transform="translate(-5568.843 -2915.023)" fill="#344154"/>
        <path id="Trazado_106142" data-name="Trazado 106142" d="M5621.758,2930.9a.245.245,0,0,1-.113,0,.3.3,0,0,1-.162-.386l0-.006a2.935,2.935,0,0,1,2.024-1.784.289.289,0,0,1,.342.224l0,.017a.287.287,0,0,1-.221.342l-.011,0a2.4,2.4,0,0,0-1.6,1.432A.3.3,0,0,1,5621.758,2930.9Z" transform="translate(-5566.935 -2915.091)" fill="#344154"/>
        <path id="Trazado_106143" data-name="Trazado 106143" d="M5714.779,3162.613a.852.852,0,0,1-.688-.385.507.507,0,0,1-.087-.5c.28-.752,2.487-1.232,2.736-1.288a.152.152,0,0,1,.152.063.137.137,0,0,1,0,.16c-.433.712-1.281,1.9-2.072,1.944Zm1.672-1.8c-.873.224-2.023.624-2.168,1.024a.2.2,0,0,0,.048.216.543.543,0,0,0,.479.264C5715.235,3162.293,5715.835,3161.741,5716.452,3160.813Z" transform="translate(-5585.437 -2961.437)" fill="#d9a171"/>
        <path id="Trazado_106144" data-name="Trazado 106144" d="M5716.076,3160.509a2.918,2.918,0,0,1-2.1-.632.52.52,0,0,1,.055-.648.8.8,0,0,1,.584-.3h.064c.9,0,2.127,1.208,2.175,1.256a.143.143,0,0,1,.041.144.153.153,0,0,1-.1.1A2.866,2.866,0,0,1,5716.076,3160.509Zm-1.392-1.288h-.048a.483.483,0,0,0-.368.192c-.111.152-.08.24-.04.3.24.368,1.464.576,2.215.488a3.531,3.531,0,0,0-1.759-.976Z" transform="translate(-5585.42 -2961.133)" fill="#d9a171"/>
        <path id="Trazado_106145" data-name="Trazado 106145" d="M5659.243,3182.349a2.4,2.4,0,0,1-1.529-.385.8.8,0,0,1-.3-.712.461.461,0,0,1,.224-.4c.735-.432,3.312.847,3.6.992a.151.151,0,0,1-.032.28A10.6,10.6,0,0,1,5659.243,3182.349Zm-1.184-1.3a.526.526,0,0,0-.272.056.152.152,0,0,0-.08.152.563.563,0,0,0,.2.48c.4.344,1.431.4,2.791.176a8.37,8.37,0,0,0-2.639-.864Z" transform="translate(-5574.123 -2965.501)" fill="#d9a171"/>
        <path id="Trazado_106146" data-name="Trazado 106146" d="M5661.538,3181.743h-.056c-.8-.344-2.344-1.7-2.232-2.4,0-.16.145-.368.544-.408h.12c1.391,0,1.751,2.544,1.768,2.656a.16.16,0,0,1-.055.144A.162.162,0,0,1,5661.538,3181.743Zm-1.6-2.529h-.088c-.256,0-.272.121-.272.153-.063.424.992,1.487,1.793,1.959-.16-.624-.569-2.1-1.465-2.1Z" transform="translate(-5574.49 -2965.135)" fill="#d9a171"/>
        <path id="Trazado_106147" data-name="Trazado 106147" d="M5631.617,2931.707l-1.256-.113S5631.153,2932.411,5631.617,2931.707Z" transform="translate(-5568.713 -2915.667)" fill="#344154"/>
        <path id="Trazado_106148" data-name="Trazado 106148" d="M5636.382,2965.211c-13.383,2.984-9.247-5.113-8.447-6.9l.335-.128c1.6-.584,1.919-.672,4.048-1.3a80.491,80.491,0,0,1,11.313-2.2l.8-.112c.8-.1,1.529-.184,2.263-.248.5-.056.994-.088,1.465-.12l1.6-.1h0C5650.03,2955.363,5650.694,2962.035,5636.382,2965.211Z" transform="translate(-5567.982 -2920.172)" fill="#ffd2b1"/>
        <path id="Trazado_106149" data-name="Trazado 106149" d="M5658.552,2999.625l1.56,2.016c.12.152-.048.368-.336.424l-26.128,5.088c-.224.048-.432,0-.473-.168l-.663-2.184a.411.411,0,0,1,.368-.368l25.232-4.912A.458.458,0,0,1,5658.552,2999.625Z" transform="translate(-5569.144 -2929.249)" fill="#26395a"/>
        <path id="Trazado_106150" data-name="Trazado 106150" d="M5661.217,3003.187l.68-.128c.136,0,.225-.112.2-.2l-.88-2.833c0-.088-.16-.128-.3-.1l-.671.128c-.137,0-.225.12-.2.2l.881,2.84C5660.954,3003.172,5661.091,3003.219,5661.217,3003.187Z" transform="translate(-5574.65 -2929.332)" fill="#d9a171"/>
        <path id="Trazado_106151" data-name="Trazado 106151" d="M5641.079,3015.321l-5.208-1.936.8,4.952s3.775,1.36,5.7-.384Z" transform="translate(-5569.814 -2932.025)" fill="#ffd2b1"/>
        <path id="Trazado_106152" data-name="Trazado 106152" d="M5629.362,3014.7l-1.24,3.248,7,.392-.8-4.952Z" transform="translate(-5568.266 -2932.025)" fill="#ffd2b1"/>
        <path id="Trazado_106153" data-name="Trazado 106153" d="M5636.068,3008.088l.68-.128c.128,0,.224-.112.191-.2l-.879-2.832c0-.088-.153-.128-.289-.1l-.68.128c-.135,0-.224.12-.192.2l.879,2.84C5635.8,3008.072,5635.931,3008.119,5636.068,3008.088Z" transform="translate(-5569.62 -2930.312)" fill="#d9a171"/>
        <path id="Trazado_106154" data-name="Trazado 106154" d="M5648.646,3005.628l.672-.129c.136,0,.224-.112.2-.2l-.88-2.832c0-.088-.16-.128-.3-.1l-.671.128c-.137,0-.225.12-.2.2l.879,2.84A.257.257,0,0,0,5648.646,3005.628Z" transform="translate(-5572.135 -2929.819)" fill="#d9a171"/>
        <path id="Trazado_106155" data-name="Trazado 106155" d="M5643.6,2950.861c.568-.216,1.281,1.784,1.1,2.04-.409.584-7.881,2.624-8.216,1.48a5,5,0,0,1,.28-1.824C5636.987,2952.173,5638.643,2952.877,5643.6,2950.861Z" transform="translate(-5569.938 -2919.517)" fill="#d9a171"/>
        <path id="Trazado_106156" data-name="Trazado 106156" d="M5643.785,2950.6c.289-.664,1.112-1.728,1.832-1.121s1.024,1.921.552,2.136S5643.29,2951.712,5643.785,2950.6Z" transform="translate(-5571.384 -2919.208)" fill="#d9a171"/>
        <path id="Trazado_106157" data-name="Trazado 106157" d="M5645.664,2951.153c.5-.528,1.6-1.255,2.1-.44s.32,2.152-.191,2.192S5644.824,2952.025,5645.664,2951.153Z" transform="translate(-5571.736 -2919.417)" fill="#d9a171"/>
        <path id="Trazado_106158" data-name="Trazado 106158" d="M5646.05,2950.271a2.219,2.219,0,0,1,1.111-2.136c.912-.592,1.8-.976,2.152-1.6a4.419,4.419,0,0,1,.088,1.792c-.184.856-3.024,1.513-2.832,2.256Z" transform="translate(-5571.85 -2918.655)" fill="#d9a171"/>
        <path id="Trazado_106159" data-name="Trazado 106159" d="M5645.782,2949.931a2.218,2.218,0,0,1-.224-2.4,7.112,7.112,0,0,0,.944-2.5,4.45,4.45,0,0,1,1.048,1.456c.3.8-1.72,2.9-1.152,3.432Z" transform="translate(-5571.702 -2918.355)" fill="#d9a171"/>
        <path id="Trazado_106160" data-name="Trazado 106160" d="M5705.37,3118.431a.1.1,0,0,1-.08-.048c-.184-.256-18.472-26.353-25.177-49.28a336.065,336.065,0,0,1-10.064-44.864c-1.383-8.544-2.223-13.7-4.975-17.936a.1.1,0,0,1,.136-.144c2.784,4.271,3.623,9.448,5.008,18.016a336.981,336.981,0,0,0,10.08,44.8c6.7,22.9,24.968,48.96,25.152,49.225a.111.111,0,0,1,0,.135A.1.1,0,0,1,5705.37,3118.431Z" transform="translate(-5575.65 -2930.575)" fill="#d9a171"/>
        <path id="Trazado_106161" data-name="Trazado 106161" d="M5705.37,3118.431a.1.1,0,0,1-.08-.048c-.184-.256-18.472-26.353-25.177-49.28a336.065,336.065,0,0,1-10.064-44.864c-1.383-8.544-2.223-13.7-4.975-17.936a.1.1,0,0,1,.136-.144c2.784,4.271,3.623,9.448,5.008,18.016a336.981,336.981,0,0,0,10.08,44.8c6.7,22.9,24.968,48.96,25.152,49.225a.111.111,0,0,1,0,.135A.1.1,0,0,1,5705.37,3118.431Z" transform="translate(-5575.65 -2930.575)" fill="#344154" opacity="0.4" style="isolation: isolate"/>
        <path id="Trazado_106162" data-name="Trazado 106162" d="M5669.946,3169.445l-12.224,1.584-.8-3.408,12.728-2.7Z" transform="translate(-5574.026 -2962.333)" fill="#d9a171"/>
        <path id="Trazado_106163" data-name="Trazado 106163" d="M5717.027,3145.02l-9.017,5.208-3.04-2.6,9.863-6.672Z" transform="translate(-5583.634 -2957.539)" fill="#d9a171"/>
        <path id="Trazado_106164" data-name="Trazado 106164" d="M5661.854,2964.575c.432,2.224.68,4.32.919,6.488s.328,4.312.393,6.48a63.759,63.759,0,0,1-.145,6.552c-.088,1.1-.183,2.192-.336,3.3-.064.544-.136,1.1-.24,1.648l-.3,1.7a10.654,10.654,0,0,1-1.768,3.832,23.775,23.775,0,0,1-2.272,2.728,45.259,45.259,0,0,1-4.96,4.4,82.8,82.8,0,0,1-10.77,7.032l-1.712-2.656q2.4-1.909,4.8-3.92c1.6-1.336,3.121-2.687,4.584-4.1a50.089,50.089,0,0,0,4.089-4.312,18.98,18.98,0,0,0,1.6-2.224,5.538,5.538,0,0,0,.8-1.864,52.569,52.569,0,0,0,.456-5.856v-3c0-1-.04-2.016-.087-3.023-.1-2.016-.28-4-.5-6.048s-.5-4.072-.8-5.969Z" transform="translate(-5570.773 -2922.263)" fill="#ffd2b1"/>
        <path id="Trazado_106165" data-name="Trazado 106165" d="M5663.712,2955.655c3.416,2.768,2.6,10.993,2.6,10.993l-11.52,3.792s.528-9.48,1.1-12.888C5656.568,2953.5,5660.343,2952.927,5663.712,2955.655Z" transform="translate(-5573.601 -2920.143)" fill="#d9a171"/>
        <path id="Trazado_106166" data-name="Trazado 106166" d="M5663.712,2955.655c3.416,2.768,2.6,10.993,2.6,10.993l-11.52,3.792s.528-9.48,1.1-12.888C5656.568,2953.5,5660.343,2952.927,5663.712,2955.655Z" transform="translate(-5573.601 -2920.143)" fill="#344154" opacity="0.2" style="isolation: isolate"/>
      </g>
    </g>
  </g>
</svg>
